<?xml version="1.0" encoding="UTF-8"?> <svg xmlns="http://www.w3.org/2000/svg" xmlns:xlink="http://www.w3.org/1999/xlink" width="141px" height="72px" viewBox="0 0 141 72"><!-- Generator: Sketch 50.2 (55047) - http://www.bohemiancoding.com/sketch --><title>TLL logo</title><desc>Created with Sketch.</desc><defs></defs><g id="TLL-logo" stroke="none" stroke-width="1" fill="none" fill-rule="evenodd"><g id="Group"><polygon id="Fill-1" fill="#4A191B" points="0.0732328767 71.947726 140.940986 71.947726 140.940986 0.0885205479 0.0732328767 0.0885205479"></polygon><polygon id="Fill-2" fill="#CEE9E7" points="0.0732328767 71.947726 140.940986 71.947726 140.940986 0.0885205479 0.0732328767 0.0885205479"></polygon><polygon id="Fill-4" fill="#FFFFFE" points="6.13306849 10.633611 51.9748767 10.633611 51.9748767 23.8278575 36.8457534 23.8278575 36.8457534 61.253063 21.2621918 61.253063 21.2621918 23.9425151 6.13306849 23.9425151"></polygon><polygon id="Fill-5" fill="#4A191B" points="7.27143288 11.6554438 51.0649397 11.6554438 51.0649397 22.9167863 35.4002548 22.9167863 35.4002548 59.4306493 22.3998164 59.4306493 22.3998164 22.8864575 7.27143288 22.8864575"></polygon><path d="M21.1079589,61.1296767 L36.8776849,61.1296767 L36.8776849,24.0558411 L52.1503151,24.0558411 L52.1503151,10.5689096 L6.07105479,10.5689096 L6.07105479,24.0809918 L21.1079589,24.0809918 L21.1079589,61.1296767 Z M37.1242603,61.3762521 L20.8613836,61.3762521 L20.8613836,24.3275671 L5.82447945,24.3275671 L5.82447945,10.3223342 L52.3968904,10.3223342 L52.3968904,24.3024164 L37.1242603,24.3024164 L37.1242603,61.3762521 Z" id="Fill-6" fill="#4A191B"></path><polygon id="Fill-7" fill="#FFFFFE" points="54.4343918 10.633611 70.6997342 10.633611 70.6997342 47.4887342 93.905926 47.4887342 93.905926 61.253063 54.4343918 61.253063"></polygon><polygon id="Fill-8" fill="#4A191B" points="55.8578712 11.6554438 69.0952685 11.6554438 69.0952685 49.1953068 91.9715425 49.1953068 91.9715425 60.0007315 55.8578712 60.0007315"></polygon><path d="M54.5576795,61.2344219 L93.3866384,61.2344219 L93.3866384,47.7142027 L70.3838712,47.7142027 L70.3838712,10.5688603 L54.5576795,10.5688603 L54.5576795,61.2344219 Z M93.6332137,61.4809973 L54.3111041,61.4809973 L54.3111041,10.3222849 L70.6304466,10.3222849 L70.6304466,47.4676274 L93.6332137,47.4676274 L93.6332137,61.4809973 Z" id="Fill-9" fill="#4A191B"></path><polygon id="Fill-10" fill="#FFFFFE" points="95.7511726 10.633611 112.016515 10.633611 112.016515 47.4887342 135.221227 47.4887342 135.221227 61.253063 95.7511726 61.253063"></polygon><polygon id="Fill-11" fill="#4A191B" points="97.1733205 11.6554438 110.411458 11.6554438 110.411458 49.1953068 133.287732 49.1953068 133.287732 60.0007315 97.1733205 60.0007315"></polygon><path d="M95.8744603,61.2344219 L134.703173,61.2344219 L134.703173,47.7142027 L111.700652,47.7142027 L111.700652,10.5688603 L95.8744603,10.5688603 L95.8744603,61.2344219 Z M134.949748,61.4809973 L95.6278849,61.4809973 L95.6278849,10.3222849 L111.947227,10.3222849 L111.947227,47.4676274 L134.949748,47.4676274 L134.949748,61.4809973 Z" id="Fill-12" fill="#4A191B"></path></g></g></svg> 