<?xml version="1.0" encoding="UTF-8"?> <svg xmlns="http://www.w3.org/2000/svg" xmlns:xlink="http://www.w3.org/1999/xlink" id="Capa_1" x="0px" y="0px" viewBox="0 0 496 496" style="enable-background:new 0 0 496 496;" xml:space="preserve" width="512px" height="512px" class=""><g><g> <g> <path d="M488,208c4.8,0,8-3.2,8-8v-48c0-4.8-3.2-8-8-8h-32v-16h16v-16h-16V96h16V80h-48v16h16v16h-16v16h16v16h-32 c-4.8,0-8,3.2-8,8v48c0,4.8,3.2,8,8,8h16v16h-24c-2.4,0-4,0.8-5.6,2.4l-2.4,2.4l-42.4-42.4c-1.6-1.6-3.2-2.4-5.6-2.4h-8v-16h40 c4.8,0,8-3.2,8-8V80c0-4.8-3.2-8-8-8h-24V56h16V40h-16V24h16V8h-48v16h16v16h-16v16h16v16h-48V56h16V40h-16V24h16V8h-48v16h16v16 h-16v16h16v16h-24c-4.8,0-8,3.2-8,8v80c0,4.8,3.2,8,8,8h40v16h-8c-2.4,0-4,0.8-5.6,2.4L176,284.8V280c0-4.8-3.2-8-8-8h-8l-5.6-192 H184c4.8,0,8,3.2,8,8v8h-16v16h16v16h16v-16h16V96h-16v-8c0-13.6-10.4-24-24-24h-30.4L152,8c0-4-4-8-8-8H80c-4,0-8,3.2-8,8 l-1.6,56H40c-13.6,0-24,10.4-24,24v8H0v16h16v16h16v-16h16V96H32v-8c0-4.8,3.2-8,8-8h29.6L64,272h-8c-4.8,0-8,3.2-8,8v24H8 c-4.8,0-8,3.2-8,8v176c0,4.8,3.2,8,8,8h480c4.8,0,8-3.2,8-8V232c0-4.8-3.2-8-8-8h-16v-16H488z M336,152h-16v-32h16V152z M368,152 h-16v-32h16V152z M272,152h-16v-32h16V152z M256,104V88h112v16H256z M304,168h16v16h-16V168z M288,152v-32h16v32H288z M283.2,200 h57.6l8,8L320,236.8l-18.4-18.4c-3.2-3.2-8-3.2-11.2,0L264,244.8L251.2,232L283.2,200z M240,243.2l18.4,18.4c3.2,3.2,8,3.2,11.2,0 l26.4-26.4l18.4,18.4c3.2,3.2,8,3.2,11.2,0l34.4-34.4l20.8,20.8l-64,64H179.2L240,243.2z M160,288v16h-16v-16H160z M140,138.4 L124,124l15.2-13.6L140,138.4z M137.6,56.8l-12-8.8l11.2-8.8L137.6,56.8z M88,16h48v4l-24,18.4L88,20V16z M87.2,39.2L98.4,48 l-12,8.8L87.2,39.2z M85.6,77.6L112,58.4l26.4,19.2v12.8L112,113.6L85.6,90.4V77.6z M84.8,111.2l15.2,13.6l-16,14.4L84.8,111.2z M84,160l28.8-25.6l28.8,25.6l0.8,23.2L112,212.8l-28.8-29.6L84,160z M142.4,244l-19.2-20l18.4-18.4L142.4,244z M81.6,205.6 l19.2,18.4l-20,20L81.6,205.6z M80,267.2l32-32l32,32v4.8h-8c-4.8,0-8,3.2-8,8v24H96v-24c0-4.8-3.2-8-8-8h-8V267.2z M64,288h16v16 H64V288z M480,480H16v-12.8l8.8-8.8c1.6-1.6,4-2.4,5.6-2.4h2.4c2.4,0,4,0.8,5.6,2.4l6.4,6.4c5.6,4.8,11.2,7.2,17.6,7.2h2.4 c6.4,0,12.8-2.4,16.8-7.2l6.4-6.4c1.6-1.6,3.2-2.4,5.6-2.4H96c2.4,0,4,0.8,5.6,2.4l6.4,6.4c4.8,4.8,10.4,7.2,16.8,7.2h2.4 c6.4,0,12.8-2.4,16.8-7.2l6.4-6.4c1.6-1.6,3.2-2.4,5.6-2.4h2.4c2.4,0,4,0.8,5.6,2.4l6.4,6.4c4.8,4.8,10.4,7.2,16.8,7.2h2.4 c6.4,0,12.8-2.4,16.8-7.2l6.4-6.4c1.6-1.6,3.2-2.4,5.6-2.4h2.4c2.4,0,4,0.8,5.6,2.4l6.4,6.4c4.8,4.8,10.4,7.2,16.8,7.2h2.4 c6.4,0,12.8-2.4,16.8-7.2l6.4-6.4c1.6-1.6,3.2-2.4,5.6-2.4h2.4c2.4,0,4,0.8,5.6,2.4l6.4,6.4c4.8,4.8,10.4,7.2,16.8,7.2h2.4 c6.4,0,12.8-2.4,16.8-7.2l6.4-6.4c1.6-1.6,3.2-2.4,5.6-2.4h2.4c2.4,0,4,0.8,5.6,2.4l6.4,6.4c4.8,4.8,10.4,7.2,16.8,7.2h2.4 c6.4,0,12.8-2.4,16.8-7.2l6.4-6.4c1.6-1.6,3.2-2.4,5.6-2.4h2.4c2.4,0,4,0.8,5.6,2.4l6.4,6.4c4.8,4.8,10.4,7.2,16.8,7.2h2.4 c6.4,0,12.8-2.4,16.8-7.2l6.4-6.4c1.6-1.6,3.2-2.4,5.6-2.4h12V480z M480,440h-1.6c-6.4,0-12.8,2.4-16.8,7.2l-6.4,6.4 c-1.6,1.6-3.2,2.4-5.6,2.4h-2.4c-2.4,0-4-0.8-5.6-2.4l-6.4-6.4c-5.6-4.8-11.2-7.2-17.6-7.2h-2.4c-6.4,0-12.8,2.4-16.8,7.2 l-6.4,6.4c-1.6,1.6-3.2,2.4-5.6,2.4H384c-2.4,0-4-0.8-5.6-2.4l-6.4-6.4c-6.4-4.8-12-7.2-18.4-7.2h-2.4c-6.4,0-12.8,2.4-16.8,7.2 l-6.4,6.4c-1.6,1.6-3.2,2.4-5.6,2.4H320c-2.4,0-4-0.8-5.6-2.4l-6.4-6.4c-6.4-4.8-12-7.2-18.4-7.2h-2.4c-6.4,0-12.8,2.4-16.8,7.2 l-6.4,6.4c-1.6,1.6-3.2,2.4-5.6,2.4H256c-2.4,0-4-0.8-5.6-2.4l-6.4-6.4c-6.4-4.8-12-7.2-18.4-7.2h-2.4c-6.4,0-12.8,2.4-16.8,7.2 l-6.4,6.4c-1.6,1.6-3.2,2.4-5.6,2.4H192c-2.4,0-4-0.8-5.6-2.4l-6.4-6.4c-6.4-4.8-12-7.2-18.4-7.2h-2.4c-6.4,0-12.8,2.4-16.8,7.2 l-6.4,6.4c-1.6,1.6-3.2,2.4-5.6,2.4H128c-2.4,0-4-0.8-5.6-2.4l-6.4-6.4c-6.4-4.8-12-7.2-18.4-7.2h-2.4c-6.4,0-12.8,2.4-16.8,7.2 l-6.4,6.4c-2.4,1.6-4.8,2.4-6.4,2.4h-3.2c-2.4,0-4-0.8-5.6-2.4l-6.4-6.4c-4.8-4.8-10.4-7.2-16.8-7.2h-3.2 c-5.6,0-10.4,1.6-14.4,4.8v-17.6l8.8-8.8c1.6-1.6,4-2.4,5.6-2.4h2.4c2.4,0,4,0.8,5.6,2.4l6.4,6.4c5.6,4.8,11.2,7.2,17.6,7.2h2.4 c6.4,0,12.8-2.4,16.8-7.2l6.4-6.4c1.6-1.6,3.2-2.4,5.6-2.4H96c2.4,0,4,0.8,5.6,2.4l6.4,6.4c4.8,4.8,10.4,7.2,16.8,7.2h2.4 c6.4,0,12.8-2.4,16.8-7.2l6.4-6.4c1.6-1.6,3.2-2.4,5.6-2.4h2.4c2.4,0,4,0.8,5.6,2.4l6.4,6.4c4.8,4.8,10.4,7.2,16.8,7.2h2.4 c6.4,0,12.8-2.4,16.8-7.2l6.4-6.4c1.6-1.6,3.2-2.4,5.6-2.4h2.4c2.4,0,4,0.8,5.6,2.4l6.4,6.4c4.8,4.8,10.4,7.2,16.8,7.2h2.4 c6.4,0,12.8-2.4,16.8-7.2l6.4-6.4c1.6-1.6,3.2-2.4,5.6-2.4h2.4c2.4,0,4,0.8,5.6,2.4l6.4,6.4c4.8,4.8,10.4,7.2,16.8,7.2h2.4 c6.4,0,12.8-2.4,16.8-7.2l6.4-6.4c1.6-1.6,3.2-2.4,5.6-2.4h2.4c2.4,0,4,0.8,5.6,2.4l6.4,6.4c4.8,4.8,10.4,7.2,16.8,7.2h2.4 c6.4,0,12.8-2.4,16.8-7.2l6.4-6.4c1.6-1.6,3.2-2.4,5.6-2.4h2.4c2.4,0,4,0.8,5.6,2.4l6.4,6.4c4.8,4.8,10.4,7.2,16.8,7.2h2.4 c6.4,0,12.8-2.4,16.8-7.2l6.4-6.4c1.6-1.6,3.2-2.4,5.6-2.4h12V440z M480,240v160h-1.6c-6.4,0-12.8,2.4-16.8,7.2l-6.4,6.4 c-1.6,1.6-3.2,2.4-5.6,2.4h-2.4c-2.4,0-4-0.8-5.6-2.4l-6.4-6.4c-5.6-4.8-11.2-7.2-17.6-7.2h-2.4c-6.4,0-12.8,2.4-16.8,7.2 l-6.4,6.4c-1.6,1.6-3.2,2.4-5.6,2.4H384c-2.4,0-4-0.8-5.6-2.4l-6.4-6.4c-6.4-4.8-12-7.2-18.4-7.2h-2.4c-6.4,0-12.8,2.4-16.8,7.2 l-6.4,6.4c-1.6,1.6-3.2,2.4-5.6,2.4H320c-2.4,0-4-0.8-5.6-2.4l-6.4-6.4c-6.4-4.8-12-7.2-18.4-7.2h-2.4c-6.4,0-12.8,2.4-16.8,7.2 l-6.4,6.4c-1.6,1.6-3.2,2.4-5.6,2.4H256c-2.4,0-4-0.8-5.6-2.4l-6.4-6.4c-6.4-4.8-12-7.2-18.4-7.2h-2.4c-6.4,0-12.8,2.4-16.8,7.2 l-6.4,6.4c-1.6,1.6-3.2,2.4-5.6,2.4H192c-2.4,0-4-0.8-5.6-2.4l-6.4-6.4c-6.4-4.8-12-7.2-18.4-7.2h-2.4c-6.4,0-12.8,2.4-16.8,7.2 l-6.4,6.4c-1.6,1.6-3.2,2.4-5.6,2.4H128c-2.4,0-4-0.8-5.6-2.4l-6.4-6.4c-6.4-4.8-12-7.2-18.4-7.2h-2.4c-6.4,0-12.8,2.4-16.8,7.2 l-6.4,6.4c-2.4,1.6-4.8,2.4-6.4,2.4h-3.2c-2.4,0-4-0.8-5.6-2.4l-6.4-6.4c-4.8-4.8-10.4-7.2-16.8-7.2h-3.2 c-5.6,0-10.4,1.6-14.4,4.8v-17.6l8.8-8.8c1.6-1.6,4-2.4,5.6-2.4h2.4c2.4,0,4,0.8,5.6,2.4l6.4,6.4c5.6,4.8,11.2,7.2,17.6,7.2h2.4 c6.4,0,12.8-2.4,16.8-7.2l6.4-6.4c1.6-1.6,3.2-2.4,5.6-2.4H96c2.4,0,4,0.8,5.6,2.4l6.4,6.4c4.8,4.8,10.4,7.2,16.8,7.2h2.4 c6.4,0,12.8-2.4,16.8-7.2l6.4-6.4c1.6-1.6,3.2-2.4,5.6-2.4h2.4c2.4,0,4,0.8,5.6,2.4l6.4,6.4c4.8,4.8,10.4,7.2,16.8,7.2h2.4 c6.4,0,12.8-2.4,16.8-7.2l6.4-6.4c1.6-1.6,3.2-2.4,5.6-2.4h2.4c2.4,0,4,0.8,5.6,2.4l6.4,6.4c4.8,4.8,10.4,7.2,16.8,7.2h2.4 c6.4,0,12.8-2.4,16.8-7.2l6.4-6.4c1.6-1.6,3.2-2.4,5.6-2.4h2.4c2.4,0,4,0.8,5.6,2.4l11.2,11.2l11.2-11.2L300,367.2 c1.6-4.8-4-7.2-10.4-7.2h-2.4c-6.4,0-12.8,2.4-16.8,7.2l-6.4,6.4c-1.6,1.6-3.2,2.4-5.6,2.4H256c-2.4,0-4-0.8-5.6-2.4l-6.4-6.4 c-6.4-4.8-12-7.2-18.4-7.2h-2.4c-6.4,0-12.8,2.4-16.8,7.2l-6.4,6.4c-1.6,1.6-3.2,2.4-5.6,2.4H192c-2.4,0-4-0.8-5.6-2.4l-6.4-6.4 c-6.4-4.8-12-7.2-18.4-7.2h-2.4c-6.4,0-12.8,2.4-16.8,7.2l-6.4,6.4c-1.6,1.6-3.2,2.4-5.6,2.4H128c-2.4,0-4-0.8-5.6-2.4l-6.4-6.4 c-6.4-4.8-12-7.2-18.4-7.2h-2.4c-6.4,0-12.8,2.4-16.8,7.2l-6.4,6.4c-2.4,1.6-4.8,2.4-6.4,2.4h-3.2c-2.4,0-4-0.8-5.6-2.4l-6.4-6.4 c-4.8-4.8-10.4-7.2-16.8-7.2h-3.2c-5.6,0-10.4,1.6-14.4,4.8V320h304c2.4,0,4-0.8,5.6-2.4l77.6-77.6H440v16c0,8.8-7.2,16-16,16 c-17.6,0-32,14.4-32,32h-8c-4.8,0-8,3.2-8,8v24h-32c-4.8,0-8,3.2-8,8v32c0,4.8,3.2,8,8,8h112c4.8,0,8-3.2,8-8v-32c0-4.8-3.2-8-8-8 h-32v-24c0-4.8-3.2-8-8-8h-8c0-8.8,7.2-16,16-16c17.6,0,32-14.4,32-32v-16H480z M408,336h-16v-16h16V336z M420.8,368h-25.6l-16-16 h25.6L420.8,368z M372.8,368H352v-16h4.8L372.8,368z M427.2,352H448v16h-4.8L427.2,352z M440,224v-16h16v16H440z M416,192v-32h64 v32H416z" data-original="#000000" class="active-path" data-old_color="#006bb3" fill="#006bb3"></path> </g> </g></g> </svg> 