<?xml version="1.0" encoding="UTF-8"?> <svg xmlns="http://www.w3.org/2000/svg" height="512px" viewBox="0 0 512 512" width="512px" class=""><g><path d="m452 0h-106c-19.761719 0-36.398438 12.886719-42.433594 30.628906-101.722656 6.464844-182.566406 91.046875-182.566406 194.371094v31c0 74.441406 60.558594 136 135 136 34.121094 0 64.964844-13.136719 88.757812-34.085938-24.941406 52.09375-76.304687 89.082032-136.710937 93.476563-6.375-17.109375-22.742187-29.390625-42.046875-29.390625h-106v30h-60v30h60v30h106c19.761719 0 36.398438-12.886719 42.433594-30.628906 101.722656-6.464844 182.566406-92.046875 182.566406-195.371094v-30c0-74.441406-60.558594-136-135-136-34.121094 0-64.964844 13.136719-88.757812 34.085938 24.941406-52.09375 76.304687-89.082032 136.710937-93.476563 6.375 17.109375 22.742187 29.390625 42.046875 29.390625h106v-30h60v-30h-60zm-196 150c57.890625 0 105 48.109375 105 106s-47.109375 106-105 106c-29.273438 0-55.726562-12.101562-74.789062-31.496094 4.785156.960938 9.722656 1.496094 14.789062 1.496094 41.351562 0 75-34.648438 75-76s-33.648438-76-75-76c-5.066406 0-10.003906.535156-14.789062 1.496094 19.0625-19.394532 45.515624-31.496094 74.789062-31.496094zm-60 60c24.8125 0 45 21.1875 45 46s-20.1875 46-45 46c-24.808594 0-45-21.179688-45-46 0-24.8125 20.179688-46 45-46zm0 0" data-original="#000000" class="active-path" data-old_color="#006bb3" fill="#006bb3"></path></g></svg> 