<?xml version="1.0" encoding="UTF-8"?> <svg xmlns="http://www.w3.org/2000/svg" xmlns:xlink="http://www.w3.org/1999/xlink" width="119px" height="72px" viewBox="0 0 119 72"><!-- Generator: Sketch 50.2 (55047) - http://www.bohemiancoding.com/sketch --><title>CM LOGO</title><desc>Created with Sketch.</desc><defs></defs><g id="CM-LOGO" stroke="none" stroke-width="1" fill="none" fill-rule="evenodd"><g id="Group"><path d="M118.832805,59.0356404 C117.478849,26.7307596 91.4158661,0.966649541 59.4504828,0.966649541 C27.4791494,0.966649541 1.42211611,26.7307596 0.0688216667,59.0382826 C0.0615494444,59.1710532 0.0807216667,59.3038239 0.0807216667,59.4365945 C0.0807216667,66.0705028 5.32597722,71.4559706 11.8246994,71.4559706 L107.057094,71.4559706 C113.549866,71.4559706 118.827516,66.0705028 118.827516,59.4365945 C118.827516,59.3038239 118.838094,59.1710532 118.832805,59.0356404" id="Fill-1" fill="#EE4023"></path><g id="Group-6" transform="translate(0.000000, 0.422092)"><path d="M118.832805,58.6135486 C117.478849,26.3086679 91.4158661,0.544557798 59.4504828,0.544557798 C27.4791494,0.544557798 1.42211611,26.3086679 0.0688216667,58.6161908 C0.0615494444,58.7489615 0.0807216667,58.8817321 0.0807216667,59.0145028 C0.0807216667,65.648411 5.32597722,71.0338789 11.8246994,71.0338789 L107.057094,71.0338789 C113.549866,71.0338789 118.827516,65.648411 118.827516,59.0145028 C118.827516,58.8817321 118.838094,58.7489615 118.832805,58.6135486" id="Fill-3" fill="#DA2128"></path><path d="M118.832805,58.6135486 C117.478849,26.3086679 91.4158661,0.544557798 59.4504828,0.544557798 C27.4791494,0.544557798 1.42211611,26.3086679 0.0688216667,58.6161908 C0.0615494444,58.7489615 0.0807216667,58.8817321 0.0807216667,59.0145028 C0.0807216667,65.648411 5.32597722,71.0338789 11.8246994,71.0338789 L107.057094,71.0338789 C113.549866,71.0338789 118.827516,65.648411 118.827516,59.0145028 C118.827516,58.8817321 118.838094,58.7489615 118.832805,58.6135486" id="Stroke-5" stroke="#FFFFFF" stroke-width="0.5"></path></g><path d="M3.25068333,59.0330642 C4.60397778,28.5275229 29.2402833,4.21794495 59.4504167,4.21794495 C89.6612111,4.21794495 114.288922,28.5248807 115.652794,59.030422 C115.660067,59.1658349 115.644861,59.3025688 115.644861,59.4366606 C115.644861,64.2771743 111.795872,68.2147156 107.057028,68.2147156 L11.8219889,68.2147156 C7.08380556,68.2147156 3.2606,64.2771743 3.2606,59.4366606 C3.2606,59.3038899 3.24275,59.1658349 3.25068333,59.0330642" id="Fill-7" fill="#FFFFFF"></path><path d="M113.084246,59.0356404 C113.094823,59.1657688 113.097468,59.3038239 113.097468,59.4365945 C113.097468,62.8443743 110.375012,65.6153835 107.038384,65.6153835 L11.8152456,65.6153835 C8.47861778,65.6153835 5.79450667,62.8443743 5.79450667,59.4365945 C5.79450667,59.3143927 5.78392889,59.1750165 5.78921778,59.0521541 C7.48562889,29.9971817 30.6350956,6.81186055 59.4410289,6.81186055 C88.2489456,6.81186055 111.763346,29.9621725 113.113996,59.0356404 M94.6729622,59.4365945 C94.6729622,61.0483376 95.9257678,62.362833 97.5071456,62.362833 L107.050946,62.3654752 C108.631001,62.3654752 109.973718,61.008044 109.936696,59.3982826 C109.283518,32.1373651 86.60344,10.0604477 59.4463178,10.0604477 C32.3123344,10.0604477 10.2556844,31.893622 8.96850111,59.2965578 C8.96585667,59.3401541 8.98040111,59.3890349 8.98040111,59.4365945 C8.98040111,61.0496587 10.2477511,62.3654752 11.82979,62.3654752 L21.28434,62.3654752 C22.8630733,62.3654752 24.2157067,61.0430532 24.2157067,59.4319706 C24.2157067,40.5402275 40.6998511,25.642833 59.4463178,25.642833 C78.1967511,25.642833 93.5332067,40.5739156 94.6703178,59.424044" id="Fill-9" fill="#399948"></path><path d="M12.84843,48.3416587 C13.2008022,47.284778 13.9306689,46.1558972 14.8482911,45.497989 C15.3322244,45.1459156 15.5417967,45.1459156 16.8805467,45.6102826 C17.2891133,45.7562642 17.4219967,46.1189064 17.2864689,46.5185394 C16.9559133,47.5106862 14.8317633,46.3857688 14.1071856,48.5517138 C13.5650744,50.1760073 14.8469689,51.572411 17.0061578,52.3214752 C19.8006744,53.2957872 21.1969411,52.3994202 21.6881467,50.9283743 C22.2500911,49.2380257 20.8412633,48.142833 21.0792633,47.436044 C21.18438,47.1123743 21.5427022,46.9782826 21.8606967,47.0852917 C23.0903633,47.5159706 23.5174411,50.2268697 23.0335078,51.6688514 C21.9076356,55.0502092 19.1349356,56.6632734 16.10308,55.6077138 C13.1069244,54.5680073 11.92618,51.1027596 12.84843,48.3416587" id="Fill-11" fill="#DA2128"></path><path d="M20.9806256,40.8214899 L22.5289478,38.3080954 L20.5376811,37.0325725 C19.8964033,36.6170862 19.8058311,37.4104073 19.1896756,37.0167193 C18.88887,36.8258202 18.8075533,36.5602789 19.1691811,35.9704073 L20.7175033,33.4563523 C21.0817756,32.870444 21.3488644,32.836756 21.6457033,33.0263339 C22.2651644,33.4213431 21.6040533,33.8493798 22.2420256,34.2595817 L28.0247644,37.9738569 C28.6633978,38.3847193 28.7566144,37.5920587 29.37277,37.9870679 C29.6682867,38.1766459 29.7542311,38.4421872 29.3952478,39.0294165 L27.8422978,41.542811 C27.4793478,42.132022 27.2109367,42.1683523 26.9167422,41.9761321 C26.29662,41.5837651 26.9597144,41.1530862 26.3184367,40.7442055 L23.59532,38.9911046 L22.0456756,41.5051596 L24.7740811,43.2576 C25.4094089,43.6664807 25.5039478,42.8724991 26.1194422,43.2701505 C26.4142978,43.4623706 26.5022256,43.7246092 26.1366311,44.3138202 L24.5916144,46.8285358 C24.22602,47.4151046 23.95827,47.452756 23.6601089,47.2592147 C23.0459367,46.8655266 23.7037422,46.4361688 23.06577,46.025967 L17.2810478,42.3130128 C16.6410922,41.9041321 16.5525033,42.6934899 15.9323811,42.3011229 C15.6375256,42.1075817 15.5522422,41.8446826 15.9165144,41.2574532 L17.4641756,38.7420771 C17.82382,38.1561688 18.0981811,38.1171963 18.3930367,38.3080954 C19.0098533,38.7044257 18.3467589,39.1337835 18.9893589,39.5439853 L20.9806256,40.8214899 Z" id="Fill-13" fill="#DA2128"></path><path d="M33.7670433,32.9490495 C34.9101044,31.8822606 34.4625322,30.2876917 32.68811,28.3047193 C30.9110433,26.3204257 29.39776,25.7180037 28.2513933,26.7834716 C27.1103156,27.8489394 27.5611933,29.4461505 29.3362767,31.4291229 C31.1106989,33.4134165 32.6259656,34.0145174 33.7670433,32.9490495 M35.1474433,26.0053431 C37.4150544,28.5392147 36.7764211,31.8849028 34.6185544,33.8962789 C32.4606878,35.9122789 29.1412489,36.2597284 26.8736378,33.7298202 C24.6066878,31.1959486 25.2426767,27.8489394 27.4005433,25.8349211 C29.5630378,23.8228844 32.8824767,23.4754349 35.1474433,26.0053431" id="Fill-15" fill="#DA2128"></path><path d="M41.7771978,26.3035156 C42.1540311,26.9733138 42.6022644,26.3114422 42.96257,26.9574606 C43.1384256,27.2685798 43.0928089,27.5446899 42.5017756,27.8901578 L39.9829422,29.3704514 C39.3938922,29.7212037 39.1380422,29.6214606 38.9621867,29.3123229 C38.5979144,28.6682862 39.3819922,28.6075156 39.0011922,27.9344147 L35.5911811,21.8910385 C35.2110422,21.223222 34.76942,21.8811303 34.40647,21.2357725 C34.2306144,20.9272954 34.2775533,20.6538275 34.8672644,20.3057174 L37.3867589,18.8234422 C37.9791144,18.4759927 38.2303367,18.5770569 38.4075144,18.8842128 C38.7684811,19.5302312 37.9896922,19.5896807 38.3704922,20.2608 L41.7771978,26.3035156 Z" id="Fill-17" fill="#DA2128"></path><path d="M46.2196661,14.8290275 C47.2569494,14.4881835 48.5824772,14.4108991 49.6468661,14.7656147 C50.2134383,14.9565138 50.3337606,15.1269358 50.770755,16.4982385 C50.9062828,16.9216514 50.6980328,17.2466422 50.3059939,17.3721468 C49.3262272,17.6984587 48.9447661,15.2828257 46.8106994,15.9902752 C45.2101494,16.5167339 44.8795939,18.3973211 45.5803717,20.6128073 C46.4847717,23.4855413 48.0192106,24.089945 49.4690272,23.6110459 C51.1356883,23.062789 51.1528772,21.2528807 51.8516717,21.0269725 C52.1696661,20.9212844 52.4863383,21.1326606 52.5888106,21.4576514 C52.990105,22.7206239 51.1171772,24.6897248 49.693805,25.1633394 C46.3690772,26.2558899 43.446305,24.9513028 42.4612494,21.8381284 C41.4894161,18.7639266 43.499855,15.7253945 46.2196661,14.8290275" id="Fill-19" fill="#DA2128"></path><path d="M53.9812428,15.0122642 C53.9488483,14.2447046 53.2533594,14.617255 53.2249317,13.876778 C53.2097261,13.5194202 53.3730206,13.2987963 54.0513206,13.2703927 L60.5592983,12.9830532 C61.3056928,12.9520073 61.6481483,13.1336587 61.6739317,13.791567 L61.7036817,14.4481541 C61.729465,15.0499156 61.4035372,15.3220624 61.0981039,15.3359339 C60.0594983,15.382833 60.9070428,14.2559339 58.373665,14.3669064 C57.3482817,14.4111633 57.165815,14.5208147 57.2061428,15.5050349 L57.278865,17.221145 L58.9184206,17.1458422 C59.9728928,17.0996037 59.7461317,16.5255853 60.3047706,16.501145 C60.6796206,16.4852917 60.8739872,16.7191266 60.9182817,17.7627963 C60.9645594,18.8025028 60.7887039,19.0838972 60.4131928,19.0990899 C59.8400094,19.1255119 60.027765,18.530356 58.9765983,18.5765945 L57.338365,18.6439706 L57.4269539,20.8039706 C57.487115,22.1607413 57.7456094,22.2915303 58.9699872,22.2380257 C61.4227094,22.1310165 60.6868928,20.8323743 61.6481483,20.7894385 C62.0719206,20.7716037 62.3403317,21.0602642 62.3575206,21.5186862 C62.3700817,21.7749798 62.2801706,22.7942092 62.1314206,23.1040073 C62.0084539,23.3530349 61.7334317,23.4072 61.1562817,23.4303193 L54.4916206,23.7209615 C53.8113372,23.7493651 53.6268872,23.545255 53.6110206,23.1878972 C53.5819317,22.4460991 54.3071706,22.7585394 54.2721317,21.9856954 L53.9812428,15.0122642 Z" id="Fill-21" fill="#DA2128"></path><path d="M78.7529439,26.6983266 C78.4713106,27.4117211 79.2500994,27.3654826 78.9777217,28.0504734 C78.8494661,28.386033 78.6074994,28.5188037 77.9754772,28.2565651 L75.2781439,27.1448587 C74.6454606,26.8879046 74.5641439,26.6197211 74.6930606,26.2920881 C74.9667606,25.6004917 75.4963106,26.1890422 75.7819106,25.4703633 L77.7705328,20.4336661 L77.7467328,20.4257394 L74.2170606,24.6275009 C73.916255,24.9795743 73.6088383,24.9941064 72.8207939,24.6677945 C72.2747161,24.4458495 71.9547383,24.2648587 71.9633328,23.5455193 L72.1028272,18.3166018 L72.0790272,18.3073541 L70.2371717,22.9695193 C69.9085994,23.7919046 70.9716661,23.9517578 70.6979661,24.642033 C70.5650828,24.9875009 70.2517161,25.0753541 69.7360494,24.8613358 L68.2776383,24.2602349 C67.8036217,24.0640514 67.5219883,23.7952073 67.6892494,23.3711339 C67.9821217,22.6293358 68.6333161,23.3876477 68.9975883,22.461556 L71.4972494,16.1513174 C71.8073106,15.3566752 70.7125106,15.6149505 71.101905,14.634033 C71.2169383,14.3414092 71.4423772,14.2806385 71.8879661,14.4662532 L74.6117439,15.5878679 C75.3138439,15.8778495 75.4229272,16.0727119 75.3607828,17.1771523 L75.1155106,21.7303266 L78.5116383,17.840345 C78.830955,17.4671339 79.1039939,17.4387303 79.5713994,17.6296294 L81.8852883,18.5861064 C82.6382939,18.8932624 82.7063883,19.1693725 82.5516883,19.5524917 C82.2766661,20.2566385 81.5699383,19.5650422 81.3471439,20.1225468 L78.7529439,26.6983266 Z" id="Fill-23" fill="#DA2128"></path><path d="M84.7016217,22.5608367 C85.167705,21.9531303 84.4034606,21.7774239 84.8543383,21.1895339 C85.0698606,20.9121028 85.3349661,20.8526532 85.869805,21.2833321 L90.9934161,25.3873321 C91.5791606,25.8556624 91.7206383,26.2262312 91.3266161,26.7421211 L90.9279661,27.2606532 C90.5676606,27.7316257 90.1491772,27.7250202 89.903905,27.5301578 C89.0894161,26.8735706 90.4473383,26.5849101 88.4501217,24.9850569 C87.642905,24.338378 87.440605,24.2974239 86.8383328,25.0755523 L85.8089828,26.4250569 L87.0994717,27.4581578 C87.9232161,28.1213505 88.1208883,27.5341211 88.5625106,27.886855 C88.8580272,28.1253138 88.8580272,28.4324697 88.2253439,29.2541945 C87.5926606,30.0745982 87.2812772,30.1723596 86.988405,29.935222 C86.5375272,29.5739009 87.0578217,29.2462679 86.2320939,28.5817541 L84.9376383,27.5486532 L83.6352494,29.2462679 C82.8148106,30.3183413 82.9278606,30.5878459 83.8957272,31.3606899 C85.8248494,32.9103413 86.0912772,31.4346716 86.851555,32.0384147 C87.1834328,32.3105615 87.2039272,32.703589 86.9249383,33.0662312 C86.7728828,33.2676991 86.0535939,33.9824147 85.744855,34.1151853 C85.4903272,34.2248367 85.2516661,34.0814972 84.7948383,33.7195156 L79.5482606,29.5131303 C79.009455,29.0824514 79.0041661,28.8050202 79.2203494,28.5249468 C79.6672606,27.9396991 80.0189717,28.6570569 80.485055,28.0493505 L84.7016217,22.5608367 Z" id="Fill-25" fill="#DA2128"></path><path d="M92.8370567,35.9189505 L94.6167678,32.9326018 L91.32179,33.9980697 L92.8370567,35.9189505 Z M89.96519,34.5502899 C89.1097122,34.8832073 88.6330511,35.0523083 88.3930678,35.2491523 C87.9567344,35.6065101 88.5471067,36.0147303 88.0856511,36.3899229 C87.7960844,36.632345 87.5025511,36.5795009 87.1488567,36.1329688 L86.2120622,34.9446385 C85.9443122,34.604455 85.9416678,34.3270239 86.2471011,34.0753541 C86.6265789,33.7615927 87.1045622,34.2054826 87.3967733,34.0753541 C88.1768844,33.7464 93.5622956,31.7541798 94.9552567,31.3955009 C95.96874,31.1378862 96.3700344,31.1431706 97.0225511,31.9695193 C97.7676233,32.9154275 97.7544011,33.0125284 97.2942678,34.0033541 C97.0820511,34.4611156 93.4287511,40.8869505 93.1114178,41.3275376 C92.8000344,41.7720881 93.2443011,42.0382899 92.7841678,42.4161248 C92.4800567,42.6691156 92.18454,42.5257761 91.8665456,42.1182165 L90.14369,39.932455 C89.77479,39.4654459 89.7199178,39.0744 89.9837011,38.8617028 C90.3188844,38.5829505 90.67919,38.9687119 90.8629789,38.8194275 C91.0256122,38.6840147 91.2034511,38.3610055 92.0549622,37.2063633 L89.96519,34.5502899 Z" id="Fill-27" fill="#DA2128"></path><path d="M104.933341,45.2324477 C105.056307,45.4854385 105.214313,45.8645945 105.095974,46.0634202 C104.968379,46.284044 104.107613,46.9868697 103.880191,47.1018055 C103.460385,47.3237505 103.073635,47.2022092 102.891168,46.8389064 C102.532846,46.1202275 103.747307,45.6888881 103.189329,44.5586862 C103.026696,44.2297321 102.854807,44.1821725 102.434341,44.4001541 L96.4797128,47.4783193 C95.802735,47.8310532 96.4235183,48.3198606 95.7703406,48.6587229 C95.4602794,48.8179156 95.1945128,48.757145 94.8818072,48.1362275 L93.5701628,45.4854385 C93.2673739,44.8671633 93.3731517,44.6095486 93.6858572,44.4483743 C94.3357294,44.1128147 94.3522572,44.9127413 95.0279128,44.5652917 L100.987168,41.4818422 C101.410279,41.2612183 101.468457,41.0947596 101.305824,40.7644844 C100.745202,39.6356037 99.6867628,40.3813651 99.331085,39.6653284 C99.1532461,39.3007046 99.2848072,38.9096587 99.7132072,38.6916771 C99.9353406,38.5714569 101.000391,38.2834569 101.246324,38.3085578 C101.476391,38.3263927 101.685302,38.6811083 101.807607,38.9367413 L104.933341,45.2324477 Z" id="Fill-29" fill="#DA2128"></path><path d="M97.1710367,55.2142239 C96.5859533,53.1037651 97.0784811,50.5698936 98.3735978,50.1966826 C98.8529033,50.0559853 99.3844367,50.2845358 99.5212867,50.7693798 C99.8498589,51.9616734 97.7871922,52.2906275 98.4370644,54.6375633 C98.7398533,55.7406826 99.5457478,56.1290862 100.140087,55.9599853 C101.973348,55.4308844 99.17222,50.3492697 102.91477,49.2666275 C104.908681,48.6926092 106.841109,49.9985174 107.541887,52.5204991 C107.918059,53.8825541 107.864509,54.6501138 107.707164,55.7558752 C107.587503,56.5406092 107.325703,56.6330862 106.126448,56.9765725 C105.680198,57.1053798 105.274276,57.0538569 105.135442,56.5558018 C104.864387,55.5742239 107.143237,55.4090862 106.556831,53.2702239 C106.269248,52.2377835 105.643837,51.8764624 105.064042,52.0416 C103.073437,52.6209028 105.735731,57.7414899 102.21267,58.7580771 C99.6640867,59.4939303 97.77397,57.3907376 97.1710367,55.2142239" id="Fill-31" fill="#DA2128"></path><path d="M28.3554522,47.985622 L31.1836856,53.6894752 L27.8616022,57.1368881 C27.8616022,57.1368881 34.0707578,59.5617688 36.8765133,57.1368881 C34.2895856,57.0668697 34.5705578,57.1368881 34.5705578,57.1368881 C34.5705578,57.1368881 37.1297189,54.361255 54.89113,58.3172917 C68.3493689,61.3102459 75.1297244,62.1709431 83.6494633,62.1927413 C86.3950578,62.1993468 89.2510578,62.0778055 91.2211689,62.8843376 C89.7918467,59.2447046 87.7205856,55.7305761 87.7205856,55.7305761 L90.0179467,50.151567 C90.0179467,50.151567 85.1323356,50.6833101 81.2238467,50.8808147 C66.8347633,51.6094018 55.2177189,46.5443009 48.1544078,45.6320807 C37.4999411,44.2568147 35.9073244,45.0389064 33.1154522,46.2919706 C33.6773967,48.3931817 33.7640022,49.2664294 33.7640022,49.2664294 C33.7640022,49.2664294 33.3190744,49.5907596 28.3554522,47.985622" id="Fill-33" fill="#FFFFFF"></path><path d="M40.3562056,49.9053138 L43.4442556,50.0380844 L43.3913667,48.0280294 C43.3755,47.382011 42.63175,47.6383046 42.6165444,47.0140844 C42.6086111,46.7161761 42.7884333,46.544433 43.5103667,46.5741578 L46.5984167,46.7069284 C47.3216722,46.7392954 47.5094278,46.9249101 47.5180222,47.2254606 C47.5332278,47.8490202 46.7762556,47.5273321 46.7921222,48.174011 L46.9421944,54.0145982 C46.9587222,54.6592954 47.7024722,54.4049835 47.7183389,55.027222 C47.7256111,55.3264514 47.5471111,55.4968734 46.8245167,55.4658275 L43.7364667,55.3330569 C43.0132111,55.3033321 42.8247944,55.1163963 42.8175222,54.8158459 C42.8016556,54.1949284 43.5592889,54.5126532 43.5434222,53.8672954 L43.4726833,51.1154422 L40.3846333,50.9826716 L40.4547111,53.7345248 C40.4719,54.379222 41.21565,54.1268917 41.2308556,54.7458275 C41.2387889,55.0450569 41.0589667,55.2181211 40.3370333,55.1870752 L37.2489833,55.0543046 C36.52705,55.0232587 36.3379722,54.8363229 36.3300389,54.5370936 C36.3141722,53.914855 37.0718056,54.235222 37.0552778,53.5885431 L36.9052056,47.7492771 C36.8873556,47.1045798 36.1449278,47.3595523 36.1277389,46.734011 C36.1217889,46.4361028 36.30095,46.2643596 37.0228833,46.2967266 L40.1109333,46.4294972 C40.8328667,46.4605431 41.0219444,46.6474789 41.0305389,46.9467083 C41.0457444,47.5689468 40.2881111,47.2492404 40.3039778,47.8965798 L40.3562056,49.9053138 Z" id="Fill-35" fill="#DA2128"></path><path d="M53.7062206,52.5617174 L52.8157039,49.6552954 L51.1569761,52.1528367 L53.7062206,52.5617174 Z M50.5599928,53.2599193 C50.1739039,53.9422679 49.9418539,54.3134972 49.9094594,54.5730936 C49.8512817,55.0440661 50.591065,54.9832954 50.5302428,55.4787083 C50.4912372,55.7951119 50.2307594,55.9225982 49.6397261,55.8294606 L48.0629761,55.5751486 C47.6120983,55.5018275 47.4031872,55.3241394 47.4441761,54.9951853 C47.4944206,54.5823413 48.181315,54.6081028 48.2989928,54.3630385 C48.6361594,53.7190018 51.1569761,49.4729835 51.9265094,48.4781945 C52.489115,47.7535706 52.7885983,47.535589 53.887365,47.711956 C55.1414928,47.914745 55.2049594,47.9827817 55.5976594,48.8745248 C55.7768206,49.2886899 57.832215,55.4476624 57.9188206,55.906745 C58.0199706,56.3691303 58.546215,56.2951486 58.4847317,56.7905615 C58.4444039,57.1208367 58.1204594,57.1895339 57.5842983,57.1030018 L54.6833428,56.6373138 C54.0632206,56.5382312 53.7306817,56.3162862 53.7657206,56.0335706 C53.8106761,55.6682862 54.3646872,55.7211303 54.3898094,55.5209835 C54.4116261,55.3432954 54.3045261,55.0387817 54.0817317,53.8246899 L50.5599928,53.2599193 Z" id="Fill-37" fill="#DA2128"></path><path d="M60.4761967,50.527156 C60.6057744,49.9002936 59.8091356,50.0125872 59.9347467,49.408844 C59.9942467,49.1182018 60.2130744,48.9854312 60.9224467,49.1452844 L63.9615744,49.8329174 C64.6735911,49.9954128 64.8177133,50.2100917 64.7588744,50.5000734 C64.6326022,51.1024954 63.9516578,50.6572844 63.8227411,51.2854679 L62.7173633,56.6101651 C62.5778689,57.2839266 62.7233133,57.3532844 63.7420856,57.583156 C65.4556856,57.9715596 65.4206467,56.5910092 66.4539633,56.8255046 C66.8017078,56.9014679 67.0813578,57.1729541 67.01723,57.486055 C66.9484744,57.8110459 66.4314856,58.617578 66.1881967,58.8784954 C65.9627578,59.1182752 65.79748,59.1427156 65.22628,59.0139083 L59.1605856,57.6412844 C58.4512133,57.4781284 58.3057689,57.2641101 58.36593,56.9728073 C58.49088,56.3703853 59.1711633,56.8162569 59.3020633,56.1893945 L60.4761967,50.527156 Z" id="Fill-39" fill="#DA2128"></path><path d="M73.0172761,56.2953468 L72.0011483,53.4107229 L70.458115,55.9743193 L73.0172761,56.2953468 Z M69.9146817,57.1045211 C69.5603261,57.8020624 69.3448039,58.1825394 69.3243094,58.4421358 C69.2866261,58.9183927 70.0217817,58.8292183 69.9827761,59.3285945 C69.9569928,59.6483009 69.7037872,59.7837138 69.1114317,59.7117138 L67.5280706,59.511567 C67.0765317,59.4560807 66.8603483,59.2856587 66.8867928,58.9527413 C66.9185261,58.5379156 67.6040983,58.5398972 67.7098761,58.2902092 C68.0172928,57.6342826 70.3404372,53.2878606 71.0636928,52.2646679 C71.5925817,51.5156037 71.8808261,51.2896954 72.9835594,51.4277505 C74.2429761,51.5862826 74.3084261,51.6536587 74.7394706,52.534833 C74.9344983,52.9410716 77.2549983,59.0419156 77.3620983,59.4990165 C77.4837428,59.956778 78.0046983,59.8662826 77.9663539,60.3630165 C77.9392483,60.6959339 77.6186094,60.7771817 77.0824483,60.709145 L74.170915,60.3425394 C73.5494706,60.2665761 73.2089983,60.0545394 73.230815,59.7711633 C73.2592428,59.4045578 73.8125928,59.4369248 73.8297817,59.2341358 C73.8430039,59.0577688 73.7233428,58.7545761 73.4469983,57.5470899 L69.9146817,57.1045211 Z" id="Fill-41" fill="#DA2128"></path><path d="M78.883315,53.5203083 C78.8231539,52.8729688 78.1018817,53.169556 78.0437039,52.5459963 C78.0165983,52.2441248 78.1831983,52.0637945 78.9031483,52.0558679 L81.9826039,52.0235009 C82.7018928,52.0162349 82.9022094,52.195244 82.9299761,52.4931523 C82.9868317,53.1167119 82.2120094,52.8379596 82.2715094,53.483978 L82.7792428,58.9830606 C82.8427094,59.6753174 83.0013761,59.7116477 84.0313872,59.7010789 C85.7687872,59.6819229 85.333115,58.3324183 86.3776706,58.3198679 C86.7307039,58.3172257 87.0744817,58.518033 87.1048928,58.8410422 C87.1353039,59.1766018 86.8814372,60.0894826 86.725415,60.403244 C86.582615,60.6919046 86.4325428,60.7553174 85.8540706,60.7606018 L79.7110261,60.8253358 C78.9910761,60.8339229 78.7907594,60.6549138 78.7636539,60.3556844 C78.7061372,59.7321248 79.4809594,60.0108771 79.4214594,59.3661798 L78.883315,53.5203083 Z" id="Fill-43" fill="#DA2128"></path></g></g></svg> 