<?xml version="1.0" encoding="UTF-8"?> <svg xmlns="http://www.w3.org/2000/svg" xmlns:xlink="http://www.w3.org/1999/xlink" width="80px" height="72px" viewBox="0 0 80 72"><!-- Generator: Sketch 50.2 (55047) - http://www.bohemiancoding.com/sketch --><title>Tsavo Power Logo</title><desc>Created with Sketch.</desc><defs><path d="M0.110482759,30.4780063 C0.110482759,36.1496426 1.77156113,41.4586834 4.66374922,46.0040502 L60.9401003,45.6154984 C63.6820815,41.1571411 65.2501693,35.9886019 65.2501693,30.4780063 C65.2501693,13.6728903 50.6681379,0.0495423197 32.6804389,0.0495423197 C14.6925141,0.0495423197 0.110482759,13.6728903 0.110482759,30.4780063" id="path-1"></path><radialGradient cx="49.9999973%" cy="50.0001122%" fx="49.9999973%" fy="50.0001122%" r="61.3315577%" gradientTransform="translate(0.500000,0.500001),scale(0.705476,1.000000),translate(-0.500000,-0.500001)" id="radialGradient-3"><stop stop-color="#FEFDFC" offset="0%"></stop><stop stop-color="#C0A372" offset="100%"></stop></radialGradient></defs><g id="Tsavo-Power-Logo" stroke="none" stroke-width="1" fill="none" fill-rule="evenodd"><g id="Group"><g id="Group-21" transform="translate(0.902821, 56.026834)" fill="#1A1919"><path d="M2.42606144,8.24717116 C2.57389843,8.02970408 2.65876364,7.7724 2.6805442,7.47537179 C2.70221191,7.17845643 2.71315862,6.88763511 2.71315862,6.60324639 L2.71315862,0.868073981 L0.977484639,0.868073981 C0.829421944,0.868073981 0.679215047,0.884889028 0.527202508,0.918293417 C0.374851411,0.951697806 0.215954859,1.02697053 0.0508514107,1.1441116 L0.311879624,0.240613166 L6.87651912,0.240613166 C6.82426834,0.374456426 6.73714608,0.483246395 6.61549091,0.566757367 C6.49349718,0.650606897 6.3608953,0.713352978 6.21734671,0.754995611 C6.07379812,0.797089655 5.92144702,0.826205643 5.76063197,0.84302069 C5.59947837,0.859722884 5.45389843,0.868073981 5.3233279,0.868073981 L3.88784201,0.868073981 L3.88784201,6.60324639 C3.88784201,6.88763511 3.89856301,7.17845643 3.92045643,7.47537179 C3.94201129,7.7724 4.02687649,8.02970408 4.17493918,8.24717116 L2.42606144,8.24717116 Z" id="Fill-1"></path><path d="M7.29392727,6.67847398 C7.38962633,6.81243009 7.5005605,6.95270596 7.62672978,7.09885016 C7.75278621,7.24533292 7.90739436,7.38132038 8.08998997,7.50681254 C8.27269843,7.63219185 8.48813417,7.73691912 8.73607147,7.82043009 C8.98400878,7.90416677 9.27765141,7.94592226 9.61699937,7.94592226 C10.112874,7.94592226 10.5261404,7.81004765 10.8567987,7.53807273 C11.1873442,7.26632351 11.3527862,6.87923887 11.3527862,6.37727022 C11.3527862,6.02584702 11.2613755,5.73310721 11.0787799,5.49882508 C10.8959586,5.26476865 10.6654006,5.05768401 10.3869931,4.87768401 C10.1084727,4.69779687 9.80828464,4.53054922 9.48654169,4.37560251 C9.16446019,4.2208815 8.86438495,4.04742696 8.58597743,3.85478746 C8.3073442,3.66248652 8.07701191,3.43655549 7.89430345,3.17722006 C7.71159498,2.91799749 7.62018433,2.59569028 7.62018433,2.2108627 C7.62018433,1.85120125 7.69195862,1.53532665 7.83550721,1.26335172 C7.9790558,0.991489655 8.17045392,0.763527273 8.40981442,0.579351724 C8.64894922,0.395514734 8.92735674,0.259301567 9.24503699,0.171615047 C9.56260439,0.0835899687 9.8954069,0.0398031348 10.2434445,0.0398031348 C10.5827925,0.0398031348 10.9198834,0.0523297806 11.2549429,0.0774959248 C11.5896639,0.102436364 11.9225793,0.115075862 12.2532376,0.115075862 L12.2532376,1.28219812 C12.1052878,1.13153981 11.9681718,1.01033605 11.8422282,0.918248276 C11.7159461,0.826273354 11.5854884,0.751000627 11.4506295,0.692317241 C11.3156577,0.633859561 11.1678207,0.594135423 11.0068928,0.573144828 C10.845852,0.552379937 10.6565981,0.541658934 10.4392439,0.541658934 C9.97790219,0.541658934 9.59747586,0.652705956 9.29717492,0.874235737 C8.99709969,1.09599122 8.84700564,1.44538307 8.84700564,1.92218558 C8.84700564,2.24855549 8.93830345,2.51838621 9.12101191,2.73167774 C9.30383323,2.94496928 9.53427837,3.13749592 9.81279875,3.30903197 C10.0910934,3.48045517 10.3912815,3.64149592 10.7132502,3.79215423 C11.035106,3.94269969 11.335294,4.11637994 11.6138144,4.31285643 C11.8921091,4.50955862 12.1227799,4.74169655 12.3054884,5.00938307 C12.4881969,5.2772953 12.5794947,5.6117906 12.5794947,6.01332038 C12.5794947,6.40672476 12.4902282,6.75385956 12.3120339,7.05495047 C12.1336138,7.35615423 11.8986545,7.60928276 11.607269,7.8142232 C11.3156577,8.01927649 10.9894006,8.17614169 10.628385,8.28481881 C10.2673693,8.39349592 9.90409655,8.44800376 9.53867962,8.44800376 C9.38204013,8.44800376 9.20362006,8.43536426 9.00353229,8.41031097 C8.80333166,8.38514483 8.60335674,8.35388464 8.40326897,8.31619185 C8.20306834,8.27849906 8.00523762,8.23256803 7.80943824,8.17817304 C7.61363887,8.12389091 7.44176426,8.06735172 7.29392727,8.00866834 L7.29392727,6.67847398 Z" id="Fill-3"></path><path d="M17.3299373,1.54566395 C17.3124451,1.50402132 17.2862633,1.44341944 17.2516176,1.36385831 C17.2167461,1.28429718 17.1687837,1.24457304 17.108069,1.24457304 C17.0471285,1.24457304 16.9991661,1.28644138 16.9645204,1.36995235 C16.9296489,1.45380188 16.9035799,1.51237241 16.8862006,1.54566395 L15.75079,4.23133166 L18.2434796,4.23133166 L17.3299373,1.54566395 Z M19.8879687,8.24719373 L18.465348,4.73330031 L15.5289216,4.73330031 C15.3896614,5.00933793 15.2502884,5.2876326 15.1112539,5.56784577 C14.9719937,5.84817179 14.8479687,6.12217806 14.7392915,6.38986458 C14.6303887,6.6577768 14.543605,6.91056677 14.4782633,7.14902445 C14.4130345,7.38759498 14.3804201,7.59456677 14.3804201,7.77027837 C14.3804201,7.92928777 14.3933981,8.08841003 14.4195799,8.24719373 L12.7881818,8.24719373 L13.075279,7.89588339 C13.1972727,7.74522508 13.3666646,7.48385831 13.5843574,7.11133166 C13.8017116,6.73925643 14.038815,6.3104163 14.2955549,5.82514984 C14.552069,5.33999624 14.8110658,4.82538809 15.072094,4.28143824 C15.3331223,3.73771411 15.5701129,3.22107461 15.7834044,2.73174545 C15.9964702,2.2421906 16.170489,1.80511223 16.3054608,1.42028464 C16.4402069,1.03545705 16.5076928,0.755018182 16.5076928,0.579306583 L16.5207837,0.240635737 L18.0607712,0.240635737 C18.2695486,0.868096552 18.4804702,1.50402132 18.6937618,2.14807147 C18.9068276,2.79246019 19.1329843,3.43436614 19.3724577,4.07446646 C19.6115925,4.71445392 19.8660752,5.34823448 20.135906,5.9756953 C20.4053981,6.60315611 20.7056991,7.20545078 21.0363574,7.78280502 L21.2973856,8.24719373 L19.8879687,8.24719373 Z" id="Fill-5"></path><path d="M22.9940577,8.29742445 L22.7982583,7.65732414 C22.6416188,7.15535549 22.4697442,6.5969605 22.2827473,5.98191348 C22.0956376,5.36697931 21.8978069,4.74583824 21.6890295,4.11837743 C21.4801392,3.49080376 21.2625592,2.87812665 21.0364025,2.27989467 C20.8100201,1.6818884 20.5795749,1.1440326 20.3447285,0.667342947 L20.1358382,0.240534169 L21.2974307,0.240534169 C21.4280013,0.240534169 21.517042,0.296960502 21.5650044,0.409926019 C21.6127411,0.522891536 21.6540451,0.625474608 21.6890295,0.71744953 C22.0282646,1.69633354 22.374158,2.66889781 22.726484,3.63514232 C23.07881,4.60149969 23.3941204,5.5825279 23.6727536,6.57811411 C23.7422708,6.82086019 23.8117881,6.94206395 23.881531,6.94206395 C23.9249793,6.94206395 23.9641392,6.90019561 23.9990107,6.81645893 C24.0336564,6.73294796 24.0685279,6.64514859 24.1033994,6.55306082 C24.1641141,6.36899812 24.2555248,6.12433354 24.3774056,5.81884138 C24.4991737,5.51357492 24.6340326,5.17682257 24.7819824,4.80858433 C24.9298194,4.44057179 25.0799135,4.05563135 25.2322646,3.65398871 C25.38439,3.25245893 25.523763,2.86548715 25.6499323,2.49318621 C25.7759887,2.12111097 25.8783461,1.77781317 25.956553,1.46408276 C26.0348727,1.1504652 26.0740326,0.893161129 26.0740326,0.692283386 C26.0740326,0.541625078 26.052252,0.391079624 26.0088038,0.240534169 L27.627111,0.240534169 L27.3922646,0.642176803 C27.0789856,1.1776627 26.7830859,1.73391348 26.5047912,2.31115486 C26.2262708,2.88850909 25.956553,3.47432727 25.6955248,4.06804514 C25.4346094,4.66232727 25.184415,5.25830219 24.9451674,5.85653417 C24.705694,6.45476614 24.4773931,7.04238997 24.2600389,7.61963135 L23.9990107,8.29742445 L22.9940577,8.29742445 Z" id="Fill-7"></path><path d="M34.3029103,3.13948213 C34.2200765,2.68773292 34.0765279,2.27356364 33.8721517,1.89708715 C33.6676627,1.52049781 33.3912865,1.2091373 33.0434746,0.962215674 C32.6953241,0.715519749 32.26039,0.591946082 31.7383335,0.591946082 C31.2685279,0.591946082 30.8639511,0.688209404 30.5246031,0.880623197 C30.1852552,1.07303699 29.9067348,1.32830972 29.6893806,1.64621567 C29.4716878,1.96423448 29.3108727,2.33224702 29.206484,2.750479 C29.1020953,3.16893668 29.0498445,3.60387085 29.0498445,4.05562006 C29.0498445,4.47407774 29.0910357,4.90901191 29.1738696,5.36087398 C29.2563649,5.8126232 29.4000263,6.22656677 29.6045154,6.60315611 C29.8088915,6.9796326 30.0851549,7.28918746 30.4331925,7.53193354 C30.7811172,7.77456677 31.2162771,7.89577053 31.7383335,7.89577053 C32.2081392,7.89577053 32.612716,7.79973292 32.9520639,7.60709342 C33.2914119,7.41479248 33.5697066,7.1596326 33.7873994,6.84161379 C34.0046408,6.52370784 34.1657944,6.1556953 34.2702959,5.73735047 C34.3746846,5.31889279 34.4268226,4.88384577 34.4268226,4.43209655 C34.4268226,4.02221567 34.3854056,3.5913442 34.3029103,3.13948213 M35.5165279,5.76861066 C35.3382207,6.30003386 35.0749354,6.76442257 34.7270107,7.16166395 C34.378973,7.55901818 33.9459574,7.87286144 33.428415,8.10274232 C32.910647,8.33296176 32.3125279,8.44795862 31.6339448,8.44795862 C30.9465592,8.44795862 30.3549856,8.34131285 29.8589981,8.12790846 C29.3631235,7.91461693 28.9540326,7.62605266 28.6321768,7.26198997 C28.3102082,6.89815298 28.0729918,6.4713442 27.9209793,5.98190219 C27.7686282,5.49257304 27.6925655,4.96758245 27.6925655,4.40693041 C27.6925655,3.81309969 27.7816063,3.2504163 27.9600263,2.71910596 C28.1383335,2.18790846 28.4016188,1.72351975 28.7496564,1.32616552 C29.0975812,0.928811285 29.530484,0.615080878 30.048252,0.384974295 C30.5657944,0.154867712 31.1641392,0.0397579937 31.8427223,0.0397579937 C32.529995,0.0397579937 33.1217944,0.146516614 33.617669,0.35980815 C34.1135436,0.573212539 34.5224088,0.86166395 34.8444903,1.22572665 C35.1662332,1.58967649 35.4034495,2.01625956 35.5558006,2.50581442 C35.7078132,2.99514357 35.7841016,3.52035987 35.7841016,4.08067335 C35.7841016,4.67484263 35.6948351,5.23741317 35.5165279,5.76861066" id="Fill-9"></path><path d="M40.5344991,1.88454922 C40.5344991,1.6001605 40.5234395,1.30933918 40.5018846,1.01231097 C40.4801041,0.715508464 40.3952389,0.458204389 40.247289,0.240624451 C40.7694583,0.240624451 41.2825994,0.219746708 41.7873893,0.177765517 C42.2918408,0.136122884 42.8008063,0.115019436 43.3143987,0.115019436 C43.7320665,0.115019436 44.0928564,0.167383072 44.3974458,0.271884639 C44.702148,0.376611912 44.9542608,0.522981818 45.1545743,0.711220063 C45.3545492,0.899458307 45.5023862,1.12110094 45.598311,1.37626082 C45.69401,1.63164639 45.7418596,1.91400376 45.7418596,2.22344577 C45.7418596,2.58310721 45.6852075,2.91579687 45.5721292,3.22106332 C45.4590508,3.52655549 45.2958658,3.79209781 45.0828,4.01791599 C44.8693956,4.24384702 44.6106245,4.41955862 44.3062608,4.54505078 C44.0016715,4.67054295 43.6536339,4.73328903 43.262148,4.73328903 C43.0880163,4.73328903 42.9423235,4.72696928 42.8248439,4.71444263 C42.70759,4.70191599 42.6072639,4.68306959 42.5248815,4.65790345 C42.4419348,4.63296301 42.3701605,4.60373417 42.3095586,4.57021693 C42.2485053,4.53681254 42.1873392,4.4992326 42.1267373,4.45713856 C42.378963,4.42384702 42.6377342,4.38197868 42.9032765,4.33175925 C43.1684803,4.28142696 43.412242,4.18538934 43.6339975,4.04308213 C43.8559787,3.90088777 44.0364301,3.69606019 44.1758031,3.42814796 C44.3148376,3.16046144 44.3844677,2.80068715 44.3844677,2.34882508 C44.3844677,2.10641755 44.3626871,1.87822947 44.3192389,1.66493793 C44.2755649,1.45153354 44.1929567,1.26769655 44.0713016,1.11274984 C43.9494207,0.95802884 43.7818345,0.836599373 43.5687687,0.748912853 C43.35559,0.660887774 43.083615,0.61710094 42.7531824,0.61710094 L41.7090696,0.61710094 L41.7090696,6.60325768 C41.7090696,6.85412915 41.728706,7.13648652 41.767753,7.45021693 C41.8069129,7.76406019 41.9004677,8.02971536 42.0483047,8.24718245 L40.247289,8.24718245 C40.3257216,8.13850533 40.384405,8.01504451 40.4236777,7.87702571 C40.4626119,7.73889404 40.4908251,7.59669969 40.5085429,7.45021693 C40.5256966,7.30395987 40.5344991,7.15962132 40.5344991,7.01720125 L40.5344991,6.60325768 L40.5344991,1.88454922 Z" id="Fill-11"></path><path d="M53.1481994,3.13948213 C53.0654784,2.68773292 52.9218169,2.27356364 52.7175536,1.89708715 C52.5129517,1.52049781 52.2366884,1.2091373 51.8887636,0.962215674 C51.540726,0.715519749 51.105679,0.591946082 50.5836226,0.591946082 C50.1138169,0.591946082 49.7092401,0.688209404 49.370005,0.880623197 C49.0306571,1.07303699 48.7520238,1.32830972 48.5346696,1.64621567 C48.3170897,1.96423448 48.1562746,2.33224702 48.051773,2.750479 C47.9473843,3.16893668 47.8951335,3.60387085 47.8951335,4.05562006 C47.8951335,4.47407774 47.9363248,4.90901191 48.0191586,5.36087398 C48.1017668,5.8126232 48.2453154,6.22656677 48.4498044,6.60315611 C48.6541806,6.9796326 48.9304439,7.28918746 49.2785944,7.53193354 C49.6265191,7.77456677 50.0615661,7.89577053 50.5836226,7.89577053 C51.0534282,7.89577053 51.458005,7.79973292 51.797353,7.60709342 C52.1367009,7.41479248 52.4151085,7.1596326 52.6326884,6.84161379 C52.8500426,6.52370784 53.0111962,6.1556953 53.115585,5.73735047 C53.2199737,5.31889279 53.2722245,4.88384577 53.2722245,4.43209655 C53.2722245,4.02221567 53.2306947,3.5913442 53.1481994,3.13948213 M54.3619298,5.76861066 C54.1835097,6.30003386 53.9202245,6.76442257 53.5724125,7.16166395 C53.2242621,7.55901818 52.7913592,7.87286144 52.2738169,8.10274232 C51.7560489,8.33296176 51.1579298,8.44795862 50.4793467,8.44795862 C49.7918483,8.44795862 49.2002746,8.34131285 48.7042871,8.12790846 C48.2084125,7.91461693 47.7994345,7.62605266 47.4775787,7.26198997 C47.1554972,6.89815298 46.9183937,6.4713442 46.7662683,5.98190219 C46.6140301,5.49257304 46.5378545,4.96758245 46.5378545,4.40693041 C46.5378545,3.81309969 46.6270082,3.2504163 46.8054282,2.71910596 C46.9836226,2.18790846 47.2469078,1.72351975 47.5950583,1.32616552 C47.9428702,0.928811285 48.3758859,0.615080878 48.8936539,0.384974295 C49.4111962,0.154867712 50.0095411,0.0397579937 50.6881241,0.0397579937 C51.375284,0.0397579937 51.9670834,0.146516614 52.4630708,0.35980815 C52.9589455,0.573212539 53.3678107,0.86166395 53.6897793,1.22572665 C54.0115223,1.58967649 54.2487386,2.01625956 54.4010897,2.50581442 C54.553215,2.99514357 54.6295034,3.52035987 54.6295034,4.08067335 C54.6295034,4.67484263 54.5401241,5.23741317 54.3619298,5.76861066" id="Fill-13"></path><path d="M56.9395749,8.29742445 L56.7177066,6.9295373 C56.6828351,6.70360627 56.6328414,6.41707335 56.5676125,6.06982571 C56.5023837,5.72280376 56.4304966,5.34824577 56.3522897,4.94671599 C56.2739699,4.54507335 56.1891047,4.13090408 56.0978069,3.70420815 C56.0063962,3.27762508 55.9127285,2.8696627 55.8171423,2.48065956 C55.7213304,2.09165643 55.6256313,1.73391348 55.5300451,1.40765643 C55.4342332,1.08139937 55.3429354,0.817888401 55.255926,0.617010658 C55.2210545,0.541625078 55.1906972,0.4726721 55.1645154,0.409926019 C55.1385592,0.34729279 55.1079762,0.290866458 55.0732176,0.240534169 L56.23481,0.240534169 C56.3738445,0.240534169 56.4716878,0.292897806 56.5283398,0.397399373 C56.584879,0.502239498 56.6264088,0.608772414 56.6523649,0.71744953 C56.8959009,1.70479749 57.1091925,2.6898884 57.2919009,3.67283511 C57.4746094,4.65600752 57.6137567,5.61175674 57.7095687,6.54053417 C57.7356376,6.7748163 57.7833743,6.89184451 57.8531172,6.89184451 C57.905368,6.89184451 57.9487034,6.85008903 57.9835749,6.76635235 C58.0183335,6.68272853 58.0444025,6.61569404 58.0618947,6.56547461 L59.3408539,2.58730533 C59.436553,2.28610157 59.4996376,1.9996815 59.5301078,1.72770658 C59.5605781,1.45595737 59.5758132,1.21941818 59.5758132,1.01865329 C59.5758132,0.842941693 59.5516627,0.700860188 59.5040389,0.591957367 C59.4561893,0.483280251 59.3713241,0.366026332 59.2495561,0.240534169 L61.4812176,0.240534169 C61.3855185,0.357788088 61.3136313,0.470640752 61.2658947,0.579317868 C61.2180451,0.68822069 61.1941204,0.817888401 61.1941204,0.968433856 C61.1941204,1.1776627 61.2310232,1.41194483 61.3051674,1.6711674 C61.3788602,1.93061567 61.4420577,2.15654671 61.4943085,2.34884765 L62.6689918,6.59064075 C62.6950608,6.68272853 62.7145843,6.75596991 62.7276752,6.81025204 C62.7406533,6.86475987 62.7732677,6.89184451 62.8255185,6.89184451 C62.8862332,6.89184451 62.938484,6.79140564 62.982158,6.59064075 L63.8435624,3.27762508 C63.9479511,2.87598245 64.0328163,2.47242132 64.0980451,2.06649028 C64.163274,1.66078495 64.1958884,1.24875987 64.1958884,0.830415047 C64.1958884,0.696571787 64.1848288,0.587894671 64.163274,0.504045141 C64.1413806,0.420534169 64.0826972,0.332734796 63.9869981,0.240534169 L65.6836251,0.240534169 L65.3704589,0.742502821 C65.178948,1.06052163 65.0289668,1.37628339 64.9201768,1.69001379 C64.811274,2.0037442 64.7091423,2.336321 64.6134433,2.6877442 L63.1126157,8.29742445 L62.0163649,8.29742445 C61.8857944,7.78721755 61.7617693,7.27892915 61.6444025,6.77255925 C61.5269229,6.2665279 61.3899197,5.75406395 61.2332803,5.23528025 L60.4372176,2.66257806 C60.3849668,2.49544326 60.3435498,2.3511047 60.3133053,2.22956238 C60.2826094,2.10847147 60.2327285,2.04775674 60.1630984,2.04775674 C60.0933555,2.04775674 60.0411047,2.10847147 60.0065718,2.22956238 C59.9715875,2.3511047 59.9281392,2.49544326 59.8761141,2.66257806 L58.6101329,6.52789467 C58.5142082,6.82086019 58.4185091,7.1157442 58.3229229,7.41265956 C58.227111,7.70968777 58.1315248,8.00457179 58.0358257,8.29742445 L56.9395749,8.29742445 Z" id="Fill-15"></path><path d="M67.8630245,7.732721 L69.363852,7.732721 C69.7727172,7.732721 70.175037,7.68047022 70.571037,7.57574295 C70.9669241,7.47135423 71.3169931,7.28514734 71.6216953,7.01723511 L71.3868489,8.18435737 C71.2127172,8.20128527 71.0191749,8.21584326 70.8059962,8.22836991 C70.5927047,8.24089655 70.368805,8.2472163 70.1338458,8.2472163 L66.362084,8.2472163 C66.5100339,8.02974922 66.6013317,7.77244514 66.6362031,7.47541693 C66.6709618,7.17850157 66.6884539,6.88768025 66.6884539,6.60317868 L66.6884539,1.88458307 C66.6884539,1.60019436 66.6773944,1.30937304 66.6558395,1.01234483 C66.6339461,0.715429467 66.5490809,0.458238245 66.4013567,0.240545455 L70.9560903,0.240545455 L71.0083411,1.20690282 C70.7819586,1.01448903 70.5014069,0.888996865 70.1664602,0.830426332 C69.8314006,0.771968652 69.4683536,0.742514107 69.0767549,0.742514107 L67.8630245,0.742514107 L67.8630245,3.74191223 C68.3675887,3.74191223 68.8786984,3.73773668 69.3964665,3.72927273 C69.9141216,3.72114734 70.4252313,3.69598119 70.9300213,3.654 C70.8168301,3.8297116 70.6472125,3.96784326 70.4210558,4.06805643 C70.1946734,4.16860815 69.9511373,4.23981818 69.6901091,4.28146082 C69.4291937,4.32355486 69.1635386,4.34860815 68.8940464,4.35684639 C68.6242157,4.36519749 68.3893693,4.36937304 68.1892815,4.36937304 L67.8630245,4.36937304 L67.8630245,7.732721 Z" id="Fill-17"></path><path d="M74.114227,3.85484389 C74.3055122,3.87989718 74.5013116,3.89242382 74.7015122,3.89242382 C75.3365342,3.89242382 75.8216878,3.73555862 76.1567473,3.42182821 C76.4914683,3.10821066 76.6591674,2.65002884 76.6591674,2.04773417 C76.6591674,1.73829216 76.6134621,1.48922633 76.5221643,1.30098809 C76.4307536,1.11274984 76.3023273,0.968411285 76.137111,0.868085266 C75.9717818,0.767646395 75.7718069,0.702981818 75.5367348,0.673527273 C75.3017755,0.644411285 75.0408602,0.625452038 74.753763,0.61710094 L74.1402959,0.61710094 C74.1314934,0.709188715 74.1250608,0.807483386 74.1207724,0.911984953 C74.1163712,1.01671223 74.114227,1.11906959 74.114227,1.21939561 L74.114227,3.85484389 Z M78.1730859,7.08006019 C78.2686721,7.2054395 78.3535373,7.31434232 78.4275687,7.40631724 C78.5013743,7.49851787 78.579694,7.58631724 78.6625279,7.66994107 C78.7450232,7.75367774 78.8341768,7.84136426 78.9301016,7.93345204 C79.0256878,8.02565266 79.1387661,8.13015423 79.2694495,8.24718245 L78.1991549,8.24718245 C77.9206345,8.24718245 77.7053116,8.18251787 77.5531862,8.05262445 C77.4008351,7.92306959 77.2507411,7.75774044 77.1029041,7.55697555 L75.5106658,5.37338934 C75.3714056,5.18932665 75.2561831,5.03449279 75.1648853,4.90900063 C75.0734746,4.78350846 74.9820639,4.68103824 74.8907661,4.60147712 C74.7993555,4.52214169 74.6949668,4.46357116 74.5774871,4.42587837 C74.4600075,4.38818558 74.3055122,4.36110094 74.114227,4.34428589 L74.114227,6.60325768 C74.114227,6.88764639 74.1250608,7.17846771 74.1468414,7.47538307 C74.1683962,7.77241129 74.2532614,8.02971536 74.4013241,8.24718245 L72.5873304,8.24718245 C72.7785028,7.95444263 72.8851486,7.66158997 72.907042,7.3687373 C72.9285969,7.07588464 72.9396564,6.79578433 72.9396564,6.52798495 L72.9396564,1.88454922 C72.9396564,1.6001605 72.9285969,1.30933918 72.907042,1.01242382 C72.8851486,0.715508464 72.8002834,0.458204389 72.6525592,0.240624451 C73.2006846,0.240624451 73.7357191,0.219746708 74.2577755,0.177765517 C74.779832,0.136122884 75.2973743,0.115019436 75.8108539,0.115019436 C76.4807473,0.115019436 76.9854245,0.271884639 77.3247724,0.5857279 C77.6641204,0.899458307 77.8337379,1.30324514 77.8337379,1.79674984 C77.8337379,2.08960251 77.7770859,2.35514483 77.6641204,2.59360251 C77.5509292,2.83206019 77.4030922,3.04535172 77.2202708,3.23358997 C77.0376752,3.42182821 76.8308163,3.58490031 76.6003712,3.72303197 C76.3698132,3.86116364 76.137111,3.9761605 75.9022646,4.06813542 L78.1730859,7.08006019 Z" id="Fill-19"></path></g><g id="Group-24" transform="translate(10.721003, 0.051912)"><mask id="mask-2" fill="white"><use xlink:href="#path-1"></use></mask><g id="Clip-23"></g><path d="M0.110482759,30.4780063 C0.110482759,36.1496426 1.77156113,41.4586834 4.66374922,46.0040502 L60.9401003,45.6154984 C63.6820815,41.1571411 65.2501693,35.9886019 65.2501693,30.4780063 C65.2501693,13.6728903 50.6681379,0.0495423197 32.6804389,0.0495423197 C14.6925141,0.0495423197 0.110482759,13.6728903 0.110482759,30.4780063" id="Fill-22" fill="url(#radialGradient-3)" mask="url(#mask-2)"></path></g><g id="Group-82" transform="translate(0.000000, 10.321505)"><path d="M39.8972765,22.4952602 C39.8972765,22.4952602 41.8157718,21.4231599 44.0728251,20.9717492 C44.0728251,20.9717492 45.8220414,20.4639122 46.3298784,18.0375799 C46.3298784,18.0375799 46.7863674,15.8991348 48.9561856,15.5012163 C48.9561856,15.5012163 50.4591574,15.0467586 49.9411636,13.805605 L51.1261166,13.805605 C51.1261166,13.805605 50.0352828,14.5824828 50.4114207,15.5012163 L51.8785053,15.5012163 C51.8785053,15.5012163 52.1419034,14.5768401 52.630894,14.3887147 L52.630894,13.9373041 L53.34559,14.0124639 L53.34559,14.5391473 C53.34559,14.5391473 54.2482984,14.7272727 54.1731386,14.2381693 L54.8502545,14.3887147 C54.8502545,14.3887147 54.8878345,14.8024326 54.5116966,14.990558 C54.5116966,14.990558 53.34559,14.8401254 53.1198846,14.990558 C53.1198846,14.990558 52.329916,15.4100313 53.34559,15.5012163 C53.34559,15.5012163 53.7217279,15.968652 55.7530759,15.8181066 C55.7530759,15.8181066 56.6182044,15.5924013 56.3549191,14.7648527 L57.2201605,14.6144201 C57.2201605,14.6144201 56.9192953,15.5981567 57.4082859,15.5012163 C57.4082859,15.5012163 58.085289,15.1034107 58.0477091,14.6144201 L58.5368125,15.5012163 C58.5368125,15.5012163 58.0478219,15.5548213 57.7468439,15.9309592 C57.7468439,15.9309592 56.0916339,15.9309592 55.8283486,16.1566646 C55.8283486,16.1566646 55.1511197,16.2695172 55.1888125,16.4952226 C55.1888125,16.4952226 54.3989567,17.1130909 53.8722734,16.30721 C53.8722734,16.30721 49.3958596,16.0815047 48.7939034,16.30721 C48.7939034,16.30721 47.1763862,17.9247273 46.3111448,20.0689279 C46.3111448,20.0689279 45.4834834,21.2350345 44.5430821,21.6864451 C44.5430821,21.6864451 44.0540915,21.9874232 42.5870069,22.1567022 C42.5870069,22.1567022 42.0226307,22.4575674 41.6464928,22.805605 C41.6464928,22.805605 40.3674207,23.2664953 40.1794082,23.9811912 L39.2574019,23.9811912 C39.2574019,23.9811912 40.0288627,23.1535298 39.8972765,22.4952602" id="Fill-25" fill="#1A1919"></path><path d="M9.59633605,16.34479 C9.59633605,16.34479 11.289126,16.34479 11.8533893,16.0626583 L12.135521,15.7805266 L16.1417906,15.7805266 C16.1417906,15.7805266 16.5555085,15.2538433 17.007032,15.7805266 L18.5116966,15.9456301 L18.7749818,16.1566646 L22.3862671,16.1190846 C22.3862671,16.1190846 24.6057404,15.667674 25.2828564,16.34479 C25.2828564,16.34479 25.8095398,17.1347586 26.5242357,17.2476113 C26.5242357,17.2476113 29.0445743,17.2476113 29.3455524,17.3980439 C29.3455524,17.3980439 29.8345429,17.8494545 29.796963,18.1504326 C29.796963,18.1504326 28.2170257,18.0375799 27.765615,18.1504326 C27.765615,18.1504326 27.9913204,18.3761379 27.0132263,18.338558 L26.1480978,18.3428464 C26.1480978,18.3428464 25.8848125,18.9404013 26.8252138,18.7522759 C26.8252138,18.7522759 27.6903423,19.2789592 26.9380665,19.6175172 L24.5681605,19.6175172 C24.5681605,19.6175172 24.6057404,19.1285266 23.0633831,19.1285266 C23.0633831,19.1285266 20.8816025,18.7899687 20.5054646,19.1285266 L20.5362734,20.156953 L20.2380038,20.0027962 C20.2380038,20.0027962 20.1669066,19.2789592 19.8659285,19.2413793 L19.9035085,18.7522759 L12.6057781,18.7146959 C12.6057781,18.7146959 12.0415147,17.6990219 10.273452,18.1128527 C10.273452,18.1128527 9.93489404,17.8118746 10.4991574,17.6990219 L11.0258408,17.6990219 L11.0258408,17.2100313 L16.2546433,17.322884 C16.2546433,17.322884 16.6307812,16.683348 15.9160853,16.8337806 L12.5305053,16.8714734 C12.5305053,16.8714734 11.627684,16.6080752 10.7624426,16.7962006 C10.7624426,16.7962006 10.2358721,17.2851912 9.78446144,16.7586207 L9.59633605,16.34479 Z" id="Fill-27" fill="#1A1919"></path><path d="M31.489753,11.4921254 C31.489753,11.4921254 31.489753,10.7585831 32.1104426,10.5893041 C32.1104426,10.5893041 33.3518219,9.4043511 34.4803486,9.57363009 C34.4803486,9.57363009 35.3267436,9.51720376 35.8345806,9.79933542 C35.8345806,9.79933542 36.6063799,9.03272727 37.6029818,9.55715361 C37.6029818,9.55715361 38.6738408,9.79436991 39.2574019,9.37365517 C39.2574019,9.37365517 39.8408502,8.72226959 40.3486871,9.37365517 L43.1763235,9.68648276 C43.1763235,9.68648276 44.9578157,10.4321003 45.49601,10.2881003 L45.49601,10.5046646 L45.0320727,10.5610909 L45.0038596,10.8996489 L44.0446119,10.9278621 C44.0446119,10.9278621 44.3174897,11.2288401 43.3769755,11.0407147 C43.3769755,11.0407147 43.188963,10.8150094 42.1355962,10.8150094 C42.1355962,10.8150094 41.496173,11.0407147 41.1199223,11.0407147 L40.2922608,11.0031348 C40.2922608,11.0031348 39.4262295,11.4545455 39.2574019,11.7931034 L37.6029818,11.7931034 C37.6029818,11.7931034 37.7343423,11.1912602 36.831521,11.3416928 C36.831521,11.3416928 33.4082483,11.1911473 32.9944176,11.304 C32.9944176,11.304 31.4144803,11.2664201 31.489753,11.4921254" id="Fill-29" fill="#1A1919"></path><path d="M43.8283862,11.4169091 C43.8283862,11.4169091 44.0420163,11.1460627 43.7094395,11.0933605 C43.7094395,11.0933605 43.8753329,11.181837 44.0446119,10.9279185 C44.0446119,10.9279185 44.138731,11.1723574 44.4302295,11.4169091 L44.4302295,11.6050345 L43.8283862,11.6050345 L43.8283862,11.4169091 Z" id="Fill-31" fill="#1A1919"></path><path d="M43.1762784,9.68648276 C43.1762784,9.68648276 43.1417455,8.86830094 43.4520903,8.69902194 C43.4520903,8.69902194 43.6564665,8.64259561 43.7095072,8.21939812 L43.7060088,8.05011912 L44.1009931,8.38867712 C44.1009931,8.38867712 44.1009931,8.61438245 43.9599273,8.86830094 C43.9599273,8.86830094 43.6564665,9.59247649 43.7095072,9.89334169 L43.1762784,9.68648276 Z" id="Fill-33" fill="#1A1919"></path><path d="M41.4586947,9.49648401 C41.4586947,9.49648401 41.5336288,8.89655925 41.0822182,8.67085392 L40.8565129,8.36987586 L40.8565129,6.15040251 C40.8565129,6.15040251 40.2434972,6.46244013 39.9481618,6.43806395 C39.9481618,6.43806395 39.9536915,7.50271599 40.1418169,7.82344326 C40.1418169,7.82344326 40.2922495,8.18175047 40.3675223,8.52030846 L40.7057417,8.67085392 C40.7057417,8.67085392 40.7806759,9.11842759 40.7057417,9.49648401 L41.4586947,9.49648401 Z" id="Fill-35" fill="#1A1919"></path><path d="M29.3455524,17.3981003 C29.3455524,17.3981003 29.1951197,16.7209843 29.9850884,16.2695737 C29.9850884,16.2695737 30.812637,15.6300376 31.0007624,15.3291724 C31.0007624,15.3291724 32.3865931,14.501511 33.3864677,14.501511 C33.3864677,14.501511 34.5608125,14.0877931 35.0754207,13.3354044 L36.9800351,11.3229028 C36.9800351,11.3229028 37.2829317,9.7232163 37.2829317,9.08413166 C37.2829317,9.08413166 37.4709442,7.99171787 37.847195,7.82345455 C37.847195,7.82345455 38.8995461,6.86510972 39.2574019,6.15041379 L38.7500163,5.88712853 C38.7500163,5.88712853 37.6214897,7.3917931 37.2076589,7.5799185 C37.2076589,7.5799185 36.7568125,8.82953605 36.9822922,9.37653292 C36.9822922,9.37653292 36.6057028,11.4169091 35.8345806,11.793047 C35.8345806,11.793047 34.9035461,12.8464138 34.6214144,12.9028401 C34.6214144,12.9028401 34.2264301,12.7448464 34.6214144,12.4006458 L34.9035461,12.0846583 L34.8753329,11.2664765 L34.5085618,11.2664765 L34.5085618,11.793047 L34.1700038,11.793047 L34.1700038,13.2696113 C34.1700038,13.2696113 33.4364614,14.0877931 32.8721981,13.6363824 C32.8721981,13.6363824 32.8752451,12.9423386 33.6903799,12.7335611 L33.8878721,12.4006458 L33.8033455,11.2623009 L33.4732514,11.2664765 L33.3864677,12.4006458 C33.3864677,12.4006458 32.3643611,12.9028401 32.336148,13.4953166 C32.336148,13.4953166 30.2524364,15.0188276 29.7989944,15.7805831 C29.7989944,15.7805831 29.1533643,16.3448464 29.3340414,15.3009592 C29.3340414,15.3009592 29.1480602,13.6363824 29.5994708,12.6489216 C29.5994708,12.6489216 30.4176527,11.2382633 30.8690633,11.0689843 C30.8690633,11.0689843 32.2797216,9.88403135 32.7029191,8.21945455 C32.7029191,8.21945455 33.0696903,7.11914107 33.2389693,6.30095925 L33.3864677,5.35762382 L32.9004113,5.35762382 C32.9004113,5.35762382 32.7593455,6.89343574 32.2797216,7.23199373 C32.2797216,7.23199373 31.7949066,6.10346708 31.4871574,5.90597492 L31.2358345,5.73669592 L31.2640476,5.35762382 L30.7013643,5.07966771 C30.7013643,5.07966771 30.6715712,5.53920376 30.8408502,5.90597492 C30.8408502,5.90597492 30.7844238,6.94986207 31.2358345,7.59876489 L31.4871574,8.05017555 C31.4871574,8.05017555 31.7949066,8.60112226 31.4871574,9.4964953 C31.4871574,9.4964953 30.7562107,10.843279 30.2201605,10.9279185 C30.2201605,10.9279185 29.518894,10.7848213 29.7989944,9.75605643 C29.7989944,9.75605643 29.8533893,9.38465831 29.627684,9.08413166 L29.6505931,7.90933542 L29.119847,7.93732288 C29.119847,7.93732288 29.3173392,8.38873354 29.119847,8.72729154 C29.119847,8.72729154 28.3580915,8.33230721 28.3298784,7.76804389 C28.3298784,7.76804389 27.9725868,7.73983072 27.8408878,7.93732288 C27.8408878,7.93732288 28.5555837,8.62380564 28.6402232,8.97173041 C28.6402232,8.97173041 29.0352075,9.64884639 29.0069944,9.89339812 C29.0069944,9.89339812 29.2044865,10.4765078 29.4866182,10.7304263 C29.4866182,10.7304263 30.0508815,11.5015486 29.2044865,11.793047 C29.2044865,11.793047 28.7645868,12.2526959 29.119847,12.6207085 C29.119847,12.6207085 29.1480602,13.2978245 28.61201,13.3260376 L28.781289,15.5464138 C28.781289,15.5464138 28.263521,16.8718683 28.6070445,17.2995799 L29.3455524,17.3981003 Z" id="Fill-37" fill="#1A1919"></path><path d="M33.7166633,9.63655674 L33.7166633,7.16609906 C33.7166633,7.16609906 33.7844878,6.97808652 34.1606257,6.94039373 L34.1606257,5.39555361 L34.6862934,5.40413041 L34.6862934,6.97797367 C34.6862934,6.97797367 34.0920113,7.01566646 34.2014784,7.24137179 L34.2014784,9.5586884 C34.2014784,9.5586884 34.0316351,9.5267511 33.7166633,9.63655674" id="Fill-39" fill="#1A1919"></path><path d="M35.2749442,5.58576677 C35.2749442,5.58576677 35.3266307,6.45134671 35.5900288,6.86517743 C35.5900288,6.86517743 35.7780414,8.18182947 35.5900288,8.52038746 C35.5900288,8.52038746 35.2089254,9.16184201 34.8728502,9.57465705 C34.8728502,9.57465705 35.3454771,9.59113354 35.5900288,9.69529655 C35.5900288,9.69529655 35.2867937,9.15890784 35.6735398,9.08419937 C35.6735398,9.08419937 36.1718972,9.33270094 36.0455022,9.63661317 C36.0455022,9.63661317 36.2644364,9.48087649 36.4839348,9.43392978 C36.4839348,9.43392978 35.7600978,9.1973906 36.4839348,8.3886884 L36.5963361,7.8234094 C36.5963361,7.8234094 37.0477467,7.68335925 37.0477467,7.09088276 C37.0477467,7.09088276 36.934894,6.27450658 37.0477467,5.9914721 L36.6692389,5.86552853 C36.6692389,5.86552853 36.7374019,6.97803009 36.5399097,7.31658809 C36.5399097,7.31658809 36.0602859,7.37301442 36.1167122,6.92160376 C36.1167122,6.92160376 36.0602859,6.44197994 35.8345806,6.41376677 C35.8345806,6.41376677 35.6717342,5.89035611 35.7531009,5.6865442 L35.2749442,5.58576677 Z" id="Fill-41" fill="#1A1919"></path><path d="M19.4517141,16.1496677 C19.4517141,16.1496677 19.4521655,14.3887147 17.9473881,13.805605 L15.8031875,12.2068213 L14.2232502,12.2068213 C14.2232502,12.2068213 13.6214069,11.3416928 12.906711,11.0031348 C12.906711,11.0031348 12.1656075,9.81378056 11.7029116,9.31034483 L12.3800276,9.08418809 C12.3800276,9.08418809 12.5680401,10.3260188 13.6589868,10.7774295 L14.2985229,11.0407147 C14.2985229,11.0407147 14.5995009,9.68557994 14.5242282,9.08418809 C14.5242282,9.08418809 14.709758,8.66640752 13.8095323,8.52037618 L13.605269,8.06129154 C13.605269,8.06129154 13.7716138,7.66337304 14.166711,7.64046395 C14.166711,7.64046395 13.6589868,7.95611285 14.5995009,8.21939812 C14.5995009,8.21939812 14.8627862,8.14412539 15.0509116,8.89651411 C15.0509116,8.89651411 14.7876263,11.1912602 14.9756389,11.4545455 C14.9756389,11.4545455 15.4646295,11.6049781 15.9160401,11.5673981 C15.9160401,11.5673981 16.1794382,11.3416928 16.7437016,11.7931034 C16.7437016,11.7931034 17.6088301,12.282094 17.8345354,12.7335047 L18.4364915,12.9216301 C18.4364915,12.9216301 18.6997768,13.4106207 18.8502094,13.636326 C18.8502094,13.636326 20.1292815,14.2967398 20.2797141,15.5464702 L20.2797141,16.1409781 L19.4517141,16.1496677 Z" id="Fill-43" fill="#1A1919"></path><path d="M14.4886232,8.18567774 C14.4886232,8.18567774 14.7311436,8.03140815 14.5618646,7.61757743 C14.5618646,7.61757743 14.6550809,7.74916364 14.735432,7.37765266 C14.735432,7.37765266 14.8873317,7.76248025 14.5994445,8.21942069 L14.4886232,8.18567774 Z" id="Fill-45" fill="#1A1919"></path><path d="M15.4380527,7.13214169 C15.4380527,7.13214169 15.8157705,7.18563386 15.9912564,7.16611034 L15.9912564,9.08415423 C15.9912564,9.08415423 16.3486608,9.46074357 17.0069304,9.48895674 C17.0069304,9.48895674 17.2421154,9.99679373 17.4678207,10.1378596 C17.4678207,10.1378596 18.4552815,10.6470508 18.4270683,11.2388502 L18.4364351,12.9215962 L18.0048865,12.7867373 C18.0048865,12.7867373 18.0038708,12.0376213 17.9192313,11.7930696 C17.9192313,11.7930696 17.4678207,11.6049442 17.4678207,10.8714019 C17.4678207,10.8714019 16.8189179,10.2224991 16.4521467,10.1660727 C16.4521467,10.1660727 16.1418019,10.2789254 16.3110809,10.7021229 C16.3110809,10.7021229 16.4755072,11.3003549 16.4637705,11.6078784 C16.4637705,11.6078784 16.0289492,11.4169317 15.9160966,11.5673643 C15.9160966,11.5673643 15.7468176,10.9278282 15.5775386,10.7867624 C15.5775386,10.7867624 15.5211122,10.0569442 15.8314571,10.0269254 C15.8314571,10.0269254 16.0569367,9.48647398 15.2954069,9.46074357 L14.9826922,9.5784489 L15.0508552,8.89648025 L15.3800464,8.92469342 C15.3800464,8.92469342 15.5524853,7.45557743 15.4380527,7.13214169" id="Fill-47" fill="#1A1919"></path><path d="M21.4835022,12.7335047 L21.1721417,12.7335047 C21.1721417,12.7335047 20.8232013,12.282094 21.1721417,11.6049781 C21.1721417,11.6049781 21.6339348,11.4641379 21.6339348,12.1176677 C21.6339348,12.1176677 21.6339348,12.5453793 21.4835022,12.7335047 M23.2979473,8.59643887 L22.7248815,8.67080878 C22.9505868,9.2350721 22.7248815,9.89334169 22.7248815,9.89334169 C22.5744489,10.5517241 21.8973329,11.2664201 21.8973329,11.2664201 L21.5210821,10.9278621 C21.6339348,10.4011787 21.3706495,9.49643887 21.3706495,9.49643887 C21.5963549,9.19365517 21.7092075,8.21939812 21.7092075,8.21939812 C21.1825241,7.91842006 20.3925555,8.21939812 20.3925555,8.21939812 L20.5806809,9.08418809 C20.3925555,9.53514734 20.6935335,10.0269592 20.6935335,10.0269592 C21.0696715,10.5554483 20.6559536,11.8950094 20.6559536,11.8950094 C19.9035649,11.7337429 19.4897342,10.6645768 19.4897342,10.6645768 L19.4504614,8.09943574 C19.065521,8.12539185 18.9254708,8.44510345 18.9254708,8.44510345 L19.0760163,11.6049781 C19.7523423,12.1694671 20.7311135,12.9216301 20.7311135,12.9216301 L20.8816589,13.805605 C21.5587749,14.8024326 21.6716276,16.1496677 21.6716276,16.1496677 L22.0105241,16.1230345 L21.8973329,12.9216301 C22.1606182,12.6583448 22.1981981,11.7931034 22.1981981,11.7931034 C22.6871887,11.1912602 23.2979473,9.89334169 23.2979473,9.89334169 C23.5700351,9.49835737 23.2979473,8.59643887 23.2979473,8.59643887" id="Fill-49" fill="#1A1919"></path><path d="M56.8246232,27.7806019 C56.8246232,27.7806019 57.6340025,27.7429091 57.8597078,27.7806019 L57.9819273,27.9968276 L58.2922721,28.0814671 C58.2922721,28.0814671 59.4387423,27.8416552 60.1825542,28.4764514 L60.8596702,28.4200251 C60.8596702,28.4200251 61.0278207,28.0904953 61.2870433,28.2364138 C61.2870433,28.2364138 62.1105292,28.3468966 62.2609618,28.1201755 C62.2609618,28.1201755 62.7708301,27.7405392 62.7781655,28.5046646 L63.7938395,28.4764514 C63.7938395,28.4764514 64.518015,27.8557618 66.210805,27.9686144 C66.210805,27.9686144 68.204573,28.0479498 69.1449743,27.7638997 C69.1449743,27.7638997 71.1764351,26.8711223 68.6559837,26.9873605 L66.549363,27.1410658 C66.549363,27.1410658 66.1355323,27.2848401 65.3079837,26.9873605 C65.3079837,26.9873605 64.894153,26.7649279 64.0666044,26.8025078 C64.0666044,26.8025078 63.7281592,26.6454169 63.2390558,26.9873605 L61.9599837,26.9873605 C61.9599837,26.9873605 61.3580276,27.1034859 60.9443097,27.4420439 C60.9443097,27.4420439 58.8378019,27.2914984 58.5368238,27.4043511 L57.1825918,27.3667712 C57.1825918,27.3667712 56.3913818,27.4420439 56.8246232,27.7806019" id="Fill-51" fill="#1A1919"></path><path d="M65.8723373,27.1405129 C65.8723373,27.1405129 66.4164,26.0538545 67.1090897,26.0519361 L67.4520489,26.2006759 C67.4520489,26.2006759 66.6245003,26.5015411 66.5493404,27.1410771 L65.8723373,27.1405129 Z" id="Fill-53" fill="#1A1919"></path><path d="M63.720316,26.766474 C63.720316,26.766474 63.9006545,25.7606182 63.720316,25.4538846 L64.1417078,25.4481292 L64.066548,26.802474 L63.720316,26.766474 Z" id="Fill-55" fill="#1A1919"></path><path d="M61.2870433,27.1410658 C61.2870433,27.1410658 61.8472439,25.9748464 62.1858019,25.786721 L62.3679461,25.3730031 L63.0510433,25.448163 C63.0510433,25.448163 61.8094382,26.7582696 61.9599837,26.9873605 L61.2870433,27.1410658 Z" id="Fill-57" fill="#1A1919"></path><path d="M59.7000527,27.3749304 C59.7000527,27.3749304 59.8157266,26.6144163 60.4176828,26.2006984 C60.4176828,26.2006984 60.7133567,25.8340401 60.8476514,25.4907423 C60.8476514,25.4907423 60.8070245,25.3666044 60.2737956,25.8964476 C60.2737956,25.8964476 59.9317392,26.0678708 59.6276013,26.012573 C59.6276013,26.012573 59.590247,26.5423034 59.4397016,26.7664288 C59.4397016,26.7664288 59.1142345,26.6003097 59.145269,25.9301906 L58.348642,25.8997204 C58.348642,25.8997204 58.7248928,26.2425668 58.9130182,26.8025417 L58.5367674,27.404385 L59.7000527,27.3749304 Z" id="Fill-59" fill="#1A1919"></path><polygon id="Fill-61" fill="#1A1919" points="0.0725642633 36.8389467 79.4521129 36.8389467 79.4521129 34.6384326 0.0725642633 34.6384326"></polygon><polygon id="Fill-63" fill="#1A1919" points="0.0725642633 39.451373 79.4521129 39.451373 79.4521129 37.2507461 0.0725642633 37.2507461"></polygon><polygon id="Fill-64" fill="#1A1919" points="0.0725642633 42.3572163 79.4521129 42.3572163 79.4521129 40.1567022 0.0725642633 40.1567022"></polygon><path d="M57.4176527,11.7931034 C57.4176527,11.7931034 58.010242,11.4169655 58.5368125,10.9842884 C58.5368125,10.9842884 58.7684991,11.1333668 59.2116715,10.8735799 C59.2116715,10.8735799 59.3643611,11.382094 58.3486871,11.3994734 L58.0202859,11.8834984 C58.0202859,11.8834984 57.7626433,11.6614044 57.4176527,11.7931034" id="Fill-65" fill="#1A1919"></path><path d="M56.4301918,11.9435361 C56.4301918,11.9435361 56.0464928,11.1970157 56.6949442,11.0812288 L55.8377154,10.8996489 C55.8377154,10.8996489 55.7512702,11.7777555 55.3914959,11.9435361 C55.3914959,11.9435361 56.2014395,11.9067461 56.4301918,11.9435361" id="Fill-66" fill="#1A1919"></path><path d="M40.1456878,4.34626082 C40.1456878,4.34626082 40.2246846,3.71417304 40.1456878,3.48406646 C40.1456878,3.48406646 40.6010483,3.55200376 40.7057755,3.59217931 L40.7057755,4.46340188 L40.1456878,4.34626082 Z" id="Fill-67" fill="#1A1919"></path><path d="M29.7989944,3.97205266 C29.7989944,3.97205266 28.5273705,4.17800878 27.8408878,3.6410558 C27.8408878,3.6410558 29.3786182,3.18084263 30.2223047,3.25758245 C30.2223047,3.25758245 30.5261041,3.84283636 29.7989944,3.97205266 M27.2577781,7.13215298 C27.2577781,7.13215298 26.2748313,6.86514357 26.7945179,6.47015925 C26.7945179,6.47015925 26.7499411,6.07517492 27.2577781,6.15044765 C27.2577781,6.15044765 27.4834834,6.32706207 27.2577781,7.13215298 M44.9944928,2.61443511 C43.6778408,3.51725643 42.3613016,2.46388966 42.3613016,2.46388966 L39.7656903,2.50158245 C38.4866182,2.72728777 38.9004489,2.12533166 38.9004489,2.12533166 L40.2546809,2.20060439 L40.3675335,1.93731912 C41.3456276,1.67403386 41.1199223,1.22251034 41.1199223,1.22251034 L38.7123235,1.18493041 L38.7123235,0.432541693 C38.1480602,-0.432699687 34.8753329,0.432541693 34.8753329,0.432541693 C33.5586809,0.620667085 33.3864677,1.18493041 33.3864677,1.18493041 L29.7989944,1.18493041 C29.5000476,1.29778307 29.5712577,1.63634107 29.5712577,1.63634107 L28.6308564,1.63634107 L28.6308564,1.86204639 L24.1167498,1.86204639 L24.0038972,2.27587712 C23.5900665,2.61443511 23.8910445,3.21627837 23.8910445,3.21627837 C24.3048752,3.1411185 24.4928878,3.32913103 24.4928878,3.32913103 C24.756173,3.78054169 25.094731,3.63010909 25.094731,3.63010909 C25.4709818,3.36671097 26.448963,3.51725643 26.448963,3.51725643 C27.126079,3.66768903 26.7123611,4.04382696 26.7123611,4.04382696 L25.6589944,4.00624702 L25.433289,4.38238495 C24.2296025,4.53281755 23.7781918,4.26953229 23.7781918,4.26953229 C23.7029191,4.72094295 22.6496652,4.8714884 22.6496652,4.8714884 C21.8972765,4.68336301 21.4458658,4.8714884 21.4458658,4.8714884 C21.2577404,5.17235361 20.1292138,5.17235361 20.1292138,5.17235361 C19.4520978,4.72094295 20.7687498,4.38238495 20.7687498,4.38238495 C21.2953204,4.11909969 22.8000978,4.30722508 22.8000978,4.30722508 L23.0633831,4.04382696 C23.6653392,3.74296176 23.0633831,3.14100564 23.0633831,3.14100564 C22.7625179,2.9529931 21.3330132,3.14100564 21.3330132,3.14100564 C21.1448878,3.36671097 20.6558972,3.51725643 20.6558972,3.51725643 C20.0539411,3.51725643 19.2263925,3.81812163 19.2263925,3.81812163 L13.5837592,4.08151975 L13.5837592,4.38238495 C14.0351699,4.45765768 14.0727498,4.90906834 14.0727498,4.90906834 C14.1103298,5.47333166 13.0947687,5.43575172 13.0947687,5.43575172 C13.0570759,5.32289906 12.7185179,4.79621567 12.7185179,4.79621567 L11.7781166,4.79621567 C11.7405367,4.57051034 11.1386934,4.38238495 11.1386934,4.38238495 L8.01639875,4.38238495 C8.09155862,4.60809028 7.67095674,4.68336301 7.67095674,4.68336301 C6.98695674,4.75863574 7.22643009,4.98434107 7.22643009,4.98434107 C7.48971536,4.98434107 7.67095674,5.31545078 7.67095674,5.31545078 L7.94112602,5.32289906 C8.8063674,5.24762633 8.16683135,5.77430972 8.16683135,5.77430972 C7.45213542,5.77430972 7.67095674,6.03872351 7.67095674,6.03872351 C8.04021066,6.60422821 9.14492539,6.07517492 9.14492539,6.07517492 C10.273452,5.88704953 9.93489404,6.48900564 9.93489404,6.48900564 L6.09790345,6.48900564 C5.15738934,6.71471097 5.38320752,7.12854169 5.38320752,7.12854169 C6.21075611,7.31655423 5.64649279,7.93724389 5.64649279,7.93724389 C5.49572163,8.50353856 6.77501944,8.03136301 6.77501944,8.03136301 C8.31726395,7.91851034 8.43011661,8.59562633 8.43011661,8.59562633 C9.55864326,9.53602759 9.93489404,8.52035361 9.93489404,8.52035361 C10.950568,8.14421567 11.7028439,9.31032226 11.7028439,9.31032226 L12.2295273,9.08461693 C12.3800727,8.40750094 13.8094646,7.99367022 13.8094646,7.99367022 C13.8094646,7.54225956 14.5618533,7.61753229 14.5618533,7.61753229 C14.8251386,7.12854169 15.2389693,7.12854169 15.2389693,7.12854169 C15.5775273,7.12854169 15.9912451,7.16612163 15.9912451,7.16612163 L17.0069191,7.05326897 L17.1574646,6.86514357 L21.3330132,6.9404163 C21.746731,6.9404163 21.408173,7.46709969 21.408173,7.46709969 L20.5430445,7.50467962 C20.0916339,7.39182696 18.5116966,7.61753229 18.5116966,7.61753229 C18.5492765,7.88093041 17.9474332,8.21937555 17.9474332,8.21937555 L18.9254144,8.44508088 L19.1511197,8.21937555 C19.7153831,7.88081755 20.3924991,8.21937555 20.3924991,8.21937555 C21.0320351,7.99367022 21.7091511,8.21937555 21.7091511,8.21937555 C22.4615398,8.18179561 22.9881103,8.67078621 22.9881103,8.67078621 C24.4927749,8.33222821 24.9066056,7.93724389 24.9066056,7.93724389 L27.8408878,7.93724389 L28.3298784,7.76796489 C28.5555837,7.65511223 29.119847,7.93724389 29.119847,7.93724389 L29.5336777,7.93724389 C29.9850884,7.80554483 30.4364991,7.93724389 30.4364991,7.93724389 C30.6246245,7.73038495 30.6245116,7.31655423 30.6245116,7.31655423 L29.7989944,7.24139436 C29.688173,6.82756364 29.0445743,6.86514357 29.0445743,6.86514357 C28.0665931,6.86514357 27.765615,6.22572038 27.765615,6.22572038 C27.7279223,5.88716238 28.781289,6.33857304 28.781289,6.33857304 L28.8941417,6.07517492 C28.781289,5.58618433 28.104173,5.66145705 28.104173,5.66145705 C27.2013517,5.66145705 27.765615,5.13477367 27.765615,5.13477367 C27.8784677,4.79621567 29.7989944,4.94664828 29.7989944,4.94664828 C30.9295524,4.94664828 30.8879097,5.28520627 30.8879097,5.28520627 C31.9035837,5.360479 33.9725116,5.360479 33.9725116,5.360479 C34.1605241,5.43563887 34.837753,5.39805893 34.837753,5.39805893 C35.3644364,5.73661693 36.3801103,5.73661693 36.3801103,5.73661693 C37.4333643,6.26330031 38.4490382,6.11286771 38.4490382,6.11286771 C38.7123235,6.56427837 39.6528376,6.41373292 39.6528376,6.41373292 C40.1042483,6.56427837 41.0070696,6.07517492 41.0070696,6.07517492 C41.872311,5.96232226 43.5274082,6.30088025 43.5274082,6.30088025 C43.9788188,6.18802759 44.3173768,5.5109116 44.3173768,5.5109116 L42.5117342,5.5109116 L42.4364614,4.72094295 C41.8345053,4.79621567 41.6841856,4.45765768 41.6841856,4.45765768 C41.195195,4.64578307 40.5556589,4.42007774 40.5556589,4.42007774 C40.1418282,4.26953229 38.185753,4.26953229 38.185753,4.26953229 C38.0729003,4.00624702 37.6029818,3.9927047 37.6029818,3.9927047 C36.0421166,4.24244765 36.3801103,3.21627837 36.3801103,3.21627837 L38.7875962,3.21627837 C39.0508815,3.66768903 39.5775649,3.55483636 39.5775649,3.55483636 C40.6308188,3.25397116 41.3832075,3.9927047 41.3832075,3.9927047 L45.49601,3.9927047 C45.4709567,3.6029116 46.8754082,3.2915511 46.8754082,3.2915511 C47.0635335,2.99057304 48.2296401,3.02815298 48.2296401,3.02815298 C47.6653768,2.23818433 44.9944928,2.61443511 44.9944928,2.61443511" id="Fill-68" fill="#1A1919"></path><path d="M37.8659285,23.5673605 C37.8659285,23.5673605 36.7374019,24.2444765 36.6245492,24.6394608 L35.8345806,24.6394608 C35.8345806,24.6394608 35.9474332,23.3416552 36.5116966,22.805605 C36.5116966,22.805605 37.4346056,21.0281755 39.3712702,20.9717492 C39.3712702,20.9717492 39.0508815,22.7773918 37.8659285,23.5673605 Z M53.9474332,10.2131661 L52.8565994,10.1378934 C52.0290508,10.1003135 52.4051887,9.00936677 52.4051887,9.00936677 L51.7280727,8.67080878 C51.8033455,9.19749216 51.3518219,9.68648276 51.3518219,9.68648276 C50.1104426,10.4011787 50.7499787,10.626884 50.7499787,10.626884 C50.975684,11.7931034 49.1324614,12.7335047 49.1324614,12.7335047 C47.9663549,13.8244514 45.8973141,14.1630094 45.8973141,14.1630094 C45.2201981,13.8620313 46.3863047,12.7335047 46.3863047,12.7335047 C47.1762734,12.2068213 48.643358,9.91218809 48.643358,9.91218809 C49.1323486,9.34792476 49.1324614,8.21939812 49.1324614,8.21939812 L48.6810508,8.21939812 C48.9067561,8.52037618 48.4176527,9.27265204 48.4176527,9.27265204 C47.8156966,10.5893041 46.3111448,12.282094 46.3111448,12.282094 L46.4239975,10.8902821 C47.0259536,10.5517241 47.3268188,9.76175549 47.3268188,9.76175549 L48.1543674,8.21939812 L47.7029567,8.21939812 C47.1386934,8.33225078 46.8754082,9.2350721 46.8754082,9.2350721 C46.7625555,9.61121003 46.3863047,9.94976803 46.3863047,9.94976803 L46.3863047,8.21939812 L45.7091887,8.55795611 L45.7468815,9.68648276 L45.934894,9.68648276 C46.1605994,10.1378934 45.934894,10.8525893 45.934894,10.8525893 C45.4082107,10.8902821 45.0697655,11.6802508 45.0697655,11.6802508 C45.0321856,12.5077994 44.4302295,12.282094 44.4302295,12.282094 L44.4302295,11.4168527 L43.8283862,11.4168527 L43.8283862,13.1849154 C43.7155335,13.4858934 42.2860288,14.8777053 42.2860288,14.8777053 C41.9098909,15.5548213 41.2703549,15.8181066 41.2703549,15.8181066 L41.0822295,15.5924013 C40.5555461,14.1253166 41.4960602,13.7867586 41.4960602,13.7867586 C41.7217655,13.4858934 41.8721981,12.7710846 41.8721981,12.7710846 C42.5116213,12.2068213 43.1135774,10.8525893 43.1135774,10.8525893 L42.4364614,10.8525893 C42.3987687,11.5673981 41.5713329,12.1692414 41.5713329,12.1692414 L41.4207875,11.0407147 L40.7436715,11.0407147 C41.1950821,12.6959248 40.3675335,13.4858934 40.3675335,13.4858934 C40.5556589,14.7272727 39.6904176,15.630094 39.6904176,15.630094 C39.8032702,16.2695172 39.6904176,19.6175172 39.6904176,19.6175172 C39.2390069,20.1065078 36.6433956,21.7617179 36.6433956,21.7617179 C34.6496276,22.8902445 35.0754207,25.6738683 35.0754207,25.6738683 C33.4579034,26.6143824 33.0696903,28.3071724 33.0696903,28.3071724 C32.843985,29.4356991 31.6026056,29.8871097 31.6026056,29.8871097 C31.6026056,29.3980063 30.5116589,27.8934545 30.5116589,27.8934545 C30.5869317,26.8777806 30.2107937,26.1253918 30.2107937,26.1253918 C29.9475085,25.5611285 29.2326997,24.2821693 29.2326997,24.2821693 L29.119847,23.04079 C29.0445743,22.1378558 28.781289,21.1974545 28.781289,21.1974545 C28.2546056,20.369906 28.8941417,19.1661066 28.8941417,19.1661066 C29.0445743,18.7899687 28.8565618,18.1504326 28.8565618,18.1504326 L28.4051511,18.1504326 C28.6308564,18.9028213 28.104173,19.2036865 28.104173,19.2036865 C27.6151824,20.0689279 28.141753,21.6488652 28.141753,21.6488652 L28.1794458,23.6050533 C28.104173,24.2821693 29.119847,25.4858558 29.119847,25.4858558 C29.6088376,26.0124263 29.0069944,26.0125392 29.0069944,26.0125392 C28.5931636,25.7868339 28.141753,25.0344451 28.141753,25.0344451 C27.8784677,24.2444765 27.3142044,23.8683386 27.3142044,23.8683386 C27.1637718,23.1536426 26.3738031,22.7398119 26.3738031,22.7398119 C25.9599724,22.6269592 26.0352451,21.9874232 26.0352451,21.9874232 C26.0728251,21.1221818 25.8471197,20.8213166 25.8471197,20.8213166 C25.3581292,20.4827586 25.5838345,19.6175172 25.5838345,19.6175172 L24.756173,19.6175172 C25.2075837,19.9936552 25.0195712,20.8213166 25.0195712,20.8213166 C25.5838345,21.1598746 25.5838345,21.4231599 25.5838345,21.4231599 C25.6214144,22.0250031 25.5085618,22.7773918 25.5085618,22.7773918 C25.433289,22.6268464 24.9442984,22.4388339 24.9442984,22.4388339 C23.9286245,22.2131285 23.7404991,21.0093292 23.7404991,21.0093292 L23.1010759,19.8808025 C22.6120853,19.5422445 22.9129505,19.0908339 22.9129505,19.0908339 L22.1605618,19.015674 L22.3111072,19.9936552 C22.4992326,20.4827586 23.2571511,21.2350345 23.2571511,21.2350345 L23.2571511,21.7992978 C22.2846997,21.7241379 22.0101292,21.1974545 22.0101292,21.1974545 C21.2954332,20.369906 19.2263925,19.5422445 19.2263925,19.5422445 C18.2484113,19.5046646 18.3612639,18.8275486 18.3612639,18.8275486 L17.007032,18.8275486 C17.34559,19.9936552 18.5116966,19.9936552 18.5116966,19.9936552 C19.6026433,20.031348 20.0916339,20.6707712 20.0916339,20.6707712 C21.4082859,21.7617179 21.9725492,21.8745705 21.9725492,21.8745705 C22.8000978,22.5893793 24.1167498,22.9654044 24.1167498,22.9654044 C26.1856777,23.6802132 27.0884991,24.8464326 27.0884991,24.8464326 C28.1794458,25.5987085 28.1794458,26.3135172 28.1794458,26.3135172 C28.7060163,26.6896552 28.7060163,26.9873605 28.7060163,26.9873605 C28.7060163,27.8867962 29.119847,28.156627 29.119847,28.156627 C29.6088376,28.1943197 29.495985,28.5328777 29.495985,28.5328777 L29.495985,36.0940063 L31.659032,36.0940063 L31.8847373,33.329116 C31.8847373,32.9341317 32.2797216,32.3698683 32.2797216,32.3698683 C32.2797216,31.8620313 32.9004113,30.6770784 32.9004113,30.6770784 C33.5211009,30.3385204 34.1417906,29.3228464 34.1417906,29.3228464 C34.3110696,28.6457304 35.3267436,27.5172038 35.3267436,27.5172038 C37.3580915,24.8651661 39.1073078,24.1316238 39.1073078,24.1316238 C39.9537028,23.3416552 39.8972765,22.4952602 39.8972765,22.4952602 C39.8408502,21.5360125 40.8565241,19.5422445 40.8565241,19.5422445 C41.4959473,19.015674 42.925452,17.8118746 42.925452,17.8118746 C44.2419912,17.0971787 44.9944928,15.630094 44.9944928,15.630094 C45.4834834,14.4639875 46.273452,14.7648527 46.273452,14.7648527 C47.966242,14.652 48.3423799,13.7115987 48.3423799,13.7115987 C48.6432451,13.1849154 49.5461793,13.2224953 49.5461793,13.2224953 C50.1857154,13.0344828 50.7122859,12.4325266 50.7122859,12.4325266 C50.4113078,12.2068213 50.7875586,11.6802508 50.7875586,11.6802508 C51.5363361,11.2546834 51.5399473,10.8525893 51.5399473,10.8525893 C51.5399473,10.7021567 52.2170633,10.7774295 52.2170633,10.7774295 C53.1951574,10.9655549 52.3674959,11.4921254 52.3674959,11.4921254 C52.0289379,11.7554107 51.8032326,12.5077994 51.8032326,12.5077994 L52.329916,12.5077994 C52.1419034,12.1692414 52.4427687,11.7931034 52.4427687,11.7931034 C52.8941793,11.6049781 53.3078972,11.1159875 53.3078972,11.1159875 C53.4583298,10.6269969 54.1731386,10.5893041 54.1731386,10.5893041 L53.9474332,10.2131661 Z" id="Fill-69" fill="#1A1919"></path><path d="M40.8565241,18.6018433 C40.8565241,18.6018433 40.9129505,17.2476113 40.8565241,16.683348 C40.8565241,16.683348 42.0414771,15.9498056 42.2107561,15.667674 C42.2107561,15.667674 43.2828564,14.9341317 43.7342671,14.0877367 C43.7342671,14.0877367 44.2421041,12.95921 45.1449254,12.451373 C45.1449254,12.451373 45.934894,12.112815 45.1449254,13.1849154 C45.1449254,13.1849154 44.5053893,14.4262947 44.4678094,14.9152853 C44.4678094,14.9152853 43.8659661,16.4576426 42.9631448,17.0594859 C42.9631448,17.0594859 42.0019787,18.3003009 40.8565241,18.6018433" id="Fill-70" fill="#FFFFFE"></path><path d="M40.8565241,18.6018433 C40.8565241,18.6018433 40.9129505,17.2476113 40.8565241,16.683348 C40.8565241,16.683348 42.0414771,15.9498056 42.2107561,15.667674 C42.2107561,15.667674 43.2828564,14.9341317 43.7342671,14.0877367 C43.7342671,14.0877367 44.2421041,12.95921 45.1449254,12.451373 C45.1449254,12.451373 45.934894,12.112815 45.1449254,13.1849154 C45.1449254,13.1849154 44.5053893,14.4262947 44.4678094,14.9152853 C44.4678094,14.9152853 43.8659661,16.4576426 42.9631448,17.0594859 C42.9631448,17.0594859 42.0019787,18.3003009 40.8565241,18.6018433 Z" id="Stroke-71" stroke="#1A1919" stroke-width="0.5"></path><path d="M63.5023298,10.7397931 C63.5023298,10.7397931 62.7876339,11.0407712 62.4490759,10.7397931 C62.4490759,10.7397931 61.9600853,10.1755298 62.4490759,10.0626771 C62.4490759,10.0626771 63.2013517,9.94982445 63.5023298,10.2508025 C63.5023298,10.2508025 63.921126,10.624232 63.5023298,10.7397931 M61.9599724,11.793047 L61.5462545,11.793047 C61.2453893,11.3040564 61.5462545,11.1912038 61.5462545,11.1912038 C62.0027436,10.7741003 62.2317216,11.1912038 62.2317216,11.1912038 C62.6539034,11.6050345 61.9599724,11.793047 61.9599724,11.793047 M70.0853643,9.08413166 C70.3110696,8.08685266 69.6339536,8.50158621 69.6339536,8.50158621 C68.7875586,8.55801254 67.9411636,8.21945455 67.9411636,8.21945455 L63.3706307,8.21945455 L63.0320727,7.82447022 C61.2264301,6.80879624 58.8565241,8.21945455 58.8565241,8.21945455 C57.5587185,7.93732288 58.5368125,7.14735423 58.5368125,7.14735423 C58.7813643,6.97807524 60.5493141,7.0909279 60.5493141,7.0909279 C61.2264301,7.03450157 61.2828564,6.75236991 61.2828564,6.75236991 C61.7342671,6.24453292 60.8314458,5.72902194 60.8314458,5.72902194 C60.0979034,5.10065831 57.3894395,5.28528527 57.3894395,5.28528527 C56.3173392,5.05957994 55.8659285,4.15675862 55.8659285,4.15675862 C54.3988439,3.53606897 50.5618533,4.67915361 50.5618533,4.67915361 C49.3769003,4.63739812 48.2296401,4.67915361 48.2296401,4.67915361 L47.7405367,5.5109906 C47.289126,5.3417116 45.8220414,5.79312226 45.8220414,5.79312226 L45.49601,6.30095925 C44.6622545,5.96240125 44.1292514,6.84141066 44.1292514,6.84141066 C43.6778408,6.81759875 42.3800351,6.86522257 42.3800351,6.86522257 C41.3643611,6.69594357 41.9286245,7.48591223 41.9286245,7.48591223 L43.3110696,7.28842006 C43.1121103,7.74016928 43.7060539,8.05017555 43.7060539,8.05017555 C43.8753329,8.33230721 44.1010382,8.38873354 44.1010382,8.38873354 C44.8345806,8.21945455 45.49601,8.50158621 45.49601,8.50158621 C46.0164865,8.64265204 46.5273705,8.21945455 46.5273705,8.21945455 C46.950568,7.57055172 47.7029567,8.21945455 47.7029567,8.21945455 C48.5117718,8.50158621 49.1324614,8.21945455 49.1324614,8.21945455 C49.7062044,7.90910972 50.8721981,8.05017555 50.8721981,8.05017555 C51.8314458,8.07838871 51.7280727,8.6708652 51.7280727,8.6708652 L52.4051887,9.0094232 C53.1701041,8.79094044 53.3267436,9.63011285 53.3267436,9.63011285 C53.9756464,9.40440752 53.9756464,9.75605643 53.9756464,9.75605643 L53.9474332,10.2131097 L54.3424176,10.7868527 C54.5116966,10.7022132 55.8377154,10.8997053 55.8377154,10.8997053 L56.3737655,11.0971975 C57.7844238,11.0689843 57.8408502,10.5893605 57.8408502,10.5893605 C58.0383423,10.504721 58.5368125,10.4385893 58.5368125,10.4385893 L58.5368125,10.9843448 L58.9693768,11.0689843 C59.2232953,10.9279185 59.3079348,10.7304263 59.3079348,10.7304263 C60.3518219,10.2225893 60.8314458,11.3229028 60.8314458,11.3229028 C61.7906934,12.1128715 60.8032326,13.2413981 60.8032326,13.2413981 C60.6903799,13.6645956 60.3236088,13.3824639 60.3236088,13.3824639 C60.0979034,13.213185 59.3925743,12.0564451 59.3925743,12.0564451 L58.2076213,12.0564451 C58.1229818,11.7743135 57.4176527,11.793047 57.4176527,11.793047 C56.796963,12.0940251 56.4301918,11.9435925 56.4301918,11.9435925 C55.6684364,11.858953 54.8502545,12.1692978 54.8502545,12.1692978 C53.5806621,12.8182006 50.7122859,12.4325831 50.7122859,12.4325831 C50.4677342,12.808721 49.5461793,13.2225517 49.5461793,13.2225517 C49.7129755,13.2189404 49.7718846,13.5235298 49.7718846,13.5235298 C49.9411636,14.1160063 51.0521981,13.8633292 51.0521981,13.8633292 C51.7117091,13.9209969 52.630894,13.9372476 52.630894,13.9372476 C52.7814395,14.0971599 53.34559,14.0125204 53.34559,14.0125204 C54.0602859,13.9090345 53.9192201,14.2570721 53.9192201,14.2570721 C54.0320727,14.5956301 54.8312953,14.5833292 54.8312953,14.5833292 C55.150894,14.1761567 56.3549191,14.7649091 56.3549191,14.7649091 C57.0978282,14.5109906 57.7844238,14.5956301 57.7844238,14.5956301 C58.2076213,14.5392038 58.5368125,15.5012727 58.5368125,15.5012727 C60.5587937,15.673373 60.3518219,15.2163197 60.3518219,15.2163197 C60.6903799,14.9624013 61.2264301,15.3855987 61.2264301,15.3855987 C61.5932013,15.3291724 61.7342671,14.7931223 61.7342671,14.7931223 C62.6370884,14.3981379 64.4709442,14.9059749 64.4709442,14.9059749 C65.1762734,14.9341881 66.8408502,15.0752539 66.8408502,15.0752539 C68.505427,14.9059749 67.9129505,13.9749404 67.9129505,13.9749404 L67.0383423,13.9749404 C67.151195,13.6081693 66.7279975,13.4671034 66.7279975,13.4671034 C65.0352075,13.9467273 64.6966495,13.1890345 64.6966495,13.1890345 C64.1323862,13.2777367 62.4960226,13.1567586 62.4960226,13.1567586 C61.7342671,13.2978245 61.8753329,12.9310533 61.8753329,12.9310533 L63.6527624,11.4921818 C64.0195335,11.3229028 65.2326997,11.4921818 65.2326997,11.4921818 C65.289126,11.2382633 64.5837969,10.7868527 64.5837969,10.7868527 C63.9066809,10.7304263 64.1888125,10.3072288 64.1888125,10.3072288 L64.950568,10.3072288 C64.9787812,10.0533103 65.5994708,9.88493417 65.5994708,9.88493417 C66.1637342,9.82941066 66.5022922,9.71475235 66.5022922,9.71475235 C67.320474,9.43262069 69.0132639,9.65832602 69.0132639,9.65832602 C69.2671824,9.99688401 69.7468063,9.85581818 69.7468063,9.85581818 C71.2138909,9.34798119 70.0853643,9.08413166 70.0853643,9.08413166" id="Fill-72" fill="#1A1919"></path><path d="M63.3142044,24.9967524 C63.3142044,24.9967524 62.3267436,25.3657806 61.5085618,24.6394608 C61.5085618,24.6394608 62.110405,24.3950219 62.3361103,24.4701818 L62.3361103,24.2173918 C62.3361103,24.2173918 63.0886119,24.002069 63.6151824,24.2173918 C63.6151824,24.2173918 63.9938031,24.5931912 63.3142044,24.9967524 M60.6810132,24.3573292 L59.7781918,24.3573292 C59.7781918,24.3573292 59.7028063,24.5830345 59.1762357,24.6394608 C59.1762357,24.6394608 56.722706,24.8838997 55.3914959,24.6394608 C55.3914959,24.6394608 55.8421166,23.9059185 56.1362107,23.7366395 C56.1362107,23.7366395 57.3142796,23.6237868 58.5368125,23.7366395 C58.5368125,23.7366395 60.4928878,23.8307586 61.0571511,23.9811912 C61.0571511,23.9811912 61.7719599,24.2067837 60.6810132,24.3573292 M73.8470821,24.6394608 L69.2577028,24.6394608 C67.3015147,24.5453417 65.6841103,23.9811912 65.6841103,23.9811912 C61.2828564,22.7399248 53.016963,23.2288025 53.016963,23.2288025 C52.4250508,23.2288025 52.7060539,22.805605 52.7060539,22.805605 C53.2703172,22.4952602 52.8941793,22.1567022 52.8941793,22.1567022 L47.5901041,21.9497304 C46.8001354,22.0250031 47.2138533,22.4011411 47.2138533,22.4011411 C47.9285492,22.4388339 47.8909693,23.1159498 47.8909693,23.1159498 C47.5147185,23.2664953 47.289126,23.6802132 47.289126,23.6802132 L46.4991574,23.6802132 C45.5210633,23.755373 45.7844614,23.4922006 45.7844614,23.4922006 L41.6089129,23.4922006 C41.195195,23.6802132 41.7723235,24.1693166 41.7723235,24.1693166 L43.7906934,24.0751975 L43.8658533,24.432489 L43.1763235,24.6394608 C39.5900915,24.6581944 39.8031574,25.7492539 39.8031574,25.7492539 L41.6840727,25.8621066 C43.4897154,25.8244138 44.2797969,26.1629718 44.2797969,26.1629718 L45.0320727,25.9372665 C45.0320727,25.6364013 45.8784677,25.7115611 45.8784677,25.7115611 C46.7248627,25.5987085 47.8909693,25.7115611 47.8909693,25.7115611 L48.5680853,25.2037241 C48.0594583,24.8879624 48.6809379,24.3950219 48.6809379,24.3950219 L49.9223172,24.4326019 C49.7696276,24.1380564 50.1856025,23.9811912 50.1856025,23.9811912 C50.9378784,23.7554859 50.3925743,24.6394608 50.3925743,24.6394608 L50.4635586,25.2009028 L51.0885367,25.1285643 C51.8866307,24.8704702 52.0100915,25.448163 52.0100915,25.448163 C52.7436339,25.8244138 52.837753,25.4106959 52.837753,25.4106959 L53.7593078,24.9215925 C53.4741292,24.4210909 54.0368125,24.0751975 54.0368125,24.0751975 C54.7657279,24.0563511 54.7374019,24.9968652 54.7374019,24.9968652 C53.684148,25.2225705 54.0368125,25.9749592 54.0368125,25.9749592 C54.5400226,25.8244138 56.5994708,25.852627 56.5994708,25.852627 C57.5398721,25.852627 58.3486871,25.8996865 58.3486871,25.8996865 C58.7249379,25.8244138 59.6276464,26.0125392 59.6276464,26.0125392 C60.0790571,26.3135172 60.5304677,25.5987085 60.5304677,25.5987085 C61.470869,25.2224577 62.3679348,25.3730031 62.3679348,25.3730031 C63.3401605,25.4858558 64.141753,25.448163 64.141753,25.448163 C67.0006495,24.8087398 67.151195,26.2006646 67.151195,26.2006646 L67.4520602,26.2006646 C68.1291762,25.7492539 72.1542922,25.3730031 72.1542922,25.3730031 C73.9599348,25.0344451 73.8470821,24.6394608 73.8470821,24.6394608" id="Fill-73" fill="#1A1919"></path><path d="M56.2420665,29.8119498 C56.2420665,29.8119498 55.752963,30.789931 55.9035085,31.0533292 C55.9035085,31.0533292 55.8659285,31.1849154 55.5273705,31.3259812 C55.5273705,31.3259812 54.8502545,31.3541944 54.8502545,31.7304451 C54.8502545,31.7304451 54.6246621,31.7304451 54.4741166,31.5423197 L54.4741166,29.6614044 C54.4741166,29.6614044 55.8470821,29.0971411 55.7530759,28.3448652 C55.7530759,28.3448652 56.1292138,27.9310345 56.2420665,28.7210031 C56.2420665,28.7210031 56.3924991,29.2852665 56.2420665,29.8119498 Z M49.96001,29.2476865 C49.96001,29.2476865 49.659032,28.8714357 49.282894,28.9842884 L49.282894,28.0814671 C49.282894,28.0814671 49.659032,27.6300564 49.96001,28.0814671 C49.96001,28.0814671 49.9977028,28.4200251 50.1481354,28.6834232 C50.1481354,28.6834232 50.4327498,29.0629467 49.96001,29.2476865 Z M62.7781542,28.5046646 C62.1574646,28.5046646 61.4803486,29.1535674 61.4803486,29.1535674 C61.3957091,29.5203386 61.0571511,29.4356991 61.0571511,29.4356991 C60.8878721,29.3510596 60.8596589,28.4200251 60.8596589,28.4200251 L60.1825429,28.4764514 C60.5493141,28.8996489 60.3518219,29.9999624 60.3518219,29.9999624 C59.7311323,30.7052915 56.7405367,31.1002759 56.7405367,31.1002759 C55.950568,30.9027837 56.7123235,30.1410282 56.7123235,30.1410282 C57.3330132,29.6614044 58.2922608,28.0814671 58.2922608,28.0814671 L57.981916,27.9968276 C57.643358,28.3918119 56.796963,29.2099937 56.796963,29.2099937 C56.8816025,28.7585831 56.5994708,28.3353856 56.5994708,28.3353856 C56.0352075,28.0532539 56.4301918,26.6990219 56.4301918,26.6990219 C56.5712577,26.4733166 56.5994708,25.852627 56.5994708,25.852627 L56.119847,25.852627 L56.119847,26.3886771 C56.0634207,26.8965141 55.8095022,26.7272351 55.8095022,26.7272351 C55.5837969,26.5579561 55.6590696,25.852627 55.6590696,25.852627 L55.5273705,25.9372665 L55.5273705,26.3322508 C55.4991574,26.9529404 55.6590696,27.1786458 55.6590696,27.1786458 L55.6590696,27.9686144 C55.170079,29.0030219 54.1731386,29.3041129 54.1731386,29.3041129 C53.853427,29.0407147 54.0978658,27.6864828 54.0978658,27.6864828 C54.2482984,27.4984702 54.6057028,27.1222194 54.6057028,27.1222194 C54.6057028,26.9152476 54.9066809,25.9372665 54.9066809,25.9372665 L54.3048376,25.8244138 L54.1731386,26.7649279 C53.8345806,27.5924765 53.4584426,27.6864828 53.4584426,27.6864828 C53.2327373,27.6300564 52.9506056,27.2727649 52.9506056,27.2727649 C52.8565994,27.0846395 52.837753,25.4106959 52.837753,25.4106959 L52.5367749,25.7115611 L52.668474,27.6864828 C52.7437467,28.1002006 53.7781542,29.0784075 53.7781542,29.0784075 C53.8722734,29.3416928 53.8721605,31.7868715 53.8721605,31.7868715 C54.0038596,32.9718245 53.4208627,34.2319373 53.4208627,34.2319373 C53.1951574,35.0783323 52.643195,34.683348 52.643195,34.683348 C52.5616025,34.2132038 52.0853643,33.329116 52.0853643,33.329116 C51.8783925,32.990558 51.8972389,31.3259812 51.8972389,31.3259812 C51.7655398,29.9999624 50.9945304,29.4921254 50.9945304,29.4921254 C50.4866934,29.134721 50.6182796,28.2507461 50.6182796,28.2507461 C50.336148,27.7993354 51.4458282,26.9873605 51.4458282,26.9873605 C51.6151072,26.7770031 52.4050759,25.617442 52.4050759,25.617442 L52.0100915,25.448163 C51.9159724,25.8808401 51.5586809,26.0313856 51.5586809,26.0313856 L51.5399473,26.4074107 L51.2389693,26.7459687 C51.0132639,27.140953 50.806405,26.9873605 50.806405,26.9873605 C50.5242734,26.7958495 50.7122859,26.1629718 50.7122859,26.1629718 L50.9004113,26.0878119 C51.0508439,26.0501191 51.0321103,25.8995737 51.0321103,25.8995737 L51.0885367,25.1285643 L50.8815649,25.109605 C50.8627185,25.617442 50.806405,25.8808401 50.806405,25.8808401 C50.5431197,25.8056803 50.3737279,25.956 50.3737279,25.956 L50.4114207,27.1599122 L50.298568,27.3666583 C50.0541292,27.5547837 49.96001,27.4043511 49.96001,27.4043511 L49.96001,25.956 L50.1480226,25.6551348 C50.2231824,25.3542696 50.6182796,25.0721379 50.6182796,25.0721379 L50.3925743,24.6394608 L49.8471574,24.7900063 C49.4898658,24.9028589 49.7530382,25.2037241 49.7530382,25.2037241 C49.8846245,25.8995737 49.6966119,26.3699436 49.6966119,26.3699436 L49.3957467,26.1442382 C49.0007624,26.0125392 49.0759223,25.2037241 49.0759223,25.2037241 L48.3800727,25.2037241 L47.8909693,25.7115611 C48.7749442,26.0501191 49.2453141,26.8589342 49.2453141,26.8589342 C49.4145931,27.0657931 49.151195,27.5548966 49.151195,27.5548966 C48.812637,28.0063072 49.1700414,29.2287273 49.1700414,29.2287273 C49.3017404,29.4544326 50.1104426,29.6049781 50.1104426,29.6049781 C50.9568376,29.9058433 51.2389693,30.6393856 51.2389693,30.6393856 C51.6715335,31.297768 51.4082483,32.2005893 51.4082483,32.2005893 L50.7875586,32.2193229 C49.3956339,31.5610533 47.3643987,29.2476865 47.3643987,29.2476865 C47.1386934,28.7774295 47.4772514,27.7617555 47.4772514,27.7617555 C47.6653768,27.6300564 47.7781166,27.0657931 47.7781166,27.0657931 C47.8721229,26.6519624 47.7593831,25.7115611 47.7593831,25.7115611 L47.289126,25.7115611 L47.2139661,27.2163386 C47.1763862,27.7241755 46.7437091,28.2884389 46.7437091,28.2884389 C46.6684364,28.4012915 46.3863047,28.3260188 46.3863047,28.3260188 C46.3674583,27.8557618 45.8784677,27.4420439 45.8784677,27.4420439 C45.972474,27.0093668 45.8784677,25.7115611 45.8784677,25.7115611 L45.5963361,25.7115611 C45.6716088,26.2193981 45.49601,27.3291912 45.49601,27.3291912 L45.0320727,26.9873605 L45.0320727,25.8244138 L44.2797969,26.1629718 L44.5806621,26.6520752 C44.8439473,27.3291912 47.2515461,30.3385204 47.2515461,30.3385204 C47.8158094,31.2789216 50.3737279,32.821279 50.3737279,32.821279 C51.7655398,33.4231223 51.8596589,34.5704953 51.8596589,34.5704953 C51.6903799,35.021906 52.3110696,36.0940063 52.3110696,36.0940063 C52.8189066,36.6582696 52.5932013,38.0125016 52.5932013,38.0125016 L53.2985304,38.0125016 L53.3267436,36.7429091 C53.4395962,36.1786458 53.8627937,34.9936928 53.8627937,34.9936928 C54.1167122,33.0187712 55.0477467,32.2570157 55.0477467,32.2570157 C55.3580915,31.6927524 57.2201605,32.0030972 57.2201605,32.0030972 C57.812637,31.9466708 60.2671824,30.8745705 60.2671824,30.8745705 C61.5085618,30.3667335 63.7938282,28.4764514 63.7938282,28.4764514 L62.7781542,28.5046646 Z" id="Fill-74" fill="#1A1919"></path><path d="M18.5664639,59.653106 L19.2774357,59.653106 L19.2774357,59.8515009 C19.2774357,60.5607799 19.1302759,61.0038395 18.8359561,61.1804539 C18.5416364,61.3571812 17.80121,61.445432 16.6146771,61.445432 C15.5520564,61.445432 14.8767461,61.2898082 14.5886332,60.9783348 C14.3005204,60.6668614 14.1565204,59.9341091 14.1565204,58.7799649 C14.1565204,57.8774821 14.1890219,57.3098332 14.2540251,57.0773567 C14.3190282,56.8446545 14.5050094,56.6367799 14.8117429,56.4537329 C15.1710658,56.2402157 15.9470408,56.1335699 17.1397806,56.1335699 C17.9483699,56.1335699 18.492884,56.2364915 18.77321,56.4423348 C19.0535361,56.6482909 19.1938119,57.0460966 19.1938119,57.6358646 L19.1984389,57.7770433 L18.4874671,57.7770433 L18.4828401,57.6169053 C18.4828401,57.197432 18.3997806,56.9279398 18.2342257,56.8084288 C18.0684451,56.6889179 17.6943386,56.6292188 17.111906,56.6292188 C16.0896865,56.6292188 15.4653856,56.6990746 15.2392288,56.8388991 C15.0130721,56.9788364 14.8999937,57.3664853 14.8999937,58.0019586 C14.8999937,59.4637392 14.9759436,60.3205166 15.1276176,60.5722909 C15.2794044,60.8238395 15.7984138,60.9496702 16.6844201,60.9496702 C17.5270909,60.9496702 18.0529843,60.8950495 18.2621003,60.7856953 C18.4711034,60.6764539 18.5757179,60.4019962 18.5757179,59.9620966 L18.5664639,59.653106 Z" id="Fill-75" fill="#1A1919"></path><path d="M24.465442,56.6292301 C23.4616176,56.6292301 22.874558,56.7207536 22.7042633,56.9038006 C22.5338558,57.0868476 22.448652,57.7147599 22.448652,58.7875373 C22.448652,59.8629103 22.5338558,60.4920639 22.7042633,60.6752238 C22.874558,60.8582708 23.4616176,60.9496815 24.465442,60.9496815 C25.4723135,60.9496815 26.060953,60.8582708 26.2312476,60.6752238 C26.4016552,60.4920639 26.4868589,59.8629103 26.4868589,58.7875373 L26.4868589,58.4480765 L26.482232,57.9562646 C26.482232,57.3817317 26.3644138,57.0169918 26.1290031,56.8618194 C25.8935925,56.7067599 25.3390345,56.6292301 24.465442,56.6292301 M24.470069,56.1334683 C25.6690157,56.1334683 26.4188088,56.2771298 26.7192226,56.5644527 C27.0197492,56.8516627 27.170069,57.5698571 27.170069,58.7190357 C27.170069,59.9570295 27.0258433,60.7209292 26.7378433,61.0107348 C26.4497304,61.3006533 25.6938433,61.4454433 24.470069,61.4454433 C23.2526144,61.4454433 22.4975172,61.3017818 22.2046646,61.0144589 C21.9119248,60.7272489 21.7655549,59.9849041 21.7655549,58.7875373 L21.7655549,58.4214433 L21.7748088,57.9295185 C21.7748088,57.2380702 21.964627,56.7658947 22.3440376,56.512879 C22.7235611,56.260089 23.4322759,56.1334683 24.470069,56.1334683" id="Fill-76" fill="#1A1919"></path><path d="M37.0142408,56.1868476 L37.0142408,61.3920639 L36.2985292,61.3920639 L36.2985292,57.2279135 L36.2985292,56.9151987 L36.3031561,56.758785 L36.3078959,56.6025969 L36.2892752,56.6025969 L36.233526,56.7245906 C36.2056514,56.785531 36.1870307,56.8249166 36.1777768,56.8427473 L36.0570245,57.0868476 L33.8961216,61.3920639 L33.18041,61.3920639 L31.0149931,57.13639 L30.8895009,56.8961266 L30.8336389,56.7740201 C30.8181781,56.7461455 30.7996702,56.7067599 30.7778897,56.6558633 L30.7593818,56.6558633 L30.7640088,56.7969292 L30.7686357,56.941832 L30.7686357,57.2279135 L30.7686357,61.3920639 L30.053037,61.3920639 L30.053037,56.1868476 L31.293852,56.1868476 L32.9852878,59.5540326 L33.2547799,60.0993367 L33.3896389,60.3700702 L33.5196451,60.6409166 L33.5382658,60.6409166 L33.668385,60.3700702 C33.7335009,60.2404025 33.7768364,60.1502332 33.7985041,60.0993367 L34.0727361,59.5578696 L35.7549179,56.1868476 L37.0142408,56.1868476 Z" id="Fill-77" fill="#1A1919"></path><path d="M40.9985831,58.844731 L42.6947586,58.844731 C43.4040376,58.844731 43.8588339,58.7851448 44.0585831,58.665521 C44.2584451,58.5461229 44.3583197,58.2715524 44.3583197,57.8418094 C44.3583197,57.3384865 44.2909467,57.0200163 44.1562006,56.8866245 C44.0214545,56.7531197 43.7015172,56.6864238 43.1966144,56.6864238 L42.9224953,56.6825868 L40.9985831,56.6825868 L40.9985831,58.844731 Z M40.2829843,61.3920414 L40.2829843,56.1868251 L42.9456301,56.1868251 L43.1873605,56.1868251 C43.9029592,56.1868251 44.3909342,56.2999034 44.6510596,56.5262859 C44.9114107,56.7525555 45.0414169,57.1758658 45.0414169,57.7961041 C45.0414169,58.3909505 44.9058809,58.7965429 44.6349216,59.0125429 C44.3637367,59.2285429 43.854884,59.3366558 43.1082508,59.3366558 L42.8295047,59.3406056 L40.9985831,59.3406056 L40.9985831,61.3920414 L40.2829843,61.3920414 Z" id="Fill-78" fill="#1A1919"></path><path d="M51.6513668,59.8477317 L50.2433041,56.6673179 L48.8538621,59.8477317 L51.6513668,59.8477317 Z M51.8605956,60.2900013 L48.649373,60.2900013 L48.161511,61.3921204 L47.4040439,61.3921204 L49.7275674,56.1869041 L50.731279,56.1869041 L53.1012978,61.3921204 L52.3530846,61.3921204 L51.8605956,60.2900013 Z" id="Fill-79" fill="#1A1919"></path><polygon id="Fill-80" fill="#1A1919" points="61.2354696 56.1868476 61.2354696 61.3920639 60.0597705 61.3920639 57.4016389 57.8493931 56.969526 57.2660577 56.7557831 56.9761392 56.5419273 56.6864464 56.5234194 56.6864464 56.5280464 56.8808915 56.5326734 57.0791737 56.5326734 57.4681768 56.5326734 61.3920639 55.8170746 61.3920639 55.8170746 56.1868476 56.9880339 56.1868476 59.3069304 59.290973 59.9111436 60.1068978 60.2130245 60.5111361 60.5105041 60.9192113 60.5291248 60.9192113 60.524385 60.7247661 60.519758 60.5263712 60.519758 60.1374809 60.519758 56.1868476"></polygon><path d="M69.3092765,56.1868476 L66.9113831,59.2184088 L66.9113831,61.3920639 L66.1957843,61.3920639 L66.1957843,59.2184088 L63.8582671,56.1868476 L64.6901041,56.1868476 L66.0517843,57.9448665 L66.3119097,58.2842144 C66.3459912,58.3248414 66.3893266,58.3808163 66.4420288,58.4520263 L66.567521,58.6235624 L66.5861417,58.6235624 C66.6418909,58.547274 66.6836464,58.4901705 66.711521,58.4520263 L66.837126,58.2842144 L67.1018784,57.9448665 L68.4588188,56.1868476 L69.3092765,56.1868476 Z" id="Fill-81" fill="#1A1919"></path></g></g></g></svg> 