<?xml version="1.0" encoding="UTF-8"?> <svg xmlns="http://www.w3.org/2000/svg" xmlns:xlink="http://www.w3.org/1999/xlink" width="148px" height="72px" viewBox="0 0 148 72"><!-- Generator: Sketch 50.2 (55047) - http://www.bohemiancoding.com/sketch --><title>Allpack logo</title><desc>Created with Sketch.</desc><defs></defs><g id="Allpack-logo" stroke="none" stroke-width="1" fill="none" fill-rule="evenodd"><g id="Group-2"><path d="M46.3965517,42.5538621 L54.314069,42.5538621 L54.314069,14.1138621 L46.3965517,14.1138621 L46.3965517,42.5538621 Z M35.4302069,42.5538621 L43.344,42.5538621 L43.344,14.1138621 L35.4302069,14.1138621 L35.4302069,42.5538621 Z M24.7996552,33.1944828 C24.7996552,31.887931 24.5731034,31.0593103 24.2342069,30.4653103 C23.8946897,29.9904828 23.3292414,29.636069 22.5378621,29.636069 C21.9736552,29.636069 21.5193103,29.8737931 21.0674483,30.3467586 C20.6155862,30.8215862 20.3884138,31.4131034 20.3884138,32.1237931 C20.3884138,32.7146897 20.6155862,33.3111724 21.0674483,33.7816552 C21.4075862,34.2608276 21.9736552,34.3762759 22.5378621,34.3762759 C22.8761379,34.3762759 23.102069,34.3762759 23.3292414,34.2608276 C23.4415862,34.2608276 23.6668966,34.1391724 23.8946897,34.0212414 L23.8946897,42.5538621 L23.7811034,42.5538621 C23.2175172,42.6717931 22.7656552,42.6717931 22.5378621,42.6717931 C19.5964138,42.6717931 17.2228966,41.7233793 15.3018621,39.708 C13.491931,37.8124138 12.5857241,35.3265517 12.5857241,32.2442069 C12.5857241,31.2964138 12.6986897,30.3467586 12.9246207,29.4008276 C13.1530345,28.4511724 13.491931,27.621931 13.9437931,26.6728966 C14.8487586,25.0137931 15.9777931,23.7115862 17.5636552,22.7637931 C19.1470345,21.8184828 20.7297931,21.4628276 22.5378621,21.4628276 C24.7996552,21.4628276 26.8348966,22.0524828 28.5318621,23.3577931 C30.2269655,24.6593793 31.3597241,26.4407586 32.0344138,28.6882759 C32.2628276,29.4008276 32.3770345,30.1121379 32.4887586,30.9376552 C32.6023448,31.7718621 32.6023448,33.0734483 32.6023448,34.8504828 L32.6023448,42.5538621 L24.7996552,42.5538621 L24.7996552,33.1944828 Z" id="Fill-1" fill="#1F3E85"></path><path d="M89.2547379,21.4630138 C87.4460483,21.4630138 85.7497034,21.9359793 84.1657034,22.7670828 C82.694669,23.7117724 81.4514276,25.0158414 80.5495655,26.6730828 C80.0958414,27.6214966 79.7588069,28.4507379 79.5303931,29.4010138 C79.3038414,30.3469448 79.1914966,31.2966 79.1914966,32.2443931 C79.1914966,35.3261172 80.0958414,37.8126 81.904531,39.7081862 C83.8292897,41.7235655 86.2028069,42.6713586 89.1423931,42.6713586 L89.2547379,42.6713586 L89.2547379,34.3764621 C88.5788069,34.3764621 88.1275655,34.1387379 87.6713586,33.7818414 C87.2207379,33.3107379 87.1077724,32.7148759 87.1077724,32.1233586 C87.1077724,31.4132897 87.2207379,30.8217724 87.6713586,30.3469448 C88.1275655,29.8739793 88.5788069,29.6362552 89.2547379,29.6362552 L89.2547379,21.4630138 Z M89.2547379,8.90087586 L89.2547379,0.60722069 L8.4006,0.60722069 C6.25115172,0.488048276 0.825703448,1.31728966 0.259634483,8.18832414 L0.148531034,56.0596345 C-0.0780206897,61.5123931 3.99122069,64.352669 7.38515172,64.5891517 L35.3149448,64.5891517 L35.2044621,71.2268069 L48.5468069,60.3250138 L35.2044621,49.4238414 L35.3149448,56.1794276 L8.4006,56.0596345 L8.4006,8.90087586 L89.2547379,8.90087586 Z M57.2507379,64.7089448 L57.2507379,34.8500483 C57.2507379,33.1940483 57.2507379,31.8881172 57.368669,31.0588759 C57.4797724,30.2277724 57.5952207,29.4010138 57.818669,28.6884621 C58.4977034,26.4409448 59.6273586,24.7793586 61.3237034,23.476531 C63.0200483,22.1712207 64.9435655,21.4630138 67.2066,21.4630138 C68.5603241,21.4630138 69.806669,21.7019793 71.0461862,22.2891517 C72.2931517,22.880669 73.3110828,23.5932207 74.3296345,24.6595655 C75.2333586,25.6098414 76.0259793,26.7928759 76.4772207,28.0944621 C77.0420483,29.4010138 77.2673586,30.7007379 77.2673586,32.1233586 C77.2673586,35.3261172 76.3642552,37.9292897 74.4401172,39.8254966 C72.5184621,41.8414966 70.0313586,42.7923931 66.9775655,42.7923931 L66.4139793,42.7923931 C66.1880483,42.7923931 66.0726,42.7923931 65.9614966,42.6713586 L65.9614966,34.1387379 C66.1880483,34.2579103 66.2991517,34.3764621 66.5281862,34.3764621 C66.7510138,34.4950138 66.9775655,34.4950138 67.3183241,34.4950138 C67.882531,34.4950138 68.4486,34.2579103 68.7862552,33.7818414 C69.2393586,33.428669 69.4659103,32.8359103 69.4659103,32.1233586 C69.4659103,31.5343241 69.2393586,30.9403241 68.7862552,30.4648759 C68.3356345,29.9900483 67.882531,29.7572897 67.3183241,29.7572897 C66.5281862,29.7572897 65.9614966,29.9900483 65.6232207,30.5840483 C65.2818414,31.0588759 65.056531,32.0048069 65.056531,33.1940483 L65.056531,56.0596345 L89.2547379,56.0596345 L89.2547379,64.7089448 L57.2507379,64.7089448 Z M89.2547379,29.6362552 C89.9356345,29.6362552 90.5004621,29.9900483 90.8406,30.4648759 C91.1788759,31.0588759 91.4054276,31.8881172 91.4054276,33.1940483 L91.4054276,42.5497034 L99.2081172,42.5497034 L99.2081172,34.8500483 C99.2081172,33.0699103 99.2081172,31.7714276 99.0939103,30.9403241 C98.9815655,30.1092207 98.8679793,29.4010138 98.6408069,28.6884621 C97.9623931,26.4409448 96.8296345,24.6595655 95.1376345,23.3554966 C93.4388069,22.052669 91.5196345,21.4630138 89.2547379,21.4630138 L89.2547379,29.6362552 Z M89.2547379,42.6713586 L89.2547379,34.3764621 C89.482531,34.3764621 89.7097034,34.3764621 89.9356345,34.2579103 C90.1609448,34.2579103 90.2732897,34.1387379 90.5004621,34.0214276 L90.5004621,42.5497034 L90.3874966,42.5497034 C89.8220483,42.6713586 89.482531,42.6713586 89.2547379,42.6713586 Z M108.4806,22.5287379 L108.4806,41.8414966 C107.009566,41.3672897 105.6546,40.6534966 104.632945,39.5896345 C102.485979,37.6934276 101.467428,35.2069448 101.467428,32.1233586 C101.467428,29.0447379 102.485979,26.5576345 104.632945,24.6595655 C105.764462,23.7117724 107.009566,23.0017034 108.4806,22.5287379 Z M89.2547379,8.90087586 L108.4806,8.90087586 L108.4806,0.60722069 L89.2547379,0.60722069 L89.2547379,8.90087586 Z M89.2547379,64.7089448 L108.4806,64.7089448 L108.4806,56.0596345 L89.2547379,56.0596345 L89.2547379,64.7089448 Z M108.4806,41.8414966 L108.4806,22.5287379 C109.837428,22.052669 111.307841,21.8180483 113.002945,21.8180483 L115.49129,21.8180483 L115.49129,29.5195655 L112.660945,29.5195655 C111.646117,29.5195655 110.966462,29.7572897 110.400393,30.2277724 C109.837428,30.7007379 109.492945,31.2966 109.492945,32.1233586 C109.492945,32.9544621 109.837428,33.5441172 110.400393,34.0214276 C110.966462,34.4950138 111.646117,34.7339793 112.660945,34.7339793 L115.49129,34.7339793 L115.49129,42.5497034 L113.002945,42.5497034 C111.307841,42.5497034 109.837428,42.3163241 108.4806,41.8414966 Z M127.478669,26.3199103 L127.478669,34.9704621 C127.140393,34.8500483 126.571841,34.7339793 126.00329,34.7339793 L125.668117,34.7339793 L125.668117,42.5497034 L117.753083,42.5497034 L117.753083,14.1140483 L125.668117,14.1140483 L125.668117,28.0944621 L125.893428,28.0944621 C126.346531,28.0944621 126.571841,27.9783931 126.910117,27.6214966 C127.024945,27.3843931 127.250876,27.0312207 127.478669,26.3199103 Z M108.4806,8.90087586 L127.478669,8.90087586 L127.478669,0.60722069 L108.4806,0.60722069 L108.4806,8.90087586 Z M108.4806,64.7089448 L127.478669,64.7089448 L127.478669,56.0596345 L108.4806,56.0596345 L108.4806,64.7089448 Z M127.478669,34.9704621 C127.814462,35.0902552 128.044117,35.3261172 128.269428,35.4415655 C128.72191,36.0337034 128.947221,36.8648069 128.947221,37.9292897 L128.947221,42.5497034 L136.522738,42.5497034 L136.522738,37.2198414 C136.522738,35.3261172 136.183841,34.0214276 135.504186,32.9544621 C134.939359,32.0048069 133.810324,31.2966 132.33929,30.7007379 C132.904117,30.4648759 133.471428,29.9900483 133.924531,29.5195655 C134.260945,29.1632897 134.604186,28.570531 134.824531,27.9783931 L137.204255,21.8180483 L129.060807,21.8180483 L127.814462,25.490669 C127.703359,25.8469448 127.588531,26.0821862 127.478669,26.3199103 L127.478669,34.9704621 Z M127.478669,56.0596345 L140.593221,56.0596345 L140.481497,8.90087586 L127.478669,8.90087586 L127.478669,0.60722069 L140.933979,0.60722069 C146.36129,0.60722069 148.510117,5.58391034 148.622462,8.90087586 L148.510117,56.0596345 C148.284807,62.8121172 143.419221,64.5891517 141.725979,64.7089448 L127.478669,64.7089448 L127.478669,56.0596345 Z" id="Fill-3" fill="#595A59"></path></g></g></svg> 