<?xml version="1.0" encoding="UTF-8"?> <svg xmlns="http://www.w3.org/2000/svg" xmlns:xlink="http://www.w3.org/1999/xlink" width="181px" height="72px" viewBox="0 0 181 72"><!-- Generator: Sketch 50.2 (55047) - http://www.bohemiancoding.com/sketch --><title>KAMYN logotype</title><desc>Created with Sketch.</desc><defs></defs><g id="KAMYN-logotype" stroke="none" stroke-width="1" fill="none" fill-rule="evenodd"><g id="Group"><path d="M65.092442,13.6978902 L74.369459,16.1537003 L78.9281573,9.84186305 L86.9626251,14.5511512 L92.1666386,8.59150373 L98.6864217,14.8052258 L105.317012,9.83283254 L110.405825,15.6245614 L118.2487,12.8233953 C118.662395,10.3453749 117.578245,9.15969356 117.566774,9.1472461 L117.547493,9.1245478 C117.130869,8.56368 116.001812,8.77162576 115.996686,8.7728461 L115.862449,8.79847322 L115.764089,8.70255458 C115.147818,8.0953139 114.147628,7.78730034 112.791588,7.78730034 C111.107276,7.78730034 109.487154,8.2749478 109.470801,8.27982915 L109.24992,8.34719186 L109.155954,8.13607322 C108.397147,6.42979525 106.845364,5.56457492 104.54234,5.56457492 C102.358178,5.56457492 100.290191,6.36609356 100.270178,6.3741478 L100.009269,6.47665627 L99.9253098,6.20915797 C99.5853234,5.12256814 98.1772963,4.89460881 97.0550725,4.89460881 C96.3731471,4.89460881 95.8088624,4.98149695 95.6900014,5.00126644 C93.9983675,5.64877831 91.4471268,6.29995119 91.4214997,6.30654102 L91.242598,6.35193763 L91.1403336,6.19817492 C90.5858115,5.36688 88.7628692,4.69569356 88.74432,4.68885966 C88.1561166,4.47652068 87.5979336,4.36888678 87.0849031,4.36888678 C85.4066929,4.36888678 84.7152488,5.52088678 84.708659,5.53235797 L84.6783946,5.5836122 L84.6300692,5.61656136 C83.8856624,6.12397831 83.1856759,6.38098169 82.5491471,6.38098169 C81.926042,6.38098169 81.566042,6.13471729 81.4635336,6.05222237 C80.5663403,5.55822915 79.6728081,5.30757153 78.8063675,5.30757153 C75.9505302,5.30757153 74.1920217,8.03576136 74.1749369,8.06358508 L74.0980556,8.18513085 L67.3571471,8.18561898 C66.132659,8.34426305 65.668442,9.07353763 65.6496488,9.10429017 L65.6193844,9.15285966 L65.5713031,9.18580881 C64.9316014,9.61219525 64.9357505,12.1048597 65.092442,13.6978902 Z M74.5827742,16.750202 L64.6118725,14.1110969 L64.5921031,13.9329275 C64.5118047,13.2092664 64.1720624,9.60072407 65.2354658,8.78431729 C65.3782454,8.58100881 65.9859742,7.83050034 67.3085776,7.66551051 L67.3407946,7.6633139 L73.8146929,7.6633139 C74.2100827,7.09341559 75.9864081,4.78551051 78.8063675,4.78551051 C79.7692149,4.78551051 80.755981,5.06179525 81.738598,5.60777492 L81.7869234,5.64292068 C81.7949776,5.64951051 82.0444149,5.85916475 82.5491471,5.85916475 C83.067059,5.85916475 83.6530658,5.64267661 84.2920353,5.21506983 C84.46752,4.95074441 85.3083336,3.84658169 87.0849031,3.84658169 C87.6584624,3.84658169 88.2769302,3.96495458 88.9224895,4.19828339 C89.0001031,4.22635119 90.7281031,4.8621478 91.4615268,5.75690034 C92.0582725,5.60020881 94.1123471,5.04861559 95.5274522,4.50458847 L95.5745573,4.49116475 C95.6016488,4.48628339 96.2413505,4.3725478 97.0550725,4.3725478 C98.7662319,4.3725478 99.8879675,4.86385627 100.325093,5.7981478 C100.953079,5.57995119 102.684984,5.04226983 104.54234,5.04226983 C106.942747,5.04226983 108.664401,5.96679864 109.5367,7.71871729 C110.04851,7.58179525 111.382096,7.26548339 112.791588,7.26548339 C114.223534,7.26548339 115.313784,7.59253424 116.033784,8.23955797 C116.137025,8.22662237 116.2903,8.21197831 116.467493,8.21197831 C117.149174,8.21197831 117.664401,8.41601898 117.958015,8.80189017 C118.094205,8.95394441 119.246937,10.3373207 118.735615,13.0662427 L118.708279,13.2139037 L110.247425,16.235219 L105.243303,10.5406292 L98.6463946,15.4883715 L92.2010522,9.34567322 L87.0712353,15.2203851 L79.0741098,10.5320868 L74.5827742,16.750202 Z" id="Fill-1" fill="#752224"></path><path d="M106.976306,27.9713166 C106.976306,29.124781 100.389649,30.0595607 92.2646319,30.0595607 C84.1391268,30.0595607 77.551981,29.124781 77.551981,27.9713166 C77.551981,26.8178522 84.1391268,25.8828285 92.2646319,25.8828285 C100.389649,25.8828285 106.976306,26.8178522 106.976306,27.9713166" id="Fill-3" fill="#752224"></path><path d="M96.1267119,4.68715119 C96.1267119,4.68715119 96.739078,0.179951186 92.2645831,0.179951186 C92.2645831,0.179951186 90.1512,0.0188664407 88.9115797,1.12815458 C88.9115797,1.12815458 87.7363932,2.23768678 87.9199322,4.10773424 C87.9199322,4.10773424 90.8345898,5.22678508 91.357139,6.05344271 L96.1267119,4.68715119 Z" id="Fill-5" fill="#752224"></path><path d="M100.319723,10.6713519 C100.103479,10.6713519 99.9279946,10.4963553 99.9279946,10.2801112 L99.9279946,6.18392136 C99.9279946,5.96767729 100.103479,5.79219254 100.319723,5.79219254 C100.536212,5.79219254 100.711208,5.96767729 100.711208,6.18392136 L100.711208,10.2801112 C100.711208,10.4963553 100.536212,10.6713519 100.319723,10.6713519" id="Fill-7" fill="#752224"></path><path d="M105.018761,8.62357424 C104.802273,8.62357424 104.627032,8.44808949 104.627032,8.23208949 L104.627032,5.63594034 C104.627032,5.4194522 104.802273,5.24421153 105.018761,5.24421153 C105.235005,5.24421153 105.410245,5.4194522 105.410245,5.63594034 L105.410245,8.23208949 C105.410245,8.44808949 105.235005,8.62357424 105.018761,8.62357424" id="Fill-9" fill="#752224"></path><path d="M109.456304,11.8617681 C109.240548,11.8617681 109.065063,11.6865275 109.065063,11.4705275 L109.065063,8.14168678 C109.065063,7.92544271 109.240548,7.7504461 109.456304,7.7504461 C109.673036,7.7504461 109.848033,7.92544271 109.848033,8.14168678 L109.848033,11.4705275 C109.848033,11.6865275 109.673036,11.8617681 109.456304,11.8617681" id="Fill-11" fill="#752224"></path><path d="M114.547167,11.4484881 C114.480049,11.4484881 114.411954,11.4314034 114.350205,11.3952814 C114.163737,11.2869153 114.099791,11.0472407 114.208645,10.8600407 L115.609106,8.44987119 C115.717961,8.26315932 115.956903,8.19970169 116.144347,8.30831186 C116.331303,8.4171661 116.394517,8.65684068 116.286151,8.84379661 L114.885689,11.253722 C114.813201,11.3786847 114.682137,11.4484881 114.547167,11.4484881" id="Fill-13" fill="#752224"></path><path d="M93.2760976,5.50372881 L90.6606671,8.64707797 L90.6606671,5.38437966 C90.6606671,5.38437966 91.3252637,5.82492203 91.3572366,6.05336949 L93.2760976,5.50372881 Z" id="Fill-15" fill="#752224"></path><path d="M84.9267824,11.1032298 C84.8320841,11.1093315 84.7359214,11.0817519 84.6561112,11.0180502 C84.4879485,10.8828366 84.4608569,10.6363281 84.5960705,10.4679214 L87.9092908,6.33609763 C88.0452366,6.16720271 88.2907688,6.14059932 88.4596637,6.27556881 C88.6285586,6.41078237 88.6554061,6.65729085 88.5199485,6.82594169 L85.2072163,10.9577654 C85.1352163,11.0470942 85.0327078,11.09664 84.9267824,11.1032298" id="Fill-17" fill="#752224"></path><path d="M84.0475037,9.49152814 C83.9618359,9.49152814 83.87568,9.46346034 83.8034359,9.40561627 C83.634541,9.27064678 83.6069614,9.02438237 83.7416868,8.85524339 L86.7107715,5.14028746 C86.845741,4.97114847 87.0924936,4.94356881 87.2613885,5.07878237 C87.4305275,5.21375186 87.457619,5.46026034 87.3228936,5.62891119 L84.3540529,9.34435525 C84.2764393,9.44076203 84.1629478,9.49152814 84.0475037,9.49152814" id="Fill-19" fill="#752224"></path><path d="M83.0762359,7.63385492 C82.9759241,7.63385492 82.8761003,7.59553627 82.7997071,7.51938712 C82.6466766,7.36635661 82.6466766,7.11838373 82.7997071,6.96535322 L85.4124529,4.35285153 C85.5652393,4.19957695 85.8127241,4.19957695 85.9659986,4.35285153 C86.118541,4.50563797 86.118541,4.75385492 85.9659986,4.90664136 L83.3532529,7.51938712 C83.2763715,7.59553627 83.1760597,7.63385492 83.0762359,7.63385492" id="Fill-21" fill="#752224"></path><path d="M94.7154631,10.1443607 C94.6156393,10.1443607 94.5148393,10.105798 94.4384461,10.0296488 C94.2854156,9.87661831 94.2854156,9.62864542 94.4384461,9.47585898 L97.1729817,6.74083525 C97.3260122,6.58804881 97.5739851,6.58804881 97.7272597,6.74083525 C97.8802902,6.89386576 97.8802902,7.14183864 97.7272597,7.29486915 L94.9927241,10.0296488 C94.9160868,10.105798 94.8155308,10.1443607 94.7154631,10.1443607" id="Fill-23" fill="#752224"></path><path d="M93.66768,9.00124475 C93.5671241,9.00124475 93.4675444,8.9629261 93.3909071,8.88653288 C93.2378766,8.73350237 93.2378766,8.48552949 93.3909071,8.33274305 L96.1259308,5.59771932 C96.2782292,5.44493288 96.526202,5.44493288 96.6792325,5.59771932 C96.8325071,5.75074983 96.8325071,5.99872271 96.6792325,6.15175322 L93.944941,8.88653288 C93.8675715,8.9629261 93.7677478,9.00124475 93.66768,9.00124475" id="Fill-25" fill="#752224"></path><path d="M96.1548529,11.4484881 C96.0562495,11.4484881 95.957402,11.4109017 95.8810088,11.336461 C95.7265139,11.1848949 95.7235851,10.9371661 95.8753953,10.7826712 L98.7356258,7.86801356 C98.8862156,7.71327458 99.1341885,7.7108339 99.2889275,7.8624 C99.4434224,8.0139661 99.445619,8.26169492 99.2938088,8.41594576 L96.4345546,11.3313356 C96.3581614,11.4091932 96.2563851,11.4484881 96.1548529,11.4484881" id="Fill-27" fill="#752224"></path><path d="M73.4455892,9.59984542 C73.351379,9.59984542 73.257901,9.56640814 73.1827281,9.49855729 C73.0226197,9.35333695 73.0104163,9.10560814 73.1553925,8.94525559 L75.885779,5.93419119 C76.0319756,5.77457085 76.2787281,5.76212339 76.4393247,5.90734373 C76.5994332,6.05256407 76.6113925,6.30029288 76.4664163,6.46064542 L73.7357858,9.47146576 C73.6584163,9.55664542 73.5522468,9.59984542 73.4455892,9.59984542" id="Fill-29" fill="#752224"></path><path d="M67.1987227,13.0782997 C67.1050007,13.0782997 67.0105464,13.0446183 66.9353736,12.9767675 C66.7752651,12.8313031 66.7635498,12.5835742 66.9085261,12.4234658 L69.6394007,9.41264542 C69.7848651,9.25253695 70.0316176,9.24033356 70.1924583,9.38579797 C70.3528108,9.53077424 70.3650142,9.77825898 70.2195498,9.93861153 L67.4886753,12.9496759 C67.4113058,13.0348556 67.3051363,13.0782997 67.1987227,13.0782997" id="Fill-31" fill="#752224"></path><path d="M74.8736298,11.3750725 C74.7996773,11.3709234 74.7245044,11.3452963 74.6605586,11.2969708 C74.4875146,11.1668827 74.4523688,10.9215946 74.582701,10.7490386 L77.3418875,7.07972339 C77.4714875,6.90667932 77.7170197,6.87202169 77.8895756,7.00210983 C78.0628637,7.13219797 78.0977654,7.3774861 77.9676773,7.5502861 L75.2092231,11.2193573 C75.1274603,11.3277234 74.9998129,11.3819064 74.8736298,11.3750725" id="Fill-33" fill="#752224"></path><path d="M76.7173668,11.9524637 C76.6360922,11.9556366 76.5531092,11.9334264 76.4808651,11.8841247 C76.3024515,11.7618468 76.2575431,11.5180231 76.3793329,11.3396095 L79.0674956,7.41744 C79.1897736,7.23927051 79.4338414,7.19411797 79.6112786,7.3159078 C79.7899363,7.43842983 79.8353329,7.68200949 79.7128108,7.86042305 L77.0256244,11.7823485 C76.9519159,11.888518 76.8362278,11.9478264 76.7173668,11.9524637" id="Fill-35" fill="#752224"></path><path d="M78.4524203,27.250682 C78.4524203,27.250682 81.6113898,23.5108312 84.0481627,23.2879973 L76.2753356,21.32496 L78.4524203,23.8757125 L78.4524203,27.250682 Z" id="Fill-37" fill="#752224"></path><path d="M90.3067444,26.2506875 C90.3067444,26.2506875 93.465958,22.5108366 95.9034631,22.2880027 L88.1299037,20.3249654 L90.3067444,22.875718 L90.3067444,26.2506875 Z" id="Fill-39" fill="#752224"></path><path d="M103.295032,26.4286129 C103.295032,26.4286129 106.791547,23.001901 109.238571,23.0084908 L101.683696,20.3249654 L103.612076,23.0685315 L103.295032,26.4286129 Z" id="Fill-41" fill="#752224"></path><path d="M113.720583,19.4436122 L112.067512,21.3248868 L112.41482,19.4436122 L112.067512,18.1925207 L113.720583,18.1925207 L113.720583,19.4436122 Z M71.2762169,21.3248868 L69.6224136,19.4436122 L69.6224136,18.1925207 L71.2762169,18.1925207 L70.9281763,19.4436122 L71.2762169,21.3248868 Z M110.326576,15.9300122 L105.279986,10.1870969 L98.6667254,15.1465546 L92.1840407,8.96846644 L87.0163932,14.8858902 L79.0012068,10.1870969 L74.4759458,16.4518292 L62.6415864,13.3194631 L65.0788475,17.4961953 L65.0788475,19.4436122 L68.9072949,21.3248868 L71.4778169,23.2879241 C74.2221153,20.9436529 81.5595254,20.1350563 81.5595254,20.1350563 L81.6549559,16.1281953 L87.0163932,16.1281953 L87.0163932,19.5978631 C89.5168678,19.4048054 96.5347932,19.4436122 96.5347932,19.4436122 L96.5347932,16.1281953 L102.408529,16.1281953 L102.528366,20.0952732 C106.266264,20.4918834 111.058047,22.1937681 111.058047,22.1937681 L112.890997,23.2879241 L117.809939,18.7143376 L117.809939,16.4518292 L120.072447,12.4493614 L110.326576,15.9300122 Z" id="Fill-43" fill="#752224"></path><path d="M92.1839675,19.9656976 C79.7999675,19.9656976 71.1697302,22.4878942 71.1697302,24.7516231 C71.1697302,27.0153519 79.7999675,29.5373044 92.1839675,29.5373044 C104.567967,29.5373044 113.198205,27.0153519 113.198205,24.7516231 C113.198205,22.4878942 104.567967,19.9656976 92.1839675,19.9656976 M92.1839675,30.5816705 C81.4906251,30.5816705 70.1258522,28.538579 70.1258522,24.7516231 C70.1258522,20.9649112 81.4906251,18.9215756 92.1839675,18.9215756 C102.877798,18.9215756 114.242083,20.9649112 114.242083,24.7516231 C114.242083,28.538579 102.877798,30.5816705 92.1839675,30.5816705" id="Fill-45" fill="#752224"></path><polygon id="Fill-47" fill="#5F605F" points="9.77354847 46.6045993 6.85864678 46.6045993 9.33495864 52.4348908 12.1925044 52.4348908 12.27744 52.2513519"></polygon><polygon id="Fill-49" fill="#5F605F" points="13.9397614 36.5291878 10.3295105 36.5291878 6.62285288 40.687859 10.0405342 40.687859"></polygon><polygon id="Fill-51" fill="#5F605F" points="5.46126102 36.5291878 2.78188475 36.5291878 2.07115932 40.687859 4.75614915 40.687859"></polygon><polygon id="Fill-53" fill="#5F605F" points="0.0625545763 52.4349397 2.76389695 52.4349397 3.58933424 47.5687159 4.49336136 46.6046481 1.05957153 46.6046481"></polygon><polygon id="Fill-55" fill="#5F605F" points="12.2775132 52.2514251 12.3587878 52.4349641 14.9488353 52.4349641 16.5321031 48.9194115 21.6968217 48.9194115 22.1202793 52.4349641 24.6634658 52.4349641 23.8890386 46.6046725 14.901242 46.6046725"></polygon><polygon id="Fill-57" fill="#5F605F" points="20.6070346 39.8709397 20.7019769 40.6878346 23.1023837 40.6878346 22.5500583 36.5291634 19.5821939 36.5291634 17.6501532 40.6878346 20.2387363 40.6878346"></polygon><polygon id="Fill-59" fill="#5F605F" points="12.1924312 52.4349397 12.3588854 52.4349397 12.2776108 52.2514007"></polygon><polygon id="Fill-61" fill="#5F605F" points="33.3098847 47.672518 33.2715661 46.6047214 31.1098576 46.6047214 31.3136542 52.4350129 33.8712407 52.4350129 36.1269153 46.6047214 33.7313898 46.6047214"></polygon><polygon id="Fill-63" fill="#5F605F" points="38.9750644 39.2419281 38.6970712 40.6877858 40.870739 40.6877858 41.5707254 36.5291146 37.7132339 36.5291146 36.0701695 40.6877858 38.415661 40.6877858"></polygon><polygon id="Fill-65" fill="#5F605F" points="30.849901 39.1438617 30.9033519 40.6878346 33.0584705 40.6878346 32.9088569 36.5291634 29.0828502 36.5291634 28.3721247 40.6878346 30.6094942 40.6878346"></polygon><polygon id="Fill-67" fill="#5F605F" points="36.4421288 52.4349397 38.8925695 52.4349397 39.8746983 46.6046481 37.5614237 46.6046481"></polygon><polygon id="Fill-69" fill="#5F605F" points="26.3624217 52.4349397 28.7818658 52.4349397 29.6890658 46.6046481 27.3599268 46.6046481"></polygon><polygon id="Fill-71" fill="#5F605F" points="55.1143892 36.5291878 51.9966671 36.5291878 50.106362 39.7730929 49.5730739 40.687859 52.6124502 40.687859"></polygon><polygon id="Fill-73" fill="#5F605F" points="45.3388149 52.4349397 48.0330793 52.4349397 49.0789098 46.6046481 46.3948963 46.6046481"></polygon><polygon id="Fill-75" fill="#5F605F" points="45.6884664 36.5291878 42.8323851 36.5291878 44.3866088 40.687859 47.1992461 40.687859"></polygon><polygon id="Fill-77" fill="#5F605F" points="66.7650631 36.5291878 64.2670292 36.5291878 63.5521546 40.687859 66.0511647 40.687859"></polygon><polygon id="Fill-79" fill="#5F605F" points="62.4386929 47.1729356 62.2505166 46.6045017 59.6189776 46.6045017 61.5393031 52.4350373 64.03392 52.4350373 65.034842 46.6045017 62.53632 46.6045017"></polygon><polygon id="Fill-81" fill="#5F605F" points="58.9179417 36.5291878 56.413318 36.5291878 55.7021044 40.687859 60.2935078 40.687859"></polygon><polygon id="Fill-83" fill="#5F605F" points="53.6931336 52.4349397 56.1916556 52.4349397 57.1886725 46.6046481 54.6903946 46.6046481"></polygon><polygon id="Fill-85" fill="#5F605F" points="77.0709722 36.5291878 74.3930603 36.5291878 73.6525586 40.687859 76.3304705 40.687859"></polygon><polygon id="Fill-87" fill="#5F605F" points="71.5629966 52.4349397 74.2404203 52.4349397 75.2779525 46.6046481 72.6007729 46.6046481"></polygon><polygon id="Fill-89" fill="#5F605F" points="85.7223702 47.1729356 85.534682 46.6045017 82.902899 46.6045017 84.8234685 52.4350373 87.3178414 52.4350373 88.3185193 46.6045017 85.8195092 46.6045017"></polygon><polygon id="Fill-91" fill="#5F605F" points="76.9765668 52.4349397 79.4755769 52.4349397 80.4725939 46.6046481 77.9743159 46.6046481"></polygon><polygon id="Fill-93" fill="#5F605F" points="82.2018631 36.5291878 79.6972393 36.5291878 78.9860258 40.687859 83.5764529 40.687859"></polygon><polygon id="Fill-95" fill="#5F605F" points="90.0489844 36.5291878 87.5509505 36.5291878 86.83632 40.687859 89.334842 40.687859"></polygon><path d="M98.1529139,48.5994631 C97.6967512,49.1386088 97.2071512,49.4947037 96.6853342,49.6687241 C96.2867715,49.805402 95.5914224,49.8752054 94.5985546,49.8752054 L93.2400732,49.8752054 L93.7994766,46.6046969 L91.1249817,46.6046969 L90.1269885,52.4349885 L94.7269342,52.4349885 C95.7110156,52.4349885 96.4273546,52.3881275 96.8757071,52.2939173 C97.5625139,52.1569953 98.2207647,51.8985275 98.8502156,51.5182698 C99.4794224,51.1387444 100.08886,50.5302834 100.678527,49.6955715 C101.267951,48.8598834 101.726066,47.8833681 102.051165,46.7657817 C102.066541,46.712819 102.079721,46.6583919 102.094365,46.6046969 L99.2458495,46.6046969 C98.9319783,47.4430698 98.5680732,48.1091308 98.1529139,48.5994631" id="Fill-97" fill="#5F605F"></path><path d="M95.0756095,39.1549424 L96.6156773,39.1549424 C97.4308637,39.1549424 98.0024705,39.2271864 98.3302536,39.3716746 C98.789101,39.5818169 99.1549586,39.9830644 99.4283146,40.5761492 C99.4444231,40.6112949 99.4588231,40.6505898 99.4739553,40.6876881 L102.288301,40.6876881 C102.224599,40.4109153 102.148938,40.1468339 102.059854,39.8981288 C101.741101,39.0045966 101.306904,38.2906983 100.758728,37.7552136 C100.21104,37.2199729 99.570118,36.8619254 98.8379146,36.6813153 C98.4017654,36.5800271 97.5709586,36.529261 96.3440298,36.529261 L92.8499553,36.529261 L92.1384976,40.6876881 L94.8129925,40.6876881 L95.0756095,39.1549424 Z" id="Fill-99" fill="#5F605F"></path><path d="M111.335919,48.338701 C111.094292,48.892979 110.767241,49.3032569 110.354278,49.5707553 C109.941559,49.8384976 109.439024,49.9720027 108.848624,49.9720027 C108.179146,49.9720027 107.650495,49.7774807 107.262671,49.3872163 C106.874359,48.9969519 106.680814,48.4665925 106.680814,47.7946739 C106.680814,47.6360298 106.694969,47.4549315 106.724014,47.2528434 L106.83482,46.6045993 L104.181071,46.6045993 C104.105898,47.157901 104.067336,47.57184 104.067336,47.834701 C104.067336,49.3391349 104.481763,50.5272569 105.310373,51.3988231 C106.138983,52.2711214 107.274142,52.7065383 108.716583,52.7065383 C109.957912,52.7065383 110.994712,52.4109722 111.826495,51.8195959 C112.659254,51.2287078 113.319702,50.3302942 113.807593,49.12704 C114.048976,48.529562 114.281085,47.6853315 114.503919,46.6045993 L111.825763,46.6045993 C111.65882,47.3922061 111.496027,47.9728434 111.335919,48.338701" id="Fill-101" fill="#5F605F"></path><polygon id="Fill-103" fill="#5F605F" points="116.310948 36.5291878 113.633768 36.5291878 112.89229 40.687859 115.57069 40.687859"></polygon><polygon id="Fill-105" fill="#5F605F" points="108.547493 36.5291878 105.862259 36.5291878 105.160076 40.687859 107.841161 40.687859"></polygon><path d="M124.032447,46.9448542 C124.270902,47.2421288 124.390983,47.5957831 124.390983,48.0082576 C124.390983,48.5940203 124.182793,49.0675119 123.766902,49.4294644 C123.350766,49.7914169 122.730834,49.9720271 121.906373,49.9720271 C121.269356,49.9720271 120.766332,49.8761085 120.39779,49.6845153 C120.028759,49.4924339 119.764922,49.2305492 119.605302,48.8983729 C119.446414,48.5652203 119.349519,47.9723797 119.313397,47.1186305 L116.763376,47.2814237 C116.74141,48.2362169 116.880529,49.1299932 117.180976,49.9612881 C117.480936,50.7925831 118.045464,51.4579119 118.873098,51.9575186 C119.701708,52.4566373 120.701654,52.7063186 121.873424,52.7063186 C123.428624,52.7063186 124.679715,52.2316068 125.627431,51.2809627 C126.575146,50.3303186 127.048637,49.103878 127.048637,47.6006644 C127.048637,47.2487186 127.016664,46.9177627 126.95638,46.6046237 L123.650237,46.6046237 C123.820841,46.731539 123.951173,46.8460068 124.032447,46.9448542" id="Fill-107" fill="#5F605F"></path><path d="M120.896982,40.535219 C120.896982,40.0136461 121.065633,39.6031241 121.402202,39.3017003 C121.739748,39.0014969 122.267422,38.8513953 122.985226,38.8513953 C124.265605,38.8513953 125.030514,39.4637614 125.28288,40.6877614 L127.892453,40.6877614 C127.750649,39.3461207 127.285212,38.2873546 126.490039,37.5192732 C125.617985,36.6782156 124.45549,36.2579308 123.001334,36.2579308 C121.562555,36.2579308 120.426419,36.6813885 119.59488,37.5273275 C118.810202,38.3254292 118.4009,39.3812664 118.356236,40.6877614 L120.903572,40.6877614 C120.899666,40.6377275 120.896982,40.5874495 120.896982,40.535219" id="Fill-109" fill="#5F605F"></path><polygon id="Fill-111" fill="#5F605F" points="136.4544 39.1873546 140.221098 39.1873546 140.676529 36.5292122 130.314875 36.5292122 129.858956 39.1873546 133.779173 39.1873546 133.520705 40.6876393 136.195932 40.6876393"></polygon><polygon id="Fill-113" fill="#5F605F" points="131.497725 52.4349397 134.172464 52.4349397 135.176803 46.6046481 132.501576 46.6046481"></polygon><path d="M146.356767,46.6187797 C146.64794,47.0378441 146.964984,47.7578441 147.309608,48.7782915 C147.9703,50.7676881 148.357879,51.9865627 148.473079,52.4349153 L151.356984,52.4349153 C150.665784,50.2871186 150.032184,48.5976814 149.456184,47.3683119 C149.323656,47.0890983 149.190883,46.8350237 149.056889,46.6046237 L146.346517,46.6046237 C146.349689,46.6097492 146.353839,46.6138983 146.356767,46.6187797" id="Fill-115" fill="#5F605F"></path><path d="M144.663083,39.1873546 L147.609714,39.1873546 C148.390243,39.1873546 148.896683,39.2739986 149.128304,39.4477749 C149.509049,39.7111241 149.706256,40.1253071 149.722365,40.6876393 L152.40467,40.6876393 C152.402229,39.7335783 152.238216,38.9435308 151.910433,38.3182292 C151.582161,37.6892664 151.153334,37.23408 150.624927,36.9519376 C150.097253,36.6702834 149.297443,36.5292122 148.227694,36.5292122 L142.431327,36.5292122 L141.71987,40.6876393 L144.405348,40.6876393 L144.663083,39.1873546 Z" id="Fill-117" fill="#5F605F"></path><polygon id="Fill-119" fill="#5F605F" points="139.710704 52.4349397 142.385199 52.4349397 143.387341 46.6046481 140.708209 46.6046481"></polygon><polygon id="Fill-121" fill="#5F605F" points="158.020792 36.5291878 155.343612 36.5291878 154.603111 40.687859 157.281266 40.687859"></polygon><polygon id="Fill-123" fill="#5F605F" points="152.513304 52.4349397 155.19146 52.4349397 156.228748 46.6046481 153.550593 46.6046481"></polygon><polygon id="Fill-125" fill="#5F605F" points="157.906153 52.4349397 168.093787 52.4349397 168.538479 49.7767973 161.035591 49.7767973 161.581814 46.6046481 158.904391 46.6046481"></polygon><polygon id="Fill-127" fill="#5F605F" points="162.859948 39.1873546 169.840287 39.1873546 170.29645 36.5292122 160.628925 36.5292122 159.916491 40.6876393 162.601725 40.6876393"></polygon><path d="M174.549698,40.535219 C174.549698,40.0136461 174.717616,39.6031241 175.054674,39.3017003 C175.392464,39.0014969 175.919894,38.8513953 176.637454,38.8513953 C177.918077,38.8513953 178.68323,39.4637614 178.935108,40.6877614 L181.544193,40.6877614 C181.402633,39.3461207 180.937928,38.2873546 180.142511,37.5192732 C179.270945,36.6782156 178.107962,36.2579308 176.65405,36.2579308 C175.215271,36.2579308 174.078891,36.6813885 173.247352,37.5273275 C172.462918,38.3254292 172.053128,39.3812664 172.00822,40.6877614 L174.555799,40.6877614 C174.552382,40.6377275 174.549698,40.5874495 174.549698,40.535219" id="Fill-129" fill="#5F605F"></path><path d="M177.685163,46.9448542 C177.924106,47.2421288 178.042967,47.5957831 178.042967,48.0082576 C178.042967,48.5940203 177.834533,49.0675119 177.418885,49.4294644 C177.002506,49.7914169 176.382574,49.9720271 175.558601,49.9720271 C174.921828,49.9720271 174.418804,49.8761085 174.050262,49.6845153 C173.680987,49.4924339 173.417394,49.2305492 173.258018,48.8983729 C173.099129,48.5652203 173.001746,47.9723797 172.964648,47.1186305 L170.415604,47.2814237 C170.394126,48.2362169 170.532757,49.1299932 170.833448,49.9612881 C171.133652,50.7925831 171.697692,51.4579119 172.52557,51.9575186 C173.353936,52.4566373 174.353882,52.7063186 175.525652,52.7063186 C177.081096,52.7063186 178.332431,52.2316068 179.279658,51.2809627 C180.227618,50.3303186 180.701109,49.103878 180.701109,47.6006644 C180.701109,47.2487186 180.66938,46.9177627 180.608852,46.6046237 L177.302221,46.6046237 C177.473313,46.731539 177.602913,46.8460068 177.685163,46.9448542" id="Fill-131" fill="#5F605F"></path><path d="M125.355978,41.2055512 L127.927721,41.075219 C127.919911,40.942202 127.905755,40.8152868 127.892575,40.6876393 L125.282758,40.6876393 C125.315707,40.8497003 125.340602,41.0215241 125.355978,41.2055512" id="Fill-133" fill="#752224"></path><path d="M179.008719,41.2055512 L181.579973,41.075219 C181.572651,40.942202 181.557763,40.8152868 181.544339,40.6876393 L178.93501,40.6876393 C178.968447,40.8497003 178.993342,41.0215241 179.008719,41.2055512" id="Fill-135" fill="#752224"></path><polygon id="Fill-137" fill="#752224" points="1.05957153 46.6045993 4.49336136 46.6045993 6.12129356 44.868301 6.85862237 46.6045993 9.77352407 46.6045993 8.74526644 44.2866875 1.45618169 44.2866875"></polygon><polygon id="Fill-139" fill="#752224" points="4.75610034 40.6877614 2.07135458 40.6877614 1.73258847 42.6673953 4.42026305 42.6673953"></polygon><polygon id="Fill-141" fill="#752224" points="10.0406319 40.6877614 6.62295051 40.6877614 4.85858441 42.6673953 8.18498441 42.6673953"></polygon><polygon id="Fill-143" fill="#752224" points="20.2388095 40.6877614 17.6502264 40.6877614 16.7300908 42.6673953 19.3472298 42.6673953"></polygon><polygon id="Fill-145" fill="#752224" points="23.1024325 40.6877614 20.7020258 40.6877614 20.9336461 42.6673953 23.3655376 42.6673953"></polygon><polygon id="Fill-147" fill="#752224" points="21.3559322 46.2725939 17.7239593 46.2725939 18.6182237 44.2866142 15.9778983 44.2866142 14.9013153 46.6045261 23.8888678 46.6045261 23.5808542 44.2866142 21.1230915 44.2866142"></polygon><polygon id="Fill-149" fill="#752224" points="38.415661 40.6877614 36.0701695 40.6877614 35.2876881 42.6673953 37.6500203 42.6673953"></polygon><polygon id="Fill-151" fill="#752224" points="33.7314142 46.6045993 36.1266956 46.6045993 37.0238888 44.2866875 34.6476447 44.2866875"></polygon><polygon id="Fill-153" fill="#752224" points="33.0584461 40.6877614 30.9033275 40.6877614 30.9728868 42.6673953 33.1294698 42.6673953"></polygon><polygon id="Fill-155" fill="#752224" points="31.1099553 46.6045993 33.2716637 46.6045993 33.1879485 44.2866875 31.0291688 44.2866875"></polygon><polygon id="Fill-157" fill="#752224" points="30.6095431 40.6877614 28.3721736 40.6877614 28.0334075 42.6673953 30.3015295 42.6673953"></polygon><polygon id="Fill-159" fill="#752224" points="27.3600244 46.6045993 29.6889193 46.6045993 30.0496515 44.2866875 27.7563905 44.2866875"></polygon><polygon id="Fill-161" fill="#752224" points="37.5614237 46.6045993 39.8746983 46.6045993 40.2647186 44.2866875 38.0063593 44.2866875"></polygon><polygon id="Fill-163" fill="#752224" points="40.8706414 40.6877614 38.6969736 40.6877614 38.3167159 42.6673953 40.5372447 42.6673953"></polygon><path d="M52.6124502,40.6877614 L49.5730739,40.6877614 L48.8977383,41.8463512 C48.7388502,42.1253207 48.5904569,42.3986766 48.4481654,42.6673953 L51.4216434,42.6673953 L52.6124502,40.6877614 Z" id="Fill-165" fill="#752224"></path><path d="M47.3168624,41.0121519 L47.1992217,40.6877858 L44.3865844,40.6877858 L45.1261098,42.6674197 L47.887981,42.6674197 C47.7442251,42.2244366 47.5580014,41.6818739 47.3168624,41.0121519" id="Fill-167" fill="#752224"></path><polygon id="Fill-169" fill="#752224" points="46.4603553 46.2395715 46.3949451 46.6046969 49.0789586 46.6046969 49.0896976 46.54368 50.4476908 44.2867851 45.7305925 44.2867851"></polygon><polygon id="Fill-171" fill="#752224" points="54.6904922 46.6045993 57.1885261 46.6045993 57.5844041 44.2866875 55.0871024 44.2866875"></polygon><polygon id="Fill-173" fill="#752224" points="58.0185275 41.7479186 58.3221478 42.667322 60.9483173 42.667322 60.2934834 40.6876881 55.70208 40.6876881 55.363558 42.667322 57.8613478 42.667322"></polygon><polygon id="Fill-175" fill="#752224" points="59.6190508 46.6045993 62.2505898 46.6045993 61.4839729 44.2866875 58.8551186 44.2866875"></polygon><polygon id="Fill-177" fill="#752224" points="66.0512136 40.6877614 63.5522034 40.6877614 63.2129492 42.6673953 65.7112271 42.6673953"></polygon><polygon id="Fill-179" fill="#752224" points="62.5364176 46.6045993 65.0349397 46.6045993 65.4332583 44.2866875 62.9347363 44.2866875"></polygon><polygon id="Fill-181" fill="#752224" points="76.3305437 40.6877614 73.6526319 40.6877614 73.3009302 42.6673953 75.9781098 42.6673953"></polygon><polygon id="Fill-183" fill="#752224" points="72.6007485 46.6045993 75.2779281 46.6045993 75.6906468 44.2866875 73.012979 44.2866875"></polygon><polygon id="Fill-185" fill="#752224" points="82.9028502 46.6045993 85.5346332 46.6045993 84.7677722 44.2866875 82.139162 44.2866875"></polygon><polygon id="Fill-187" fill="#752224" points="77.9744136 46.6045993 80.4724475 46.6045993 80.8683254 44.2866875 78.3707797 44.2866875"></polygon><polygon id="Fill-189" fill="#752224" points="81.3025708 41.7479186 81.6057031 42.667322 84.2316285 42.667322 83.5765505 40.6876881 78.9861234 40.6876881 78.6473573 42.667322 81.1453912 42.667322"></polygon><polygon id="Fill-191" fill="#752224" points="85.8196312 46.6045993 88.3186414 46.6045993 88.7167159 44.2866875 86.2177058 44.2866875"></polygon><polygon id="Fill-193" fill="#752224" points="89.3347688 40.6877614 86.8362468 40.6877614 86.4960163 42.6673953 88.9942942 42.6673953"></polygon><path d="M99.3374969,46.3539905 C99.3079647,46.4394142 99.2767241,46.5219092 99.2457275,46.6046481 L102.094487,46.6046481 C102.295111,45.8743973 102.422758,45.0999702 102.48768,44.2867363 L99.7685207,44.2867363 C99.6931037,45.0367566 99.5542292,45.7303973 99.3374969,46.3539905" id="Fill-195" fill="#752224"></path><path d="M102.288252,40.6877614 L99.4741505,40.6877614 C99.6838047,41.1954224 99.7980285,41.860019 99.8253641,42.6673953 L102.528171,42.6673953 C102.50474,41.9444664 102.425906,41.2825546 102.288252,40.6877614" id="Fill-197" fill="#752224"></path><polygon id="Fill-199" fill="#752224" points="94.8129437 40.6877614 92.1384488 40.6877614 91.7991946 42.6673953 94.4736895 42.6673953"></polygon><polygon id="Fill-201" fill="#752224" points="91.1250061 46.6045993 93.799501 46.6045993 94.1968434 44.2866875 91.5221044 44.2866875"></polygon><polygon id="Fill-203" fill="#752224" points="107.841258 40.6877614 105.160174 40.6877614 104.825313 42.6673953 107.505177 42.6673953"></polygon><path d="M104.447203,44.905082 C104.331271,45.5762685 104.24365,46.1390888 104.180925,46.6045261 L106.834674,46.6045261 L107.079962,45.1689193 L107.22982,44.2866142 L104.551908,44.2866142 L104.447203,44.905082 Z" id="Fill-205" fill="#752224"></path><path d="M112.08384,45.2305464 C111.996464,45.7457736 111.91104,46.2007159 111.825616,46.6046481 L114.504016,46.6046481 C114.592369,46.1763092 114.679501,45.7145329 114.765169,45.2105329 L114.929426,44.2867363 L112.252247,44.2867363 L112.08384,45.2305464 Z" id="Fill-207" fill="#752224"></path><polygon id="Fill-209" fill="#752224" points="115.570641 40.6877614 112.892241 40.6877614 112.539807 42.6673953 115.218207 42.6673953"></polygon><path d="M122.177386,45.7192678 C122.83344,46.0663322 123.322308,46.360678 123.650091,46.6045017 L126.956477,46.6045017 C126.901318,46.3191864 126.822728,46.0485153 126.717047,45.7949288 C126.495921,45.2638373 126.178633,44.8157288 125.766403,44.4508475 C125.707582,44.3993492 125.638511,44.3441898 125.563582,44.2865898 L119.816518,44.2865898 C120.270972,44.6468339 121.056871,45.1239864 122.177386,45.7192678" id="Fill-211" fill="#752224"></path><path d="M121.377966,41.6983485 C121.092407,41.4340231 120.934495,41.0962332 120.903742,40.6876637 L118.356163,40.6876637 C118.352746,40.7664976 118.346888,40.8426468 118.346888,40.9236773 C118.346888,41.5719214 118.450861,42.1513383 118.650264,42.6672976 L122.82358,42.6672976 C122.128719,42.2765451 121.637898,41.9504705 121.377966,41.6983485" id="Fill-213" fill="#752224"></path><polygon id="Fill-215" fill="#752224" points="136.19603 40.6877614 133.520803 40.6877614 133.180328 42.6673953 135.855067 42.6673953"></polygon><polygon id="Fill-217" fill="#752224" points="132.501649 46.6045993 135.176876 46.6045993 135.576171 44.2866875 132.9007 44.2866875"></polygon><path d="M152.404597,40.7037234 L152.404597,40.687859 L149.722292,40.687859 C149.722292,40.7120217 149.724976,40.7354522 149.724976,40.7603471 C149.724976,41.3104759 149.567308,41.8130115 149.252705,42.2689302 C149.14922,42.4190319 149.033288,42.5481437 148.911498,42.6672488 L152.124895,42.6672488 C152.310142,42.0873437 152.404597,41.4339742 152.404597,40.7037234" id="Fill-219" fill="#752224"></path><polygon id="Fill-221" fill="#752224" points="144.405421 40.6877614 141.719943 40.6877614 141.380933 42.6673953 144.064458 42.6673953"></polygon><path d="M140.708184,46.6045993 L143.387561,46.6045993 L143.517405,45.8489654 L144.614978,45.8489654 C145.130205,45.8489654 145.496306,45.9033925 145.714503,46.0117586 C145.928795,46.1186603 146.139669,46.3163553 146.346639,46.6045993 L149.056767,46.6045993 C148.838815,46.2294671 148.616713,45.9173044 148.392903,45.6700637 C149.577608,45.4845722 150.496767,45.0144976 151.176252,44.2866875 L141.104795,44.2866875 L140.708184,46.6045993 Z" id="Fill-223" fill="#752224"></path><polygon id="Fill-225" fill="#752224" points="157.281193 40.6877614 154.603037 40.6877614 154.251092 42.6673953 156.929003 42.6673953"></polygon><polygon id="Fill-227" fill="#752224" points="153.550593 46.6045993 156.228748 46.6045993 156.640735 44.2866875 153.963067 44.2866875"></polygon><polygon id="Fill-229" fill="#752224" points="162.601822 40.6877614 159.916588 40.6877614 159.578066 42.6673953 162.26086 42.6673953"></polygon><polygon id="Fill-231" fill="#752224" points="158.904342 46.6045993 161.581765 46.6045993 161.779704 45.458701 168.538674 45.458701 168.739542 44.2866875 159.300464 44.2866875"></polygon><path d="M175.829394,45.7192678 C176.485448,46.0663322 176.974316,46.360678 177.302099,46.6045017 L180.608729,46.6045017 C180.553326,46.3191864 180.475468,46.0485153 180.369787,45.7949288 C180.147929,45.2638373 179.831129,44.8157288 179.418411,44.4508475 C179.360079,44.3993492 179.291252,44.3441898 179.215835,44.2865898 L173.469014,44.2865898 C173.923468,44.6468339 174.709611,45.1239864 175.829394,45.7192678" id="Fill-233" fill="#752224"></path><path d="M175.030682,41.6983485 C174.744391,41.4340231 174.587211,41.0962332 174.55597,40.6876637 L172.008146,40.6876637 C172.005462,40.7664976 171.999604,40.8426468 171.999604,40.9236773 C171.999604,41.5719214 172.103577,42.1513383 172.301516,42.6672976 L176.476052,42.6672976 C175.780702,42.2765451 175.290614,41.9504705 175.030682,41.6983485" id="Fill-235" fill="#752224"></path><polygon id="Fill-237" fill="#5F605F" points="64.5170766 58.9036881 62.4073546 58.9036881 62.0844529 60.7881356 64.1919783 60.7881356"></polygon><polygon id="Fill-239" fill="#5F605F" points="60.26544 71.394541 67.5962603 71.394541 67.9543078 69.3077614 62.724179 69.3077614 63.2472163 66.2705817 61.1440841 66.2705817"></polygon><polygon id="Fill-241" fill="#5F605F" points="68.7347634 71.394541 70.8376515 71.394541 71.7497329 66.2705817 69.6466007 66.2705817"></polygon><polygon id="Fill-243" fill="#5F605F" points="73.0607675 58.9036881 70.9578793 58.9036881 70.622042 60.7881356 72.7251742 60.7881356"></polygon><polygon id="Fill-245" fill="#5F605F" points="78.4429993 67.654861 78.3927214 66.2705085 76.6962061 66.2705085 76.8751078 71.3944678 78.8842739 71.3944678 80.8661044 66.2705085 78.9899553 66.2705085"></polygon><polygon id="Fill-247" fill="#5F605F" points="78.1276637 58.9036881 75.1234332 58.9036881 74.8010197 60.7881356 78.1955146 60.7881356"></polygon><polygon id="Fill-249" fill="#5F605F" points="84.9304678 58.9036881 81.9008542 58.9036881 81.1564475 60.7881356 84.6129356 60.7881356"></polygon><polygon id="Fill-251" fill="#5F605F" points="80.9020312 71.394541 82.827238 71.394541 83.6905058 66.2705817 81.8866007 66.2705817"></polygon><polygon id="Fill-253" fill="#5F605F" points="72.9868881 71.394541 74.8869559 71.394541 75.6845695 66.2705817 73.8630915 66.2705817"></polygon><polygon id="Fill-255" fill="#5F605F" points="84.6340719 71.394541 86.7374481 71.394541 87.6492854 66.2705817 85.5466414 66.2705817"></polygon><polygon id="Fill-257" fill="#5F605F" points="88.9601003 58.9036881 86.8572122 58.9036881 86.521619 60.7881356 88.6245071 60.7881356"></polygon><polygon id="Fill-259" fill="#5F605F" points="98.3874386 58.9036881 90.2499742 58.9036881 89.9263403 60.7881356 98.0642929 60.7881356"></polygon><polygon id="Fill-261" fill="#5F605F" points="91.1791159 71.394541 93.2793193 71.394541 94.1621125 66.2705817 92.0611769 66.2705817"></polygon><polygon id="Fill-263" fill="#5F605F" points="107.342408 58.9036881 99.7504353 58.9036881 99.4282658 60.7881356 107.019262 60.7881356"></polygon><polygon id="Fill-265" fill="#5F605F" points="97.6118644 71.394541 105.612895 71.394541 105.962156 69.3077614 100.070359 69.3077614 100.593153 66.2705817 98.4895322 66.2705817"></polygon><path d="M114.405584,66.6190129 C114.143455,67.371962 113.833733,67.9596773 113.475197,68.3828908 C113.116662,68.8063485 112.732499,69.0860502 112.322709,69.2227281 C112.009814,69.3291417 111.463591,69.3835688 110.683794,69.3835688 L109.617218,69.3835688 L110.149774,66.2704841 L108.04957,66.2704841 L107.171902,71.3944434 L110.784838,71.3944434 C111.557313,71.3944434 112.119401,71.3588095 112.471835,71.2838807 C113.011713,71.1757586 113.52816,70.9729383 114.022641,70.6744434 C114.516879,70.3766807 114.99574,69.8992841 115.458492,69.2432298 C115.920757,68.5874197 116.280757,67.8208027 116.53654,66.9426468 C116.599753,66.7234739 116.656377,66.4989315 116.70397,66.2704841 L114.507848,66.2704841 C114.474411,66.3873925 114.444391,66.5069858 114.405584,66.6190129" id="Fill-267" fill="#5F605F"></path><path d="M115.522243,59.8661451 C115.090975,59.4458603 114.588439,59.1646942 114.012439,59.0228908 C113.670012,58.9428366 113.017863,58.9037858 112.054283,58.9037858 L109.310473,58.9037858 L108.98806,60.7879892 L116.198799,60.7879892 C116.005253,60.4318942 115.782175,60.1202197 115.522243,59.8661451" id="Fill-269" fill="#5F605F"></path><polygon id="Fill-271" fill="#5F605F" points="117.490991 71.394541 119.467208 71.394541 119.87651 69.0344054 117.900049 69.0344054"></polygon><polygon id="Fill-273" fill="#752224" points="64.1919783 60.7880624 62.0844529 60.7880624 61.7227444 62.8980285 63.8283173 62.8980285"></polygon><polygon id="Fill-275" fill="#752224" points="61.1439864 66.2705329 63.2473627 66.2705329 63.6110237 64.1608108 61.5061831 64.1608108"></polygon><polygon id="Fill-277" fill="#752224" points="72.7252963 60.7880624 70.62192 60.7880624 70.2470319 62.8980285 72.34992 62.8980285"></polygon><polygon id="Fill-279" fill="#752224" points="69.6465519 66.2705329 71.7496841 66.2705329 72.1250603 64.1608108 70.0216841 64.1608108"></polygon><polygon id="Fill-281" fill="#752224" points="73.8631647 66.2705329 75.6843986 66.2705329 76.0126698 64.1608108 74.224141 64.1608108"></polygon><polygon id="Fill-283" fill="#752224" points="76.5107146 60.9570549 76.5785654 62.897882 78.2714197 62.897882 78.1955146 60.78816 74.8010197 60.78816 74.4400434 62.897882 76.2088027 62.897882"></polygon><polygon id="Fill-285" fill="#752224" points="76.6961573 66.2705329 78.3926725 66.2705329 78.3170115 64.1608108 76.6224488 64.1608108"></polygon><polygon id="Fill-287" fill="#752224" points="82.8918915 61.0335702 82.5338441 62.8980041 84.257939 62.8980041 84.6128136 60.788038 81.1565695 60.788038 80.3225898 62.8980041 82.1706712 62.8980041"></polygon><polygon id="Fill-289" fill="#752224" points="78.9899064 66.2705329 80.8660556 66.2705329 81.6822183 64.1608108 79.823398 64.1608108"></polygon><polygon id="Fill-291" fill="#752224" points="81.8866495 66.2705329 83.6905546 66.2705329 84.0456732 64.1608108 82.2913139 64.1608108"></polygon><polygon id="Fill-293" fill="#752224" points="88.6246047 60.7880624 86.5217166 60.7880624 86.1463403 62.8980285 88.2494725 62.8980285"></polygon><polygon id="Fill-295" fill="#752224" points="85.5467146 66.2705329 87.6493586 66.2705329 88.0244908 64.1608108 85.9218468 64.1608108"></polygon><polygon id="Fill-297" fill="#752224" points="95.0713139 60.9909071 98.0299037 60.9909071 98.0643173 60.7880868 89.9263647 60.7880868 89.8919512 60.9909071 92.9706224 60.9909071 92.6425953 62.8978088 94.7427986 62.8978088"></polygon><polygon id="Fill-299" fill="#752224" points="92.0612258 66.2705329 94.1619173 66.2705329 94.5255783 64.1608108 92.4243986 64.1608108"></polygon><polygon id="Fill-301" fill="#752224" points="98.489459 66.2705329 100.593079 66.2705329 100.653852 65.9154142 105.962083 65.9154142 106.263018 64.1608108 98.8506793 64.1608108"></polygon><polygon id="Fill-303" fill="#752224" points="101.502403 60.9909071 106.984654 60.9909071 107.019311 60.7880868 99.4283146 60.7880868 99.0670942 62.8978088 101.173887 62.8978088"></polygon><path d="M114.507848,66.2705329 L116.70397,66.2705329 C116.842357,65.6083769 116.910207,64.9035092 116.915821,64.1608108 L114.792919,64.1608108 C114.781448,64.9391431 114.685529,65.6413261 114.507848,66.2705329" id="Fill-305" fill="#752224"></path><path d="M111.057999,60.965158 L112.267599,60.965158 C112.908277,60.965158 113.356873,61.0220258 113.614365,61.1355173 C113.974365,61.3007512 114.261877,61.6163308 114.476168,62.0820122 C114.581605,62.3111919 114.660927,62.5833275 114.71389,62.8979308 L116.846311,62.8979308 C116.784561,62.4039376 116.687178,61.9504597 116.543911,61.5494563 C116.444087,61.271219 116.326202,61.0220258 116.198799,60.7879647 L108.98806,60.7879647 L108.626595,62.8979308 L110.727043,62.8979308 L111.057999,60.965158 Z" id="Fill-307" fill="#752224"></path><polygon id="Fill-309" fill="#752224" points="108.04957 66.2705329 110.149774 66.2705329 110.51075 64.1608108 108.410546 64.1608108"></polygon></g></g></svg> 