<?xml version="1.0" encoding="UTF-8"?> <svg xmlns="http://www.w3.org/2000/svg" xmlns:xlink="http://www.w3.org/1999/xlink" width="108px" height="72px" viewBox="0 0 108 72"><!-- Generator: Sketch 50.2 (55047) - http://www.bohemiancoding.com/sketch --><title>New Wire Products Logo</title><desc>Created with Sketch.</desc><defs></defs><g id="New-Wire-Products-Logo" stroke="none" stroke-width="1" fill="none" fill-rule="evenodd"><g id="Group" fill="#3F4583"><path d="M38.0978769,6.67871538 L45.7843385,28.3908692 C45.7843385,28.3908692 47.0609538,29.0506385 47.4366462,28.0241769 L54.3897231,6.67571538 C54.3897231,6.67571538 55.0649538,5.28486923 56.6154923,5.2971 C56.6154923,5.2971 57.7914923,5.29479231 58.5426462,6.68863846 C58.5426462,6.68863846 64.3942615,19.6384846 67.3998,28.5844846 C67.3998,28.5844846 68.7514154,29.1715615 68.9761846,27.9985615 L75.4977231,6.87440769 C75.4977231,6.87440769 76.3344923,4.84940769 78.9666462,5.3391 C81.3560308,5.78471538 82.7699538,7.48963846 82.3474154,9.29886923 C82.3474154,9.29886923 73.7092615,41.9305615 71.1560308,47.0635615 C71.1560308,47.0635615 70.0970308,49.3343308 68.1193385,49.2761769 C68.1193385,49.2761769 65.9658,49.4730231 64.3379538,44.8172538 L57.5914154,27.2829462 C57.5914154,27.2829462 56.6154923,25.5671769 55.7134154,27.2829462 C55.7134154,27.2829462 49.2218769,46.2177923 48.9209538,46.8044077 C48.9209538,46.8044077 47.8545692,49.8803308 45.2978769,49.2773308 C45.2978769,49.2773308 43.5128769,49.2842538 41.4094154,43.4806385 C41.4094154,43.4806385 36.7363385,27.5370231 31.0778769,10.4991 C31.0778769,10.4991 29.6893385,7.36617692 32.2928769,6.14402308 C32.2928769,6.14402308 36.0984923,3.89517692 38.0978769,6.67871538" id="Fill-1"></path><path d="M35.8030385,1.87414615 C33.4840385,1.87414615 31.3510385,2.82837692 31.3302692,2.83853077 L31.2707308,2.86345385 C29.4435,3.53891538 28.2072692,4.59860769 27.5971154,6.01345385 C26.4963462,8.56322308 27.7065,11.4663 27.7191923,11.4953769 L27.7475769,11.5736077 L39.0045,46.9784538 C40.6037308,52.0410692 44.7188077,52.2972231 45.5271923,52.2972231 L45.6275769,52.2951462 C50.8125,52.2942231 52.0902692,47.3250692 52.1022692,47.2743 C53.7815769,41.8140692 55.7858077,35.7166846 55.8056538,35.6559923 L56.5990385,33.2444538 L57.4683462,35.6287615 C58.2259615,37.7077615 62.8189615,48.8421462 62.8655769,48.9536077 C64.3431923,52.2261462 67.7048077,52.2771462 67.8471923,52.2778385 L67.9678846,52.2780692 C74.1912692,52.2778385 75.6792692,47.3449154 75.6933462,47.2946077 L85.2746538,11.7813 C86.9103462,5.03914615 82.8171923,3.1023 82.6425,3.02314615 C80.9006538,2.20737692 79.3161923,1.79776154 77.9170385,1.79776154 C73.3785,1.79776154 72.0026538,6.21514615 71.9885769,6.25922308 C69.8281154,13.5584538 68.7054231,18.2643 68.6938846,18.3111462 L68.1042692,20.7923769 L67.0385769,18.4749923 C65.3518846,14.8048385 64.2995769,12.3344538 63.4538077,10.3491462 C62.4815769,8.06568462 61.8395769,6.55737692 60.9072692,4.83999231 C59.7903462,2.78291538 56.5397308,2.67883846 56.5069615,2.67837692 C56.4206538,2.67445385 56.3615769,2.67353077 56.3013462,2.67353077 C53.2729615,2.67353077 51.9543462,6.12399231 51.9414231,6.15837692 C50.5425,10.5201462 47.5141154,18.2377615 47.4838846,18.3159923 L46.6385769,20.4674538 L45.8391923,18.2977615 C42.1533462,8.30383846 41.0641154,5.39476154 41.0638846,5.39291538 C40.1470385,3.02799231 38.4245769,1.87414615 35.8030385,1.87414615 M45.5271923,54.0575308 C44.5037308,54.0575308 39.2945769,53.7418385 37.3268077,47.5087615 L26.0818846,12.1413 C25.9062692,11.7069923 24.6520385,8.39822308 25.9808077,5.31606923 C26.7864231,3.44845385 28.3508077,2.07168462 30.6326538,1.22245385 C30.9425769,1.08537692 33.2276538,0.114069231 35.8030385,0.114069231 C39.1399615,0.114069231 41.5279615,1.72322308 42.7083462,4.76568462 C42.7115769,4.77422308 43.6399615,7.25453077 46.6851923,15.5052231 C47.6865,12.8931462 49.3445769,8.49422308 50.2785,5.58353077 C50.3634231,5.35160769 52.1359615,0.739223077 56.5579615,0.918761538 C56.7075,0.920838462 60.8336538,1.01522308 62.4536538,3.99953077 C63.4258846,5.79053077 64.0817308,7.32999231 65.0738077,9.65914615 C65.7259615,11.1914538 66.5020385,13.0136077 67.5995769,15.4551462 C68.1453462,13.3477615 69.0515769,9.98268462 70.3028077,5.75706923 C70.8947308,3.77683846 73.2490385,0.0376846154 77.9170385,0.0376846154 C79.5769615,0.0376846154 81.4122692,0.503376923 83.3719615,1.42160769 C83.4051923,1.43614615 88.9833462,3.96445385 86.9795769,12.2179154 L77.3881154,47.7672231 C77.3661923,47.8424538 75.5018077,54.0376846 67.9678846,54.0379154 L67.8393462,54.0376846 C67.6577308,54.0376846 63.2073462,53.9883 61.2495,49.6526077 C61.0909615,49.2686077 58.2730385,42.4369154 56.7158077,38.5419923 C55.9785,40.8178385 54.8239615,44.4113769 53.7984231,47.7427615 C53.2729615,49.8916846 50.8826538,54.0471462 45.6949615,54.0540692 C45.6818077,54.0549923 45.6195,54.0575308 45.5271923,54.0575308" id="Fill-3"></path><path d="M2.47638462,71.6157 L0.0163846154,60.5669308 L1.33984615,60.5669308 L2.49046154,66.1575462 C2.77846154,67.5340846 3.03738462,68.9108538 3.20976923,69.9765462 L3.23884615,69.9765462 C3.39738462,68.8783154 3.69946154,67.5668538 4.02969231,66.1402385 L5.32453846,60.5669308 L6.63415385,60.5669308 L7.81361538,66.1734692 C8.08707692,67.4849308 8.34553846,68.7963923 8.48976923,69.9599308 L8.51861538,69.9599308 C8.72007692,68.7472385 8.99330769,67.5174692 9.29538462,66.1402385 L10.5759231,60.5669308 L11.8562308,60.5669308 L9.10869231,71.6157 L7.79976923,71.6157 L6.57646154,65.8617 C6.27438462,64.4526231 6.07269231,63.3703154 5.94323077,62.2559308 L5.91507692,62.2559308 C5.74246154,63.3537 5.52646154,64.4355462 5.16715385,65.8617 L3.78576923,71.6157 L2.47638462,71.6157 Z" id="Fill-5"></path><path d="M12.7885385,71.6157692 L14.0540769,71.6157692 L14.0540769,63.6819231 L12.7885385,63.6819231 L12.7885385,71.6157692 Z M14.1978462,61.4522308 C14.2123846,61.9437692 13.8962308,62.3372308 13.3924615,62.3372308 C12.9459231,62.3372308 12.6297692,61.9437692 12.6297692,61.4522308 C12.6297692,60.9445385 12.9609231,60.5510769 13.4210769,60.5510769 C13.8962308,60.5510769 14.1978462,60.9445385 14.1978462,61.4522308 Z" id="Fill-7"></path><path d="M16.1541923,66.1574538 C16.1541923,65.2226077 16.1396538,64.4190692 16.0965,63.6817615 L17.2041923,63.6817615 L17.2478077,65.2392231 L17.3050385,65.2392231 C17.6211923,64.1735308 18.3838846,63.5013 19.2326538,63.5013 C19.3766538,63.5013 19.4775,63.5176846 19.5924231,63.5504538 L19.5924231,64.9110692 C19.4625,64.8785308 19.3330385,64.8616846 19.1608846,64.8616846 C18.2685,64.8616846 17.6357308,65.6326846 17.4631154,66.7143 C17.4345,66.9109154 17.4054231,67.1407615 17.4054231,67.3865308 L17.4054231,71.6156077 L16.1541923,71.6156077 L16.1541923,66.1574538 Z" id="Fill-9"></path><path d="M25.1296154,66.8784 C25.1441538,65.9601692 24.7984615,64.5342462 23.3746154,64.5342462 C22.0940769,64.5342462 21.5333077,65.8784769 21.4324615,66.8784 L25.1296154,66.8784 Z M21.4183846,67.9108615 C21.4465385,69.8617846 22.5401538,70.6648615 23.8059231,70.6648615 C24.7126154,70.6648615 25.2590769,70.4844 25.7333077,70.2550154 L25.95,71.2881692 C25.5034615,71.5175538 24.7407692,71.7797077 23.6330769,71.7797077 C21.4901538,71.7797077 20.2091538,70.1733231 20.2091538,67.7800154 C20.2091538,65.3867077 21.4465385,63.5013231 23.4754615,63.5013231 C25.7483077,63.5013231 26.3522308,65.7801692 26.3522308,67.2390923 C26.3522308,67.5342462 26.3231538,67.7636308 26.3093077,67.9108615 L21.4183846,67.9108615 Z" id="Fill-10"></path><path d="M32.2626231,66.0260769 C32.5363154,66.1077692 32.8813154,66.1403077 33.2983154,66.1403077 C34.8089308,66.1403077 35.7297,65.3042308 35.7297,63.78 C35.7297,62.3213077 34.8237,61.6163077 33.4427769,61.6163077 C32.8956231,61.6163077 32.4779308,61.6654615 32.2626231,61.731 L32.2626231,66.0260769 Z M31.0109308,60.6983077 C31.6155462,60.5836154 32.4061615,60.4853077 33.4139308,60.4853077 C34.6510846,60.4853077 35.5570846,60.813 36.1326231,61.4028462 C36.6657,61.9276154 36.9811615,62.7309231 36.9811615,63.7142308 C36.9811615,64.7143846 36.7227,65.5010769 36.2330077,66.075 C35.5718538,66.8783077 34.4930077,67.2883846 33.2703923,67.2883846 C32.8956231,67.2883846 32.5501615,67.2715385 32.2626231,67.1900769 L32.2626231,71.6157692 L31.0109308,71.6157692 L31.0109308,60.6983077 Z" id="Fill-11"></path><path d="M38.3895,66.1574538 C38.3895,65.2226077 38.3749615,64.4190692 38.3318077,63.6817615 L39.4395,63.6817615 L39.4833462,65.2392231 L39.5403462,65.2392231 C39.8567308,64.1735308 40.6196538,63.5013 41.4681923,63.5013 C41.6121923,63.5013 41.7123462,63.5176846 41.8279615,63.5504538 L41.8279615,64.9110692 C41.6978077,64.8785308 41.5683462,64.8616846 41.3964231,64.8616846 C40.5038077,64.8616846 39.8710385,65.6326846 39.6984231,66.7143 C39.6700385,66.9109154 39.6407308,67.1407615 39.6407308,67.3865308 L39.6407308,71.6156077 L38.3895,71.6156077 L38.3895,66.1574538 Z" id="Fill-12"></path><path d="M43.7253692,67.6651154 C43.7253692,69.4025769 44.6027538,70.7142692 45.8396769,70.7142692 C47.0482154,70.7142692 47.9549077,69.4191923 47.9549077,67.6325769 C47.9549077,66.2876538 47.3648308,64.5834231 45.8682923,64.5834231 C44.3726769,64.5834231 43.7253692,66.1575 43.7253692,67.6651154 M49.2502154,67.5834231 C49.2502154,70.5174231 47.4659077,71.7958846 45.7826769,71.7958846 C43.8979846,71.7958846 42.4443692,70.2222692 42.4443692,67.7142692 C42.4443692,65.0585769 43.9702154,63.5013462 45.8980615,63.5013462 C47.8974462,63.5013462 49.2502154,65.1571154 49.2502154,67.5834231" id="Fill-13"></path><path d="M55.5919385,66.9108462 C55.5919385,66.7308462 55.5776308,66.4846154 55.5342462,66.3048462 C55.3475538,65.3868462 54.6566308,64.6326923 53.7070154,64.6326923 C52.3985538,64.6326923 51.6217846,65.9434615 51.6217846,67.6977692 C51.6217846,69.3041538 52.3115538,70.6317692 53.6786308,70.6317692 C54.5271692,70.6317692 55.3044,69.9925385 55.5342462,68.9109231 C55.5776308,68.7143077 55.5919385,68.5176923 55.5919385,68.2876154 L55.5919385,66.9108462 Z M56.8577077,59.9771538 L56.8577077,69.5667692 C56.8577077,70.2715385 56.8724769,71.0748462 56.9156308,71.6157692 L55.7786308,71.6157692 L55.7209385,70.2387692 L55.6927846,70.2387692 C55.3044,71.124 54.4551692,71.796 53.3190923,71.796 C51.6356308,71.796 50.3407846,70.1734615 50.3407846,67.7635385 C50.3262462,65.1242308 51.7653231,63.5014615 53.4628615,63.5014615 C54.5271692,63.5014615 55.2467077,64.0753846 55.5635538,64.7143846 L55.5919385,64.7143846 L55.5919385,59.9771538 L56.8577077,59.9771538 Z" id="Fill-14"></path><path d="M64.7832692,69.4517769 C64.7832692,70.2717 64.7978077,70.9930846 64.8409615,71.6157 L63.7185,71.6157 L63.6462692,70.3208538 L63.6174231,70.3208538 C63.2867308,70.9600846 62.5528846,71.7959308 61.3161923,71.7959308 C60.2221154,71.7959308 58.9131923,71.1075462 58.9131923,68.3210077 L58.9131923,63.6818538 L60.1791923,63.6818538 L60.1791923,68.0750077 C60.1791923,69.5830846 60.5823462,70.5996231 61.7329615,70.5996231 C62.5815,70.5996231 63.1718077,69.9276231 63.4018846,69.2883923 C63.4741154,69.0747 63.5170385,68.8123154 63.5170385,68.5508538 L63.5170385,63.6818538 L64.7832692,63.6818538 L64.7832692,69.4517769 Z" id="Fill-15"></path><path d="M71.8440462,71.3207077 C71.5133538,71.5175538 70.7799692,71.7797077 69.8442,71.7797077 C67.7437385,71.7797077 66.3771231,70.1564769 66.3771231,67.7306308 C66.3771231,65.2884 67.8448154,63.5177077 70.1181231,63.5177077 C70.8658154,63.5177077 71.5278923,63.7309385 71.8731231,63.9277846 L71.5860462,65.0424 C71.2830462,64.8457846 70.8092769,64.6650923 70.1181231,64.6650923 C68.5209692,64.6650923 67.6581231,66.0093231 67.6581231,67.6650923 C67.6581231,69.5010923 68.6938154,70.6318615 70.0749692,70.6318615 C70.7940462,70.6318615 71.2687385,70.4190923 71.6287385,70.2388615 L71.8440462,71.3207077 Z" id="Fill-16"></path><path d="M75.0367385,61.4028 L75.0367385,63.6818769 L76.8492,63.6818769 L76.8492,64.7801077 L75.0367385,64.7801077 L75.0367385,69.0585692 C75.0367385,70.0421077 75.2808923,70.5996462 75.9858923,70.5996462 C76.3168154,70.5996462 76.5614308,70.5507231 76.7192769,70.5015692 L76.7772,71.5831846 C76.5323538,71.6974154 76.1442,71.7798 75.6549692,71.7798 C75.0651231,71.7798 74.5899692,71.5665692 74.2883538,71.1731077 C73.9281231,70.7471077 73.7988923,70.0421077 73.7988923,69.1077231 L73.7988923,64.7801077 L72.7202769,64.7801077 L72.7202769,63.6818769 L73.7988923,63.6818769 L73.7988923,61.7801077 L75.0367385,61.4028 Z" id="Fill-17"></path><path d="M78.0996,70.1402538 C78.4729846,70.4190231 79.1346,70.7141769 79.7678308,70.7141769 C80.6886,70.7141769 81.1201385,70.1894077 81.1201385,69.5340231 C81.1201385,68.8458692 80.7608308,68.4683308 79.8257538,68.0751 C78.5740615,67.5669462 77.9844462,66.7797923 77.9844462,65.8290231 C77.9844462,64.5507923 78.8906769,63.5012538 80.3867538,63.5012538 C81.0917538,63.5012538 81.7102154,63.7311 82.0990615,63.9927923 L81.7824462,65.0423308 C81.5089846,64.8459462 81.0052154,64.5835615 80.3581385,64.5835615 C79.6099846,64.5835615 79.1927538,65.0751 79.1927538,65.6651769 C79.1927538,66.3210231 79.6099846,66.6161769 80.5159846,67.0094077 C81.7249846,67.5341769 82.3434462,68.2223308 82.3434462,69.4027154 C82.3434462,70.7963308 81.3940615,71.7796385 79.7394462,71.7796385 C78.9774462,71.7796385 78.2724462,71.5666385 77.7825231,71.2389462 L78.0996,70.1402538 Z" id="Fill-18"></path><polygon id="Fill-19" points="87.0597231 60.5669538 88.3114154 60.5669538 88.3114154 70.4189538 92.4537231 70.4189538 92.4537231 71.6157231 87.0597231 71.6157231"></polygon><path d="M95.2720846,61.4028 L95.2720846,63.6818769 L97.0847769,63.6818769 L97.0847769,64.7801077 L95.2720846,64.7801077 L95.2720846,69.0585692 C95.2720846,70.0421077 95.5173923,70.5996462 96.2226231,70.5996462 C96.5523923,70.5996462 96.7972385,70.5507231 96.9555462,70.5015692 L97.0130077,71.5831846 C96.7688538,71.6974154 96.3797769,71.7798 95.8907769,71.7798 C95.3013923,71.7798 94.8264692,71.5665692 94.5246231,71.1731077 C94.1648538,70.7471077 94.0349308,70.0421077 94.0349308,69.1077231 L94.0349308,64.7801077 L92.9560846,64.7801077 L92.9560846,63.6818769 L94.0349308,63.6818769 L94.0349308,61.7801077 L95.2720846,61.4028 Z" id="Fill-20"></path><path d="M103.1694,66.9108462 C103.1694,66.7308462 103.155092,66.4846154 103.111477,66.3048462 C102.925015,65.3868462 102.234092,64.6326923 101.284246,64.6326923 C99.9757846,64.6326923 99.1985538,65.9434615 99.1985538,67.6977692 C99.1985538,69.3041538 99.8890154,70.6317692 101.255631,70.6317692 C102.104631,70.6317692 102.881862,69.9925385 103.111477,68.9109231 C103.155092,68.7143077 103.1694,68.5176923 103.1694,68.2876154 L103.1694,66.9108462 Z M104.435169,59.9771538 L104.435169,69.5667692 C104.435169,70.2715385 104.450169,71.0748462 104.492862,71.6157692 L103.356323,71.6157692 L103.2984,70.2387692 L103.270246,70.2387692 C102.881862,71.124 102.032862,71.796 100.896323,71.796 C99.2130923,71.796 97.9182462,70.1734615 97.9182462,67.7635385 C97.9037077,65.1242308 99.3425538,63.5014615 101.040323,63.5014615 C102.104631,63.5014615 102.8244,64.0753846 103.141015,64.7143846 L103.1694,64.7143846 L103.1694,59.9771538 L104.435169,59.9771538 Z" id="Fill-21"></path><path d="M106.087362,70.7633769 C106.087362,70.1564538 106.447362,69.7306846 106.9509,69.7306846 C107.454438,69.7306846 107.799438,70.1564538 107.799438,70.7633769 C107.799438,71.3534538 107.468054,71.7960692 106.936362,71.7960692 C106.433285,71.7960692 106.087362,71.3534538 106.087362,70.7633769" id="Fill-22"></path></g></g></svg> 