<?xml version="1.0" encoding="UTF-8"?> <svg xmlns="http://www.w3.org/2000/svg" xmlns:xlink="http://www.w3.org/1999/xlink" width="298px" height="72px" viewBox="0 0 298 72"><!-- Generator: Sketch 50.2 (55047) - http://www.bohemiancoding.com/sketch --><title>New MLI Logotype and Name (text)</title><desc>Created with Sketch.</desc><defs></defs><g id="New-MLI-Logotype-and-Name-(text)" stroke="none" stroke-width="1" fill="none" fill-rule="evenodd"><g id="Group"><path d="M72.8365758,37.4477962 C73.4281682,37.442293 73.8124739,37.3377325 73.9899516,37.1327389 C74.1665121,36.9277452 74.2550217,36.6204841 74.2550217,36.2109554 L74.2550217,28.8288917 C74.2550217,28.4069809 74.1541299,28.1295287 73.9518879,27.996535 C73.7496459,27.8635414 73.3905631,27.7768662 72.8746395,27.7365096 L72.8746395,27.3416561 L76.7892382,27.3416561 L79.8467159,34.5343185 L79.9755822,34.5343185 L83.0156331,27.3416561 L86.9329834,27.3416561 L86.9329834,27.7365096 C86.4069707,27.7768662 86.0478879,27.8736306 85.855735,28.0272611 C85.6631236,28.1804331 85.5672764,28.5564841 85.5672764,29.1549554 L85.5672764,36.0288917 C85.5672764,36.6003057 85.6631236,36.9749809 85.855735,37.1515414 C86.0478879,37.3285605 86.4069707,37.4271592 86.9329834,37.4477962 L86.9329834,37.8417325 L81.7737478,37.8417325 L81.7737478,37.4477962 C82.2341809,37.4326624 82.5804229,37.3556178 82.8129325,37.2162038 C83.0459006,37.0767898 83.1623847,36.7722803 83.1623847,36.301758 L83.1623847,28.7073631 L83.0486522,28.7073631 L79.2395312,37.8417325 L78.8231236,37.8417325 L74.9759389,28.8894268 L74.9076076,28.8894268 L74.9076076,35.9151592 C74.9076076,36.4338344 75.0039134,36.8121783 75.1960662,37.0511083 C75.3882191,37.2900382 75.8128815,37.4221146 76.4705121,37.4477962 L76.4705121,37.8417325 L72.8365758,37.8417325 L72.8365758,37.4477962 Z" id="Fill-1" fill="#85674C"></path><path d="M90.0812637,36.5672866 C90.2582828,37.240051 90.6095694,37.5766624 91.1360408,37.5766624 C91.6368306,37.5766624 91.9651873,37.3189299 92.122028,36.8030064 C92.2788688,36.2866242 92.3572892,35.4473885 92.3572892,34.2839236 C92.3572892,33.1259618 92.2752,32.2871847 92.1110217,31.7689682 C91.9463847,31.250293 91.6239898,30.9911847 91.1433783,30.9911847 C90.6173656,30.9911847 90.266079,31.3277962 90.0890599,32.0001019 C89.9725758,32.4504459 89.9143338,33.2117197 89.9143338,34.2839236 C89.9143338,35.3712611 89.9698242,36.132535 90.0812637,36.5672866 M88.6284229,31.5754395 C89.2933911,30.8522293 90.1294166,30.4903949 91.1360408,30.4903949 C92.1628433,30.4903949 93.0034548,30.8595669 93.6583338,31.5983694 C94.3136713,32.3367134 94.6411108,33.2318981 94.6411108,34.2839236 C94.6411108,35.3208153 94.3173401,36.2123312 93.6697987,36.9584713 C93.0227159,37.7041529 92.1779771,38.0774522 91.1360408,38.0774522 C90.124372,38.0774522 89.2874293,37.7147006 88.6247541,36.9882803 C87.962079,36.2627771 87.6309707,35.361172 87.6309707,34.2839236 C87.6309707,33.2016306 87.9634548,32.2986497 88.6284229,31.5754395" id="Fill-3" fill="#85674C"></path><path d="M95.453014,35.4902217 L95.8854726,35.4902217 C96.0372688,36.2336102 96.3202242,36.7587057 96.7352561,37.0645911 C97.1498293,37.370935 97.5744917,37.5236484 98.0097019,37.5236484 C98.4091414,37.5236484 98.7026446,37.4333045 98.8897529,37.254451 C99.0768611,37.0746803 99.1704153,36.8380433 99.1704153,36.5449987 C99.1704153,36.2666293 99.0695236,36.0286166 98.8668229,35.8314191 C98.755842,35.7254828 98.5760713,35.6117503 98.328428,35.4902217 L97.1750522,34.9288968 C96.5683261,34.630349 96.1331159,34.3065783 95.8703389,33.9575847 C95.6020586,33.6085911 95.4681478,33.1967694 95.4681478,32.7207439 C95.4681478,32.1190624 95.678186,31.5994701 96.0978038,31.1619669 C96.5174217,30.7244637 97.104428,30.5057121 97.8579057,30.5057121 C98.186721,30.5057121 98.5357146,30.5602854 98.9048866,30.6685146 C99.2740586,30.7776611 99.5042752,30.8317758 99.5955363,30.8317758 C99.721651,30.8317758 99.8115363,30.8051771 99.8647338,30.7519796 C99.9179312,30.6992408 99.9619567,30.6244892 99.9977274,30.5281834 L100.338925,30.5281834 L100.338925,32.7739414 L99.9445299,32.7739414 C99.7977783,32.2479287 99.5574726,31.8255592 99.2236127,31.5068331 C98.8897529,31.1885656 98.5004025,31.0289732 98.0551032,31.0289732 C97.7111541,31.0289732 97.4547975,31.125279 97.2851159,31.3174318 C97.1154344,31.5095847 97.0310522,31.7168713 97.0310522,31.9392917 C97.0310522,32.121814 97.106721,32.3038777 97.2589758,32.4859414 C97.4052688,32.6730497 97.6836382,32.8652025 98.0931669,33.0624 L98.9429503,33.4719287 C99.4689631,33.7250752 99.8532688,33.9704255 100.096326,34.2079796 C100.50081,34.6124637 100.703052,35.1109605 100.703052,35.7025529 C100.703052,36.2790115 100.49439,36.8169478 100.077065,37.314986 C99.6597401,37.8130242 99.0342115,38.0620433 98.1995618,38.0620433 C97.9918166,38.0620433 97.7836127,38.0414064 97.5735745,37.9978395 C97.3635363,37.9547312 97.104428,37.8799796 96.7957911,37.7735847 L96.5302624,37.6823236 C96.4344153,37.6474701 96.3747975,37.6268331 96.3518675,37.6217885 C96.3293962,37.6172025 96.3000459,37.614451 96.2647338,37.614451 C96.1789758,37.614451 96.1042242,37.6483873 96.0409376,37.7167185 C95.977651,37.7855083 95.905651,37.900158 95.8249376,38.0620433 L95.453014,38.0620433 L95.453014,35.4902217 Z" id="Fill-5" fill="#85674C"></path><path d="M101.355455,37.4701758 C101.638869,37.4353223 101.847531,37.3578191 101.981442,37.239042 C102.115353,37.1198064 102.182308,36.883628 102.182308,36.5295898 L102.182308,28.6164688 C102.182308,28.3055389 102.126818,28.0872459 102.015378,27.962507 C101.904397,27.8373096 101.68427,27.7543032 101.355455,27.7139465 L101.355455,27.3420229 L104.359735,27.3420229 L104.359735,31.7120102 C104.678461,31.3277045 105.013697,31.0305325 105.364983,30.8204943 C105.716729,30.6104561 106.112499,30.5054369 106.552754,30.5054369 C107.149391,30.5054369 107.642385,30.6787873 108.032194,31.0254879 C108.421544,31.3717299 108.61599,31.9624051 108.61599,32.7970548 L108.61599,36.5295898 C108.61599,36.8785834 108.675608,37.1074242 108.794385,37.2161121 C108.913162,37.3252586 109.111735,37.4096408 109.390104,37.4701758 L109.390104,37.842558 L105.740576,37.842558 L105.740576,37.4701758 C106.018487,37.4146854 106.208346,37.3390166 106.309697,37.2427108 C106.410589,37.1468637 106.461493,36.9290293 106.461493,36.5905834 L106.461493,32.8273223 C106.461493,32.4732841 106.426181,32.2077554 106.355098,32.0307363 C106.234028,31.7120102 105.993722,31.5524178 105.634639,31.5524178 C105.366359,31.5524178 105.089366,31.6766981 104.803659,31.9243414 C104.517952,32.1724433 104.374869,32.3416662 104.374869,32.4329274 L104.374869,36.5905834 C104.374869,36.9290293 104.425315,37.1468637 104.526665,37.2427108 C104.628015,37.3390166 104.817417,37.4146854 105.095786,37.4701758 L105.095786,37.842558 L101.355455,37.842558 L101.355455,37.4701758 Z" id="Fill-7" fill="#85674C"></path><path d="M111.032622,27.4596076 C111.267883,27.2243465 111.552214,27.1064866 111.886074,27.1064866 C112.214889,27.1064866 112.496927,27.2243465 112.732189,27.4596076 C112.96745,27.6948688 113.084851,27.9792 113.084851,28.3130599 C113.084851,28.6469197 112.96745,28.931251 112.732189,29.1665121 C112.496927,29.4017732 112.214889,29.5191745 111.886074,29.5191745 C111.552214,29.5191745 111.267883,29.4017732 111.032622,29.1665121 C110.797361,28.931251 110.679501,28.6469197 110.679501,28.3130599 C110.679501,27.9792 110.797361,27.6948688 111.032622,27.4596076 Z M109.997106,37.4703592 C110.269972,37.424958 110.45708,37.3566268 110.558431,37.2653656 C110.710227,37.1287032 110.785896,36.8833529 110.785896,36.5297732 L110.785896,31.9621299 C110.785896,31.6461554 110.733157,31.430614 110.626762,31.3159643 C110.520367,31.2008561 110.310329,31.1155567 109.997106,31.0596076 L109.997106,30.6876841 L112.978456,30.6876841 L112.978456,36.5907669 C112.978456,36.9292127 113.029361,37.1475057 113.130252,37.2428943 C113.231603,37.3387414 113.421004,37.4148688 113.699373,37.4703592 L113.699373,37.8418242 L109.997106,37.8418242 L109.997106,37.4703592 Z" id="Fill-9" fill="#85674C"></path><path d="M118.228678,37.4477962 C118.65334,37.4326624 118.956932,37.377172 119.138996,37.2804076 C119.447633,37.1185223 119.601722,36.8098854 119.601722,36.3540382 L119.601722,28.8288917 C119.601722,28.377172 119.454971,28.073121 119.161926,27.9171975 C118.989952,27.8218089 118.678563,27.7612739 118.228678,27.7365096 L118.228678,27.3416561 L123.66078,27.3416561 L123.66078,27.7365096 C123.028372,27.7566879 122.607378,27.8447389 122.39734,28.0006624 C122.187761,28.156586 122.082741,28.5413503 122.082741,29.1549554 L122.082741,36.4984968 C122.082741,36.8429045 122.172627,37.070828 122.351939,37.1818089 C122.53171,37.2932484 122.88162,37.3491975 123.403047,37.3491975 C124.338589,37.3491975 125.12371,37.1432866 125.75841,36.7310064 C126.393111,36.3187261 126.940678,35.5157197 127.401111,34.3219873 L127.856499,34.3219873 L127.226843,37.8417325 L118.228678,37.8417325 L118.228678,37.4477962 Z" id="Fill-11" fill="#85674C"></path><path d="M132.909203,33.4569783 C132.899113,32.5416153 132.828031,31.9014115 132.695954,31.5372841 C132.563878,31.1731567 132.299725,30.991093 131.903954,30.991093 C131.498094,30.991093 131.220183,31.2011312 131.070222,31.620749 C130.920718,32.0408255 130.835419,32.6525962 130.815241,33.4569783 L132.909203,33.4569783 Z M129.606375,31.4955516 C130.241992,30.835628 131.007852,30.5054369 131.904413,30.5054369 C132.41575,30.5054369 132.89682,30.6398064 133.347623,30.907628 C133.797967,31.1759083 134.145126,31.5473732 134.388183,32.0229401 C134.570247,32.3820229 134.69682,32.8475006 134.767903,33.4189146 C134.803215,33.6871949 134.821101,33.8921885 134.821101,34.0334369 L130.853304,34.0334369 C130.888617,34.6557554 130.989967,35.1941503 131.157355,35.6495389 C131.461406,36.5048255 131.996132,36.9317809 132.761534,36.9317809 C133.12612,36.9317809 133.470986,36.8180484 133.795215,36.5905834 C133.992871,36.4534624 134.23868,36.2237045 134.533101,35.8999338 L134.889432,36.1200611 C134.408362,36.908851 133.851164,37.4577936 133.218298,37.765972 C132.807852,37.963628 132.336871,38.0622268 131.805355,38.0622268 C131.040871,38.0622268 130.324082,37.761386 129.655445,37.1592459 C128.987266,36.5575643 128.652948,35.5963414 128.652948,34.2764943 C128.652948,33.0827618 128.970757,32.1559338 129.606375,31.4955516 Z" id="Fill-13" fill="#85674C"></path><path d="M139.320183,36.7262828 C139.441712,36.6350217 139.585712,36.4928561 139.752642,36.3002446 L139.752642,34.0260535 C139.338069,34.1274038 138.973483,34.2869962 138.66026,34.5052892 C138.128744,34.8753783 137.863215,35.3468178 137.863215,35.9200662 C137.863215,36.2598879 137.940718,36.5171618 138.094808,36.6918879 C138.249355,36.8675312 138.422247,36.9542064 138.6144,36.9542064 C138.867546,36.9542064 139.102349,36.8785376 139.320183,36.7262828 M136.611699,34.7258752 C137.284464,34.3158879 138.338782,33.9026904 139.775572,33.4872 L139.775572,32.3567541 C139.775572,31.8967796 139.67789,31.5564994 139.482986,31.336372 C139.28854,31.1162446 138.943215,31.0061809 138.44747,31.0061809 C138.169559,31.0061809 137.940718,31.0584611 137.760948,31.1621045 C137.581177,31.2657478 137.49175,31.3959898 137.49175,31.552372 C137.49175,31.6133656 137.501839,31.6638115 137.522018,31.7041682 C137.542196,31.7449834 137.572464,31.7876331 137.61282,31.833493 L137.704082,31.9394293 C137.774706,32.0256459 137.831572,32.1205758 137.87468,32.2242191 C137.917789,32.3278624 137.939343,32.4374675 137.939343,32.5539516 C137.939343,32.8474548 137.841661,33.0740025 137.647215,33.2331363 C137.452311,33.3922701 137.226222,33.4720662 136.968031,33.4720662 C136.669483,33.4720662 136.415419,33.3840153 136.205381,33.2074548 C135.995801,33.0304357 135.890782,32.7759134 135.890782,32.4429707 C135.890782,31.8477096 136.171445,31.3758115 136.732769,31.027735 C137.294553,30.6796586 137.984744,30.5058497 138.80426,30.5058497 C139.684311,30.5058497 140.419903,30.6750726 141.011954,31.0139771 C141.598502,31.3579261 141.892005,31.9898752 141.892005,32.9107414 L141.892005,36.6740025 C141.892005,36.7849834 141.920897,36.8799134 141.979139,36.9583338 C142.037381,37.0367541 142.101585,37.0761936 142.172668,37.0761936 C142.233661,37.0761936 142.287776,37.0642701 142.335929,37.0417987 C142.384082,37.0188688 142.458375,36.956958 142.559725,36.8556076 L142.794986,37.1816713 C142.491394,37.5366268 142.155241,37.7842701 141.78561,37.9255185 C141.553101,38.016321 141.30775,38.0621809 141.050018,38.0621809 C140.589585,38.0621809 140.253432,37.9278115 140.040642,37.6590726 C139.919572,37.5072764 139.831062,37.2821045 139.775572,36.9830981 C139.345406,37.4137223 138.85975,37.7173146 138.318604,37.8947924 C137.989789,38.0062318 137.666476,38.0621809 137.34775,38.0621809 C136.922629,38.0621809 136.525483,37.9264357 136.156311,37.6554038 C135.787139,37.3848306 135.602782,36.9629197 135.602782,36.3905885 C135.602782,35.6912255 135.938935,35.136321 136.611699,34.7258752" id="Fill-15" fill="#85674C"></path><path d="M143.227445,31.3704459 L143.227445,30.9379873 C143.364107,30.8118726 143.53333,30.6623694 143.735572,30.4903949 C144.003852,30.2427516 144.25654,29.9873121 144.494553,29.7240764 C144.965075,29.2081529 145.392489,28.6546242 145.777254,28.0625732 L146.17119,28.0625732 L146.17119,30.6875924 L147.651088,30.6875924 L147.651088,31.3704459 L146.17119,31.3704459 L146.17119,36.0440255 C146.17119,36.2618599 146.204209,36.4439236 146.270247,36.5906752 C146.37068,36.8181401 146.538069,36.9318726 146.771037,36.9318726 C146.97282,36.9318726 147.142502,36.859414 147.278706,36.715414 C147.415368,36.571414 147.552489,36.3728408 147.689152,36.1196943 L148.060158,36.301758 C147.879011,36.726879 147.660718,37.0735796 147.408489,37.3414013 C146.963648,37.811465 146.420668,38.0471847 145.778629,38.0471847 C145.415419,38.0471847 145.096693,37.9788535 144.823827,37.8417325 C144.298273,37.579414 144.03412,37.1010955 144.031368,36.4076943 L144.031368,31.3704459 L143.227445,31.3704459 Z" id="Fill-17" fill="#85674C"></path><path d="M148.401906,37.4701758 C148.68532,37.4353223 148.893982,37.3578191 149.027893,37.239042 C149.161804,37.1198064 149.228759,36.883628 149.228759,36.5295898 L149.228759,28.6164688 C149.228759,28.3055389 149.173269,28.0872459 149.061371,27.962507 C148.950848,27.8373096 148.730721,27.7543032 148.401906,27.7139465 L148.401906,27.3420229 L151.406186,27.3420229 L151.406186,31.7120102 C151.724912,31.3277045 152.060148,31.0305325 152.411434,30.8204943 C152.76318,30.6104561 153.15895,30.5054369 153.598746,30.5054369 C154.195842,30.5054369 154.688836,30.6787873 155.078645,31.0254879 C155.467536,31.3717299 155.662441,31.9624051 155.662441,32.7970548 L155.662441,36.5295898 C155.662441,36.8785834 155.722059,37.1074242 155.840836,37.2161121 C155.959613,37.3252586 156.158186,37.4096408 156.436555,37.4701758 L156.436555,37.842558 L152.787485,37.842558 L152.787485,37.4701758 C153.064938,37.4146854 153.254797,37.3390166 153.356148,37.2427108 C153.457039,37.1468637 153.507944,36.9290293 153.507944,36.5905834 L153.507944,32.8273223 C153.507944,32.4732841 153.472632,32.2077554 153.401549,32.0307363 C153.280479,31.7120102 153.039715,31.5524178 152.680632,31.5524178 C152.41281,31.5524178 152.136275,31.6766981 151.850568,31.9243414 C151.564403,32.1724433 151.42132,32.3416662 151.42132,32.4329274 L151.42132,36.5905834 C151.42132,36.9290293 151.471766,37.1468637 151.573116,37.2427108 C151.674466,37.3390166 151.863868,37.4146854 152.142237,37.4701758 L152.142237,37.842558 L148.401906,37.842558 L148.401906,37.4701758 Z" id="Fill-19" fill="#85674C"></path><path d="M161.390476,33.4569783 C161.380387,32.5416153 161.309304,31.9014115 161.177228,31.5372841 C161.045152,31.1731567 160.781457,30.991093 160.385687,30.991093 C159.979368,30.991093 159.700999,31.2011312 159.551496,31.620749 C159.401534,32.0408255 159.317152,32.6525962 159.296515,33.4569783 L161.390476,33.4569783 Z M158.087648,31.4955516 C158.723266,30.835628 159.489126,30.5054369 160.385687,30.5054369 C160.897024,30.5054369 161.378094,30.6398064 161.828897,30.907628 C162.279241,31.1759083 162.625941,31.5473732 162.869457,32.0229401 C163.051521,32.3820229 163.178094,32.8475006 163.249177,33.4189146 C163.284489,33.6871949 163.302375,33.8921885 163.302375,34.0334369 L159.334578,34.0334369 C159.36989,34.6557554 159.471241,35.1941503 159.638629,35.6495389 C159.94268,36.5048255 160.477406,36.9317809 161.242808,36.9317809 C161.607852,36.9317809 161.95226,36.8180484 162.276948,36.5905834 C162.474145,36.4534624 162.719954,36.2237045 163.013916,35.8999338 L163.370706,36.1200611 C162.889636,36.908851 162.332897,37.4577936 161.699572,37.765972 C161.289126,37.963628 160.818604,38.0622268 160.286629,38.0622268 C159.522145,38.0622268 158.805355,37.761386 158.136718,37.1592459 C157.46854,36.5575643 157.134222,35.5963414 157.134222,34.2764943 C157.134222,33.0827618 157.452031,32.1559338 158.087648,31.4955516 Z" id="Fill-21" fill="#85674C"></path><path d="M163.970094,37.4701758 C164.268183,37.4353223 164.475929,37.3642395 164.591496,37.2578446 C164.708438,37.1519083 164.771725,36.9469146 164.781814,36.6433223 L164.796948,36.1883924 L164.796948,31.9624051 C164.796948,31.6358828 164.741457,31.413921 164.630018,31.2965197 C164.518578,31.1791185 164.29891,31.1002395 163.970094,31.0594242 L163.970094,30.6875006 L166.913839,30.6875006 L166.913839,31.9092076 C167.243113,31.4795006 167.570094,31.1378446 167.894782,30.8851567 C168.219011,30.6320102 168.594145,30.5054369 169.020183,30.5054369 C169.339368,30.5054369 169.62691,30.6081631 169.883266,30.8126981 C170.139164,31.0176917 170.266655,31.3171567 170.266655,31.7120102 C170.266655,32.0151439 170.176769,32.2655389 169.997457,32.4631949 C169.817228,32.6603924 169.582425,32.7589911 169.293508,32.7589911 C168.964234,32.7589911 168.678986,32.6049019 168.438222,32.296265 C168.197457,31.987628 168.029152,31.8330803 167.932846,31.8330803 C167.724642,31.8330803 167.515062,31.9610293 167.304566,32.2164688 C167.094527,32.4719083 166.989508,32.8378701 166.989508,33.3143541 L166.989508,36.2567236 C166.989508,36.7689783 167.06426,37.0895389 167.213304,37.2174879 C167.36189,37.3458955 167.65998,37.4298191 168.10482,37.4701758 L168.10482,37.842558 L163.970094,37.842558 L163.970094,37.4701758 Z" id="Fill-23" fill="#85674C"></path><path d="M174.447562,37.4477962 C174.887817,37.4381656 175.203332,37.384051 175.395944,37.2882038 C175.709625,37.1263185 175.866466,36.8153885 175.866466,36.3549554 L175.866466,28.8288917 C175.866466,28.3716688 175.717422,28.0657834 175.418415,27.9098599 C175.23681,27.8144713 174.913039,27.7566879 174.447562,27.7365096 L174.447562,27.3416561 L179.880122,27.3416561 L179.880122,27.7365096 C179.394008,27.7566879 179.060606,27.8117197 178.878084,27.9020637 C178.57495,28.0579873 178.423154,28.3670828 178.423154,28.8288917 L178.423154,36.3549554 C178.423154,36.7901656 178.544683,37.0809172 178.787282,37.2281274 C179.02988,37.3744204 179.394008,37.4477962 179.880122,37.4477962 L179.880122,37.8417325 L174.447562,37.8417325 L174.447562,37.4477962 Z" id="Fill-25" fill="#85674C"></path><path d="M180.494415,37.4701758 C180.777371,37.4353223 180.986033,37.3578191 181.120403,37.239042 C181.254313,37.1198064 181.321727,36.883628 181.321727,36.5295898 L181.321727,31.9624051 C181.321727,31.645972 181.267154,31.4267618 181.158008,31.3043159 C181.04932,31.1818701 180.828275,31.1002395 180.494415,31.0594242 L180.494415,30.6875006 L183.438161,30.6875006 L183.438161,31.8032713 C183.685804,31.4285962 184.000861,31.119042 184.382874,30.8736917 C184.765345,30.6283414 185.187715,30.5054369 185.653651,30.5054369 C186.320912,30.5054369 186.838211,30.6774115 187.20509,31.0213605 C187.571969,31.3653096 187.75495,31.9697427 187.75495,32.8346599 L187.75495,36.5905834 C187.75495,36.9391185 187.814568,37.1642904 187.933345,37.2656408 C188.052122,37.3665325 188.250696,37.4353223 188.529524,37.4701758 L188.529524,37.842558 L184.879995,37.842558 L184.879995,37.4701758 C185.157906,37.4146854 185.347307,37.3390166 185.448657,37.2427108 C185.549549,37.1468637 185.600454,36.9290293 185.600454,36.5905834 L185.600454,32.8273223 C185.600454,32.4732841 185.565141,32.2077554 185.494059,32.0307363 C185.372989,31.7120102 185.132224,31.5524178 184.7736,31.5524178 C184.50532,31.5524178 184.258594,31.6500994 184.03388,31.8445452 C183.808708,32.0394497 183.635358,32.2352713 183.513829,32.4329274 L183.513829,36.5905834 C183.513829,36.9290293 183.564275,37.1468637 183.665625,37.2427108 C183.766976,37.3390166 183.956836,37.4146854 184.234746,37.4701758 L184.234746,37.842558 L180.494415,37.842558 L180.494415,37.4701758 Z" id="Fill-27" fill="#85674C"></path><path d="M193.697931,36.7343541 C193.964377,36.436265 194.097371,36.2262268 194.097371,36.1046981 L194.097371,32.3263032 C194.097371,32.2001885 193.98318,32.0130803 193.754797,31.7649783 C193.526874,31.517335 193.225116,31.3935134 192.849065,31.3935134 C192.296454,31.3935134 191.92132,31.7755261 191.723205,32.539093 C191.61681,32.9486217 191.563613,33.5278318 191.563613,34.276265 C191.563613,35.0756025 191.614059,35.6772841 191.715868,36.0822268 C191.903434,36.8155261 192.263434,37.1819465 192.796326,37.1819465 C193.131103,37.1819465 193.431485,37.0329019 193.697931,36.7343541 M190.156173,31.5714497 C190.740428,30.8610803 191.442084,30.5056662 192.2616,30.5056662 C192.671129,30.5056662 193.035715,30.6070166 193.353982,30.8092586 C193.55118,30.9303287 193.799282,31.1481631 194.097371,31.461386 L194.097371,28.6162395 C194.097371,28.223679 194.021702,27.9801631 193.869906,27.8856917 C193.71811,27.791679 193.404428,27.7343541 192.928861,27.7137172 L192.928861,27.3417936 L196.274797,27.3417936 L196.274797,36.2867618 C196.274797,36.6077809 196.335791,36.8297427 196.45732,36.9526471 C196.57839,37.075093 196.816403,37.1521376 197.169982,37.1819465 L197.169982,37.5387363 C196.300479,37.6244943 195.738696,37.6891567 195.485549,37.732265 C195.232861,37.7753732 194.78802,37.8849783 194.150568,38.0624561 L194.150568,37.0379465 C193.857524,37.3410803 193.589243,37.5662522 193.346186,37.7130038 C192.962339,37.945972 192.546848,38.0624561 192.102466,38.0624561 C191.343485,38.0624561 190.683562,37.7405197 190.121778,37.0984815 C189.560912,36.4564433 189.279791,35.5837299 189.279791,34.4812586 C189.279791,33.252214 189.571918,32.2822777 190.156173,31.5714497" id="Fill-29" fill="#85674C"></path><path d="M200.705457,30.6876841 L200.705457,35.9606522 C200.705457,36.2743338 200.743521,36.5045503 200.81919,36.6508433 C200.950808,36.9090344 201.211292,37.0379006 201.600642,37.0379006 C201.848285,37.0379006 202.090884,36.9594803 202.328897,36.8021809 C202.465559,36.7168815 202.637534,36.5728815 202.84482,36.3701809 L202.84482,31.9621299 C202.84482,31.6356076 202.779699,31.4076841 202.651292,31.277442 C202.522425,31.1476586 202.262859,31.0747414 201.873967,31.0596076 L201.873967,30.6876841 L204.969508,30.6876841 L204.969508,36.2867159 C204.969508,36.607735 205.030043,36.8296968 205.151113,36.9526013 C205.272642,37.0750471 205.510655,37.1520917 205.864693,37.1819006 L205.864693,37.5386904 C204.90347,37.629493 204.29812,37.696907 204.047266,37.7395567 C203.796871,37.782665 203.396056,37.8904357 202.84482,38.0624102 L202.84482,37.0379006 C202.475648,37.3566268 202.169763,37.5817987 201.927164,37.712958 C201.502043,37.9459261 201.059037,38.0624102 200.599521,38.0624102 C200.098731,38.0624102 199.631878,37.9028178 199.199419,37.5840917 C198.766961,37.2653656 198.550961,36.6989962 198.550961,35.8849834 L198.550961,31.9621299 C198.550961,31.6305631 198.497763,31.4136459 198.391368,31.3113783 C198.285432,31.2091108 198.080438,31.1251873 197.776846,31.0596076 L197.776846,30.6876841 L200.705457,30.6876841 Z" id="Fill-31" fill="#85674C"></path><path d="M206.56291,35.4902217 L206.995368,35.4902217 C207.146706,36.2336102 207.430578,36.7587057 207.845152,37.0645911 C208.259725,37.370935 208.684387,37.5236484 209.119597,37.5236484 C209.519037,37.5236484 209.81254,37.4333045 209.999648,37.254451 C210.186757,37.0746803 210.280311,36.8380433 210.280311,36.5449987 C210.280311,36.2666293 210.179419,36.0286166 209.976718,35.8314191 C209.865738,35.7254828 209.686425,35.6117503 209.438782,35.4902217 L208.284948,34.9288968 C207.678222,34.630349 207.243011,34.3065783 206.980234,33.9575847 C206.711954,33.6085911 206.578043,33.1967694 206.578043,32.7207439 C206.578043,32.1190624 206.787623,31.5994701 207.207699,31.1619669 C207.627317,30.7244637 208.214324,30.5057121 208.967801,30.5057121 C209.296617,30.5057121 209.64561,30.5602854 210.014782,30.6685146 C210.383954,30.7776611 210.614171,30.8317758 210.704973,30.8317758 C210.832005,30.8317758 210.921432,30.8051771 210.974629,30.7519796 C211.027368,30.6992408 211.071852,30.6244892 211.107164,30.5281834 L211.44882,30.5281834 L211.44882,32.7739414 L211.054425,32.7739414 C210.907674,32.2479287 210.667368,31.8255592 210.333508,31.5068331 C209.999648,31.1885656 209.610757,31.0289732 209.165457,31.0289732 C208.82105,31.0289732 208.564234,31.125279 208.395011,31.3174318 C208.225789,31.5095847 208.140948,31.7168713 208.140948,31.9392917 C208.140948,32.121814 208.216617,32.3038777 208.368871,32.4859414 C208.515164,32.6730497 208.793075,32.8652025 209.203062,33.0624 L210.052846,33.4719287 C210.578859,33.7250752 210.963164,33.9704255 211.206222,34.2079796 C211.610706,34.6124637 211.812948,35.1109605 211.812948,35.7025529 C211.812948,36.2790115 211.604285,36.8169478 211.186961,37.314986 C210.769636,37.8130242 210.144107,38.0620433 209.308999,38.0620433 C209.101712,38.0620433 208.89305,38.0414064 208.68347,37.9978395 C208.473432,37.9547312 208.214324,37.8799796 207.905687,37.7735847 L207.640158,37.6823236 C207.544311,37.6474701 207.484693,37.6268331 207.461763,37.6217885 C207.439292,37.6172025 207.409941,37.614451 207.375088,37.614451 C207.288413,37.614451 207.21412,37.6483873 207.150833,37.7167185 C207.087546,37.7855083 207.015546,37.900158 206.934833,38.0620433 L206.56291,38.0620433 L206.56291,35.4902217 Z" id="Fill-33" fill="#85674C"></path><path d="M212.465121,31.3704459 L212.465121,30.9379873 C212.601783,30.8118726 212.771006,30.6623694 212.973248,30.4903949 C213.241529,30.2427516 213.494217,29.9873121 213.732229,29.7240764 C214.202293,29.2081529 214.630166,28.6546242 215.014471,28.0625732 L215.408866,28.0625732 L215.408866,30.6875924 L216.888306,30.6875924 L216.888306,31.3704459 L215.408866,31.3704459 L215.408866,36.0440255 C215.408866,36.2618599 215.441427,36.4439236 215.507465,36.5906752 C215.608357,36.8181401 215.775745,36.9318726 216.008255,36.9318726 C216.210497,36.9318726 216.37972,36.859414 216.516382,36.715414 C216.653045,36.571414 216.789707,36.3728408 216.926828,36.1196943 L217.297834,36.301758 C217.116229,36.726879 216.898854,37.0735796 216.646166,37.3414013 C216.200866,37.811465 215.658344,38.0471847 215.016306,38.0471847 C214.652637,38.0471847 214.334369,37.9788535 214.061503,37.8417325 C213.535949,37.579414 213.272255,37.1010955 213.269503,36.4076943 L213.269503,31.3704459 L212.465121,31.3704459 Z" id="Fill-35" fill="#85674C"></path><path d="M217.670033,37.4701758 C217.968122,37.4353223 218.175868,37.3642395 218.291434,37.2578446 C218.408377,37.1519083 218.471664,36.9469146 218.481753,36.6433223 L218.496887,36.1883924 L218.496887,31.9624051 C218.496887,31.6358828 218.441396,31.413921 218.329957,31.2965197 C218.218517,31.1791185 217.998848,31.1002395 217.670033,31.0594242 L217.670033,30.6875006 L220.613778,30.6875006 L220.613778,31.9092076 C220.943052,31.4795006 221.270033,31.1378446 221.594721,30.8851567 C221.91895,30.6320102 222.294084,30.5054369 222.720122,30.5054369 C223.039307,30.5054369 223.326848,30.6081631 223.583205,30.8126981 C223.839103,31.0176917 223.966594,31.3171567 223.966594,31.7120102 C223.966594,32.0151439 223.876708,32.2655389 223.697396,32.4631949 C223.517167,32.6603924 223.282364,32.7589911 222.992989,32.7589911 C222.664173,32.7589911 222.378925,32.6049019 222.138161,32.296265 C221.897396,31.987628 221.72909,31.8330803 221.632785,31.8330803 C221.424581,31.8330803 221.214543,31.9610293 221.004504,32.2164688 C220.794466,32.4719083 220.689447,32.8378701 220.689447,33.3143541 L220.689447,36.2567236 C220.689447,36.7689783 220.764199,37.0895389 220.913243,37.2174879 C221.061829,37.3458955 221.359918,37.4298191 221.804759,37.4701758 L221.804759,37.842558 L217.670033,37.842558 L217.670033,37.4701758 Z" id="Fill-37" fill="#85674C"></path><path d="M225.57146,27.4596076 C225.80718,27.2243465 226.091511,27.1064866 226.424912,27.1064866 C226.753727,27.1064866 227.035766,27.2243465 227.271027,27.4596076 C227.506288,27.6948688 227.624148,27.9792 227.624148,28.3130599 C227.624148,28.6469197 227.506288,28.931251 227.271027,29.1665121 C227.035766,29.4017732 226.753727,29.5191745 226.424912,29.5191745 C226.091511,29.5191745 225.80718,29.4017732 225.57146,29.1665121 C225.336199,28.931251 225.218797,28.6469197 225.218797,28.3130599 C225.218797,27.9792 225.336199,27.6948688 225.57146,27.4596076 Z M224.535944,37.4703592 C224.809269,37.424958 224.996377,37.3566268 225.097727,37.2653656 C225.249065,37.1287032 225.325192,36.8833529 225.325192,36.5297732 L225.325192,31.9621299 C225.325192,31.6461554 225.271995,31.430614 225.1656,31.3159643 C225.059664,31.2008561 224.849625,31.1155567 224.535944,31.0596076 L224.535944,30.6876841 L227.517753,30.6876841 L227.517753,36.5907669 C227.517753,36.9292127 227.568199,37.1475057 227.669549,37.2428943 C227.770441,37.3387414 227.960301,37.4148688 228.238211,37.4703592 L228.238211,37.8418242 L224.535944,37.8418242 L224.535944,37.4703592 Z" id="Fill-39" fill="#85674C"></path><path d="M233.200158,33.4569783 C233.190069,32.5416153 233.118986,31.9014115 232.98691,31.5372841 C232.854833,31.1731567 232.591139,30.991093 232.195368,30.991093 C231.78905,30.991093 231.51068,31.2011312 231.361177,31.620749 C231.211215,32.0408255 231.126833,32.6525962 231.106196,33.4569783 L233.200158,33.4569783 Z M229.89733,31.4955516 C230.532948,30.835628 231.298808,30.5054369 232.195368,30.5054369 C232.706706,30.5054369 233.187776,30.6398064 233.638578,30.907628 C234.088922,31.1759083 234.435623,31.5473732 234.679139,32.0229401 C234.861203,32.3820229 234.987776,32.8475006 235.058859,33.4189146 C235.094171,33.6871949 235.112056,33.8921885 235.112056,34.0334369 L231.14426,34.0334369 C231.179572,34.6557554 231.280922,35.1941503 231.448311,35.6495389 C231.752362,36.5048255 232.287088,36.9317809 233.052489,36.9317809 C233.417534,36.9317809 233.761941,36.8180484 234.086629,36.5905834 C234.283827,36.4534624 234.529636,36.2237045 234.823597,35.8999338 L235.180387,36.1200611 C234.699317,36.908851 234.142578,37.4577936 233.509254,37.765972 C233.098808,37.963628 232.628285,38.0622268 232.096311,38.0622268 C231.331827,38.0622268 230.615037,37.761386 229.9464,37.1592459 C229.278222,36.5575643 228.943903,35.5963414 228.943903,34.2764943 C228.943903,33.0827618 229.261712,32.1559338 229.89733,31.4955516 Z" id="Fill-41" fill="#85674C"></path><path d="M235.893508,35.4902217 L236.325967,35.4902217 C236.476846,36.2336102 236.761177,36.7587057 237.17575,37.0645911 C237.590324,37.370935 238.014986,37.5236484 238.450196,37.5236484 C238.849636,37.5236484 239.143139,37.4333045 239.330247,37.254451 C239.517355,37.0746803 239.61091,36.8380433 239.61091,36.5449987 C239.61091,36.2666293 239.510018,36.0286166 239.307317,35.8314191 C239.196336,35.7254828 239.017024,35.6117503 238.768922,35.4902217 L237.615546,34.9288968 C237.00882,34.630349 236.57361,34.3065783 236.310833,33.9575847 C236.042553,33.6085911 235.908642,33.1967694 235.908642,32.7207439 C235.908642,32.1190624 236.118222,31.5994701 236.538298,31.1619669 C236.957916,30.7244637 237.544922,30.5057121 238.2984,30.5057121 C238.627215,30.5057121 238.976209,30.5602854 239.345381,30.6685146 C239.714553,30.7776611 239.944769,30.8317758 240.035572,30.8317758 C240.162604,30.8317758 240.252031,30.8051771 240.305228,30.7519796 C240.357967,30.6992408 240.402451,30.6244892 240.437763,30.5281834 L240.779419,30.5281834 L240.779419,32.7739414 L240.385024,32.7739414 C240.238273,32.2479287 239.997967,31.8255592 239.664107,31.5068331 C239.330247,31.1885656 238.940897,31.0289732 238.496056,31.0289732 C238.151648,31.0289732 237.894833,31.125279 237.72561,31.3174318 C237.556387,31.5095847 237.471088,31.7168713 237.471088,31.9392917 C237.471088,32.121814 237.547215,32.3038777 237.69947,32.4859414 C237.845763,32.6730497 238.123674,32.8652025 238.533661,33.0624 L239.383445,33.4719287 C239.909457,33.7250752 240.293763,33.9704255 240.53682,34.2079796 C240.941304,34.6124637 241.143546,35.1109605 241.143546,35.7025529 C241.143546,36.2790115 240.934884,36.8169478 240.517559,37.314986 C240.100234,37.8130242 239.474706,38.0620433 238.639597,38.0620433 C238.432311,38.0620433 238.223648,38.0414064 238.014069,37.9978395 C237.804031,37.9547312 237.544922,37.8799796 237.236285,37.7735847 L236.970757,37.6823236 C236.87491,37.6474701 236.815292,37.6268331 236.792362,37.6217885 C236.76989,37.6172025 236.74054,37.614451 236.705687,37.614451 C236.619011,37.614451 236.544718,37.6483873 236.481432,37.7167185 C236.418145,37.7855083 236.346145,37.900158 236.265432,38.0620433 L235.893508,38.0620433 L235.893508,35.4902217 Z" id="Fill-43" fill="#85674C"></path><path d="M245.710823,37.4477962 C246.135485,37.4326624 246.439078,37.377172 246.621141,37.2804076 C246.92932,37.1185223 247.083868,36.8098854 247.083868,36.3540382 L247.083868,28.8288917 C247.083868,28.377172 246.937116,28.073121 246.643613,27.9171975 C246.471638,27.8218089 246.160708,27.7612739 245.710823,27.7365096 L245.710823,27.3416561 L251.142925,27.3416561 L251.142925,27.7365096 C250.510517,27.7566879 250.089524,27.8447389 249.879944,28.0006624 C249.669906,28.156586 249.564887,28.5413503 249.564887,29.1549554 L249.564887,36.4984968 C249.564887,36.8429045 249.654772,37.070828 249.834084,37.1818089 C250.013855,37.2932484 250.363766,37.3491975 250.884734,37.3491975 C251.820734,37.3491975 252.605855,37.1432866 253.240555,36.7310064 C253.875715,36.3187261 254.422823,35.5157197 254.883256,34.3219873 L255.338186,34.3219873 L254.70853,37.8417325 L245.710823,37.8417325 L245.710823,37.4477962 Z" id="Fill-45" fill="#85674C"></path><path d="M257.079531,27.4596076 C257.315251,27.2243465 257.599582,27.1064866 257.932983,27.1064866 C258.261799,27.1064866 258.543837,27.2243465 258.779098,27.4596076 C259.014359,27.6948688 259.132219,27.9792 259.132219,28.3130599 C259.132219,28.6469197 259.014359,28.931251 258.779098,29.1665121 C258.543837,29.4017732 258.261799,29.5191745 257.932983,29.5191745 C257.599582,29.5191745 257.315251,29.4017732 257.079531,29.1665121 C256.84427,28.931251 256.726869,28.6469197 256.726869,28.3130599 C256.726869,27.9792 256.84427,27.6948688 257.079531,27.4596076 Z M256.044015,37.4703592 C256.31734,37.424958 256.504448,37.3566268 256.605799,37.2653656 C256.757136,37.1287032 256.833264,36.8833529 256.833264,36.5297732 L256.833264,31.9621299 C256.833264,31.6461554 256.780066,31.430614 256.673671,31.3159643 C256.567735,31.2008561 256.357697,31.1155567 256.044015,31.0596076 L256.044015,30.6876841 L259.025824,30.6876841 L259.025824,36.5907669 C259.025824,36.9292127 259.07627,37.1475057 259.17762,37.2428943 C259.278512,37.3387414 259.468372,37.4148688 259.746283,37.4703592 L259.746283,37.8418242 L256.044015,37.8418242 L256.044015,37.4703592 Z" id="Fill-47" fill="#85674C"></path><path d="M260.360897,37.4701758 C260.643852,37.4353223 260.838757,37.3743287 260.944693,37.2885707 C261.116668,37.1519083 261.202884,36.8987618 261.202884,36.5295898 L261.202884,31.9624051 C261.202884,31.6358828 261.144642,31.413921 261.028617,31.2965197 C260.912132,31.1791185 260.689712,31.1002395 260.360897,31.0594242 L260.360897,30.6875006 L263.304642,30.6875006 L263.304642,31.8032713 C263.562375,31.4643669 263.812769,31.2011312 264.055827,31.0140229 C264.505712,30.6751185 265.006502,30.5054369 265.557738,30.5054369 C266.179597,30.5054369 266.662961,30.6521885 267.00691,30.9456917 C267.199062,31.1126217 267.381585,31.3854879 267.553559,31.7652076 L267.659496,31.7652076 C267.952999,31.4061248 268.233661,31.1355516 268.501483,30.9534879 C268.926604,30.6549401 269.389789,30.5054369 269.889661,30.5054369 C270.436311,30.5054369 270.918298,30.6801631 271.335623,31.0291567 C271.752489,31.3781503 271.961152,31.929386 271.961152,32.6833223 L271.961152,36.5905834 C271.961152,36.9496662 272.019394,37.1780484 272.135878,37.2766471 C272.252362,37.3752459 272.456897,37.4399083 272.7504,37.4701758 L272.7504,37.842558 L269.063266,37.842558 L269.063266,37.4701758 C269.346222,37.4298191 269.543419,37.3605707 269.654859,37.2615134 C269.766298,37.1629146 269.821789,36.9391185 269.821789,36.5905834 L269.821789,32.8273223 C269.821789,32.4228382 269.762171,32.1091567 269.643394,31.8862777 C269.524158,31.6638573 269.298069,31.5524178 268.964668,31.5524178 C268.696387,31.5524178 268.415266,31.6753223 268.118553,31.9206726 C267.822757,32.1660229 267.674629,32.3366217 267.674629,32.4329274 L267.674629,36.5905834 C267.674629,36.9290293 267.725534,37.1468637 267.826425,37.2427108 C267.927317,37.3390166 268.117177,37.4146854 268.395546,37.4701758 L268.395546,37.842558 L264.76161,37.842558 L264.76161,37.4701758 C265.034018,37.4353223 265.228922,37.3679083 265.345406,37.2697682 C265.46189,37.1711694 265.520132,36.9446217 265.520132,36.5905834 L265.520132,32.8273223 C265.520132,32.4329274 265.464183,32.1215389 265.353203,31.8940739 C265.241763,31.6666089 265.012005,31.5524178 264.662553,31.5524178 C264.344285,31.5524178 264.048031,31.6826599 263.774706,31.9431439 C263.501839,32.2040866 263.365636,32.3668892 263.365636,32.4329274 L263.365636,36.5905834 C263.365636,36.9290293 263.41333,37.1468637 263.509177,37.2427108 C263.605483,37.3390166 263.794884,37.4146854 264.078298,37.4701758 L264.078298,37.842558 L260.360897,37.842558 L260.360897,37.4701758 Z" id="Fill-49" fill="#85674C"></path><path d="M274.339674,27.4596076 C274.575394,27.2243465 274.859725,27.1064866 275.193126,27.1064866 C275.521941,27.1064866 275.80398,27.2243465 276.039241,27.4596076 C276.274502,27.6948688 276.392362,27.9792 276.392362,28.3130599 C276.392362,28.6469197 276.274502,28.931251 276.039241,29.1665121 C275.80398,29.4017732 275.521941,29.5191745 275.193126,29.5191745 C274.859725,29.5191745 274.575394,29.4017732 274.339674,29.1665121 C274.104413,28.931251 273.987011,28.6469197 273.987011,28.3130599 C273.987011,27.9792 274.104413,27.6948688 274.339674,27.4596076 Z M273.304158,37.4703592 C273.577483,37.424958 273.764591,37.3566268 273.865941,37.2653656 C274.017279,37.1287032 274.093406,36.8833529 274.093406,36.5297732 L274.093406,31.9621299 C274.093406,31.6461554 274.040209,31.430614 273.933814,31.3159643 C273.827878,31.2008561 273.617839,31.1155567 273.304158,31.0596076 L273.304158,30.6876841 L276.285967,30.6876841 L276.285967,36.5907669 C276.285967,36.9292127 276.336413,37.1475057 276.437763,37.2428943 C276.538655,37.3387414 276.728515,37.4148688 277.006425,37.4703592 L277.006425,37.8418242 L273.304158,37.8418242 L273.304158,37.4703592 Z" id="Fill-51" fill="#85674C"></path><path d="M277.621085,31.3704459 L277.621085,30.9379873 C277.757748,30.8118726 277.926971,30.6623694 278.129213,30.4903949 C278.397493,30.2427516 278.650181,29.9873121 278.888194,29.7240764 C279.358257,29.2081529 279.78613,28.6546242 280.170436,28.0625732 L280.564831,28.0625732 L280.564831,30.6875924 L282.04427,30.6875924 L282.04427,31.3704459 L280.564831,31.3704459 L280.564831,36.0440255 C280.564831,36.2618599 280.597391,36.4439236 280.663429,36.5906752 C280.764321,36.8181401 280.93171,36.9318726 281.164219,36.9318726 C281.366461,36.9318726 281.535684,36.859414 281.672346,36.715414 C281.809009,36.571414 281.945671,36.3728408 282.082792,36.1196943 L282.453799,36.301758 C282.272194,36.726879 282.054818,37.0735796 281.80213,37.3414013 C281.356831,37.811465 280.814308,38.0471847 280.17227,38.0471847 C279.808601,38.0471847 279.490334,37.9788535 279.217468,37.8417325 C278.691913,37.579414 278.428219,37.1010955 278.425468,36.4076943 L278.425468,31.3704459 L277.621085,31.3704459 Z" id="Fill-53" fill="#85674C"></path><path d="M287.142833,33.4569783 C287.132744,32.5416153 287.061661,31.9014115 286.929585,31.5372841 C286.797508,31.1731567 286.533814,30.991093 286.138043,30.991093 C285.731725,30.991093 285.453355,31.2011312 285.303852,31.620749 C285.15389,32.0408255 285.069508,32.6525962 285.048871,33.4569783 L287.142833,33.4569783 Z M283.840005,31.4955516 C284.475623,30.835628 285.241483,30.5054369 286.138043,30.5054369 C286.649381,30.5054369 287.130451,30.6398064 287.581254,30.907628 C288.031597,31.1759083 288.378298,31.5473732 288.621814,32.0229401 C288.803878,32.3820229 288.930451,32.8475006 289.001534,33.4189146 C289.036846,33.6871949 289.054731,33.8921885 289.054731,34.0334369 L285.086935,34.0334369 C285.122247,34.6557554 285.223597,35.1941503 285.390986,35.6495389 C285.695037,36.5048255 286.229763,36.9317809 286.995164,36.9317809 C287.360209,36.9317809 287.704617,36.8180484 288.029304,36.5905834 C288.226502,36.4534624 288.472311,36.2237045 288.766273,35.8999338 L289.123062,36.1200611 C288.641992,36.908851 288.085254,37.4577936 287.451929,37.765972 C287.041483,37.963628 286.570961,38.0622268 286.038986,38.0622268 C285.274502,38.0622268 284.557712,37.761386 283.889075,37.1592459 C283.220897,36.5575643 282.886578,35.5963414 282.886578,34.2764943 C282.886578,33.0827618 283.204387,32.1559338 283.840005,31.4955516 Z" id="Fill-55" fill="#85674C"></path><path d="M294.254232,36.7343541 C294.520678,36.436265 294.653671,36.2262268 294.653671,36.1046981 L294.653671,32.3263032 C294.653671,32.2001885 294.53948,32.0130803 294.311098,31.7649783 C294.083175,31.517335 293.781417,31.3935134 293.405366,31.3935134 C292.852754,31.3935134 292.47762,31.7755261 292.279506,32.539093 C292.173111,32.9486217 292.119913,33.5278318 292.119913,34.276265 C292.119913,35.0756025 292.170359,35.6772841 292.272168,36.0822268 C292.459735,36.8155261 292.819735,37.1819465 293.352627,37.1819465 C293.687404,37.1819465 293.987786,37.0329019 294.254232,36.7343541 M290.712474,31.5714497 C291.296729,30.8610803 291.998385,30.5056662 292.817901,30.5056662 C293.227429,30.5056662 293.592015,30.6070166 293.910283,30.8092586 C294.10748,30.9303287 294.355582,31.1481631 294.653671,31.461386 L294.653671,28.6162395 C294.653671,28.223679 294.578003,27.9801631 294.426206,27.8856917 C294.27441,27.791679 293.960729,27.7343541 293.485162,27.7137172 L293.485162,27.3417936 L296.831098,27.3417936 L296.831098,36.2867618 C296.831098,36.6077809 296.892092,36.8297427 297.01362,36.9526471 C297.13469,37.075093 297.372703,37.1521376 297.726283,37.1819465 L297.726283,37.5387363 C296.85678,37.6244943 296.294996,37.6891567 296.04185,37.732265 C295.789162,37.7753732 295.344321,37.8849783 294.706869,38.0624561 L294.706869,37.0379465 C294.413824,37.3410803 294.145544,37.5662522 293.902487,37.7130038 C293.518639,37.945972 293.103149,38.0624561 292.658767,38.0624561 C291.899786,38.0624561 291.239862,37.7405197 290.678079,37.0984815 C290.117213,36.4564433 289.836092,35.5837299 289.836092,34.4812586 C289.836092,33.252214 290.128219,32.2822777 290.712474,31.5714497" id="Fill-57" fill="#85674C"></path><path d="M30.2560968,69.4645911 C30.2560968,69.4645911 35.8491669,70.7431643 39.0460586,69.4645911 C39.0460586,69.4645911 41.122135,69.6241834 42.7208102,71.3829096 C42.7208102,71.3829096 49.1127592,71.7020943 51.9886318,71.3829096 C51.9886318,71.3829096 53.5868484,68.1493299 55.9839439,71.5232408 C55.9839439,71.5232408 57.7412943,72.8206166 58.5397146,69.4645911 C58.5397146,69.4645911 63.6540076,68.5061197 66.0506446,68.5061197 C66.0506446,68.5061197 70.525651,67.0670369 67.8089121,63.0721834 C67.8089121,63.0721834 65.7305427,63.0721834 65.0912561,58.7576866 C65.0912561,58.7576866 63.6540076,56.8393682 63.1752306,54.1240051 L63.1752306,40.0619924 C63.1752306,40.0619924 60.6176255,38.4624 60.778135,36.8655592 C60.778135,36.8655592 59.9783389,35.2678013 62.2163006,33.0307567 L63.0151796,31.7521834 L63.1752306,26.9579924 L54.7053707,19.1278777 L54.386186,16.0919541 L32.4940586,0.272132484 L9.00325605,0.272132484 L10.7615236,2.50963567 L10.9605554,8.02245096 C10.9605554,8.02245096 7.60498854,7.90275669 7.7242242,9.70046369 L7.72193121,11.4986293 L10.0011669,11.8577121 C10.0011669,11.8577121 11.7997911,12.9367949 9.76223694,14.614349 L2.93095032,21.0856357 L0.294466242,21.2057885 C0.294466242,21.2057885 -0.185228025,26.1196739 0.294466242,27.3179924 C0.294466242,27.3179924 2.98460637,29.2363108 0.0816764331,30.1943236 L0.0816764331,34.5083618 L7.96498854,43.8564382 L7.7242242,47.332158 C7.7242242,47.332158 18.5104662,53.5645146 20.4283261,55.1237503 C20.4283261,55.1237503 27.8590013,55.9616102 29.5374726,59.9170242 L30.2560968,69.4645911 Z" id="Fill-59" fill="#85674C"></path><path d="M34.4043057,52.0499465 L34.0837452,51.5775898 C32.5561529,49.3277045 30.8015541,48.187628 28.8699363,48.187628 C25.540051,48.187628 22.7215032,51.5697936 22.6930701,51.6037299 L22.4463439,51.9036535 L15.1495796,44.9664306 L15.5568153,44.7219975 C18.9889682,42.661972 20.8591338,40.195628 21.115949,37.3903796 C21.5979363,32.1187873 16.2149045,27.3044178 16.1603312,27.256265 L15.9447898,27.0664051 L19.9135032,19.7123159 L20.1524331,19.7357045 C20.711465,19.7902777 21.2484841,19.817335 21.7492739,19.817335 L21.7501911,19.817335 C24.2064459,19.817335 25.9578344,19.1652076 26.9543694,17.8797554 C28.4429809,15.9591439 27.7587516,13.2135134 27.7518726,13.1859975 L27.6353885,12.7347363 L28.1013248,12.7338191 L40.1964076,12.7338191 L40.1643057,13.1245452 C39.9694013,15.4863287 40.4289172,17.2899975 41.5290955,18.4841885 C43.8395159,20.9918064 48.2416051,20.0736917 48.2604076,20.0695643 L48.501172,20.0186599 L53.6264713,27.8221758 L53.3783694,28.0285452 C50.7006115,30.255042 49.3353631,32.7342268 49.3193121,35.3973096 C49.2917962,40.3162395 53.8819108,44.2799083 53.9282293,44.3188892 L54.2143949,44.5619465 L47.4743694,51.8926471 L47.2079236,51.6335389 C44.8264204,49.3148637 42.527465,48.1390166 40.3752611,48.1390166 C36.7495796,48.1390166 34.7134013,51.5243924 34.6941401,51.5578701 L34.4043057,52.0499465 Z" id="Fill-61" fill="#FFFFFE"></path><polygon id="Fill-63" fill="#85674C" points="23.6492025 28.1716739 25.3038268 28.1716739 29.0542471 35.5546548 29.1276229 35.5546548 32.8042089 28.1716739 34.4294828 28.1716739 34.4294828 37.7976611 32.8042089 37.7976611 32.8042089 29.9070115 32.7533045 29.9070115 28.8043108 37.7976611 28.4732025 37.7976611 24.4728459 29.9661707 24.3623236 29.9661707 24.3623236 37.7976611 23.6492025 37.7976611"></polygon><polygon id="Fill-65" fill="#85674C" points="36.8417121 28.1716739 38.4596484 28.1716739 38.4596484 37.1721325 43.3056611 37.1721325 43.3056611 37.7976611 36.8417121 37.7976611"></polygon><polygon id="Fill-67" fill="#85674C" points="44.651465 37.797707 46.2694013 37.797707 46.2694013 28.1717197 44.651465 28.1717197"></polygon></g></g></svg> 