<?xml version="1.0" encoding="UTF-8"?> <svg xmlns="http://www.w3.org/2000/svg" xmlns:xlink="http://www.w3.org/1999/xlink" width="135px" height="72px" viewBox="0 0 135 72"><!-- Generator: Sketch 50.2 (55047) - http://www.bohemiancoding.com/sketch --><title>KAMYN logotype</title><desc>Created with Sketch.</desc><defs></defs><g id="KAMYN-logotype" stroke="none" stroke-width="1" fill="none" fill-rule="evenodd"><g id="Group" fill="#752224"><path d="M6.11325714,32.0704571 L27.8332571,37.8201714 L38.5064,23.0424571 L57.3172571,34.0681714 L69.5012571,20.1150286 L84.7658286,34.6630286 L100.289829,23.0213143 L112.204114,36.5813143 L130.5664,30.0230286 C131.534971,24.2213143 128.996686,21.4453143 128.969829,21.4161714 L128.924686,21.3630286 C127.949257,20.0498857 125.305829,20.5367429 125.293829,20.5396 L124.979543,20.5996 L124.749257,20.3750286 C123.3064,18.9533143 120.964686,18.2321714 117.789829,18.2321714 C113.8464,18.2321714 110.053257,19.3738857 110.014971,19.3853143 L109.497829,19.5430286 L109.277829,19.0487429 C107.501257,15.0538857 103.868114,13.0281714 98.4761143,13.0281714 C93.3624,13.0281714 88.5206857,14.9047429 88.4738286,14.9236 L87.8629714,15.1636 L87.6664,14.5373143 C86.8704,11.9933143 83.5738286,11.4596 80.9464,11.4596 C79.3498286,11.4596 78.0286857,11.6630286 77.7504,11.7093143 C73.7898286,13.2253143 67.8166857,14.7498857 67.7566857,14.7653143 L67.3378286,14.8716 L67.0984,14.5116 C65.8001143,12.5653143 61.5321143,10.9938857 61.4886857,10.9778857 C60.1115429,10.4807429 58.8046857,10.2287429 57.6035429,10.2287429 C53.6744,10.2287429 52.0555429,12.9258857 52.0401143,12.9527429 L51.9692571,13.0727429 L51.8561143,13.1498857 C50.1132571,14.3378857 48.4744,14.9396 46.9841143,14.9396 C45.5252571,14.9396 44.6824,14.3630286 44.4424,14.1698857 C42.3418286,13.0133143 40.2498286,12.4264571 38.2212571,12.4264571 C31.5349714,12.4264571 27.4178286,18.8138857 27.3778286,18.8790286 L27.1978286,19.1636 L11.4155429,19.1647429 C8.54868571,19.5361714 7.46182857,21.2436 7.41782857,21.3156 L7.34697143,21.4293143 L7.2344,21.5064571 C5.73668571,22.5047429 5.7464,28.3407429 6.11325714,32.0704571 Z M28.3326857,39.2167429 L4.98811429,33.0378857 L4.94182857,32.6207429 C4.75382857,30.9264571 3.9584,22.4778857 6.44811429,20.5664571 C6.7824,20.0904571 8.20525714,18.3333143 11.3018286,17.9470286 L11.3772571,17.9418857 L26.5344,17.9418857 C27.4601143,16.6076 31.6189714,11.2041714 38.2212571,11.2041714 C40.4755429,11.2041714 42.7858286,11.8510286 45.0864,13.1293143 L45.1995429,13.2116 C45.2184,13.2270286 45.8024,13.7178857 46.9841143,13.7178857 C48.1966857,13.7178857 49.5686857,13.2110286 51.0646857,12.2098857 C51.4755429,11.5910286 53.4441143,9.00588571 57.6035429,9.00588571 C58.9464,9.00588571 60.3944,9.28302857 61.9058286,9.82931429 C62.0875429,9.89502857 66.1332571,11.3836 67.8504,13.4784571 C69.2475429,13.1116 74.0566857,11.8201714 77.3698286,10.5464571 L77.4801143,10.5150286 C77.5435429,10.5036 79.0412571,10.2373143 80.9464,10.2373143 C84.9526857,10.2373143 87.5789714,11.3876 88.6024,13.5750286 C90.0726857,13.0641714 94.1275429,11.8053143 98.4761143,11.8053143 C104.096114,11.8053143 108.126971,13.9698857 110.169257,18.0716 C111.367543,17.7510286 114.489829,17.0104571 117.789829,17.0104571 C121.1424,17.0104571 123.694971,17.7761714 125.380686,19.2910286 C125.6224,19.2607429 125.981257,19.2264571 126.396114,19.2264571 C127.992114,19.2264571 129.1984,19.7041714 129.885829,20.6076 C130.204686,20.9636 132.903543,24.2024571 131.7064,30.5916 L131.6424,30.9373143 L111.833257,38.0110286 L100.117257,24.6784571 L84.6721143,36.2624571 L69.5818286,21.8807429 L57.5715429,35.6350286 L38.8481143,24.6584571 L28.3326857,39.2167429 Z" id="Fill-1"></path><path d="M104.174686,65.4884 C104.174686,68.1889714 88.7535429,70.3775429 69.7306857,70.3775429 C50.7066857,70.3775429 35.2844,68.1889714 35.2844,65.4884 C35.2844,62.7878286 50.7066857,60.5986857 69.7306857,60.5986857 C88.7535429,60.5986857 104.174686,62.7878286 104.174686,65.4884" id="Fill-3"></path><path d="M78.7728571,10.9738857 C78.7728571,10.9738857 80.2065714,0.421314286 69.7305714,0.421314286 C69.7305714,0.421314286 64.7825714,0.0441714286 61.8802857,2.64131429 C61.8802857,2.64131429 59.1288571,5.23902857 59.5585714,9.61731429 C59.5585714,9.61731429 66.3825714,12.2373143 67.606,14.1727429 L78.7728571,10.9738857 Z" id="Fill-5"></path><path d="M88.5898286,24.9845143 C88.0835429,24.9845143 87.6726857,24.5748 87.6726857,24.0685143 L87.6726857,14.4782286 C87.6726857,13.9719429 88.0835429,13.5610857 88.5898286,13.5610857 C89.0966857,13.5610857 89.5064,13.9719429 89.5064,14.4782286 L89.5064,24.0685143 C89.5064,24.5748 89.0966857,24.9845143 88.5898286,24.9845143" id="Fill-7"></path><path d="M99.5915429,20.1901143 C99.0846857,20.1901143 98.6744,19.7792571 98.6744,19.2735429 L98.6744,13.1952571 C98.6744,12.6884 99.0846857,12.2781143 99.5915429,12.2781143 C100.097829,12.2781143 100.508114,12.6884 100.508114,13.1952571 L100.508114,19.2735429 C100.508114,19.7792571 100.097829,20.1901143 99.5915429,20.1901143" id="Fill-9"></path><path d="M109.981029,27.7716 C109.475886,27.7716 109.065029,27.3613143 109.065029,26.8556 L109.065029,19.0618857 C109.065029,18.5556 109.475886,18.1458857 109.981029,18.1458857 C110.488457,18.1458857 110.898171,18.5556 110.898171,19.0618857 L110.898171,26.8556 C110.898171,27.3613143 110.488457,27.7716 109.981029,27.7716" id="Fill-11"></path><path d="M121.900114,26.804 C121.742971,26.804 121.583543,26.764 121.438971,26.6794286 C121.0024,26.4257143 120.852686,25.8645714 121.107543,25.4262857 L124.3864,19.7834286 C124.641257,19.3462857 125.200686,19.1977143 125.639543,19.452 C126.077257,19.7068571 126.225257,20.268 125.971543,20.7057143 L122.692686,26.348 C122.522971,26.6405714 122.216114,26.804 121.900114,26.804" id="Fill-13"></path><path d="M72.0988,12.8857143 L65.9753714,20.2451429 L65.9753714,12.6062857 C65.9753714,12.6062857 67.5313714,13.6377143 67.6062286,14.1725714 L72.0988,12.8857143 Z" id="Fill-15"></path><path d="M52.5508,25.9956571 C52.3290857,26.0099429 52.1039429,25.9453714 51.9170857,25.7962286 C51.5233714,25.4796571 51.4599429,24.9025143 51.7765143,24.5082286 L59.5336571,14.8345143 C59.8519429,14.4390857 60.4268,14.3768 60.8222286,14.6928 C61.2176571,15.0093714 61.2805143,15.5865143 60.9633714,15.9813714 L53.2073714,25.6550857 C53.0388,25.8642286 52.7988,25.9802286 52.5508,25.9956571" id="Fill-17"></path><path d="M50.4921714,22.2222286 C50.2916,22.2222286 50.0898857,22.1565143 49.9207429,22.0210857 C49.5253143,21.7050857 49.4607429,21.1285143 49.7761714,20.7325143 L56.7276,12.0348 C57.0436,11.6388 57.6213143,11.5742286 58.0167429,11.8908 C58.4127429,12.2068 58.4761714,12.7839429 58.1607429,13.1788 L51.2098857,21.8776571 C51.0281714,22.1033714 50.7624571,22.2222286 50.4921714,22.2222286" id="Fill-19"></path><path d="M48.2181714,17.8729143 C47.9833143,17.8729143 47.7496,17.7832 47.5707429,17.6049143 C47.2124571,17.2466286 47.2124571,16.6660571 47.5707429,16.3077714 L53.6878857,10.1912 C54.0456,9.83234286 54.6250286,9.83234286 54.9838857,10.1912 C55.3410286,10.5489143 55.3410286,11.1300571 54.9838857,11.4877714 L48.8667429,17.6049143 C48.6867429,17.7832 48.4518857,17.8729143 48.2181714,17.8729143" id="Fill-21"></path><path d="M75.4687429,23.7506857 C75.2350286,23.7506857 74.9990286,23.6604 74.8201714,23.4821143 C74.4618857,23.1238286 74.4618857,22.5432571 74.8201714,22.1855429 L81.2224571,15.7821143 C81.5807429,15.4244 82.1613143,15.4244 82.5201714,15.7821143 C82.8784571,16.1404 82.8784571,16.7209714 82.5201714,17.0792571 L76.1178857,23.4821143 C75.9384571,23.6604 75.7030286,23.7506857 75.4687429,23.7506857" id="Fill-23"></path><path d="M73.0156,21.0743429 C72.7801714,21.0743429 72.5470286,20.9846286 72.3676,20.8057714 C72.0093143,20.4474857 72.0093143,19.8669143 72.3676,19.5092 L78.7710286,13.1057714 C79.1276,12.7480571 79.7081714,12.7480571 80.0664571,13.1057714 C80.4253143,13.4640571 80.4253143,14.0446286 80.0664571,14.4029143 L73.6647429,20.8057714 C73.4836,20.9846286 73.2498857,21.0743429 73.0156,21.0743429" id="Fill-25"></path><path d="M78.8387429,26.804 C78.6078857,26.804 78.3764571,26.716 78.1976,26.5417143 C77.8358857,26.1868571 77.8290286,25.6068571 78.1844571,25.2451429 L84.8810286,18.4211429 C85.2336,18.0588571 85.8141714,18.0531429 86.1764571,18.408 C86.5381714,18.7628571 86.5433143,19.3428571 86.1878857,19.704 L79.4936,26.5297143 C79.3147429,26.712 79.0764571,26.804 78.8387429,26.804" id="Fill-27"></path><path d="M25.6702286,22.4758286 C25.4496571,22.4758286 25.2308,22.3975429 25.0548,22.2386857 C24.6799429,21.8986857 24.6513714,21.3186857 24.9908,20.9432571 L31.3833714,13.8935429 C31.7256571,13.5198286 32.3033714,13.4906857 32.6793714,13.8306857 C33.0542286,14.1706857 33.0822286,14.7506857 32.7428,15.1261143 L26.3496571,22.1752571 C26.1685143,22.3746857 25.9199429,22.4758286 25.6702286,22.4758286" id="Fill-29"></path><path d="M11.0446286,30.6198286 C10.8252,30.6198286 10.6040571,30.5409714 10.4280571,30.3821143 C10.0532,30.0415429 10.0257714,29.4615429 10.3652,29.0866857 L16.7589143,22.0375429 C17.0994857,21.6626857 17.6772,21.6341143 18.0537714,21.9746857 C18.4292,22.3141143 18.4577714,22.8935429 18.1172,23.2689714 L11.7234857,30.3186857 C11.5423429,30.5181143 11.2937714,30.6198286 11.0446286,30.6198286" id="Fill-31"></path><path d="M29.0136571,26.6321143 C28.8405143,26.6224 28.6645143,26.5624 28.5148,26.4492571 C28.1096571,26.1446857 28.0273714,25.5704 28.3325143,25.1664 L34.7925143,16.5755429 C35.0959429,16.1704 35.6708,16.0892571 36.0748,16.3938286 C36.4805143,16.6984 36.5622286,17.2726857 36.2576571,17.6772571 L29.7993714,26.2675429 C29.6079429,26.5212571 29.3090857,26.6481143 29.0136571,26.6321143" id="Fill-33"></path><path d="M33.3303429,27.9839429 C33.1400571,27.9913714 32.9457714,27.9393714 32.7766286,27.8239429 C32.3589143,27.5376571 32.2537714,26.9668 32.5389143,26.5490857 L38.8326286,17.3662286 C39.1189143,16.9490857 39.6903429,16.8433714 40.1057714,17.1285143 C40.5240571,17.4153714 40.6303429,17.9856571 40.3434857,18.4033714 L34.0520571,27.5856571 C33.8794857,27.8342286 33.6086286,27.9730857 33.3303429,27.9839429" id="Fill-35"></path><path d="M37.3925714,63.8012 C37.3925714,63.8012 44.7885714,55.0452 50.4937143,54.5234857 L32.2954286,49.9274857 L37.3925714,55.8994857 L37.3925714,63.8012 Z" id="Fill-37"></path><path d="M65.1467429,61.4599429 C65.1467429,61.4599429 72.5433143,52.7039429 78.2501714,52.1822286 L60.0501714,47.5862286 L65.1467429,53.5582286 L65.1467429,61.4599429 Z" id="Fill-39"></path><path d="M95.5558286,61.8765143 C95.5558286,61.8765143 103.742114,53.8536571 109.471257,53.8690857 L91.7832571,47.5862286 L96.2981143,54.0096571 L95.5558286,61.8765143 Z" id="Fill-41"></path><path d="M119.964857,45.5227429 L116.094571,49.9273143 L116.907714,45.5227429 L116.094571,42.5936 L119.964857,42.5936 L119.964857,45.5227429 Z M20.5911429,49.9273143 L16.7191429,45.5227429 L16.7191429,42.5936 L20.5911429,42.5936 L19.7762857,45.5227429 L20.5911429,49.9273143 Z M112.018571,37.2964571 L100.203143,23.8507429 L84.7197143,35.4621714 L69.542,20.9976 L57.4431429,34.8518857 L38.6774286,23.8507429 L28.0825714,38.5181714 L0.375142857,31.1844571 L6.08142857,40.9633143 L6.08142857,45.5227429 L15.0448571,49.9273143 L21.0631429,54.5233143 C27.4882857,49.0347429 44.6671429,47.1416 44.6671429,47.1416 L44.8905714,37.7604571 L57.4431429,37.7604571 L57.4431429,45.8838857 C63.2974286,45.4318857 79.7282857,45.5227429 79.7282857,45.5227429 L79.7282857,37.7604571 L93.4802857,37.7604571 L93.7608571,47.0484571 C102.512286,47.9770286 113.731143,51.9616 113.731143,51.9616 L118.022571,54.5233143 L129.539143,43.8153143 L129.539143,38.5181714 L134.836286,29.1473143 L112.018571,37.2964571 Z" id="Fill-43"></path><path d="M69.5418286,46.7450857 C40.5475429,46.7450857 20.3418286,52.6502286 20.3418286,57.9502286 C20.3418286,63.2502286 40.5475429,69.1548 69.5418286,69.1548 C98.5361143,69.1548 118.741829,63.2502286 118.741829,57.9502286 C118.741829,52.6502286 98.5361143,46.7450857 69.5418286,46.7450857 M69.5418286,71.5999429 C44.5058286,71.5999429 17.8978286,66.8165143 17.8978286,57.9502286 C17.8978286,49.0845143 44.5058286,44.3005143 69.5418286,44.3005143 C94.5789714,44.3005143 121.185829,49.0845143 121.185829,57.9502286 C121.185829,66.8165143 94.5789714,71.5999429 69.5418286,71.5999429" id="Fill-45"></path></g></g></svg> 