<?xml version="1.0" encoding="UTF-8"?> <svg xmlns="http://www.w3.org/2000/svg" xmlns:xlink="http://www.w3.org/1999/xlink" width="151px" height="72px" viewBox="0 0 151 72"><!-- Generator: Sketch 50.2 (55047) - http://www.bohemiancoding.com/sketch --><title>Bujagali Energy Logo</title><desc>Created with Sketch.</desc><defs></defs><g id="Bujagali-Energy-Logo" stroke="none" stroke-width="1" fill="none" fill-rule="evenodd"><g id="Group"><polygon id="Fill-1" fill="#D8232A" points="81.0268364 49.1269418 69.3409091 60.3451964 73.7037818 60.3451964 65.7572727 69.3461782 72.0769091 69.3461782 79.6244727 58.0081418 76.0408364 58.0081418"></polygon><polygon id="Fill-2" fill="#D8232A" points="100.659371 20.3186291 112.344971 9.10037455 107.982425 9.10037455 115.928607 0.0993927273 109.608644 0.0993927273 102.061407 11.4374291 105.645044 11.4374291"></polygon><g id="Group-67" transform="translate(0.000000, 10.564364)" fill="#263979"><path d="M10.3313127,17.8884655 L10.3313127,30.9070473 C11.1439309,31.0376291 12.0000764,31.1027564 12.9004036,31.1027564 C14.8885855,31.1027564 16.39764,30.5261018 17.4285491,29.3721382 C18.4588036,28.2181745 18.9742582,26.5458109 18.9742582,24.3540655 C18.9742582,22.1629745 18.4516036,20.5334836 17.4066218,19.4669018 C16.36164,18.3999927 14.6706218,17.8668655 12.3342218,17.8668655 C11.6518582,17.8668655 10.9845491,17.8743927 10.3313127,17.8884655 Z M10.3313127,15.9290836 C11.0716036,15.9438109 11.77524,15.9510109 12.4432036,15.9510109 C14.3004764,15.9510109 15.6760036,15.5046109 16.5684764,14.6121382 C17.4609491,13.7196655 17.9073491,12.2066836 17.9073491,10.0731927 C17.9073491,8.07028364 17.4465491,6.63322909 16.5249491,5.76268364 C15.6030218,4.89181091 14.2716764,4.45653818 12.5302582,4.45653818 C12.25404,4.45653818 11.9313491,4.46733818 11.5612036,4.48893818 C11.1913855,4.51086545 10.7809855,4.55112 10.3313127,4.60872 L10.3313127,15.9290836 Z M0.295167273,2.47522909 C2.32720364,2.53348364 4.41716727,2.56228364 6.56505818,2.56228364 C7.34887636,2.53348364 8.57516727,2.48995636 10.2442582,2.43170182 C11.9130218,2.37377455 13.0597855,2.34464727 13.6838945,2.34464727 C17.3555673,2.34464727 20.1239673,2.93602909 21.9894218,4.11879273 C23.8538945,5.30221091 24.7866218,7.00337455 24.7866218,9.22392 C24.7866218,12.7070836 22.7257855,15.1164655 18.6041127,16.4517382 C20.9987673,16.7855564 22.8455673,17.6201018 24.1445127,18.9553745 C25.4431309,20.2906473 26.0930945,21.9594109 26.0930945,23.96232 C26.0930945,26.8652291 24.9244036,29.1109745 22.5880036,30.7002109 C20.2509491,32.2894473 16.9418945,33.0840655 12.66084,33.0840655 C11.8187673,33.0840655 10.9370945,33.0621382 10.0158218,33.0186109 C9.09389455,32.9750836 7.94385818,32.9534836 6.56505818,32.9534836 C4.44596727,32.9534836 2.39233091,32.9750836 0.404149091,33.0186109 L0.295167273,31.9301018 L3.21247636,31.1246836 C3.57509455,31.0232291 3.77113091,30.7980655 3.80025818,30.4498473 C3.81465818,29.8695927 3.82545818,29.2199564 3.83298545,28.5012655 C3.84018545,27.7829018 3.84378545,26.9882836 3.84378545,26.1177382 L3.84378545,8.76672 C3.84378545,8.04115636 3.84018545,7.38104727 3.83298545,6.78573818 C3.82545818,6.19075636 3.81465818,5.64650182 3.80025818,5.15297455 C3.78585818,4.77595636 3.61142182,4.53639273 3.27793091,4.43461091 L0.360621818,3.58566545 L0.295167273,2.47522909 Z" id="Fill-3"></path><path d="M42.7891418,31.2117055 C40.6556509,32.7793418 38.3333236,33.56316 35.8224873,33.56316 C33.47136,33.56316 31.7008145,32.9822509 30.5108509,31.8214145 C29.32056,30.6602509 28.7255782,29.0274873 28.7255782,26.9231236 L28.7255782,22.3075964 C28.7255782,19.2021055 28.6961236,16.9164327 28.6385236,15.4502509 L25.5255055,14.6448327 L25.3949236,13.7520327 C28.9504145,13.2153055 32.08536,12.6566509 34.7994327,12.0757418 L35.0389964,12.2501782 C34.9519418,14.0642509 34.9080873,16.3067236 34.9080873,18.9769418 L34.9080873,25.6821055 C34.9080873,27.4094509 35.2458327,28.6612691 35.9206691,29.43756 C36.5955055,30.2141782 37.5495055,30.6023236 38.7833236,30.6023236 C40.1621236,30.6023236 41.4247418,30.3048327 42.5711782,29.7095236 L42.5711782,20.4355964 C42.5711782,18.4038873 42.5420509,16.7275964 42.4841236,15.4067236 L39.5452145,14.6448327 L39.4146327,13.7520327 C42.8542691,13.2153055 45.9240873,12.6566509 48.6234327,12.0757418 L48.8845964,12.2501782 C48.7828145,14.1081055 48.7324145,16.3937782 48.7324145,19.1075236 C48.7324145,24.37596 48.7396145,27.59076 48.7540145,28.7515964 C48.7684145,29.3325055 48.8119418,29.8005055 48.8845964,30.1559236 C48.9572509,30.5116691 49.0950327,30.78396 49.2982691,30.9724691 C49.5015055,31.1609782 49.8025964,31.2954873 50.2018691,31.3750145 C50.6008145,31.4548691 51.1705964,31.5023236 51.9108873,31.5167236 L52.0195418,32.4743236 C49.9295782,33.1998873 48.1299055,33.56316 46.6205236,33.56316 C44.6755418,33.56316 43.3985236,32.7793418 42.7891418,31.2117055" id="Fill-5"></path><path d="M60.3993927,4.86994909 C60.3993927,5.87140364 60.0760473,6.68434909 59.4306655,7.30813091 C58.7846291,7.93224 57.9392836,8.24445818 56.8943018,8.24445818 C55.9363745,8.24445818 55.1489564,7.95056727 54.5323745,7.36278545 C53.9154655,6.77500364 53.6071745,6.00951273 53.6071745,5.06598545 C53.6071745,4.03573091 53.9298655,3.22278545 54.5759018,2.62747636 C55.2216109,2.03282182 56.0741564,1.73500364 57.1338655,1.73500364 C58.0917927,1.73500364 58.8752836,2.00729455 59.4849927,2.55154909 C60.0943745,3.09580364 60.3993927,3.86849455 60.3993927,4.86994909 Z M50.8204473,13.7521309 C54.3909927,13.2154036 57.5180836,12.6564218 60.2033564,12.07584 L60.46452,12.2499491 C60.3774655,14.1370036 60.3339382,16.20504 60.3339382,18.4543855 L60.3339382,30.1016945 C60.3339382,33.0039491 59.5504473,35.4205309 57.9828109,37.3511127 C56.4155018,39.28104 54.1295018,41.4724582 51.1254655,43.9253673 L49.8844473,42.8591127 C51.9161564,40.1303127 53.1352473,38.0910764 53.54172,36.7414036 C53.9478655,35.3917309 54.1514291,33.5194036 54.1514291,31.1247491 L54.1514291,20.5878764 C54.1514291,18.8320582 54.1219745,17.11944 54.0643745,15.4503491 L50.9510291,14.6449309 L50.8204473,13.7521309 Z" id="Fill-7"></path><path d="M75.1145236,23.2657527 C72.8357236,23.2657527 71.21016,23.5560436 70.23816,24.1366255 C69.2655055,24.7172073 68.7795055,25.7114618 68.7795055,27.1190618 C68.7795055,28.3964073 69.1237964,29.30688 69.81336,29.8511345 C70.5025964,30.3953891 71.3188145,30.66768 72.2626691,30.66768 C73.3364509,30.66768 74.2724509,30.3917891 75.0706691,29.8403345 L75.1145236,23.2657527 Z M64.4689964,14.2745891 C67.5600873,12.8669891 70.5353236,12.1630255 73.3947055,12.1630255 C76.0073236,12.1630255 77.9624509,12.7472073 79.2617236,13.9155709 C80.5603418,15.0839345 81.2027782,16.7638255 81.1883782,18.9552436 L81.0797236,28.0115345 C81.0502691,28.7518255 81.0649964,29.3471345 81.1229236,29.7968073 C81.1808509,30.2468073 81.3150327,30.5914255 81.5257964,30.8306618 C81.7359055,31.0702255 82.0484509,31.2410618 82.4617964,31.3425164 C82.8754691,31.4439709 83.4740509,31.5022255 84.2578691,31.5166255 L84.3884509,32.51808 C82.3564145,33.2145164 80.6074691,33.5630618 79.1419418,33.5630618 C77.1678327,33.5630618 75.8692145,32.7867709 75.2451055,31.2335345 C73.4019055,32.7867709 71.4497236,33.5630618 69.3888873,33.5630618 C67.3715782,33.5630618 65.7096873,33.0584073 64.4035418,32.0497527 C63.0973964,31.0414255 62.44416,29.6223709 62.44416,27.7938982 C62.44416,25.5154255 63.5002691,23.8463345 65.6118327,22.7866255 C67.7237236,21.7275709 70.8910691,21.1977164 75.1145236,21.1977164 L75.1361236,19.5646255 C75.1505236,18.0120436 74.7771055,16.8692073 74.0152145,16.1357891 C73.2533236,15.4033527 72.0666327,15.03648 70.4557964,15.03648 C68.9604873,15.03648 67.1683418,15.3630982 65.0783782,16.0163345 L64.4689964,14.2745891 Z" id="Fill-9"></path><path d="M90.6785018,19.4342073 C90.6785018,21.3209345 90.9177382,22.7795891 91.3965382,23.8098436 C91.8756655,24.8407527 92.6886109,25.3555527 93.8350473,25.3555527 C94.9958836,25.3555527 95.7905018,24.87348 96.2189018,23.9076982 C96.6466473,22.9428982 96.8613382,21.5316982 96.8613382,19.6734436 C96.8613382,17.8884982 96.6289745,16.4808982 96.1645745,15.4503164 C95.6998473,14.4200618 94.8725018,13.9046073 93.6828655,13.9046073 C92.5213745,13.9046073 91.7306836,14.3762073 91.3098109,15.3197345 C90.8886109,16.2632618 90.6785018,17.6345345 90.6785018,19.4342073 Z M88.6536655,34.6514073 C87.9572291,35.9431527 87.6086836,37.1403164 87.6086836,38.2432255 C87.6086836,39.3755891 88.1349382,40.2644618 89.18712,40.9104982 C90.2393018,41.55588 91.6724291,41.8792255 93.4868291,41.8792255 C95.66352,41.8792255 97.5502473,41.4547527 99.1470109,40.6058073 C100.743447,39.7565345 101.541665,38.6133709 101.541665,37.1766436 C101.541665,36.3931527 101.215047,35.7690436 100.561811,35.3046436 C99.9089018,34.8399164 98.4718473,34.60788 96.2513018,34.60788 C95.3807564,34.5931527 94.4369018,34.60788 93.4213745,34.6514073 C92.4051927,34.6949345 91.46232,34.7168618 90.59112,34.7168618 C89.9670109,34.7168618 89.3213018,34.6949345 88.6536655,34.6514073 Z M106.418356,13.86108 L101.367556,15.1456255 C102.441338,16.3791164 102.978393,17.7723164 102.978393,19.3252255 C102.978393,21.66228 102.13272,23.52348 100.442356,24.9091527 C98.7513382,26.29548 96.5268655,26.9883164 93.7695927,26.9883164 C92.0569745,26.9883164 90.54792,26.74188 89.2414473,26.2480255 C88.6755927,27.2789345 88.3925018,28.13508 88.3925018,28.8171164 C88.3925018,29.1947891 88.5849382,29.4484255 88.9691564,29.5790073 C89.3537018,29.7095891 90.14832,29.7750436 91.3533382,29.7750436 C92.2242109,29.7750436 93.2907927,29.7639164 94.5534109,29.7423164 C95.8160291,29.7203891 96.9624655,29.7095891 97.9933745,29.7095891 C100.445629,29.7095891 102.332356,30.1635164 103.653556,31.0703891 C104.974102,31.9775891 105.634211,33.3524618 105.634211,35.1956618 C105.634211,37.9097345 104.288138,40.0828255 101.595993,41.7159164 C98.9038473,43.34868 95.8595564,44.1648982 92.4634473,44.1648982 C89.6626473,44.1648982 87.4453745,43.7476255 85.8129382,42.9134073 C84.1801745,42.0785345 83.3636291,41.0008255 83.3636291,39.68028 C83.3636291,37.9676618 84.4956655,36.1971164 86.7597382,34.3683164 C85.2647564,33.7589345 84.5175927,32.8592618 84.5175927,31.6689709 C84.5175927,30.2322436 85.6129745,28.2005345 87.80472,25.5731891 C85.5985745,24.2817709 84.4956655,22.3590436 84.4956655,19.8043527 C84.4956655,17.5399527 85.3406836,15.7190073 87.0317018,14.33988 C88.7223927,12.9614073 91.0047927,12.2718436 93.8785745,12.2718436 C94.6329382,12.2718436 95.65632,12.3588982 96.9480655,12.5330073 C98.1962836,12.7365709 99.1614109,12.8376982 99.8437745,12.8376982 C102.223702,12.8376982 104.37192,12.8160982 106.287447,12.7725709 L106.418356,13.86108 Z" id="Fill-11"></path><path d="M117.6066,23.2657527 C115.3278,23.2657527 113.702236,23.5560436 112.730236,24.1366255 C111.757582,24.7172073 111.271582,25.7114618 111.271582,27.1190618 C111.271582,28.3964073 111.615873,29.30688 112.305436,29.8511345 C112.994673,30.3953891 113.810891,30.66768 114.754745,30.66768 C115.828527,30.66768 116.764855,30.3917891 117.563073,29.8403345 L117.6066,23.2657527 Z M106.961073,14.2745891 C110.052164,12.8669891 113.0274,12.1630255 115.886782,12.1630255 C118.4994,12.1630255 120.454527,12.7472073 121.7538,13.9155709 C123.052418,15.0839345 123.694855,16.7638255 123.680455,18.9552436 L123.5718,28.0115345 C123.542345,28.7518255 123.557073,29.3471345 123.615,29.7968073 C123.672927,30.2468073 123.807109,30.5914255 124.017873,30.8306618 C124.227982,31.0702255 124.540527,31.2410618 124.953873,31.3425164 C125.367545,31.4439709 125.966127,31.5022255 126.749945,31.5166255 L126.880527,32.51808 C124.848491,33.2145164 123.099545,33.5630618 121.634018,33.5630618 C119.659909,33.5630618 118.360964,32.7867709 117.736855,31.2335345 C115.893982,32.7867709 113.9418,33.5630618 111.880964,33.5630618 C109.863655,33.5630618 108.202091,33.0584073 106.895618,32.0497527 C105.589473,31.0414255 104.936236,29.6223709 104.936236,27.7938982 C104.936236,25.5154255 105.992345,23.8463345 108.103909,22.7866255 C110.215473,21.7275709 113.383145,21.1977164 117.6066,21.1977164 L117.6282,19.5646255 C117.6426,18.0120436 117.269182,16.8692073 116.507291,16.1357891 C115.7454,15.4033527 114.558709,15.03648 112.947873,15.03648 C111.452564,15.03648 109.660418,15.3630982 107.570455,16.0163345 L106.961073,14.2745891 Z" id="Fill-13"></path><path d="M125.637905,1.82222182 C129.266051,1.28549455 132.430451,0.726512727 135.129796,0.145930909 L135.369033,0.32004 C135.282305,2.32294909 135.238778,4.45644 135.238778,6.72051273 L135.238778,26.8579309 C135.238778,28.5849491 135.252851,29.78964 135.282305,30.4716764 C135.311105,30.8634218 135.492415,31.1105127 135.82656,31.21164 L138.547505,31.9738582 L138.61296,33.01884 C136.465069,32.9749855 134.331251,32.9533855 132.212815,32.9533855 C130.049869,32.9533855 127.916378,32.9749855 125.812015,33.01884 L125.70336,31.9738582 L128.46816,31.21164 C128.801978,31.1245855 128.983287,30.9069491 129.012415,30.5587309 C129.041215,29.9925491 129.055942,29.0421491 129.055942,27.7068764 L129.055942,8.83207636 C129.055942,6.93094909 129.026487,5.18233091 128.968887,3.58556727 L125.768487,2.71469455 L125.637905,1.82222182 Z" id="Fill-15"></path><path d="M147.232473,4.86994909 C147.232473,5.87140364 146.909127,6.68434909 146.263418,7.30813091 C145.617382,7.93224 144.772036,8.24445818 143.727382,8.24445818 C142.769455,8.24445818 141.982036,7.95056727 141.365127,7.36278545 C140.748545,6.77500364 140.439927,6.00951273 140.439927,5.06598545 C140.439927,4.03573091 140.766545,3.22278545 141.419782,2.62747636 C142.072691,2.03282182 142.921964,1.73500364 143.966618,1.73500364 C144.924545,1.73500364 145.708364,2.00729455 146.318073,2.55154909 C146.927455,3.09580364 147.232473,3.86849455 147.232473,4.86994909 Z M137.6532,13.7521309 C141.224073,13.2154036 144.358691,12.6564218 147.058364,12.07584 L147.2976,12.2499491 C147.210545,14.2528582 147.167018,16.3863491 147.167018,18.6504218 L147.167018,26.8577673 C147.167018,28.5851127 147.181418,29.7898036 147.210545,30.47184 C147.239345,30.8635855 147.420655,31.1103491 147.7548,31.2118036 L150.476073,31.9736945 L150.5412,33.0186764 C148.393309,32.9751491 146.259818,32.9535491 144.141055,32.9535491 C141.978109,32.9535491 139.844945,32.9751491 137.740582,33.0186764 L137.6316,31.9736945 L140.3964,31.2118036 C140.730218,31.1247491 140.911527,30.9071127 140.940655,30.5585673 C140.969455,29.9927127 140.984182,29.0423127 140.984182,27.7067127 L140.984182,20.6968582 C140.984182,18.7957309 140.955055,17.0471127 140.897455,15.4503491 L137.784109,14.6449309 L137.6532,13.7521309 Z" id="Fill-17"></path><path d="M3.09086182,50.3134036 L4.56489818,50.3134036 C5.47078909,50.3134036 6.42708,50.3058764 7.43409818,50.2891855 L7.47075273,50.3376218 L7.11893455,52.2125673 L6.87609818,52.2547855 L6.50006182,50.8534036 L3.69762545,50.8534036 L3.69762545,54.1896218 L4.24973455,54.1896218 C4.66995273,54.1896218 5.13926182,54.1856945 5.65668,54.1775127 C5.76206182,54.1735855 5.83078909,54.1212218 5.86318909,54.0200945 L6.07558909,53.2006036 L6.40318909,53.1884945 C6.39075273,53.7550036 6.38486182,54.1735855 6.38486182,54.4445673 C6.38486182,54.7073673 6.39075273,55.1203855 6.40318909,55.6819855 L6.07558909,55.7065309 L5.85697091,54.8752582 C5.82457091,54.7698764 5.76206182,54.7155491 5.66878909,54.7112945 C5.14318909,54.70344 4.66798909,54.6988582 4.24351636,54.6988582 L3.69762545,54.6988582 L3.69762545,56.9072945 C3.69762545,57.3563127 3.70155273,57.7991127 3.70973455,58.2356945 L6.62148,58.2356945 L7.36144364,56.6952218 L7.63438909,56.6467855 L7.50086182,58.7573673 L7.45864364,58.80024 C6.41104364,58.7881309 5.44460727,58.7815855 4.55900727,58.7815855 L3.11508,58.7815855 C2.62580727,58.7815855 2.12442545,58.7881309 1.61093455,58.80024 L1.58638909,58.5394036 L2.33257091,58.3148945 C2.43369818,58.2860945 2.48835273,58.2235855 2.49653455,58.1263855 C2.50046182,57.9647127 2.50340727,57.7837309 2.50537091,57.5837673 C2.50766182,57.3838036 2.50864364,57.1619127 2.50864364,56.9197309 L2.50864364,51.9995127 C2.50864364,51.7936582 2.50766182,51.6077673 2.50537091,51.4415127 C2.50340727,51.2759127 2.50046182,51.1263491 2.49653455,50.9928218 C2.49228,50.8880945 2.44384364,50.81904 2.35089818,50.7863127 L1.59849818,50.5500218 L1.58638909,50.2891855 C2.10838909,50.3058764 2.60944364,50.3134036 3.09086182,50.3134036" id="Fill-19"></path><path d="M13.5778255,52.0181345 L13.5778255,56.9196982 C13.5778255,57.3965345 13.5817527,57.7928618 13.5899345,58.1083527 C13.5938618,58.2215891 13.6445891,58.2906436 13.7414618,58.3148618 L14.4637527,58.5272618 L14.4758618,58.8002073 C13.9702255,58.7880982 13.5555709,58.7815527 13.2322255,58.7815527 C12.9167345,58.7815527 12.4981527,58.7880982 11.97648,58.8002073 L11.9522618,58.5393709 L12.6981164,58.3148618 C12.8034982,58.2824618 12.8581527,58.2196255 12.86208,58.1263527 C12.8702618,57.79908 12.8741891,57.3965345 12.8741891,56.9196982 L12.8741891,51.99948 C12.8741891,51.5956255 12.8702618,51.2601709 12.86208,50.9927891 C12.8581527,50.8880618 12.8093891,50.8190073 12.7164436,50.78628 L11.9643709,50.5499891 L11.9522618,50.2891527 C12.4739345,50.3058436 12.8862982,50.3133709 13.18968,50.3133709 C13.3716436,50.3133709 13.5555709,50.3058436 13.7414618,50.2891527 L18.8370982,56.6523164 L18.8370982,51.9752618 C18.8370982,51.5835164 18.8331709,51.2454436 18.8249891,50.96268 C18.8210618,50.8694073 18.7683709,50.8068982 18.6672436,50.7741709 L17.9514982,50.5683164 L17.9393891,50.2891527 C18.4571345,50.3058436 18.8753891,50.3133709 19.1951345,50.3133709 C19.51848,50.3133709 19.9331345,50.3058436 20.4387709,50.2891527 L20.4629891,50.5499891 L19.69848,50.78628 C19.6055345,50.8190073 19.5570982,50.8880618 19.5528436,50.9927891 C19.5446618,51.2601709 19.5407345,51.5956255 19.5407345,51.99948 L19.5407345,58.7815527 L19.0314982,58.8299891 L13.5778255,52.0181345 Z" id="Fill-21"></path><path d="M26.21808,50.3134036 L27.6921164,50.3134036 C28.5980073,50.3134036 29.5542982,50.3058764 30.5613164,50.2891855 L30.5979709,50.3376218 L30.2461527,52.2125673 L30.0033164,52.2547855 L29.62728,50.8534036 L26.8248436,50.8534036 L26.8248436,54.1896218 L27.3769527,54.1896218 C27.7971709,54.1896218 28.26648,54.1856945 28.7838982,54.1775127 C28.88928,54.1735855 28.9580073,54.1212218 28.9904073,54.0200945 L29.2028073,53.2006036 L29.5304073,53.1884945 C29.5179709,53.7550036 29.51208,54.1735855 29.51208,54.4445673 C29.51208,54.7073673 29.5179709,55.1203855 29.5304073,55.6819855 L29.2028073,55.7065309 L28.9841891,54.8752582 C28.9517891,54.7698764 28.88928,54.7155491 28.7960073,54.7112945 C28.2704073,54.70344 27.7952073,54.6988582 27.3707345,54.6988582 L26.8248436,54.6988582 L26.8248436,56.9072945 C26.8248436,57.3563127 26.8287709,57.7991127 26.8369527,58.2356945 L29.7486982,58.2356945 L30.4886618,56.6952218 L30.7616073,56.6467855 L30.62808,58.7573673 L30.5858618,58.80024 C29.5382618,58.7881309 28.5718255,58.7815855 27.6862255,58.7815855 L26.2422982,58.7815855 C25.7530255,58.7815855 25.2516436,58.7881309 24.7381527,58.80024 L24.7136073,58.5394036 L25.4597891,58.3148945 C25.5609164,58.2860945 25.6155709,58.2235855 25.6237527,58.1263855 C25.62768,57.9647127 25.6306255,57.7837309 25.6325891,57.5837673 C25.63488,57.3838036 25.6358618,57.1619127 25.6358618,56.9197309 L25.6358618,51.9995127 C25.6358618,51.7936582 25.63488,51.6077673 25.6325891,51.4415127 C25.6306255,51.2759127 25.62768,51.1263491 25.6237527,50.9928218 C25.6194982,50.8880945 25.5710618,50.81904 25.4781164,50.7863127 L24.7257164,50.5500218 L24.7136073,50.2891855 C25.2356073,50.3058764 25.7366618,50.3134036 26.21808,50.3134036" id="Fill-23"></path><path d="M37.3420145,54.3595418 C37.5887782,54.3716509 37.8172145,54.3775418 38.0276509,54.3775418 C38.7270327,54.3775418 39.2395418,54.2292873 39.5651782,53.9317964 C39.8908145,53.6346327 40.0537964,53.1685964 40.0537964,52.53336 C40.0537964,51.9190691 39.8980145,51.4703782 39.5864509,51.1872873 C39.2752145,50.9038691 38.7875782,50.76216 38.1245236,50.76216 C38.0112873,50.76216 37.8898691,50.7664145 37.7605964,50.7742691 C37.6309964,50.7824509 37.4915782,50.79456 37.3420145,50.8105964 L37.3420145,54.3595418 Z M37.3420145,56.9194691 C37.3420145,57.1619782 37.3429964,57.3802691 37.34496,57.5746691 C37.3472509,57.7684145 37.3501964,57.9448145 37.3541236,58.1022327 C37.3580509,58.2279055 37.4107418,58.3067782 37.5118691,58.3385236 L38.1853964,58.5391418 L38.2033964,58.7999782 C37.7223055,58.7878691 37.2408873,58.7816509 36.7597964,58.7816509 C36.2705236,58.7816509 35.7688145,58.7878691 35.2553236,58.7999782 L35.2311055,58.5391418 L35.9772873,58.31496 C36.0784145,58.28616 36.1327418,58.2236509 36.1409236,58.1264509 C36.1448509,57.9647782 36.1481236,57.7837964 36.1500873,57.5838327 C36.1520509,57.3835418 36.1530327,57.1619782 36.1530327,56.9194691 L36.1530327,51.9995782 C36.1530327,51.7937236 36.1520509,51.6078327 36.1500873,51.4415782 C36.1481236,51.2759782 36.1448509,51.1264145 36.1409236,50.9928873 C36.1369964,50.88816 36.0882327,50.8191055 35.9952873,50.7863782 L35.2432145,50.54976 L35.2311055,50.2889236 C35.7527782,50.3056145 36.2623418,50.3134691 36.7601236,50.3134691 C36.8579782,50.3134691 36.9826691,50.3101964 37.1338691,50.3043055 C37.2850691,50.2980873 37.4689964,50.2908873 37.6856509,50.28336 C37.9062327,50.2751782 38.09016,50.2692873 38.2371055,50.2647055 C38.3843782,50.2611055 38.5008873,50.2591418 38.5866327,50.2591418 C39.5183782,50.2591418 40.2174327,50.4329236 40.6831418,50.7804873 C41.1491782,51.1283782 41.3821964,51.6359782 41.3821964,52.3032873 C41.3821964,52.9061236 41.22216,53.3944145 40.9024145,53.76816 C40.5826691,54.1422327 40.0950327,54.43056 39.4388509,54.6324873 C39.6970691,55.0206327 39.9349964,55.3956873 40.1519782,55.7573236 C40.3692873,56.1199418 40.5715418,56.4517964 40.7580873,56.75256 C40.9443055,57.0536509 41.1151418,57.3197236 41.2705964,57.5504509 C41.4257236,57.7805236 41.5700509,57.9628145 41.7035782,58.0963418 C41.7723055,58.1653964 41.8410327,58.22496 41.90976,58.27536 C41.9784873,58.32576 42.05016,58.3673236 42.1251055,58.3993964 C42.2000509,58.4317964 42.2785964,58.4599418 42.3617236,58.4844873 C42.4445236,58.5087055 42.5368145,58.5329236 42.6379418,58.5571418 L42.6559418,58.8245236 C42.3646691,58.8608509 42.1201964,58.8788509 41.9218691,58.8788509 C41.7559418,58.8788509 41.6103055,58.8749236 41.4846327,58.8664145 C41.35896,58.8582327 41.2467055,58.8421964 41.1485236,58.8179782 C41.0500145,58.79376 40.9609964,58.7623418 40.8808145,58.7240509 C40.80096,58.68576 40.7220873,58.6356873 40.6441964,58.5757964 C40.4759782,58.4504509 40.3110327,58.2688145 40.1490327,58.0325236 C39.98736,57.7959055 39.8191418,57.5281964 39.6450327,57.2290691 C39.4705964,56.9299418 39.2892873,56.6108509 39.1007782,56.2734327 C38.9119418,55.9356873 38.7132873,55.6054691 38.50416,55.2811418 C38.4426327,55.1845964 38.3905964,55.1080145 38.3473964,55.0510691 C38.3041964,54.9941236 38.2570691,54.9502691 38.2060145,54.9175418 C38.1546327,54.8854691 38.0953964,54.8632145 38.0276509,54.8511055 C37.9599055,54.8389964 37.8728509,54.8304873 37.76616,54.8268873 L37.3420145,54.8147782 L37.3420145,56.9194691 Z" id="Fill-25"></path><path d="M52.6150145,52.4061491 L52.3721782,52.4424764 L51.9535964,50.8535673 C51.4603964,50.72364 50.9973055,50.6591673 50.5646509,50.6591673 C49.5537055,50.6591673 48.7649782,51.0018218 48.1987964,51.6877855 C47.6326145,52.3727673 47.3495236,53.3182582 47.3495236,54.5232764 C47.3495236,55.7407309 47.6578145,56.7081491 48.2740691,57.4258582 C48.8903236,58.1435673 49.71996,58.5029127 50.7629782,58.5029127 C51.1134873,58.5029127 51.4577782,58.4580764 51.7961782,58.3693855 L51.7961782,56.7493855 C51.7961782,56.5474582 51.7951964,56.3635309 51.7929055,56.1972764 C51.7909418,56.0316764 51.7879964,55.8801491 51.7837418,55.7426945 C51.7798145,55.6373127 51.7313782,55.5708764 51.6384327,55.5427309 L50.8860327,55.3054582 L50.8739236,55.0449491 C51.3955964,55.0570582 51.8959964,55.0632764 52.3754509,55.0632764 C52.86276,55.0632764 53.3327236,55.0570582 53.7856691,55.0449491 L53.8161055,55.3054582 L53.1546873,55.4998582 C53.0578145,55.5325855 53.0051236,55.5950945 52.9969418,55.6877127 C52.9930145,55.8493855 52.9900691,56.0143309 52.9881055,56.1825491 C52.9858145,56.3501127 52.9848327,56.5310945 52.9848327,56.7251673 L52.9848327,58.6665491 L52.9488327,58.7087673 C52.1227964,58.9067673 51.3638509,59.0059309 50.6719964,59.0059309 C49.2509782,59.0059309 48.1209055,58.6302218 47.2807964,57.8778218 C46.4410145,57.1254218 46.0211236,56.0765127 46.0211236,54.7297855 C46.0211236,53.2979673 46.4580327,52.1767309 47.3311964,51.3660764 C48.2050145,50.5550945 49.39596,50.1496036 50.90436,50.1496036 C51.5553055,50.1496036 52.2389782,50.2327309 52.9547236,50.3983309 L52.9910509,50.4470945 L52.6150145,52.4061491 Z" id="Fill-27"></path><path d="M61.4868545,54.4624691 L62.8895455,51.81156 C62.9906727,51.6174873 63.0754364,51.4518873 63.1444909,51.3144327 C63.2132182,51.1769782 63.2475818,51.0637418 63.2475818,50.9750509 C63.2475818,50.8490509 63.1585636,50.7619964 62.9805273,50.71356 L62.4346364,50.5685782 L62.4225273,50.2890873 C62.8591091,50.3057782 63.3061636,50.3133055 63.7633636,50.3133055 C64.2038727,50.3133055 64.6326,50.3057782 65.0492182,50.2890873 L65.0734364,50.5499236 L64.4607818,50.7443236 C64.3151455,50.7888327 64.2028909,50.8591964 64.1240182,50.9563964 C64.0451455,51.0535964 63.9652909,51.1730509 63.8844545,51.3144327 L61.7856545,55.0567964 L61.7856545,56.9009782 C61.7856545,57.1438145 61.7866364,57.3643964 61.7886,57.5627236 C61.7905636,57.7607236 61.7935091,57.9403964 61.7977636,58.1020691 C61.8016909,58.2038509 61.8723818,58.2722509 62.0101636,58.3085782 L62.7622364,58.5393055 L62.7743455,58.8001418 C62.2081636,58.7880327 61.6855091,58.7814873 61.2063818,58.7814873 C60.7148182,58.7814873 60.1902,58.7880327 59.6322,58.8001418 L59.6079818,58.5393055 L60.4206,58.2964691 C60.5217273,58.2683236 60.5763818,58.2058145 60.5845636,58.1086145 C60.5884909,57.9466145 60.5914364,57.76596 60.5937273,57.5650145 C60.5956909,57.3650509 60.5966727,57.1438145 60.5966727,56.9009782 L60.5966727,55.18476 L58.4612182,51.4842873 C58.3116545,51.2375236 58.1892545,51.0594873 58.0943455,50.9508327 C57.9994364,50.8415236 57.8731091,50.7646145 57.7153636,50.7197782 L57.1632545,50.5499236 L57.1511455,50.2890873 C57.519,50.3057782 58.0164545,50.3133055 58.6435091,50.3133055 C59.1890727,50.3133055 59.7536182,50.3057782 60.3358364,50.2890873 L60.3600545,50.5499236 L59.7899455,50.7076691 C59.7048545,50.7282873 59.6443091,50.7577418 59.6079818,50.7960327 C59.5713273,50.8343236 59.5533273,50.8817782 59.5533273,50.9383964 C59.5533273,51.0228327 59.5847455,51.1272327 59.6472545,51.2506145 C59.7100909,51.3736691 59.7879818,51.51636 59.8809273,51.6780327 L61.4868545,54.4624691 Z" id="Fill-29"></path><path d="M78.8784873,58.8100255 L78.8784873,58.5681709 L79.1363782,58.5521345 C79.3055782,58.54428 79.4132509,58.5216982 79.4587418,58.4856982 C79.50456,58.4490436 79.5435055,58.3639527 79.5759055,58.2297709 C79.6564145,57.9096982 79.80696,57.0879164 80.0278691,55.7640982 C80.2484509,54.44028 80.3580873,53.7153709 80.3580873,53.5890436 C80.3580873,53.4816982 80.3230691,53.4090436 80.25336,53.3714073 C80.1836509,53.3337709 79.9709236,53.3056255 79.61616,53.2866436 L79.61616,53.0647527 C80.1728509,53.0892982 80.5410327,53.1014073 80.7207055,53.1014073 C80.8925236,53.1014073 81.1405964,53.0945345 81.4652509,53.0807891 C81.76896,53.0673709 81.99216,53.0608255 82.1338691,53.0608255 C82.5125236,53.0608255 82.8018327,53.1079527 83.0021236,53.20188 C83.2020873,53.2958073 83.3585236,53.4404618 83.4730691,53.6351891 C83.58696,53.8302436 83.64456,54.0632618 83.64456,54.3348982 C83.64456,54.6818073 83.5516145,55.0224982 83.3663782,55.3569709 C83.1808145,55.6917709 82.9419055,55.9483527 82.6489964,56.1270436 C82.3564145,56.3057345 82.0405964,56.39508 81.7025236,56.39508 C81.4524873,56.39508 81.2083418,56.3319164 80.9694327,56.2055891 L80.9694327,55.9516255 C81.2034327,56.0429345 81.4066691,56.0887527 81.5784873,56.0887527 C81.9816873,56.0887527 82.3073236,55.9336255 82.5534327,55.6230436 C82.7992145,55.3124618 82.9225964,54.9233345 82.9225964,54.4556618 C82.9225964,54.1064618 82.8224509,53.83908 82.62216,53.6535164 C82.4215418,53.4679527 82.1296145,53.3753345 81.7453964,53.3753345 C81.5892873,53.3753345 81.3713236,53.3982436 81.09216,53.4440618 C80.8607782,54.6372982 80.6464145,55.8266073 80.4490691,57.0119891 C80.3391055,57.67308 80.2841236,58.0926436 80.2841236,58.2700255 C80.2841236,58.3721345 80.3161964,58.4392255 80.3787055,58.4716255 C80.4418691,58.5036982 80.6866691,58.5357709 81.1144145,58.5681709 L81.1144145,58.8100255 C80.5230327,58.7910436 80.0884145,58.78188 79.8095782,58.78188 C79.5137236,58.78188 79.2034691,58.7910436 78.8784873,58.8100255" id="Fill-31"></path><path d="M84.5635745,57.5319273 C84.5635745,57.9082909 84.6300109,58.1779636 84.7628836,58.3406182 C84.8960836,58.5032727 85.0832836,58.5844364 85.3254655,58.5844364 C85.6828473,58.5844364 85.9610291,58.3841455 86.1596836,57.9835636 C86.4126655,57.4726909 86.5386655,56.8881818 86.5386655,56.2297091 C86.5386655,55.8428727 86.47092,55.5673091 86.3354291,55.4033455 C86.1992836,55.2393818 86.0035745,55.1572364 85.7486291,55.1572364 C85.5414655,55.1572364 85.3595018,55.2266182 85.2020836,55.3650545 C85.0449927,55.5034909 84.8990291,55.7784 84.7648473,56.1894545 C84.6306655,56.6005091 84.5635745,57.0482182 84.5635745,57.5319273 M83.9299745,57.5928 C83.9299745,56.7324 84.1518655,56.0647636 84.5949927,55.5889091 C85.0377927,55.1127273 85.5251018,54.8751273 86.0565927,54.8751273 C86.4084109,54.8751273 86.6820109,54.9805091 86.8780473,55.1916 C87.0737564,55.4026909 87.1722655,55.7057455 87.1722655,56.1007636 C87.1722655,56.5978909 87.0636109,57.0740727 86.8476109,57.528 C86.6312836,57.9822545 86.3567018,58.3229455 86.0222291,58.5500727 C85.6880836,58.7772 85.3529564,58.8907636 85.0175018,58.8907636 C84.6768109,58.8907636 84.4100836,58.7844 84.2183018,58.5723273 C84.0258655,58.3599273 83.9299745,58.0333091 83.9299745,57.5928" id="Fill-33"></path><path d="M87.6918436,55.9598073 L87.5102073,55.9598073 L87.6195164,55.58868 L87.7965709,54.9678436 C87.9687164,54.9354436 88.10028,54.9194073 88.1915891,54.9194073 C88.2645709,54.9194073 88.3827164,54.9315164 88.5463527,54.9557345 C88.7535164,54.9851891 88.9299164,54.9999164 89.0752255,54.9999164 C89.2008982,54.9999164 89.2938436,54.99468 89.35308,54.9842073 C89.4119891,54.97308 89.4924982,54.9449345 89.5946073,54.8994436 L89.6836255,55.01628 C88.9420255,55.8629345 88.5708982,56.72988 88.5708982,57.6164618 C88.5708982,57.9175527 88.6134436,58.1328982 88.6998436,58.2618436 C88.7862436,58.3907891 88.8896618,58.4552618 89.0104255,58.4552618 C89.0961709,58.4552618 89.18748,58.4244982 89.28468,58.3626436 C89.4375164,58.2657709 89.6044255,58.0821709 89.7847527,57.8121709 C89.9640982,57.5421709 90.1202073,57.1946073 90.2517709,56.7701345 C90.3247527,56.5361345 90.4527164,55.9624255 90.6353345,55.04868 C90.7989709,55.0110436 90.9989345,54.9531164 91.2355527,54.8752255 L91.3000255,54.9275891 C91.1229709,55.4355164 90.9684982,56.0079164 90.8366073,56.6451164 C90.7479164,57.0856255 90.7037345,57.4367891 90.7037345,57.6976255 C90.7037345,57.9499527 90.7547891,58.1387891 90.8572255,58.2638073 C90.95868,58.3888255 91.0866436,58.4513345 91.2401345,58.4513345 C91.4253709,58.4513345 91.5975164,58.3812982 91.7559164,58.24188 C91.9980982,58.0265345 92.2026436,57.7035164 92.3708618,57.2721709 C92.53908,56.8404982 92.6225345,56.4140618 92.6225345,55.99188 C92.6225345,55.7984618 92.5848982,55.6544618 92.51028,55.5605345 C92.43468,55.46628 92.3325709,55.41948 92.2032982,55.41948 C92.1335891,55.41948 92.0543891,55.44108 91.9656982,55.4839527 L91.8645709,55.3792255 C92.0363891,55.2339164 92.1872618,55.0742073 92.3165345,54.8994436 C92.4212618,54.88308 92.5070073,54.8752255 92.5747527,54.8752255 C92.7436255,54.8752255 92.8797709,54.9410073 92.98188,55.0725709 C93.0836618,55.2041345 93.1347164,55.3965709 93.1347164,55.6492255 C93.1347164,56.1303164 92.9992255,56.64708 92.7275891,57.1995164 C92.4559527,57.7519527 92.1401345,58.1718436 91.7801345,58.4595164 C91.4198073,58.7471891 91.1147891,58.8908618 90.8647527,58.8908618 C90.6660982,58.8908618 90.4991891,58.8136255 90.3650073,58.6588255 C90.2308255,58.5043527 90.1637345,58.2899891 90.1637345,58.0157345 C90.1637345,57.8573345 90.1892618,57.6302073 90.2403164,57.3343527 C89.9762073,57.88548 89.6862436,58.3060255 89.3691164,58.5966436 C89.1544255,58.79268 88.9351527,58.8908618 88.7119527,58.8908618 C88.5024982,58.8908618 88.3254436,58.7939891 88.1820982,58.6002436 C88.0384255,58.4071527 87.9660982,58.1273345 87.9660982,57.7617709 C87.9660982,57.5493709 88.0037345,57.3189709 88.0793345,57.0705709 C88.1539527,56.8218436 88.2576982,56.5901345 88.3892618,56.3751164 C88.48908,56.2163891 88.7594073,55.8734073 89.1995891,55.3468255 C88.9580618,55.3844618 88.7400982,55.4034436 88.5463527,55.4034436 L88.3290436,55.3913345 L88.11108,55.3831527 C88.0171527,55.3831527 87.9507164,55.4054073 87.9117709,55.4495891 C87.8728255,55.4940982 87.7991891,55.66428 87.6918436,55.9598073" id="Fill-35"></path><path d="M94.24368,56.8588582 C94.7948073,56.7567491 95.1980073,56.5960582 95.4529527,56.3767855 C95.70888,56.15784 95.8365164,55.9153309 95.8365164,55.6492582 C95.8365164,55.5068945 95.8034618,55.3998764 95.7373527,55.3285309 C95.6715709,55.2575127 95.5782982,55.22184 95.4575345,55.22184 C95.2857164,55.22184 95.1201164,55.2715855 94.9613891,55.3710764 C94.8029891,55.4705673 94.6737164,55.6198036 94.5742255,55.8184582 C94.4429891,56.0792945 94.3323709,56.4262036 94.24368,56.8588582 M96.1140436,57.8828945 L96.1703345,58.0560218 C95.7854618,58.37904 95.4670255,58.5983127 95.2160073,58.7154764 C94.9640073,58.8323127 94.7264073,58.8908945 94.5032073,58.8908945 C94.1880436,58.8908945 93.9452073,58.7986036 93.7743709,58.6143491 C93.6032073,58.4307491 93.5181164,58.1650036 93.5181164,57.8184218 C93.5181164,57.4554764 93.5904436,57.0503127 93.73608,56.6029309 C93.8813891,56.1552218 94.0479709,55.8331855 94.2368073,55.6371491 C94.4253164,55.4411127 94.7237891,55.2431127 95.13288,55.0444582 C95.3616436,54.9315491 95.5674982,54.8749309 95.7507709,54.8749309 C95.9739709,54.8749309 96.1497164,54.9348218 96.27768,55.0542764 C96.4053164,55.1743855 96.4694618,55.3265673 96.4694618,55.5121309 C96.4694618,56.2403127 95.7150982,56.75544 94.2080073,57.0565309 C94.15368,57.3762764 94.1268436,57.6142036 94.1268436,57.7699855 C94.1268436,57.9876218 94.1886982,58.1623855 94.3127345,58.2942764 C94.4367709,58.42584 94.5925527,58.4916218 94.7813891,58.4916218 C94.9237527,58.4916218 95.0926255,58.4520218 95.2880073,58.3728218 C95.4830618,58.2936218 95.7586255,58.1303127 96.1140436,57.8828945" id="Fill-37"></path><path d="M96.96348,55.8306982 L96.8708618,55.6893164 C97.3385345,55.3401164 97.6916618,55.1034982 97.9279527,54.9797891 C98.0627891,54.91008 98.1740618,54.8750618 98.26308,54.8750618 C98.3115164,54.8750618 98.3491527,54.8907709 98.3759891,54.9215345 C98.4028255,54.9522982 98.4162436,55.00008 98.4162436,55.0645527 C98.4162436,55.15848 98.4028255,55.2785891 98.3759891,55.4235709 L98.1063164,56.6410255 C98.5340618,55.9154618 98.8937345,55.4088436 99.1866436,55.1211709 C99.3535527,54.9572073 99.5063891,54.8750618 99.6461345,54.8750618 C99.7056982,54.8750618 99.7793345,54.8897891 99.8680255,54.9195709 C99.8084618,55.1640436 99.7619891,55.4556436 99.7266436,55.7943709 L99.60588,55.8228436 C99.5332255,55.7204073 99.4468255,55.6693527 99.3476618,55.6693527 C99.2370436,55.6693527 99.1215164,55.7125527 99.0000982,55.7982982 C98.7903164,55.9465527 98.5929709,56.1769527 98.4087164,56.4898255 C98.2241345,56.8030255 98.0834073,57.1466618 97.9862073,57.52008 C97.9626436,57.6087709 97.8749345,58.0172073 97.7234073,58.7453891 C97.5564982,58.7777891 97.3686436,58.8262255 97.1591891,58.8910255 L97.0907891,58.8301527 C97.2920618,58.1474618 97.4537345,57.4755709 97.5751527,56.81448 C97.6972255,56.1530618 97.7580982,55.7446255 97.7580982,55.5888436 C97.7580982,55.4814982 97.7227527,55.4274982 97.6530436,55.4274982 C97.5695891,55.4274982 97.3398436,55.5620073 96.96348,55.8306982" id="Fill-39"></path><path d="M102.033655,58.8100255 L102.0618,58.58028 L102.323945,58.5599891 C102.450273,58.5495164 102.531436,58.5354436 102.568091,58.5177709 C102.604418,58.5004255 102.634527,58.4755527 102.658745,58.4431527 C102.682964,58.4107527 102.708164,58.3358073 102.735655,58.2173345 C102.762491,58.0991891 102.851836,57.5804618 103.005327,56.66148 L103.311327,54.8267891 C103.423909,54.1277345 103.4802,53.7261709 103.4802,53.6214436 C103.4802,53.5137709 103.447473,53.4414436 103.381691,53.40348 C103.315909,53.3658436 103.105473,53.3324618 102.750709,53.30268 L102.787364,53.0729345 C103.300527,53.0915891 103.689982,53.1014073 103.956382,53.1014073 L105.838855,53.0729345 L106.5042,53.0807891 C106.447909,53.3498073 106.402091,53.7638073 106.3674,54.3227891 L106.149436,54.3227891 C106.136018,54.0272618 106.1118,53.7638073 106.077109,53.5324255 C105.794673,53.4492982 105.432382,53.4074073 104.989255,53.4074073 C104.828236,53.4074073 104.565436,53.4168982 104.199873,53.43588 C104.036236,54.2730436 103.892564,55.1102073 103.769182,55.9476982 C104.123945,55.9611164 104.463327,55.9676618 104.787982,55.9676618 C105.193145,55.9676618 105.555764,55.9395164 105.875182,55.8832255 L105.919364,55.9476982 C105.847036,56.10348 105.793364,56.2379891 105.758345,56.3505709 C105.505691,56.3214436 105.219327,56.3063891 104.899909,56.3063891 C104.706164,56.3063891 104.308527,56.3116255 103.706345,56.3224255 C103.500491,57.4459527 103.397073,58.0949345 103.397073,58.2700255 C103.397073,58.3773709 103.427836,58.4467527 103.487727,58.4775164 C103.5486,58.50828 103.786855,58.5429709 104.2038,58.58028 L104.2038,58.8100255 C103.773436,58.7910436 103.408527,58.78188 103.108091,58.78188 C102.786709,58.78188 102.428673,58.7910436 102.033655,58.8100255" id="Fill-41"></path><path d="M107.274502,57.5319273 C107.274502,57.9082909 107.340938,58.1779636 107.473811,58.3406182 C107.607011,58.5032727 107.794211,58.5844364 108.036393,58.5844364 C108.393775,58.5844364 108.671956,58.3841455 108.870611,57.9835636 C109.123593,57.4726909 109.249593,56.8881818 109.249593,56.2297091 C109.249593,55.8428727 109.181847,55.5673091 109.046356,55.4033455 C108.910211,55.2393818 108.714502,55.1572364 108.459556,55.1572364 C108.252393,55.1572364 108.070429,55.2266182 107.913011,55.3650545 C107.75592,55.5034909 107.609956,55.7784 107.475775,56.1894545 C107.341593,56.6005091 107.274502,57.0482182 107.274502,57.5319273 M106.640902,57.5928 C106.640902,56.7324 106.862793,56.0647636 107.30592,55.5889091 C107.74872,55.1127273 108.236029,54.8751273 108.76752,54.8751273 C109.119338,54.8751273 109.392938,54.9805091 109.588975,55.1916 C109.784684,55.4026909 109.883193,55.7057455 109.883193,56.1007636 C109.883193,56.5978909 109.774538,57.0740727 109.558538,57.528 C109.342211,57.9822545 109.067629,58.3229455 108.733156,58.5500727 C108.399011,58.7772 108.063884,58.8907636 107.728429,58.8907636 C107.387738,58.8907636 107.121011,58.7844 106.929229,58.5723273 C106.736793,58.3599273 106.640902,58.0333091 106.640902,57.5928" id="Fill-43"></path><path d="M110.498007,55.8306982 L110.405389,55.6893164 C110.873062,55.3401164 111.226189,55.1034982 111.46248,54.9797891 C111.597316,54.91008 111.708589,54.8750618 111.797607,54.8750618 C111.846044,54.8750618 111.88368,54.8907709 111.910516,54.9215345 C111.937353,54.9522982 111.950771,55.00008 111.950771,55.0645527 C111.950771,55.15848 111.937353,55.2785891 111.910516,55.4235709 L111.640844,56.6410255 C112.068589,55.9154618 112.428262,55.4088436 112.721171,55.1211709 C112.88808,54.9572073 113.040916,54.8750618 113.180662,54.8750618 C113.240225,54.8750618 113.313862,54.8897891 113.402553,54.9195709 C113.342989,55.1640436 113.296516,55.4556436 113.261171,55.7943709 L113.140407,55.8228436 C113.067753,55.7204073 112.981353,55.6693527 112.882189,55.6693527 C112.771571,55.6693527 112.656044,55.7125527 112.534625,55.7982982 C112.324844,55.9465527 112.127498,56.1769527 111.943244,56.4898255 C111.758662,56.8030255 111.617935,57.1466618 111.520735,57.52008 C111.497171,57.6087709 111.409462,58.0172073 111.257935,58.7453891 C111.091025,58.7777891 110.903171,58.8262255 110.693716,58.8910255 L110.625316,58.8301527 C110.826589,58.1474618 110.988262,57.4755709 111.10968,56.81448 C111.231753,56.1530618 111.292625,55.7446255 111.292625,55.5888436 C111.292625,55.4814982 111.25728,55.4274982 111.187571,55.4274982 C111.104116,55.4274982 110.874371,55.5620073 110.498007,55.8306982" id="Fill-45"></path><path d="M115.57584,58.8100255 L115.57584,58.5681709 L115.833404,58.5521345 C116.002931,58.54428 116.110276,58.5216982 116.156095,58.4856982 C116.201585,58.4490436 116.240531,58.3639527 116.273258,58.2297709 C116.353767,57.9096982 116.503985,57.0879164 116.724567,55.7640982 C116.945149,54.44028 117.05544,53.7153709 117.05544,53.5890436 C117.05544,53.4816982 117.020422,53.4090436 116.950713,53.3714073 C116.880349,53.3337709 116.668276,53.3056255 116.313513,53.2866436 L116.313513,53.0647527 C116.869549,53.0892982 117.237731,53.1014073 117.418058,53.1014073 C117.589222,53.1014073 117.837949,53.0945345 118.162604,53.0807891 C118.466313,53.0673709 118.688858,53.0608255 118.831222,53.0608255 C119.209876,53.0608255 119.498531,53.1079527 119.698822,53.20188 C119.898785,53.2958073 120.055876,53.4404618 120.169767,53.6351891 C120.284313,53.8302436 120.341258,54.0632618 120.341258,54.3348982 C120.341258,54.6818073 120.248313,55.0224982 120.063076,55.3569709 C119.87784,55.6917709 119.638604,55.9483527 119.346022,56.1270436 C119.053113,56.3057345 118.737949,56.39508 118.399222,56.39508 C118.149185,56.39508 117.90504,56.3319164 117.666131,56.2055891 L117.666131,55.9516255 C117.900131,56.0429345 118.103367,56.0887527 118.27584,56.0887527 C118.67904,56.0887527 119.004022,55.9336255 119.250131,55.6230436 C119.496567,55.3124618 119.619295,54.9233345 119.619295,54.4556618 C119.619295,54.1064618 119.519149,53.83908 119.319185,53.6535164 C119.118895,53.4679527 118.826967,53.3753345 118.442095,53.3753345 C118.285985,53.3753345 118.068676,53.3982436 117.788858,53.4440618 C117.558131,54.6372982 117.343767,55.8266073 117.146422,57.0119891 C117.036458,57.67308 116.981476,58.0926436 116.981476,58.2700255 C116.981476,58.3721345 117.012895,58.4392255 117.076058,58.4716255 C117.138567,58.5036982 117.384022,58.5357709 117.811113,58.5681709 L117.811113,58.8100255 C117.220385,58.7910436 116.785113,58.78188 116.506604,58.78188 C116.211076,58.78188 115.900495,58.7910436 115.57584,58.8100255" id="Fill-47"></path><path d="M120.81924,55.8306982 L120.726622,55.6893164 C121.194295,55.3401164 121.547422,55.1034982 121.783713,54.9797891 C121.918549,54.91008 122.029822,54.8750618 122.11884,54.8750618 C122.167276,54.8750618 122.204913,54.8907709 122.231749,54.9215345 C122.258585,54.9522982 122.272004,55.00008 122.272004,55.0645527 C122.272004,55.15848 122.258585,55.2785891 122.231749,55.4235709 L121.962076,56.6410255 C122.389822,55.9154618 122.749495,55.4088436 123.042404,55.1211709 C123.209313,54.9572073 123.362149,54.8750618 123.501895,54.8750618 C123.561458,54.8750618 123.635095,54.8897891 123.723785,54.9195709 C123.664222,55.1640436 123.617749,55.4556436 123.582404,55.7943709 L123.46164,55.8228436 C123.388985,55.7204073 123.302585,55.6693527 123.203422,55.6693527 C123.092804,55.6693527 122.977276,55.7125527 122.855858,55.7982982 C122.646076,55.9465527 122.448731,56.1769527 122.264476,56.4898255 C122.079895,56.8030255 121.939167,57.1466618 121.841967,57.52008 C121.818404,57.6087709 121.730695,58.0172073 121.579167,58.7453891 C121.412258,58.7777891 121.224404,58.8262255 121.014949,58.8910255 L120.946549,58.8301527 C121.147822,58.1474618 121.309495,57.4755709 121.430913,56.81448 C121.552985,56.1530618 121.613858,55.7446255 121.613858,55.5888436 C121.613858,55.4814982 121.578513,55.4274982 121.508804,55.4274982 C121.425349,55.4274982 121.195604,55.5620073 120.81924,55.8306982" id="Fill-49"></path><path d="M124.473567,57.5319273 C124.473567,57.9082909 124.540004,58.1779636 124.672876,58.3406182 C124.806076,58.5032727 124.993931,58.5844364 125.235458,58.5844364 C125.59284,58.5844364 125.871349,58.3841455 126.070331,57.9835636 C126.322658,57.4726909 126.449313,56.8881818 126.449313,56.2297091 C126.449313,55.8428727 126.381567,55.5673091 126.245422,55.4033455 C126.109931,55.2393818 125.914222,55.1572364 125.658622,55.1572364 C125.452113,55.1572364 125.270149,55.2266182 125.112731,55.3650545 C124.95564,55.5034909 124.809676,55.7784 124.67484,56.1894545 C124.540658,56.6005091 124.473567,57.0482182 124.473567,57.5319273 M123.840622,57.5928 C123.840622,56.7324 124.061858,56.0647636 124.504985,55.5889091 C124.947785,55.1127273 125.435095,54.8751273 125.966585,54.8751273 C126.318404,54.8751273 126.592658,54.9805091 126.78804,55.1916 C126.984404,55.4026909 127.082258,55.7057455 127.082258,56.1007636 C127.082258,56.5978909 126.974258,57.0740727 126.757931,57.528 C126.541931,57.9822545 126.266695,58.3229455 125.932876,58.5500727 C125.598731,58.7772 125.263604,58.8907636 124.928149,58.8907636 C124.586804,58.8907636 124.320731,58.7844 124.128295,58.5723273 C123.936513,58.3599273 123.840622,58.0333091 123.840622,57.5928" id="Fill-51"></path><path d="M127.667029,57.5926364 L127.876811,57.5926364 L127.872229,57.9712909 L127.876811,58.2697636 C128.008375,58.3748182 128.147138,58.4533636 128.293429,58.5057273 C128.440375,58.5580909 128.592556,58.5842727 128.751284,58.5842727 C129.009502,58.5842727 129.222884,58.5008182 129.392084,58.3345636 C129.561611,58.1676545 129.646702,57.9595091 129.646702,57.7091455 C129.646702,57.5294727 129.604484,57.3975818 129.521356,57.3141273 C129.434956,57.2313273 129.257902,57.1678364 128.988884,57.1246364 C128.510738,57.0496909 128.201465,56.9593636 128.062047,56.8546364 C127.876811,56.7122727 127.783865,56.5011818 127.783865,56.2220182 C127.783865,56.0066727 127.846702,55.8099818 127.973356,55.6309636 C128.099684,55.4522727 128.330411,55.2676909 128.666847,55.0768909 C128.903138,54.9420545 129.150556,54.8749636 129.40812,54.8749636 C129.537393,54.8749636 129.668956,54.8919818 129.803793,54.9256909 C129.937975,54.9590727 130.074775,55.0107818 130.214847,55.0808182 C130.152993,55.3226727 130.104229,55.6322727 130.069865,56.0086364 L129.880047,56.0086364 C129.882993,55.8875455 129.884302,55.7880545 129.884302,55.7101636 C129.884302,55.5782727 129.856156,55.4879455 129.799538,55.4398364 C129.624775,55.2945273 129.401902,55.2218727 129.130265,55.2218727 C128.856011,55.2218727 128.644265,55.2902727 128.495356,55.4274 C128.345793,55.5642 128.271829,55.7442 128.271829,55.9667455 C128.271829,56.1523091 128.33172,56.2864909 128.453138,56.3696182 C128.544775,56.4311455 128.766338,56.4966 129.118156,56.5653273 C129.515465,56.6379818 129.773684,56.7171818 129.892156,56.8032545 C130.056447,56.9269636 130.138265,57.1177636 130.138265,57.3756545 C130.138265,57.7300909 129.954665,58.0714364 129.587793,58.3990364 C129.22092,58.7269636 128.81052,58.8909273 128.355938,58.8909273 C128.208338,58.8909273 128.062702,58.8719455 127.919029,58.8343091 C127.775029,58.7966727 127.632011,58.7416909 127.48932,58.6690364 C127.567211,58.3600909 127.626775,58.0010727 127.667029,57.5926364" id="Fill-53"></path><path d="M131.508655,58.3181345 C131.753455,58.46868 131.999564,58.5439527 132.246982,58.5439527 C132.4836,58.5439527 132.695018,58.4611527 132.881564,58.2962073 C133.068436,58.1309345 133.259564,57.7859891 133.454291,57.2616982 C133.649345,56.7377345 133.746545,56.2514073 133.746545,55.8023891 C133.746545,55.6384255 133.722327,55.5228982 133.674218,55.4558073 C133.625782,55.3887164 133.550182,55.35468 133.448073,55.35468 C133.208836,55.35468 132.938509,55.4796982 132.637418,55.7297345 C132.336327,55.9797709 132.090873,56.3250436 131.899745,56.7662073 C131.7924,57.0077345 131.680473,57.4286073 131.5656,58.0278436 L131.508655,58.3181345 Z M130.610618,55.7820982 L130.513418,55.62108 C131.021673,55.2823527 131.370545,55.0670073 131.561673,54.9756982 C131.703709,54.9086073 131.816618,54.8748982 131.899745,54.8748982 C131.959309,54.8748982 132.006436,54.8951891 132.043091,54.9354436 C132.079418,54.9756982 132.097418,55.0336255 132.097418,55.1088982 C132.097418,55.2083891 132.016909,55.6358073 131.855891,56.3908255 C132.078764,56.0308255 132.301309,55.7477345 132.5232,55.5425345 C132.744764,55.3370073 132.990218,55.1743527 133.260873,55.0542436 C133.5312,54.9347891 133.745236,54.8748982 133.903636,54.8748982 C134.030291,54.8748982 134.128145,54.9315164 134.198509,55.0444255 C134.311091,55.2296618 134.367709,55.4613709 134.367709,55.7379164 C134.367709,56.1761345 134.275091,56.62548 134.091164,57.08628 C133.906909,57.5477345 133.713164,57.8733709 133.508618,58.0644982 C133.304073,58.2552982 133.051745,58.4405345 132.750655,58.6205345 C132.449564,58.8008618 132.1848,58.8908618 131.956691,58.8908618 C131.819236,58.8908618 131.647418,58.8568255 131.440255,58.7897345 C131.257309,59.6687891 131.130982,60.3972982 131.061273,60.9752618 C130.822036,61.0047164 130.622073,61.0436618 130.461055,61.0920982 L130.404109,61.0479164 C130.675745,59.9047527 130.962109,58.4748982 131.2632,56.75868 C131.376436,56.1185345 131.432727,55.7195891 131.432727,55.5605345 C131.432727,55.5039164 131.419964,55.4616982 131.394109,55.4335527 C131.368582,55.4054073 131.336182,55.3913345 131.295927,55.3913345 C131.209527,55.3913345 130.981418,55.5215891 130.610618,55.7820982 Z" id="Fill-55"></path><path d="M135.533095,56.8588582 C136.084222,56.7567491 136.486767,56.5960582 136.742367,56.3767855 C136.99764,56.15784 137.125276,55.9153309 137.125276,55.6492582 C137.125276,55.5068945 137.092222,55.3998764 137.026767,55.3285309 C136.960331,55.2575127 136.867058,55.22184 136.746295,55.22184 C136.574476,55.22184 136.408876,55.2715855 136.250149,55.3710764 C136.091749,55.4705673 135.963131,55.6198036 135.86364,55.8184582 C135.731749,56.0792945 135.621785,56.4262036 135.533095,56.8588582 M137.402804,57.8828945 L137.459749,58.0560218 C137.074876,58.37904 136.75644,58.5983127 136.504767,58.7154764 C136.252767,58.8323127 136.015822,58.8908945 135.791967,58.8908945 C135.477458,58.8908945 135.234622,58.7986036 135.063131,58.6143491 C134.892622,58.4307491 134.806876,58.1650036 134.806876,57.8184218 C134.806876,57.4554764 134.879858,57.0503127 135.02484,56.6029309 C135.170804,56.1552218 135.337385,55.8331855 135.525567,55.6371491 C135.714076,55.4411127 136.013204,55.2431127 136.422295,55.0444582 C136.651058,54.9315491 136.856913,54.8749309 137.039858,54.8749309 C137.262731,54.8749309 137.438476,54.9348218 137.56644,55.0542764 C137.694404,55.1743855 137.758222,55.3265673 137.758222,55.5121309 C137.758222,56.2403127 137.004513,56.75544 135.496767,57.0565309 C135.443095,57.3762764 135.416258,57.6142036 135.416258,57.7699855 C135.416258,57.9876218 135.478113,58.1623855 135.601495,58.2942764 C135.725531,58.42584 135.881313,58.4916218 136.070149,58.4916218 C136.212513,58.4916218 136.38204,58.4520218 136.576767,58.3728218 C136.772476,58.2936218 137.047385,58.1303127 137.402804,57.8828945" id="Fill-57"></path><path d="M138.252927,55.8306982 L138.160309,55.6893164 C138.627982,55.3401164 138.980455,55.1034982 139.2174,54.9797891 C139.351582,54.91008 139.463509,54.8750618 139.552527,54.8750618 C139.600964,54.8750618 139.6386,54.8907709 139.665436,54.9215345 C139.692273,54.9522982 139.705691,55.00008 139.705691,55.0645527 C139.705691,55.15848 139.692273,55.2785891 139.665436,55.4235709 L139.395764,56.6410255 C139.822855,55.9154618 140.182527,55.4088436 140.476091,55.1211709 C140.642345,54.9572073 140.795836,54.8750618 140.935582,54.8750618 C140.994491,54.8750618 141.068782,54.8897891 141.156818,54.9195709 C141.097909,55.1640436 141.050782,55.4556436 141.016091,55.7943709 L140.894673,55.8228436 C140.822673,55.7204073 140.736273,55.6693527 140.636455,55.6693527 C140.525836,55.6693527 140.410309,55.7125527 140.289545,55.7982982 C140.079109,55.9465527 139.882418,56.1769527 139.697509,56.4898255 C139.513582,56.8030255 139.372855,57.1466618 139.275655,57.52008 C139.251436,57.6087709 139.163727,58.0172073 139.012855,58.7453891 C138.845945,58.7777891 138.657436,58.8262255 138.447982,58.8910255 L138.379582,58.8301527 C138.581509,58.1474618 138.742527,57.4755709 138.8646,56.81448 C138.986018,56.1530618 139.046891,55.7446255 139.046891,55.5888436 C139.046891,55.4814982 139.0122,55.4274982 138.941836,55.4274982 C138.859036,55.4274982 138.628636,55.5620073 138.252927,55.8306982" id="Fill-59"></path><path d="M142.410927,53.4640255 C142.410927,53.3268982 142.459364,53.2061345 142.555909,53.1014073 C142.652455,52.9963527 142.760455,52.9439891 142.878927,52.9439891 C142.972855,52.9439891 143.046164,52.9734436 143.100491,53.03268 C143.154164,53.0915891 143.181327,53.1763527 143.181327,53.2866436 C143.181327,53.4371891 143.135836,53.5635164 143.045509,53.6656255 C142.956164,53.7677345 142.8534,53.8187891 142.737545,53.8187891 C142.643618,53.8187891 142.565727,53.7870436 142.503545,53.7242073 C142.441691,53.6610436 142.410927,53.5743164 142.410927,53.4640255 M141.400309,55.7820982 L141.3198,55.62108 C141.983836,55.1236255 142.420418,54.8752255 142.629545,54.8752255 C142.693364,54.8752255 142.743436,54.8932255 142.7778,54.9295527 C142.813145,54.96588 142.830164,55.0188982 142.830164,55.0889345 C142.830164,55.2581345 142.768309,55.5752618 142.644927,56.0403164 C142.329764,57.2256982 142.172345,57.9443891 142.172345,58.1973709 C142.172345,58.28868 142.213909,58.3344982 142.297691,58.3344982 C142.394236,58.3344982 142.610891,58.2134073 142.947327,57.9712255 L143.027836,58.1286436 C142.642964,58.4379164 142.325836,58.6624255 142.075473,58.8021709 C141.973036,58.86108 141.8778,58.8908618 141.789109,58.8908618 C141.716782,58.8908618 141.653945,58.8584618 141.601582,58.7939891 C141.549218,58.7295164 141.523036,58.6368982 141.523036,58.5158073 C141.523036,58.3410436 141.594055,57.9888982 141.736418,57.4593709 C142.017873,56.4219164 142.1586,55.7971527 142.1586,55.5844255 C142.1586,55.4826436 142.119327,55.4315891 142.041436,55.4315891 C141.955036,55.4315891 141.741655,55.5484255 141.400309,55.7820982" id="Fill-61"></path><path d="M145.64916,57.8425745 L145.74636,57.9957382 C145.030942,58.5923564 144.55116,58.8908291 144.306033,58.8908291 C144.225524,58.8908291 144.158433,58.8590836 144.10476,58.79592 C144.051087,58.7330836 144.024251,58.6460291 144.024251,58.5357382 C144.024251,58.4015564 144.08316,58.06152 144.201305,57.5159564 C144.365596,56.7740291 144.496178,56.1384655 144.593051,55.6089382 L144.294578,55.6046836 L143.895305,55.6089382 L143.915596,55.4760655 C144.179051,55.3949018 144.422542,55.2986836 144.645742,55.1854473 C144.710215,54.8709382 144.783524,54.3980291 144.866651,53.7663927 C145.084615,53.6963564 145.299633,53.6037382 145.511705,53.4882109 L145.604324,53.5608655 C145.537233,53.8295564 145.408287,54.3911564 145.217815,55.2459927 L145.644578,55.2584291 C145.814105,55.2584291 145.964978,55.2407564 146.096542,55.2057382 L146.132542,55.2459927 C146.095233,55.3749382 146.064142,55.5081382 146.039596,55.6452655 C145.773851,55.6236655 145.476687,55.6118836 145.149415,55.6089382 C144.843087,57.0551564 144.689596,57.8936291 144.689596,58.1246836 C144.689596,58.1973382 144.703015,58.2510109 144.729851,58.2857018 C144.756687,58.3210473 144.792033,58.3383927 144.834905,58.3383927 C144.950433,58.3383927 145.222069,58.17312 145.64916,57.8425745" id="Fill-63"></path><path d="M146.313916,55.8185236 L146.20068,55.6735418 C146.614353,55.3292509 146.923625,55.0981964 147.128171,54.9797236 C147.240753,54.9152509 147.344171,54.8831782 147.438425,54.8831782 C147.518935,54.8831782 147.583407,54.9152509 147.631844,54.9797236 C147.680607,55.0445236 147.704825,55.1492509 147.704825,55.2942327 C147.704825,55.4693236 147.679953,55.8695782 147.62988,56.4956509 C147.572607,57.1973236 147.543153,57.6689236 147.543153,57.9111055 C147.543153,58.0534691 147.558535,58.1487055 147.589625,58.1974691 C147.620389,58.2455782 147.66588,58.2697964 147.724789,58.2697964 C147.966971,58.2697964 148.301771,57.9323782 148.729516,57.2572145 C149.068244,56.7221236 149.333007,55.9762691 149.522825,55.0203055 C149.768935,54.9718691 149.974135,54.9234327 150.139407,54.8749964 L150.228425,54.9519055 C150.096862,55.2608509 149.922098,55.7704145 149.704135,56.4799418 L149.158244,58.3100509 C149.023407,58.7724873 148.863698,59.1877964 148.677807,59.5559782 C148.492244,59.92416 148.283444,60.2278691 148.050753,60.4671055 C147.818062,60.7063418 147.603044,60.8706327 147.407007,60.9589964 C147.210644,61.0480145 147.024098,61.0918691 146.846389,61.0918691 C146.628425,61.0918691 146.45268,61.0323055 146.319807,60.9118691 C146.186607,60.79176 146.120171,60.6307418 146.120171,60.4284873 L146.124098,60.3028145 C146.264171,60.24096 146.405225,60.1480145 146.547916,60.0236509 L146.620571,60.0642327 L146.616971,60.2452145 C146.616971,60.4039418 146.668025,60.5335418 146.770462,60.6346691 C146.872571,60.7351418 146.996607,60.7858691 147.141589,60.7858691 C147.249589,60.7858691 147.346789,60.7668873 147.434498,60.7292509 C147.52188,60.6916145 147.621044,60.6150327 147.731007,60.4998327 C147.841625,60.3839782 147.96108,60.1948145 148.091007,59.93136 C148.219953,59.66856 148.350535,59.3203418 148.482098,58.8880145 L148.90068,57.3449236 C148.487989,57.9421964 148.124716,58.3728873 147.810862,58.6363418 C147.594207,58.8166691 147.430571,58.9069964 147.320607,58.9069964 C147.218498,58.9069964 147.132098,58.8569236 147.06108,58.7574327 C146.990062,58.6582691 146.954389,58.4972509 146.954389,58.2740509 C146.954389,58.1339782 146.973698,57.8518691 147.011335,57.4270691 C147.062389,56.8546691 147.087916,56.3909236 147.087916,56.03616 C147.087916,55.7727055 147.072535,55.6074327 147.043407,55.5403418 C147.013953,55.4729236 146.973698,55.4395418 146.922316,55.4395418 C146.839189,55.4395418 146.635953,55.5661964 146.313916,55.8185236" id="Fill-65"></path></g></g></g></svg> 