<?xml version="1.0" encoding="UTF-8"?> <svg xmlns="http://www.w3.org/2000/svg" xmlns:xlink="http://www.w3.org/1999/xlink" width="68px" height="48px" viewBox="0 0 68 48"><!-- Generator: Sketch 50.2 (55047) - http://www.bohemiancoding.com/sketch --><title>logo-ips-plain</title><desc>Created with Sketch.</desc><defs></defs><g id="version-4" stroke="none" stroke-width="1" fill="none" fill-rule="evenodd"><g id="logo-ips-plain" fill="#0070AC"><path d="M57.8931632,28.7194638 L45.3340281,28.7194638 C43.1413103,28.7194638 41.363053,26.9426595 41.363053,24.7493968 L41.3721341,3.96970378 C41.3721341,1.77680432 43.1503914,0 45.3420195,0 L63.0530335,0 C65.2473859,0 67.0241903,1.77680432 67.0241903,3.96970378 L67.0071178,9.76615784 L58.7037405,18.8281686 L58.7153643,10.3004886 C58.7153643,9.98900757 58.4627286,9.73600865 58.1512476,9.73600865 L50.3927351,9.73600865 C50.0798011,9.73600865 49.8269838,9.98900757 49.8269838,10.3004886 L49.8427849,18.4202465 C49.8427849,18.7324541 50.0939676,18.9847265 50.4069016,18.9847265 L63.0530335,18.9685622 C65.2473859,18.9685622 67.0241903,20.746093 67.0241903,22.9380843 L67.0136562,43.7397535 C67.0136562,45.9321081 65.2353989,47.7094573 63.0424995,47.7094573 L45.33312,47.7094573 C43.1398573,47.7094573 41.3614184,45.9321081 41.3614184,43.7397535 L41.3799438,31.0384086 L49.8427849,31.0384086 L49.8231697,38.1539805 C49.8231697,38.4661881 50.0745341,38.7177341 50.3874681,38.7177341 L58.1457989,38.7177341 C58.458733,38.7177341 58.7100973,38.4661881 58.7100973,38.1539805 L58.7429708,29.2866681 C58.7429708,28.9750054 58.4903351,28.7221881 58.1781276,28.7221881" id="Fill-1"></path><path d="M38.6058551,3.81732324 L38.6252886,24.7290551 C38.6252886,26.9215914 36.8484843,28.6993038 34.6554032,28.6993038 L21.0628411,28.7194638 L21.0563027,47.71872 L12.7476584,47.71872 L12.7660022,18.9738292 L21.0681081,9.91163676 L21.059027,18.3287092 C21.059027,18.6403719 21.3118443,18.8935524 21.623507,18.8935524 L29.3831092,18.8935524 C29.6949535,18.8935524 29.9477708,18.6403719 29.9477708,18.3287092 L29.9790097,10.3251892 C29.9790097,10.0137081 29.7274638,9.7599827 29.4158011,9.7599827 L12.6121686,9.76615784 L12.6121686,0 L34.6463222,0 C36.8394032,0 38.6172973,1.77680432 38.6172973,3.96970378" id="Fill-3"></path><polyline id="Fill-4" points="0 47.71872 0.0176172973 18.9738292 8.32081297 9.91163676 8.3084627 47.71872 0 47.71872"></polyline><polygon id="Fill-5" points="0.0108972973 9.71657514 8.27068541 9.71657514 8.27068541 0.0690162162 0.0108972973 0.0690162162"></polygon></g></g></svg> 