<?xml version="1.0" encoding="UTF-8"?> <svg xmlns="http://www.w3.org/2000/svg" xmlns:xlink="http://www.w3.org/1999/xlink" width="109px" height="72px" viewBox="0 0 109 72"><!-- Generator: Sketch 50.2 (55047) - http://www.bohemiancoding.com/sketch --><title>Famers' Choice Logo</title><desc>Created with Sketch.</desc><defs></defs><g id="Famers'-Choice-Logo" stroke="none" stroke-width="1" fill="none" fill-rule="evenodd"><g id="Group"><g id="Group-4" transform="translate(2.244989, 0.000000)"><path d="M104.788335,50.2075082 C103.594161,22.3200962 80.6191056,0.0762654788 52.4385621,0.0762654788 C24.2559341,0.0762654788 1.28472695,22.3213791 0.0908739421,50.2086307 C0.085742539,50.3232855 0.100816036,50.4384214 0.100816036,50.553878 C0.100816036,56.2813256 4.72517238,60.9298958 10.45262,60.9298958 L94.4022147,60.9298958 C100.129502,60.9298958 104.780798,56.2813256 104.780798,50.553878 C104.780798,50.4384214 104.792344,50.3232855 104.788335,50.2075082" id="Fill-1" fill="#233881"></path><path d="M104.788335,50.2075082 C103.594161,22.3200962 80.6191056,0.0762654788 52.4385621,0.0762654788 C24.2559341,0.0762654788 1.28472695,22.3213791 0.0908739421,50.2086307 C0.085742539,50.3232855 0.100816036,50.4384214 0.100816036,50.553878 C0.100816036,56.2813256 4.72517238,60.9298958 10.45262,60.9298958 L94.4022147,60.9298958 C100.129502,60.9298958 104.780798,56.2813256 104.780798,50.553878 C104.780798,50.4384214 104.792344,50.3232855 104.788335,50.2075082" id="Stroke-3" stroke="#FFFFFE" stroke-width="0.5"></path></g><path d="M5.14063964,50.2064178 C6.33433229,23.8683688 28.0494682,2.87916615 54.683535,2.87916615 C81.3158379,2.87916615 103.025522,23.867086 104.227392,50.2022486 C104.233967,50.3193087 104.223544,50.4362085 104.223544,50.55391 C104.223544,54.7326361 100.826074,58.1321906 96.6473479,58.1321906 L12.6967911,58.1321906 C8.51822539,58.1321906 5.1484971,54.7326361 5.1484971,50.55391 C5.1484971,50.4384535 5.13534788,50.3204312 5.14063964,50.2064178" id="Fill-5" fill="#FFFFFE"></path><path d="M85.7344249,50.55391 C85.7344249,51.9462842 86.837837,53.0796829 88.2319751,53.0796829 L96.6445898,53.0819278 C98.0380864,53.0819278 99.2231198,51.9098833 99.1889639,50.5171884 C98.6131243,26.9855359 78.6197345,7.92413719 54.6807768,7.92413719 C30.7597791,7.92413719 11.3156098,26.7769122 10.1796454,50.430596 C10.1777212,50.4726094 10.1921532,50.5131795 10.1921532,50.55391 C10.1921532,51.947567 11.3090352,53.0819278 12.7022111,53.0819278 L21.0381755,53.0819278 C22.4308704,53.0819278 23.6229595,51.9400303 23.6229595,50.5473354 C23.6229595,34.2419813 38.1538102,21.3780347 54.6807768,21.3780347 C71.2098281,21.3780347 84.7280285,34.267478 85.7331421,50.5407608 M101.965213,50.2075403 C101.971788,50.321714 101.975316,50.4384535 101.975316,50.55391 C101.975316,53.4953265 99.5752624,55.8864 96.6338459,55.8864 L12.6909862,55.8864 C9.7506922,55.8864 7.38479465,53.4953265 7.38479465,50.55391 C7.38479465,50.446792 7.37292829,50.3279679 7.37886147,50.2205292 C8.87258085,25.1364668 29.2806521,5.12094788 54.6775697,5.12094788 C80.0712802,5.12094788 100.799262,25.1076027 101.990069,50.2075403" id="Fill-7" fill="#DC3E2A"></path><path d="M12.8858993,41.7949096 C12.9285541,41.4878272 13.0138637,40.8749452 13.2276187,40.7004775 C13.5355029,40.4458316 14.5170441,40.5139831 14.8906744,40.5656178 C15.2232535,40.611159 15.484955,40.7841835 15.4333203,41.1573327 C15.3055163,42.076816 14.1701933,41.3486379 13.8589416,43.5875332 C13.7178281,44.6006646 13.8648748,44.7162815 14.5840731,44.8160232 L16.5835563,45.0945621 L16.7767857,43.7081212 C16.92271,42.6563439 16.3487947,42.7794976 16.4259261,42.2200143 C16.4786833,41.8460633 16.7307635,41.6913194 17.7036454,41.8261791 C18.6762067,41.9615198 18.9032713,42.183453 18.8514762,42.5561212 C18.7720998,43.1293951 18.2549506,42.8394708 18.1085452,43.8918895 L17.9164383,45.2776891 L20.6349595,45.6570922 C21.3541577,45.7566735 21.1323849,45.0060454 21.8252846,45.1020989 C22.1586655,45.149404 22.334416,45.3503305 22.2399661,46.0299207 L21.8360285,48.9344552 C21.7414183,49.6146869 21.5175608,49.7601301 21.1845007,49.7144285 C20.4912802,49.6170922 20.9093292,48.9556223 20.1891688,48.8558806 L13.6865586,47.9503483 C12.9665586,47.8504463 13.1883314,48.6007537 12.4952713,48.505502 C12.1620508,48.4598004 11.9869416,48.25711 12.0807501,47.5778405 L12.8858993,41.7949096 Z" id="Fill-9" fill="#DC3E2A"></path><path d="M22.468522,39.7160659 C22.7401657,39.1304445 21.9710967,38.5504356 20.9209229,38.0651973 C20.5707047,38.8211171 20.742767,39.5691795 21.5240232,39.9312641 C21.9507314,40.1277007 22.3214753,40.0338922 22.468522,39.7160659 Z M23.6064107,36.0479145 C24.3629719,36.3984535 24.456139,35.6858298 25.0061612,35.9403154 C25.3353728,36.0939367 25.355257,36.3697497 25.1742147,36.7603777 L24.3309007,38.5780169 C24.0762548,39.1278788 23.9234352,39.2341951 23.3288339,39.0768855 C23.7454396,39.7454111 23.5472392,40.587282 23.2420811,41.2461862 C22.5228829,42.7968321 21.1940098,43.0404134 20.2669898,42.6100169 C18.9971278,42.020547 18.6656713,40.5625871 19.9900543,37.7069612 C19.0267938,37.2893933 18.7163439,37.3825604 18.484629,37.8838343 C18.1618316,38.5799412 19.0774664,39.0036027 18.6185265,39.9918788 C18.3074352,40.6634512 17.8382325,40.8764045 17.4238717,40.6833354 C16.7155777,40.3554067 16.6759697,39.2248944 17.6382682,37.1498833 C18.4192036,35.466302 19.5306334,34.1566717 21.4584374,35.0517808 L23.6064107,36.0479145 Z" id="Fill-11" fill="#DC3E2A"></path><path d="M26.529739,31.6370245 C27.1912089,32.0970869 27.3409817,31.3648998 27.8372846,31.7115902 C28.1361889,31.9192517 28.1454895,32.1881693 27.7766699,32.718147 L26.2829506,34.8585835 C25.9155742,35.3892027 25.6583626,35.472588 25.361543,35.2657283 C24.8644383,34.9203207 25.4996098,34.525363 24.8366967,34.0651403 L22.9165898,32.7261648 C21.8567947,31.9872428 21.5974984,32.971029 21.0680018,32.6025301 C20.8257033,32.4320713 20.804857,32.1565791 20.9900686,31.5151537 C21.0904517,31.1580401 21.485249,30.0721069 21.6937122,29.7744855 C22.0549951,29.2560535 22.7315385,29.5790111 23.1625764,29.830931 L23.178612,29.8096036 C22.8301577,29.1563118 22.7166254,28.3073853 23.1625764,27.666441 C23.5472713,27.1143341 24.2579706,27.0354388 24.7988526,27.413559 C25.3273871,27.7820579 25.4745942,28.4425657 25.0992,28.9831269 C24.9364383,29.2140401 24.6803492,29.3476169 24.5270486,29.5682673 C24.3577122,29.8110468 24.4544071,30.190931 24.8957078,30.497853 L26.529739,31.6370245 Z" id="Fill-13" fill="#DC3E2A"></path><path d="M36.3009087,25.1980276 C35.829461,25.5580276 35.4750735,25.5580276 35.2876169,25.3122013 C34.9606503,24.8858138 35.4976837,24.7464641 35.1550022,24.2976267 L33.5288285,22.1690566 C32.9738352,21.4432837 32.6114298,21.3473906 32.2597684,21.6167893 C31.9068241,21.8858673 31.9057016,22.2594976 32.4606949,22.9862325 L34.0855857,25.1143216 C34.4277862,25.563159 34.7032784,25.0812882 35.0316882,25.5078361 C35.2180223,25.7543038 35.1248552,26.0971457 34.6550111,26.4565042 L32.8805078,27.8124775 C32.4093808,28.1719964 32.055314,28.1719964 31.8673764,27.9263305 C31.5405702,27.4984998 32.0772829,27.3594708 31.7347617,26.9109541 L30.1084276,24.7831857 C29.5535947,24.0564508 29.1913497,23.960718 28.8396882,24.229796 C28.4865835,24.4999964 28.485461,24.8736267 29.0391715,25.5995599 L30.6651849,27.7270076 C31.007706,28.175845 31.2831982,27.6942949 31.6114477,28.1221256 C31.7977817,28.3687537 31.7044543,28.7103127 31.2334878,29.0696713 L29.4589844,30.4266067 C28.989461,30.786767 28.6349131,30.786767 28.445853,30.5394976 C28.1203296,30.1113461 28.6572027,29.9724775 28.3146815,29.5234797 L26.4930334,27.1405844 C25.9050067,26.3711947 25.7040802,27.1511679 25.3274031,26.6588739 C25.099216,26.3594886 25.5086058,25.8096267 25.6689621,25.5525755 C25.8905746,25.1795866 26.4353051,24.3398004 26.7763831,24.0798628 C27.1835278,23.7689318 27.5496214,24.1149808 27.8393853,24.3847002 C27.8972739,23.5954263 28.3486771,22.8776713 28.9788775,22.397404 C29.5877506,21.9304463 30.4408463,21.7189363 31.1653363,22.0454218 C31.0930156,21.1531991 31.6401514,20.3631234 32.3136481,19.8487002 C33.6062806,18.8589808 34.8033408,18.9612882 35.7823163,20.2451011 L37.5067884,22.4997114 C37.8480267,22.9488695 38.1236793,22.4682815 38.4517684,22.8962726 C38.6395457,23.1401746 38.5462183,23.4838183 38.0750913,23.8434976 L36.3009087,25.1980276 Z" id="Fill-15" fill="#DC3E2A"></path><path d="M40.3732383,16.7223929 C39.7431982,16.9611635 39.6723207,17.9943394 40.0727305,19.0506067 C40.7932116,18.7513817 41.4020846,18.0036401 41.0977283,17.1976891 C40.988686,16.9077648 40.7248998,16.5900989 40.3732383,16.7223929 M40.0517238,15.6071145 C41.9768018,14.8798984 43.3550646,15.480914 43.6831537,16.3498851 C44.2487305,17.8487359 42.4876971,18.9733149 40.5818619,20.0954886 C40.9859599,20.6334842 41.6698797,20.9221256 42.3757684,20.6544909 C43.5466904,20.2135109 43.6307171,19.0296 44.1608552,18.8304374 C44.4116526,18.7358272 44.7065479,18.7961212 44.811902,19.0744998 C45.13951,19.9420276 43.6528463,21.5245844 42.1552784,22.0903216 C40.3050869,22.7885131 38.0422984,22.4352481 37.2732294,20.3959964 C36.4647127,18.2566824 38.1394744,16.3300009 40.0517238,15.6071145" id="Fill-17" fill="#DC3E2A"></path><path d="M48.6807555,18.2844561 C48.8435171,19.0745318 49.4563991,18.6452579 49.5785906,19.2369728 C49.6518735,19.5940864 49.4751608,19.7961354 48.8420739,19.9260241 L46.2866352,20.4552 C45.6541898,20.5860508 45.4101274,20.4723581 45.3365238,20.1162067 C45.2133702,19.5232089 45.945878,19.6750664 45.7827955,18.8840285 L45.3074993,16.5912535 C45.0453167,15.3273247 44.1817978,15.8641978 44.0504659,15.2319127 C43.9901719,14.9416677 44.1659225,14.7263091 44.7406396,14.3863537 C45.0586263,14.1972935 46.0927644,13.6815875 46.448114,13.6081443 C47.0664481,13.4796989 47.3355261,14.1790129 47.4758379,14.6596009 L47.5022967,14.6541488 C47.6992143,13.9404027 48.2001675,13.2446165 48.9642655,13.0871465 C49.622849,12.9506833 50.1930762,13.380759 50.3268134,14.0268347 C50.4578245,14.6596009 50.1112944,15.2394494 49.4656998,15.3735073 C49.188604,15.4312356 48.9116686,15.3508971 48.6478824,15.4047768 C48.3577978,15.4649105 48.1672944,15.8064695 48.2766575,16.3338815 L48.6807555,18.2844561 Z" id="Fill-19" fill="#DC3E2A"></path><path d="M52.7649194,10.7616428 C52.8765274,11.9951038 51.3765541,13.3445024 50.8804116,13.3890815 C50.7203759,13.4047964 50.439592,13.2943109 50.4235563,13.1200036 C50.4132935,12.9994156 51.0863091,12.370498 51.2673514,11.6803243 C51.1493292,11.7168855 51.0314673,11.7550503 50.9105586,11.7656339 C50.3472267,11.8167875 49.8595831,11.4819635 49.8066655,10.9058031 C49.7414004,10.1684846 50.4631644,9.6447608 51.120465,9.58574967 C51.884563,9.51711715 52.6898726,9.91752695 52.7649194,10.7616428" id="Fill-21" fill="#DC3E2A"></path><path d="M54.10351,19.3565345 C52.0863875,19.310833 50.9749577,18.4758575 50.9932383,17.6830557 C51.002539,17.2933898 51.3056125,16.9640178 51.7097105,16.9729978 C52.5297728,16.9917595 52.5297728,18.1634833 53.6734343,18.1901024 C54.1298085,18.2003653 54.6456748,18.0231715 54.6551359,17.6072071 C54.6799911,16.5442049 51.1903163,17.3381292 51.2451581,14.9848998 C51.2791537,13.4781915 52.7807305,12.5173363 54.8126058,12.5649621 C55.5249087,12.5805167 56.5293808,12.8192873 57.0750735,13.0611047 C57.5016214,13.2445523 57.6028062,13.5165167 57.5853274,14.2565612 C57.5777906,14.6054967 57.447902,14.9533096 57.0319376,14.9430468 C56.2782628,14.9258886 56.4947439,13.679118 55.2583964,13.6513764 C54.6941024,13.6383875 54.3663341,13.8457283 54.3570334,14.2209621 C54.3320178,15.2842851 57.8207305,14.5439198 57.7650869,16.9917595 C57.7322138,18.3905479 56.3635724,19.4075278 54.10351,19.3565345" id="Fill-23" fill="#DC3E2A"></path><path d="M69.1129604,11.8259599 C70.1334682,12.2416036 71.2072143,13.0294343 71.8159269,13.9599822 C72.1364793,14.4545212 72.1286218,14.6541648 71.6158022,15.9111982 C71.4565684,16.2984588 71.0972098,16.3983608 70.7112321,16.2410512 C69.7516597,15.8499421 70.9472766,13.8822094 68.8544659,13.0279911 C67.2861808,12.3873675 65.8625372,13.5230111 65.0349381,15.5518396 C63.9623145,18.1805612 64.7814147,19.5902539 66.2018512,20.16898 C67.8345996,20.8354209 68.9667154,19.5544944 69.6517577,19.8328731 C69.9631697,19.9603563 70.0808713,20.313461 69.9590004,20.6123653 C69.4869114,21.7699777 66.8121675,21.987902 65.4164258,21.4184766 C62.1541363,20.0875189 60.6923278,17.2969978 61.8545906,14.444098 C63.0032232,11.6292027 66.4473568,10.7379421 69.1129604,11.8259599" id="Fill-25" fill="#DC3E2A"></path><path d="M75.4558076,19.5075742 C76.0935448,19.5442958 76.7611082,19.7291866 77.2655893,20.0638503 C78.7440748,21.0481176 78.8467029,22.3768303 77.916155,23.7754584 L76.5970637,25.7582646 C76.2024267,26.3528659 76.7484401,26.4553336 76.4487341,26.9040107 C76.3230147,27.094514 75.9580437,27.2074049 75.5760748,26.9542022 L73.4252151,25.5236633 C73.0448499,25.2715831 73.0068454,24.8894539 73.134008,24.6997523 C73.4313087,24.2518771 73.737429,24.713543 74.1323866,24.1195831 L75.5930726,21.9249461 C75.9344713,21.4090797 76.0358165,20.8933737 75.5983644,20.6032891 C75.161233,20.3133648 74.7255448,20.6045719 74.3830236,21.1189951 L72.922498,23.3160374 C72.5272196,23.9093559 73.0735537,24.0127857 72.7744891,24.4605007 C72.6482886,24.6524472 72.283478,24.7651777 71.9032731,24.5103715 L69.7506494,23.0799929 C69.3699635,22.827592 69.3329212,22.4472267 69.4588009,22.2568837 C69.7570637,21.8094895 70.0623822,22.2711555 70.4597452,21.6765541 L72.0522441,19.278906 L74.0932597,16.2106477 C74.5098655,15.5833336 73.6966984,15.3969996 74.0395403,14.8825764 C74.2334111,14.5913693 74.5052151,14.5464695 74.9712107,14.7906922 C75.5576339,15.1005007 76.9349345,15.5807679 77.1589523,15.7289372 C77.4963421,15.9521532 77.5694646,16.3261042 77.0345158,17.1322156 L75.4558076,19.5075742 Z" id="Fill-27" fill="#DC3E2A"></path><path d="M79.4919608,29.2113942 C79.9403171,29.7493898 80.7437024,29.537078 81.8918539,28.5819955 C83.0400053,27.6285167 83.395355,26.8777283 82.9484419,26.3397327 C82.5015287,25.8015768 81.6983038,26.0142094 80.5493506,26.96849 C79.4018405,27.9224499 79.0450477,28.6732383 79.4919608,29.2113942 M83.8698494,30.9621648 C82.1633372,32.3612739 79.8671947,31.4714566 78.6026245,29.9512784 C77.3386958,28.4306192 76.8836045,26.0087572 78.5727982,24.5891225 C80.2770655,23.1887305 82.5740098,24.079029 83.8379385,25.5995278 C85.1028294,27.1208285 85.5572793,29.5422094 83.8698494,30.9621648" id="Fill-29" fill="#DC3E2A"></path><path d="M88.7608463,28.72351 C89.3395724,28.3806682 90.1947528,28.6075724 90.7309844,29.5102183 C91.2662539,30.4135056 91.0558664,31.2731759 90.4777817,31.6161782 C89.8984143,31.9596615 89.0430735,31.731314 88.5073229,30.8283474 C87.9720535,29.926343 88.1819599,29.0669933 88.7608463,28.72351 Z M85.5344766,31.0906904 C86.1834388,30.7077595 85.5303073,30.1880445 86.0626904,29.8702183 C86.3631982,29.6915813 86.765853,29.9228151 87.0801514,30.347118 C87.4744677,30.8795011 88.3690958,31.7563296 88.5073229,31.9872428 C88.7138619,32.3350557 88.618931,32.7035546 87.785559,33.198735 L84.4538352,35.1748062 C83.8403118,35.5389755 84.2870646,35.8675457 83.8231537,36.1433586 C83.6267171,36.2605791 83.2484365,36.2028508 83.015118,35.8102984 L81.697951,33.5867973 C81.4638307,33.1947261 81.5938797,32.8347261 81.7904766,32.718147 C82.2537461,32.4439376 82.3302361,32.9936392 82.9423163,32.6291492 L85.5344766,31.0906904 Z" id="Fill-31" fill="#DC3E2A"></path><path d="M89.5331866,40.3210102 C89.1388704,39.2910414 90.35822,38.8234423 90.0928303,38.133429 C89.8566254,37.5181416 88.9879751,37.3600303 87.6097122,37.8601817 C86.2551822,38.3513532 85.9768036,39.350694 86.2479661,40.0548187 C86.6329817,41.0596116 87.7200374,41.190302 87.9034851,41.6675225 C87.9992178,41.9188009 87.8383804,42.2112909 87.5859795,42.307184 C86.6701844,42.6588454 85.2067724,41.1739457 84.7147991,39.8935002 C83.9927145,38.0086717 84.4284027,35.7654468 86.4756722,34.9806628 C88.5364116,34.1905871 90.3093114,35.4691082 91.0416588,37.3800748 C91.746906,39.2131082 91.5208036,40.6542307 90.6653024,40.981518 C90.1386922,41.183567 89.7171154,40.7987118 89.5331866,40.3210102" id="Fill-33" fill="#DC3E2A"></path><path d="M92.6831465,45.9042013 C92.5758682,45.2414486 91.576367,44.9672392 90.4615697,45.149404 C90.6127857,45.9144641 91.2255073,46.6599608 92.0745942,46.5225354 C92.3803938,46.4725042 92.744082,46.2752659 92.6831465,45.9042013 M93.8410797,45.8110343 C94.1720552,47.8427492 93.3082156,49.0734842 92.3919394,49.2234174 C90.8116276,49.4799875 90.0585942,47.5313372 89.3368303,45.4406111 C88.7306833,45.7306958 88.3116722,46.3435777 88.4340241,47.0879519 C88.6335073,48.3228561 89.7766878,48.6402013 89.8669684,49.1982414 C89.9105853,49.4634708 89.7924027,49.7415287 89.4999127,49.7896356 C88.5834762,49.938286 87.3290085,48.1679519 87.070514,46.5878004 C86.7528481,44.6351412 87.5469327,42.4889318 89.6992356,42.1388739 C91.9556098,41.7716579 93.5112267,43.7924686 93.8410797,45.8110343" id="Fill-35" fill="#DC3E2A"></path><path d="M2.66459332,64.7205434 C3.04111002,64.7205434 3.12754209,64.8461024 3.12754209,65.0656303 C3.12754209,65.3169087 2.77443742,65.3169087 2.77443742,65.5364365 C2.77443742,65.960098 3.75533719,67.262833 3.86518129,67.4273586 C4.13971136,67.121559 4.96362227,65.8739866 4.96362227,65.5364365 C4.96362227,65.356196 4.61837506,65.3323029 4.61837506,65.0500757 C4.61837506,64.8773719 4.75179154,64.7205434 5.08132383,64.7205434 L5.81896303,64.7205434 C6.19547973,64.7205434 6.34445078,64.7989577 6.34445078,65.0342004 C6.34445078,65.3088909 6.06206325,65.3794477 5.82682049,65.7248552 L4.23384053,68.0785657 L4.23384053,69.5066993 C4.23384053,69.9305212 4.64964454,69.7421024 4.64964454,70.150049 C4.64964454,70.3463252 4.54765791,70.4640267 4.14756882,70.4640267 L2.43704766,70.4640267 C2.03679822,70.4640267 1.93481158,70.3463252 1.93481158,70.150049 C1.93481158,69.7421024 2.35077595,69.9305212 2.35077595,69.5066993 L2.35077595,68.1884098 C1.98981381,67.7334788 1.12661559,66.4153497 0.828352784,65.834539 C0.553983073,65.3011938 0.145876169,65.4344499 0.145876169,65.0579332 C0.145876169,64.8461024 0.295007572,64.7205434 0.640254788,64.7205434 L2.66459332,64.7205434 Z" id="Fill-37" fill="#D9252A"></path><path d="M8.19579688,69.8677577 C8.60374343,69.8677577 8.8077167,69.4283813 8.8077167,68.557486 C8.8077167,67.6862699 8.60374343,67.2470539 8.19579688,67.2470539 C7.78785033,67.2470539 7.58387706,67.6862699 7.58387706,68.557486 C7.58387706,69.4283813 7.78785033,69.8677577 8.19579688,69.8677577 M10.6125274,68.557486 C10.6046699,69.8441853 9.34924009,70.5425372 8.19579688,70.5425372 C7.04235367,70.5425372 5.78692383,69.8441853 5.77922673,68.557486 C5.78692383,67.2707866 7.04235367,66.572114 8.19579688,66.572114 C9.34924009,66.572114 10.6046699,67.2707866 10.6125274,68.557486" id="Fill-39" fill="#D9252A"></path><path d="M12.8876312,69.0518806 C12.8876312,69.5539563 13.0601746,69.7422147 13.3034352,69.7422147 C13.5466958,69.7422147 13.7192392,69.5539563 13.7192392,69.0518806 L13.7192392,67.623747 C13.7192392,67.3019118 13.373992,67.3962013 13.373992,67.1449229 C13.373992,66.9409497 13.4368517,66.8782503 13.6409853,66.8311056 L14.6687091,66.6037203 C14.7628383,66.5801479 14.8414129,66.5721301 14.9668116,66.5721301 C15.3513461,66.5721301 15.4456356,66.7448339 15.4456356,67.1609586 L15.4456356,69.4909363 C15.4456356,69.9774575 15.8457247,69.7891991 15.8457247,70.173894 C15.8457247,70.385404 15.7123082,70.464139 15.3513461,70.464139 L14.3863216,70.464139 C14.0173416,70.464139 13.9232125,70.4091367 13.852816,70.0403171 C13.4525666,70.4091367 13.083747,70.5425532 12.5345265,70.5425532 C11.6163261,70.5425532 11.1612347,70.1971457 11.1612347,68.9656089 L11.1612347,67.623747 C11.1535376,67.2627849 10.8161479,67.3724686 10.8161479,67.066669 C10.8161479,66.9409497 10.8945621,66.8466601 11.0751234,66.8076935 L12.1107047,66.6037203 C12.2049942,66.587845 12.2834085,66.5721301 12.4089675,66.5721301 C12.793502,66.5721301 12.8876312,66.7448339 12.8876312,67.1609586 L12.8876312,69.0518806 Z" id="Fill-41" fill="#D9252A"></path><path d="M18.3717702,69.5066512 C18.3717702,69.9776178 18.7720196,69.8047537 18.7720196,70.1580187 C18.7720196,70.3700098 18.6464606,70.464139 18.2697835,70.464139 L16.7476811,70.464139 C16.3708437,70.464139 16.245445,70.3700098 16.245445,70.1580187 C16.245445,69.8047537 16.6456944,69.9776178 16.6456944,69.5066512 L16.6456944,68.1413773 C16.6456944,67.3881835 16.0884561,67.5921568 16.0884561,67.2158004 C16.0884561,67.0429363 16.2140151,66.9409497 16.5828347,66.8153906 C16.786808,66.7448339 17.4381755,66.5721301 17.6500062,66.5721301 C18.0186655,66.5721301 18.0893826,67.0038094 18.1127947,67.293894 L18.1285096,67.293894 C18.3246254,66.9095198 18.693445,66.5721301 19.1485363,66.5721301 C19.5409283,66.5721301 19.8156187,66.8859474 19.8156187,67.2708027 C19.8156187,67.6469987 19.5487857,67.9375644 19.1642512,67.9375644 C18.9995653,67.9375644 18.8504339,67.8591501 18.693445,67.8591501 C18.5209016,67.8591501 18.3717702,68.0316935 18.3717702,68.3455109 L18.3717702,69.5066512 Z" id="Fill-43" fill="#D9252A"></path><path d="M26.1232837,68.1102682 C25.8566111,68.1102682 25.7231947,68.0079608 25.7231947,67.749306 C25.7231947,67.4980276 25.8408962,67.356914 26.2490031,67.356914 L28.0849229,67.356914 C28.5714441,67.356914 28.7205755,67.4196134 28.7205755,67.6550165 C28.7205755,67.8902592 28.626286,68.2983661 28.626286,68.580914 C28.626286,68.996718 28.7598628,69.302678 28.7598628,69.467845 C28.7598628,70.1030165 26.8294931,70.5895376 26.1548739,70.5895376 C24.2714886,70.5895376 22.8120855,69.5380811 22.8120855,67.5921568 C22.8120855,65.6856802 24.3814931,64.5950967 26.1548739,64.5950967 C26.7980633,64.5950967 27.5199875,64.7440677 28.0377782,65.0264552 C28.4301702,65.2384463 28.4617604,65.4892437 28.4617604,65.7406824 L28.4617604,66.2427581 C28.4617604,66.5095911 28.2183394,66.564433 28.0770655,66.564433 C27.504433,66.564433 27.6612615,65.3011457 26.4451189,65.3011457 C25.5897782,65.3011457 24.7737247,66.0229096 24.7737247,67.5921568 C24.7737247,68.8163171 25.3545354,69.7422147 26.0920143,69.7422147 C26.5783751,69.7422147 26.884335,69.5380811 26.884335,68.683061 C26.884335,68.1883617 26.7667938,68.1102682 26.5471056,68.1102682 L26.1232837,68.1102682 Z" id="Fill-45" fill="#D9252A"></path><path d="M30.932563,69.0518806 C30.932563,69.5539563 31.1051065,69.7422147 31.348367,69.7422147 C31.5916276,69.7422147 31.764171,69.5539563 31.764171,69.0518806 L31.764171,67.623747 C31.764171,67.3019118 31.4189238,67.3962013 31.4189238,67.1449229 C31.4189238,66.9409497 31.4817835,66.8782503 31.6857568,66.8311056 L32.713641,66.6037203 C32.8077702,66.5801479 32.8863448,66.5721301 33.0117434,66.5721301 C33.3964383,66.5721301 33.4905675,66.7448339 33.4905675,67.1609586 L33.4905675,69.4909363 C33.4905675,69.9774575 33.8906566,69.7891991 33.8906566,70.173894 C33.8906566,70.385404 33.7572401,70.464139 33.3964383,70.464139 L32.4312535,70.464139 C32.0624339,70.464139 31.9681443,70.4091367 31.8977479,70.0403171 C31.4974984,70.4091367 31.1286788,70.5425532 30.5794584,70.5425532 C29.6612579,70.5425532 29.2061666,70.1971457 29.2061666,68.9656089 L29.2061666,67.623747 C29.1984695,67.2627849 28.8610797,67.3724686 28.8610797,67.066669 C28.8610797,66.9409497 28.939494,66.8466601 29.1200552,66.8076935 L30.1556365,66.6037203 C30.2499261,66.587845 30.3283403,66.5721301 30.4538993,66.5721301 C30.8384339,66.5721301 30.932563,66.7448339 30.932563,67.1609586 L30.932563,69.0518806 Z" id="Fill-47" fill="#D9252A"></path><path d="M36.2834459,69.7579938 C36.6601229,69.7579938 36.7776641,69.2084526 36.7776641,68.5338334 C36.2913033,68.5338334 35.9381987,68.8083635 35.9381987,69.3105996 C35.9381987,69.58529 36.0793122,69.7579938 36.2834459,69.7579938 Z M38.5039002,69.4598913 C38.5039002,69.9462521 38.9041497,69.8208535 38.9041497,70.1739581 C38.9041497,70.3854682 38.7628757,70.4640428 38.5117577,70.4640428 L37.3425996,70.4640428 C36.9896552,70.4640428 36.8953657,70.4092009 36.832506,70.0560962 C36.581388,70.44031 36.0871697,70.5426174 35.6635082,70.5426174 C34.6668935,70.5426174 34.2119626,69.898947 34.2119626,69.3025817 C34.2119626,68.4866886 34.902457,67.9533434 36.7385372,67.9533434 C36.7226619,67.3411029 36.5972633,67.199829 36.2754281,67.199829 C35.8281942,67.199829 35.8281942,67.7884971 35.192702,67.7884971 C34.7611831,67.7884971 34.5336374,67.5920606 34.5336374,67.3255483 C34.5336374,66.8702967 35.1219849,66.5721942 36.4559893,66.5721942 C37.5388757,66.5721942 38.5039002,66.8390272 38.5039002,68.0785817 L38.5039002,69.4598913 Z" id="Fill-49" fill="#D9252A"></path><path d="M41.2811118,69.5066512 C41.2811118,69.9776178 41.6812009,69.8047537 41.6812009,70.1580187 C41.6812009,70.3700098 41.5558022,70.464139 41.1791252,70.464139 L39.6570227,70.464139 C39.2801853,70.464139 39.1547866,70.3700098 39.1547866,70.1580187 C39.1547866,69.8047537 39.5548757,69.9776178 39.5548757,69.5066512 L39.5548757,68.1413773 C39.5548757,67.3881835 38.9977978,67.5921568 38.9977978,67.2158004 C38.9977978,67.0429363 39.1231964,66.9409497 39.4921764,66.8153906 C39.6961497,66.7448339 40.3473568,66.5721301 40.5591875,66.5721301 C40.9280071,66.5721301 40.9987243,67.0038094 41.0221363,67.293894 L41.0376909,67.293894 C41.233967,66.9095198 41.6027866,66.5721301 42.057878,66.5721301 C42.4501096,66.5721301 42.7248,66.8859474 42.7248,67.2708027 C42.7248,67.6469987 42.4581274,67.9375644 42.0735929,67.9375644 C41.9089069,67.9375644 41.7597755,67.8591501 41.6027866,67.8591501 C41.4302432,67.8591501 41.2811118,68.0316935 41.2811118,68.3455109 L41.2811118,69.5066512 Z" id="Fill-51" fill="#D9252A"></path><path d="M44.9137924,69.7579938 C45.2903091,69.7579938 45.4080107,69.2084526 45.4080107,68.5338334 C44.9214895,68.5338334 44.5685452,68.8083635 44.5685452,69.3105996 C44.5685452,69.58529 44.7096588,69.7579938 44.9137924,69.7579938 Z M47.1342468,69.4598913 C47.1342468,69.9462521 47.5343359,69.8208535 47.5343359,70.1739581 C47.5343359,70.3854682 47.3930619,70.4640428 47.1421042,70.4640428 L45.9729461,70.4640428 C45.6198414,70.4640428 45.5257122,70.4092009 45.4628526,70.0560962 C45.2117345,70.44031 44.7175163,70.5426174 44.2938548,70.5426174 C43.2972401,70.5426174 42.8421488,69.898947 42.8421488,69.3025817 C42.8421488,68.4866886 43.5328036,67.9533434 45.3688837,67.9533434 C45.3530085,67.3411029 45.2276098,67.199829 44.9057746,67.199829 C44.4585408,67.199829 44.4585408,67.7884971 43.8230486,67.7884971 C43.3913693,67.7884971 43.163984,67.5920606 43.163984,67.3255483 C43.163984,66.8702967 43.7523314,66.5721942 45.0863359,66.5721942 C46.1692223,66.5721942 47.1342468,66.8390272 47.1342468,68.0785817 L47.1342468,69.4598913 Z" id="Fill-53" fill="#D9252A"></path><path d="M48.0124704,67.8747367 C48.0124704,67.3410708 47.6280962,67.5609194 47.6280962,67.2312267 C47.6280962,67.0274138 47.8084971,66.9251065 48.2164437,66.79169 C48.4048624,66.729151 48.9855127,66.5721621 49.189486,66.5721621 C49.4798913,66.5721621 49.5270361,66.8232802 49.5660027,67.0897924 C49.9035528,66.7135964 50.3272143,66.5721621 50.7980205,66.5721621 C51.8337621,66.5721621 52.3124258,67.184082 52.3124258,68.1653024 L52.3124258,69.5539884 C52.3124258,69.9699528 52.6106886,69.8440731 52.6106886,70.1578904 C52.6106886,70.2913069 52.4692543,70.4640107 52.2025817,70.4640107 L50.6960339,70.4640107 C50.4293612,70.4640107 50.2880873,70.2913069 50.2880873,70.1578904 C50.2880873,69.8440731 50.5861898,69.9699528 50.5861898,69.5539884 L50.5861898,68.016171 C50.5861898,67.6550486 50.4684882,67.3725007 50.1625283,67.3725007 C49.8565684,67.3725007 49.7388668,67.6550486 49.7388668,68.016171 L49.7388668,69.5539884 C49.7388668,69.9699528 50.0369693,69.8440731 50.0369693,70.1578904 C50.0369693,70.2913069 49.8956953,70.4640107 49.6290227,70.4640107 L48.1224748,70.4640107 C47.8556419,70.4640107 47.7143679,70.2913069 47.7143679,70.1578904 C47.7143679,69.8440731 48.0124704,69.9699528 48.0124704,69.5539884 L48.0124704,67.8747367 Z" id="Fill-55" fill="#D9252A"></path><path d="M54.9010584,66.6507688 L55.2543234,66.6507688 C55.6622699,66.6507688 55.8190984,66.7527555 55.8190984,67.0274459 C55.8190984,67.3019759 55.6622699,67.4041229 55.2543234,67.4041229 L54.9483635,67.4041229 L54.9483635,69.1852009 C54.9483635,69.6479893 55.0503501,69.7110094 55.3641675,69.7110094 C55.8190984,69.7110094 55.8898156,69.8833924 55.8898156,70.0718111 C55.8898156,70.3229292 55.6779849,70.4640428 55.207339,70.4640428 L54.0144481,70.4640428 C53.4339581,70.4640428 53.2221274,70.2602298 53.2221274,69.7029915 L53.2221274,67.4041229 L53.1514102,67.4041229 C52.7434637,67.4041229 52.5864748,67.3334058 52.5864748,67.0587154 C52.5864748,66.8547421 52.7356062,66.744898 52.947437,66.6979136 C54.2498512,66.4309203 53.324114,65.3794637 54.3362833,65.3794637 C54.8462165,65.3794637 54.9010584,65.4266085 54.9010584,65.8266976 L54.9010584,66.6507688 Z" id="Fill-57" fill="#D9252A"></path><path d="M58.5178477,67.247102 C58.1259367,67.247102 57.8749791,67.7961621 57.8749791,68.4553871 C58.32991,68.4396722 58.8161105,68.1572846 58.8161105,67.6550486 C58.8161105,67.4746477 58.7378566,67.247102 58.5178477,67.247102 M58.5726895,66.5721621 C59.7734379,66.5721621 60.4013933,67.184082 60.4013933,67.725445 C60.4013933,68.6595207 59.2086628,68.9106388 57.937518,69.1301666 C58.0472018,69.5066833 58.3610192,69.8047857 58.8007163,69.8047857 C59.5303376,69.8047857 59.8204223,69.177151 60.1502753,69.177151 C60.3069434,69.177151 60.4563955,69.2714405 60.4563955,69.443984 C60.4563955,69.9855073 59.3185069,70.5425853 58.3847519,70.5425853 C57.231469,70.5425853 56.0698477,69.8833604 56.0698477,68.6125363 C56.0698477,67.2782111 57.3802797,66.5721621 58.5726895,66.5721621" id="Fill-59" fill="#D9252A"></path><path d="M63.1468864,67.247102 C62.7549755,67.247102 62.5040178,67.7961621 62.5040178,68.4553871 C62.9587884,68.4396722 63.4449889,68.1572846 63.4449889,67.6550486 C63.4449889,67.4746477 63.3668953,67.247102 63.1468864,67.247102 M63.2018886,66.5721621 C64.402637,66.5721621 65.0305924,67.184082 65.0305924,67.725445 C65.0305924,68.6595207 63.8378619,68.9106388 62.5665568,69.1301666 C62.6762405,69.5066833 62.9902183,69.8047857 63.4299154,69.8047857 C64.1595367,69.8047857 64.4493007,69.177151 64.7791537,69.177151 C64.9359822,69.177151 65.0852739,69.2714405 65.0852739,69.443984 C65.0852739,69.9855073 63.9475457,70.5425853 63.0137906,70.5425853 C61.8603474,70.5425853 60.6988864,69.8833604 60.6988864,68.6125363 C60.6988864,67.2782111 62.0094788,66.5721621 63.2018886,66.5721621" id="Fill-61" fill="#D9252A"></path><path d="M70.569012,69.8677577 C70.9769586,69.8677577 71.1809318,69.4283813 71.1809318,68.557486 C71.1809318,67.6862699 70.9769586,67.2470539 70.569012,67.2470539 C70.1610655,67.2470539 69.9570922,67.6862699 69.9570922,68.557486 C69.9570922,69.4283813 70.1610655,69.8677577 70.569012,69.8677577 M72.9855822,68.557486 C72.9777247,69.8441853 71.7224552,70.5425372 70.569012,70.5425372 C69.4157292,70.5425372 68.1602993,69.8441853 68.1524419,68.557486 C68.1602993,67.2707866 69.4157292,66.572114 70.569012,66.572114 C71.7224552,66.572114 72.9777247,67.2707866 72.9855822,68.557486" id="Fill-63" fill="#D9252A"></path><path d="M75.4725648,69.5066512 C75.4725648,69.9776178 75.8726539,69.8047537 75.8726539,70.1580187 C75.8726539,70.3934218 75.6766984,70.464139 75.3707385,70.464139 L73.8486361,70.464139 C73.5420347,70.464139 73.3460793,70.3934218 73.3460793,70.1580187 C73.3460793,69.8047537 73.7464891,69.9776178 73.7464891,69.5066512 L73.7464891,67.4042192 L73.6206094,67.4042192 C73.3305247,67.4042192 73.2206806,67.2708027 73.2206806,67.0273817 C73.2206806,66.7841212 73.3305247,66.6507047 73.6206094,66.6507047 L73.7464891,66.6507047 L73.7464891,66.3526022 C73.7464891,65.1598717 74.3503911,64.5008071 75.5043154,64.5008071 C76.1083777,64.5008071 76.5474334,64.7204953 76.5474334,65.152335 C76.5474334,65.465992 76.3121906,65.693698 75.9985336,65.693698 C75.6766984,65.693698 75.5431216,65.4972615 75.4805826,65.4267047 C75.4725648,65.614963 75.4409746,65.7642548 75.4409746,65.9602102 L75.4409746,66.6507047 L75.8572597,66.6507047 C76.147184,66.6507047 76.2571884,66.7841212 76.2571884,67.0273817 C76.2571884,67.2708027 76.147184,67.4042192 75.8572597,67.4042192 L75.4725648,67.4042192 L75.4725648,69.5066512 Z" id="Fill-65" fill="#D9252A"></path><path d="M82.2275759,69.8519465 C82.1337675,69.6167038 82.1100347,69.2477238 82.1100347,69.0673229 C82.1100347,68.7929532 82.1886094,68.5022272 82.5256784,68.5022272 C82.8555314,68.5022272 82.8787831,68.7772383 82.8787831,69.0360535 C82.8787831,69.2164543 82.9023555,69.5225746 83.0595047,69.7421024 C83.5772953,69.4598753 83.828253,68.7222361 83.828253,67.5920445 C83.828253,66.1172472 83.4049122,65.3011938 82.4944089,65.3011938 C81.5842263,65.3011938 81.1607252,66.1172472 81.1607252,67.5920445 C81.1607252,68.9106548 81.4979546,69.7029755 82.2275759,69.8519465 M82.4944089,64.5951448 C84.2129479,64.5951448 85.7900526,65.7091403 85.7900526,67.5920445 C85.7900526,68.9887483 84.9189969,69.9699688 83.765714,70.3698976 C84.0088143,70.4720445 84.1813577,70.5108508 84.3306494,70.5108508 C84.5817675,70.5108508 84.8325648,70.4327572 85.0838432,70.4327572 C85.3901238,70.4327572 85.6409212,70.6367305 85.6409212,70.9505479 C85.6409212,71.4215145 85.0209835,71.5313586 84.6603421,71.5313586 C84.0088143,71.5313586 83.224351,71.225078 82.6355225,70.5818886 C82.5885381,70.5895857 82.541714,70.5895857 82.4944089,70.5895857 C80.7761906,70.5895857 79.199086,69.4752695 79.199086,67.5920445 C79.199086,65.7091403 80.7761906,64.5951448 82.4944089,64.5951448" id="Fill-67" fill="#D9252A"></path><path d="M88.1278717,69.0518806 C88.1278717,69.5539563 88.3002548,69.7422147 88.5435154,69.7422147 C88.7867759,69.7422147 88.9593194,69.5539563 88.9593194,69.0518806 L88.9593194,67.623747 C88.9593194,67.3019118 88.6140722,67.3962013 88.6140722,67.1449229 C88.6140722,66.9409497 88.6770922,66.8782503 88.8809051,66.8311056 L89.9084686,66.6037203 C90.0030788,66.5801479 90.0816535,66.5721301 90.2067314,66.5721301 C90.5914263,66.5721301 90.6857158,66.7448339 90.6857158,67.1609586 L90.6857158,69.4909363 C90.6857158,69.9774575 91.0858049,69.7891991 91.0858049,70.173894 C91.0858049,70.385404 90.9523884,70.464139 90.5914263,70.464139 L89.6264018,70.464139 C89.2574218,70.464139 89.163453,70.4091367 89.0927359,70.0403171 C88.6924864,70.4091367 88.3238272,70.5425532 87.774767,70.5425532 C86.8565666,70.5425532 86.4013149,70.1971457 86.4013149,68.9656089 L86.4013149,67.623747 C86.3937782,67.2627849 86.0559073,67.3724686 86.0559073,67.066669 C86.0559073,66.9409497 86.1343216,66.8466601 86.3150432,66.8076935 L87.3506245,66.6037203 C87.444914,66.587845 87.5234886,66.5721301 87.6488873,66.5721301 C88.0332615,66.5721301 88.1278717,66.7448339 88.1278717,67.1609586 L88.1278717,69.0518806 Z" id="Fill-69" fill="#D9252A"></path><path d="M93.4783537,69.7579938 C93.8551911,69.7579938 93.9725719,69.2084526 93.9725719,68.5338334 C93.4863715,68.5338334 93.1332668,68.8083635 93.1332668,69.3105996 C93.1332668,69.58529 93.2743804,69.7579938 93.4783537,69.7579938 Z M95.6991287,69.4598913 C95.6991287,69.9462521 96.0993782,69.8208535 96.0993782,70.1739581 C96.0993782,70.3854682 95.9576232,70.4640428 95.7066655,70.4640428 L94.5376677,70.4640428 C94.1844027,70.4640428 94.0905942,70.4092009 94.0275742,70.0560962 C93.7764561,70.44031 93.2822379,70.5426174 92.858416,70.5426174 C91.862122,70.5426174 91.4070307,69.898947 91.4070307,69.3025817 C91.4070307,68.4866886 92.0973648,67.9533434 93.9336053,67.9533434 C93.9177301,67.3411029 93.7924918,67.199829 93.4708169,67.199829 C93.023102,67.199829 93.023102,67.7884971 92.3877702,67.7884971 C91.9562512,67.7884971 91.7288659,67.5920606 91.7288659,67.3255483 C91.7288659,66.8702967 92.317053,66.5721942 93.6507367,66.5721942 C94.7336232,66.5721942 95.6991287,66.8390272 95.6991287,68.0785817 L95.6991287,69.4598913 Z" id="Fill-71" fill="#D9252A"></path><path d="M96.6477488,65.7248071 C96.6477488,65.2852704 96.1926575,65.4579742 96.1926575,65.0973327 C96.1926575,64.8931991 96.4282209,64.7597826 96.7340205,64.7281924 C97.1188757,64.6892258 97.8250851,64.5008071 97.9815929,64.5008071 C98.2173167,64.5008071 98.3743056,64.657796 98.3743056,65.222571 L98.3743056,69.5539563 C98.3743056,69.9700811 98.7824125,69.844041 98.7824125,70.1580187 C98.7824125,70.2914352 98.6412989,70.464139 98.3743056,70.464139 L96.6477488,70.464139 C96.3810762,70.464139 96.2398022,70.2914352 96.2398022,70.1580187 C96.2398022,69.844041 96.6477488,69.9700811 96.6477488,69.5539563 L96.6477488,65.7248071 Z" id="Fill-73" fill="#D9252A"></path><path d="M98.986065,65.4736249 C98.986065,65.081233 99.355045,64.7205915 99.9664837,64.7205915 C100.579045,64.7205915 100.947223,65.081233 100.947223,65.4736249 C100.947223,65.8660169 100.579045,66.2269791 99.9664837,66.2269791 C99.355045,66.2269791 98.986065,65.8660169 98.986065,65.4736249 Z M99.21329,67.7960659 C99.21329,67.3568499 98.7586797,67.5293933 98.7586797,67.1684312 C98.7586797,66.9646183 98.9937621,66.8312018 99.3000428,66.7997719 C99.6842566,66.7604846 100.390626,66.5722263 100.547776,66.5722263 C100.782698,66.5722263 100.939847,66.7292151 100.939847,67.2939902 L100.939847,69.5538922 C100.939847,69.9700169 101.237949,69.8441372 101.237949,70.1579546 C101.237949,70.291371 101.096675,70.4640748 100.830003,70.4640748 L99.3231341,70.4640748 C99.0567822,70.4640748 98.9151875,70.291371 98.9151875,70.1579546 C98.9151875,69.8441372 99.21329,69.9700169 99.21329,69.5538922 L99.21329,67.7960659 Z" id="Fill-75" fill="#D9252A"></path><path d="M103.622608,66.6507688 L103.975713,66.6507688 C104.38382,66.6507688 104.540809,66.7527555 104.540809,67.0274459 C104.540809,67.3019759 104.38382,67.4041229 103.975713,67.4041229 L103.670074,67.4041229 L103.670074,69.1852009 C103.670074,69.6479893 103.771419,69.7110094 104.085557,69.7110094 C104.540809,69.7110094 104.611205,69.8833924 104.611205,70.0718111 C104.611205,70.3229292 104.399856,70.4640428 103.928568,70.4640428 L102.735838,70.4640428 C102.155508,70.4640428 101.943517,70.2602298 101.943517,69.7029915 L101.943517,67.4041229 L101.873281,67.4041229 C101.465335,67.4041229 101.308025,67.3334058 101.308025,67.0587154 C101.308025,66.8547421 101.456836,66.744898 101.668827,66.6979136 C102.971401,66.4309203 102.045664,65.3794637 103.057673,65.3794637 C103.567767,65.3794637 103.622608,65.4266085 103.622608,65.8266976 L103.622608,66.6507688 Z" id="Fill-77" fill="#D9252A"></path><path d="M108.800836,66.6507688 C109.107277,66.6507688 109.217121,66.7606129 109.217121,66.9251385 C109.217121,67.1215751 108.895286,67.2312588 108.895286,67.4511073 C108.895286,68.1414414 108.110502,71.9236062 106.007428,71.9236062 C105.670359,71.9236062 105.113602,71.7746352 105.113602,71.3586708 C105.113602,71.0446931 105.395829,70.8485773 105.693931,70.8485773 C106.047036,70.8485773 106.243152,71.0916775 106.376408,71.0916775 C106.596096,71.0916775 107.0119,70.6444437 107.098653,70.4247555 C106.98031,70.4483278 106.86309,70.4640428 106.745709,70.4640428 C105.811473,70.4640428 105.128996,70.0403813 104.807161,67.4979314 C104.760657,67.1291118 104.556043,67.0978423 104.556043,66.9251385 C104.556043,66.744898 104.681922,66.6507688 104.980185,66.6507688 L106.438947,66.6507688 C106.769121,66.6507688 106.902056,66.744898 106.902056,66.972604 C106.902056,67.2312588 106.658635,67.1764169 106.658635,67.5372187 C106.658635,68.7849514 107.223731,69.7579938 107.373183,69.7579938 C107.600408,69.7579938 107.953513,68.6593924 107.953513,67.4511073 C107.953513,67.0898245 107.585174,67.2549915 107.585174,66.9176018 C107.585174,66.7136285 107.678983,66.6507688 107.945976,66.6507688 L108.800836,66.6507688 Z" id="Fill-79" fill="#D9252A"></path></g></g></svg> 