<?xml version="1.0" encoding="UTF-8"?> <svg xmlns="http://www.w3.org/2000/svg" xmlns:xlink="http://www.w3.org/1999/xlink" width="82px" height="72px" viewBox="0 0 82 72"><!-- Generator: Sketch 50.2 (55047) - http://www.bohemiancoding.com/sketch --><title>Wenreco Logo</title><desc>Created with Sketch.</desc><defs></defs><g id="Wenreco-Logo" stroke="none" stroke-width="1" fill="none" fill-rule="evenodd"><g id="Group"><path d="M59.2356571,26.9059592 C59.2356571,36.2070204 50.1794939,43.7472653 39.0070857,43.7472653 C27.8350041,43.7472653 18.7781878,36.2070204 18.7781878,26.9059592 C18.7781878,17.6047347 27.8350041,10.0648163 39.0070857,10.0648163 C50.1794939,10.0648163 59.2356571,17.6047347 59.2356571,26.9059592" id="Fill-1" fill="#D9C72D"></path><path d="M39.007102,10.9859265 C28.3607347,10.9859265 19.6993469,18.1276408 19.6993469,26.9059265 C19.6993469,35.6843755 28.3607347,42.8260898 39.007102,42.8260898 C49.6533061,42.8260898 58.3146939,35.6843755 58.3146939,26.9059265 C58.3146939,18.1276408 49.6533061,10.9859265 39.007102,10.9859265 M39.007102,44.6683755 C27.344898,44.6683755 17.8572245,36.7002122 17.8572245,26.9059265 C17.8572245,17.1118041 27.344898,9.14364082 39.007102,9.14364082 C50.6691429,9.14364082 60.1568163,17.1118041 60.1568163,26.9059265 C60.1568163,36.7002122 50.6691429,44.6683755 39.007102,44.6683755" id="Fill-3" fill="#68A049"></path><polygon id="Fill-5" fill="#DB402B" points="49.656098 3.21830204 28.8391184 25.140751 41.3664653 25.140751 25.1679347 46.3263837 52.9723429 20.3510367 39.8925061 19.9825469"></polygon><path d="M29.9118367,24.6801959 L42.2981224,24.6801959 L28.8837551,42.2245224 L51.8385306,20.7797878 L39.1041633,20.4212571 L47.2705306,6.39970612 L29.9118367,24.6801959 Z M25.4826122,46.6630531 L24.8022857,46.0467265 L40.434449,25.6013388 L27.7665306,25.6013388 L52.0421224,0.0369306122 L40.6806531,19.5440327 L54.1059592,19.9223184 L25.4826122,46.6630531 Z" id="Fill-7" fill="#FFFFFE"></path><polygon id="Fill-9" fill="#00703C" points="0.647004082 51.2429388 4.17157551 51.2429388 3.20684082 60.1582041 3.2488 60.1582041 7.06659592 51.2429388 10.3394122 51.2429388 9.7523102 60.1582041 9.79426939 60.1582041 13.3185143 51.2429388 16.7172082 51.2429388 10.9314122 63.773551 7.02937143 63.773551 7.75900408 54.8755918 7.7170449 54.8755918 4.0083102 63.773551 0.106269388 63.773551"></polygon><polygon id="Fill-11" fill="#00703C" points="17.9347102 51.2429388 26.5990367 51.2429388 25.9925061 53.6293878 20.852751 53.6293878 20.2148735 56.139102 25.0401796 56.139102 24.4334857 58.5260408 19.6083429 58.5260408 18.8814857 61.386449 24.252098 61.386449 23.6457306 63.773551 14.7503837 63.773551"></polygon><polygon id="Fill-13" fill="#00703C" points="28.424751 51.2429388 32.4737306 51.2429388 33.2996898 59.3857959 33.341649 59.3857959 35.4108735 51.2429388 38.6835265 51.2429388 35.4995265 63.773551 31.5134041 63.773551 30.6234449 55.1389388 30.581649 55.1389388 28.3875265 63.773551 25.240751 63.773551"></polygon><path d="M43.0476735,56.5254694 L44.1386122,56.5254694 C45.5652245,56.5254694 46.1702857,55.630449 46.357551,54.8933061 C46.5983673,53.9457143 46.3394286,53.3137143 44.9337143,53.3137143 L43.864,53.3137143 L43.0476735,56.5254694 Z M40.8656327,51.2430204 L46.7817143,51.2430204 C49.7817143,51.2430204 50.4173061,52.7871837 49.9802449,54.5070204 C49.5162449,56.3321633 48.4078367,57.2273469 46.6868571,57.5605714 L46.677551,57.5958367 C48.8555102,57.8591837 48.6827755,59.0346939 48.2966531,60.7197551 C47.7307755,63.1943673 47.7732245,63.4399184 48.232,63.6155918 L48.192,63.7736327 L44.3947755,63.7736327 C44.228898,63.3522449 44.3025306,62.6500408 44.6638367,61.2286531 C45.2168163,59.0526531 44.9761633,58.5963265 43.8641633,58.5963265 L42.5214694,58.5963265 L41.2060408,63.7736327 L37.6814694,63.7736327 L40.8656327,51.2430204 Z" id="Fill-15" fill="#00703C"></path><polygon id="Fill-17" fill="#00703C" points="52.908 51.2429388 61.5724898 51.2429388 60.9657959 53.6293878 55.8258776 53.6293878 55.1883265 56.139102 60.0134694 56.139102 59.4069388 58.5260408 54.5816327 58.5260408 53.8547755 61.386449 59.2253878 61.386449 58.6190204 63.773551 49.724 63.773551"></polygon><path d="M68.564898,55.5951347 C69.0287347,53.7698286 68.9820408,52.9626449 67.8073469,52.9626449 C66.4017959,52.9626449 65.9903673,54.0859102 65.1565714,57.3675429 C64.2109388,61.0881959 64.1124898,62.0534204 65.5812245,62.0534204 C66.8816327,62.0534204 67.3454694,60.8075429 67.8612245,58.8594612 L71.2600816,58.8594612 L71.1484082,59.2981551 C70.461551,62.0006857 69.0466939,64.0189714 64.683102,64.0189714 C60.1727347,64.0189714 60.5340408,61.193502 61.4925714,57.4204408 C62.3087347,54.2086857 63.3346939,50.9970939 68.3278367,50.9970939 C71.4326531,50.9970939 72.8465306,52.1205224 72.0973061,55.0686041 L71.9635918,55.5951347 L68.564898,55.5951347 Z" id="Fill-19" fill="#00703C"></path><path d="M77.6572082,55.8936163 C76.650351,55.8936163 76.1468408,56.7184327 75.5626776,59.0173714 C74.9741061,61.3341061 75.0581878,62.1585959 76.0652082,62.1585959 C77.1140245,62.1585959 77.5246367,61.3688816 78.1177796,59.0346776 C78.7151673,56.6833306 78.7060245,55.8936163 77.6572082,55.8936163 M72.1551673,59.0526367 C72.8776163,56.2093714 74.1858612,54.0332082 78.1089633,54.0332082 C82.2629224,54.0332082 82.2475755,56.1569633 81.5252898,58.9995755 C80.8028408,61.8428408 79.4945959,64.0190041 75.5716571,64.0190041 C71.417698,64.0190041 71.4327184,61.8955755 72.1551673,59.0526367" id="Fill-21" fill="#00703C"></path><path d="M14.6901388,70.7344816 L12.4161796,70.7344816 L12.4161796,65.6693388 L12.9631184,65.5867265 C13.3513633,65.5277878 13.8370776,65.4980735 14.4068735,65.4980735 C15.1551184,65.4980735 15.7177306,65.6397878 16.1272,65.9312163 C16.5903837,66.2570939 16.8684245,66.7929306 16.8684245,67.3627265 C16.8684245,67.9348082 16.6432816,68.439951 16.2347918,68.7849306 C15.8467102,69.1103184 15.3285061,69.2957878 14.6901388,69.3397061 L14.6901388,70.7344816 Z" id="Fill-23" fill="#19713E"></path><path d="M18.1422204,70.7982694 C16.7890776,70.7982694 15.8442612,69.9310041 15.8442612,68.6892082 C15.8442612,67.4234122 16.8107918,66.5393306 18.1946286,66.5393306 C19.5147918,66.5393306 20.4731592,67.4214531 20.4731592,68.6368 C20.4731592,69.9096163 19.5146286,70.7982694 18.1422204,70.7982694" id="Fill-25" fill="#19713E"></path><polygon id="Fill-27" fill="#19713E" points="24.364 70.7344816 22.492 70.7344816 22.444 70.5746449 22.392898 70.7344816 20.521551 70.7344816 19.1726531 66.6032163 21.590449 66.6032163 21.6020408 66.655951 21.6173878 66.6032163 23.3715102 66.6032163 23.3906122 66.6704816 23.4069388 66.6032163 25.7888163 66.6032163"></polygon><path d="M26.7775837,70.7925224 C25.3496653,70.7925224 24.4270531,69.9714612 24.4270531,68.7009306 C24.4270531,67.6268082 25.2028898,66.539298 26.6858286,66.539298 C28.1152163,66.539298 28.7550531,67.5753796 28.7550531,68.6019918 C28.7550531,68.8410122 28.7196245,69.0300735 28.7086857,69.0821551 L28.6020735,69.5941551 L28.5103184,69.5941551 L28.6841959,70.3908898 L28.1508082,70.5807673 C27.7563592,70.7211755 27.2943184,70.7925224 26.7775837,70.7925224" id="Fill-29" fill="#19713E"></path><path d="M30.3447837,70.7344816 L28.0642939,70.7344816 L28.0642939,68.1831347 C28.0642939,67.7811755 28.0518857,67.5171755 28.0389878,67.2812571 L28.0020898,66.6032163 L30.0285388,66.6032163 C30.1749878,66.5602776 30.3220898,66.5393796 30.4605388,66.5393796 C30.5658449,66.5393796 30.6487837,66.5393796 30.7713959,66.5588082 L31.3131102,66.645502 L31.3131102,68.7846041 L30.5650286,68.660849 C30.5096816,68.6515429 30.463151,68.6458286 30.4017633,68.6458286 C30.3787429,68.6458286 30.3598041,68.6476245 30.3447837,68.6495837 L30.3447837,70.7344816 Z" id="Fill-31" fill="#19713E"></path><path d="M31.6344,66.6032653 L31.7462367,66.6032653 C31.7785633,66.5678367 31.8066449,66.5154286 31.8095837,66.4548571 C31.8050122,66.3524898 31.7361143,66.2759184 31.6884408,66.2573061 C31.6443592,66.2777143 31.5769306,66.3531429 31.5769306,66.4551837 C31.5784,66.5180408 31.6041959,66.5688163 31.6344,66.6032653 Z M32.8304816,70.7345306 L30.5499918,70.7345306 L30.5499918,66.7004082 C30.5318694,66.6207347 30.5228898,66.5386122 30.5237061,66.4550204 C30.5207673,66.173551 30.6259102,65.9093878 30.820849,65.7093878 C31.0381551,65.4865306 31.3468898,65.3639184 31.6902367,65.3639184 C32.3434612,65.3639184 32.8476245,65.8261224 32.8628082,66.4390204 C32.8628082,66.5333878 32.8517061,66.6243265 32.8304816,66.7100408 L32.8304816,70.7345306 Z" id="Fill-33" fill="#19713E"></path><path d="M36.6638204,70.7344816 L32.342351,70.7344816 L32.342351,68.1539102 C32.342351,67.8028898 32.3288,67.5026449 32.3170449,67.2804408 L32.2811265,66.6032163 L34.358351,66.6032163 C34.5119837,66.5633796 34.6842286,66.5393796 34.875902,66.5393796 C35.9452898,66.5393796 36.6638204,67.2886041 36.6638204,68.4040327 L36.6638204,70.7344816 Z" id="Fill-35" fill="#19713E"></path><path d="M38.0620245,71.9505306 C37.5111673,71.9505306 36.9857796,71.8447347 36.6205551,71.6602449 L36.1426776,71.4186122 L36.5281469,70.1057959 C36.1913306,69.747102 35.9928,69.250449 35.9928,68.6777143 C35.9928,67.458449 36.8935347,66.5392653 38.0881469,66.5392653 C38.2682286,66.5392653 38.4393306,66.5611429 38.5986776,66.6032653 L40.566351,66.6032653 L40.5154122,67.2937143 C40.5033306,67.4581224 40.4909224,67.6813061 40.4909224,68.0901224 L40.4909224,69.6783673 C40.4909224,70.490449 40.2528816,71.0741224 39.763249,71.4623673 C39.3315755,71.7893878 38.7629224,71.9505306 38.0620245,71.9505306" id="Fill-37" fill="#19713E"></path><polygon id="Fill-39" fill="#19713E" points="46.3950857 70.7344816 44.315902 70.7344816 44.1986776 70.2028898 44.0667592 70.7344816 41.9771265 70.7344816 40.587249 65.5268082 43.0148408 65.5268082 43.1250449 66.060849 43.2489633 65.5268082 45.3397388 65.5268082 45.4285551 65.9419918 45.5214531 65.5268082 47.9064327 65.5268082"></polygon><path d="M48.7842776,70.7925224 C47.3563592,70.7925224 46.4335837,69.9714612 46.4335837,68.7009306 C46.4335837,67.6268082 47.2095837,66.539298 48.6925224,66.539298 C50.1219102,66.539298 50.7615837,67.5753796 50.7615837,68.6019918 C50.7615837,68.8401959 50.7264816,69.0289306 50.7155429,69.0811755 L50.6097469,69.5941551 L50.516849,69.5941551 L50.6908898,70.3908898 L50.157502,70.5807673 C49.7630531,70.7211755 49.3010122,70.7925224 48.7842776,70.7925224" id="Fill-41" fill="#19713E"></path><path d="M51.5642612,70.7925224 C51.0754449,70.7925224 50.5970776,70.6971755 50.2519347,70.5311347 L49.7668735,70.2979918 L50.177649,68.8217469 C49.9918531,68.5379918 49.9631184,68.2614204 49.9663837,68.1010939 C49.9662204,67.2013388 50.7841796,66.539298 51.9108735,66.539298 C52.3319347,66.539298 52.7670367,66.6209306 53.0747918,66.7574204 L53.5872816,66.9850122 L53.2161796,68.2689306 C53.4614041,68.5234612 53.5882612,68.841502 53.594302,69.2202776 C53.594302,69.9510531 53.0625469,70.7925224 51.5642612,70.7925224" id="Fill-43" fill="#19713E"></path><path d="M54.7107755,70.7925224 C54.244,70.7925224 53.8128163,70.6410122 53.5279184,70.376849 C53.2044898,70.0785633 53.0472653,69.6480327 53.0472653,69.0614204 L53.0472653,68.5410939 L52.6219592,68.5410939 L52.6219592,66.603298 L53.0472653,66.603298 L53.0472653,66.1043592 L55.308,65.6450939 L55.308,66.603298 L56.0209796,66.603298 L56.0209796,68.5410939 L55.308,68.5410939 L55.308,68.7605224 L55.988,68.6501551 L56.0056327,70.5255837 L55.5747755,70.6797061 C55.3137143,70.7727673 54.9607347,70.7925224 54.7107755,70.7925224" id="Fill-45" fill="#19713E"></path><polygon id="Fill-47" fill="#19713E" points="61.6012408 70.7344816 59.5545469 70.7344816 58.8668735 69.6301551 58.8668735 70.7344816 56.664751 70.7344816 56.664751 65.5268082 58.8254041 65.5268082 59.3991184 66.4277061 59.3991184 65.5268082 61.6012408 65.5268082"></polygon><path d="M62.2498449,66.6032653 L62.3618449,66.6032653 C62.3940082,66.5678367 62.4222531,66.5154286 62.4251918,66.4548571 C62.4204571,66.3524898 62.3513959,66.2759184 62.3038857,66.2573061 C62.2598041,66.2778776 62.1922122,66.3531429 62.1922122,66.4551837 C62.1938449,66.5180408 62.2194776,66.5688163 62.2498449,66.6032653 Z M63.4459265,70.7345306 L61.1654367,70.7345306 L61.1654367,66.7004082 C61.1473143,66.6207347 61.1383347,66.5386122 61.1393143,66.4550204 C61.1363755,66.173551 61.2415184,65.9093878 61.4362939,65.7093878 C61.6536,65.4865306 61.9621714,65.3639184 62.3058449,65.3639184 C62.9592327,65.3639184 63.4632327,65.8262857 63.4782531,66.4395102 C63.4782531,66.5337143 63.467151,66.6244898 63.4459265,66.7103673 L63.4459265,70.7345306 Z" id="Fill-49" fill="#19713E"></path><polygon id="Fill-51" fill="#19713E" points="62.9578776 70.7345306 65.2382041 70.7345306 65.2382041 65.3173878 62.9578776 65.3173878"></polygon><path d="M66.9242612,70.7925224 C65.4963429,70.7925224 64.5735673,69.9714612 64.5735673,68.7009306 C64.5735673,67.6268082 65.3495673,66.539298 66.8325061,66.539298 C68.2618939,66.539298 68.9015673,67.5753796 68.9015673,68.6019918 C68.9015673,68.8401959 68.8664653,69.0289306 68.8555265,69.0811755 L68.7497306,69.5941551 L68.6568327,69.5941551 L68.8308735,70.3908898 L68.2974857,70.5807673 C67.9030367,70.7211755 67.4411592,70.7925224 66.9242612,70.7925224" id="Fill-53" fill="#19713E"></path><path d="M14.0470367,68.0028245 C14.132098,68.0201306 14.2369143,68.0263347 14.3805878,68.0263347 C14.9105469,68.0263347 15.2375673,67.7876408 15.2375673,67.3860082 C15.2375673,67.0255184 14.9562612,66.8101714 14.4591184,66.8101714 C14.2563429,66.8101714 14.1188735,66.8274776 14.0470367,66.8447837 L14.0470367,68.0028245 Z M13.0592816,66.2224163 C13.3667102,66.176049 13.7985469,66.1412735 14.4068735,66.1412735 C15.0217306,66.1412735 15.4599347,66.2456 15.754302,66.4552327 C16.0356082,66.6531102 16.2253224,66.9789878 16.2253224,67.3626612 C16.2253224,67.747151 16.0813224,68.0728653 15.8197714,68.2936 C15.4796898,68.5786612 14.9758531,68.7066612 14.3871184,68.7066612 C14.2563429,68.7066612 14.1386286,68.7009469 14.0470367,68.6891918 L14.0470367,70.0914776 L13.0592816,70.0914776 L13.0592816,66.2224163 Z" id="Fill-54" fill="#D9C72D"></path><path d="M17.514351,68.6660898 C17.514351,69.1545796 17.743249,69.5209469 18.1685551,69.5209469 C18.5545143,69.5209469 18.8030041,69.1779265 18.8030041,68.6660898 C18.8030041,68.2409469 18.6198204,67.8109061 18.1685551,67.8109061 C17.6910041,67.8109061 17.514351,68.247151 17.514351,68.6660898 M19.8301061,68.636702 C19.8301061,69.6783347 18.999249,70.1552327 18.1422694,70.1552327 C17.2067592,70.1552327 16.487249,69.6086204 16.487249,68.6892735 C16.487249,67.7702531 17.1675755,67.182498 18.1946776,67.182498 C19.175902,67.182498 19.8301061,67.7815184 19.8301061,68.636702" id="Fill-55" fill="#D9C72D"></path><path d="M21.0731102,67.2462857 L21.3281306,68.4100408 C21.3936,68.7065306 21.4590694,69.0208163 21.5113143,69.3466939 L21.5245388,69.3466939 C21.5898449,69.0208163 21.6814367,68.695102 21.7599673,68.4159184 L22.1002122,67.2462857 L22.8850286,67.2462857 L23.2056816,68.3806531 C23.2907429,68.7009796 23.3758041,69.0208163 23.4409469,69.3466939 L23.4543347,69.3466939 C23.4998857,69.0208163 23.5653551,68.7009796 23.6373551,68.3752653 L23.9122939,67.2462857 L24.8868245,67.2462857 L23.9056,70.0915102 L22.9700898,70.0915102 L22.6691918,69.0908571 C22.5908245,68.8115102 22.5318857,68.5555102 22.4664163,68.2066122 L22.4533551,68.2066122 C22.3945796,68.5613878 22.3289469,68.8227755 22.244049,69.0908571 L21.9235592,70.0915102 L20.988049,70.0915102 L20.0592327,67.2462857 L21.0731102,67.2462857 Z" id="Fill-56" fill="#D9C72D"></path><path d="M27.1894857,68.3460898 C27.1894857,68.1307429 27.0848327,67.7702531 26.6268735,67.7702531 C26.2082612,67.7702531 26.038302,68.1075592 26.0121796,68.3460898 L27.1894857,68.3460898 Z M26.0187102,68.951151 C26.0513633,69.3173551 26.4569143,69.4923755 26.9212408,69.4923755 C27.2613224,69.4923755 27.536098,69.4512327 27.8045061,69.3759673 L27.9351184,69.975151 C27.608098,70.0913959 27.2092408,70.1493551 26.7775673,70.1493551 C25.6915265,70.1493551 25.0701388,69.5908245 25.0701388,68.7010286 C25.0701388,67.9795592 25.5738122,67.182498 26.6858122,67.182498 C27.7194449,67.182498 28.1119347,67.8979265 28.1119347,68.6019265 C28.1119347,68.7531102 28.0923429,68.887151 28.0791184,68.951151 L26.0187102,68.951151 Z" id="Fill-57" fill="#D9C72D"></path><path d="M28.7074286,68.183151 C28.7074286,67.7642122 28.6943673,67.4910694 28.6811429,67.2463347 L29.5381224,67.2463347 L29.5709388,67.7702531 L29.5970612,67.7702531 C29.7606531,67.356702 30.1529796,67.182498 30.4605714,67.182498 C30.552,67.182498 30.5978776,67.182498 30.6700408,67.1939265 L30.6700408,68.0262531 C30.5978776,68.0143347 30.5128163,68.0029061 30.4016327,68.0029061 C30.0352653,68.0029061 29.7867755,68.1772735 29.7213061,68.4505796 C29.7082449,68.5090286 29.7017143,68.5787429 29.7017143,68.6487837 L29.7017143,70.0913959 L28.7074286,70.0913959 L28.7074286,68.183151 Z" id="Fill-58" fill="#D9C72D"></path><path d="M31.1931429,70.0915918 L32.1874286,70.0915918 L32.1874286,67.2463673 L31.1931429,67.2463673 L31.1931429,70.0915918 Z M32.2200816,66.4551837 C32.2200816,66.6997551 32.0107755,66.8973061 31.6835918,66.8973061 C31.3696327,66.8973061 31.1604898,66.6997551 31.1668571,66.4551837 C31.1604898,66.1990204 31.3696327,66.0070204 31.6902857,66.0070204 C32.0107755,66.0070204 32.2137143,66.1990204 32.2200816,66.4551837 Z" id="Fill-59" fill="#D9C72D"></path><path d="M32.9854857,68.1539755 C32.9854857,67.7988735 32.9724245,67.4965061 32.9592,67.2462204 L33.8228735,67.2462204 L33.868751,67.636098 L33.8881796,67.636098 C34.0189551,67.4558531 34.3461388,67.1825469 34.8759347,67.1825469 C35.5299755,67.1825469 36.020751,67.5660571 36.020751,68.4039347 L36.020751,70.0914449 L35.0264653,70.0914449 L35.0264653,68.5149551 C35.0264653,68.148098 34.8826286,67.8979755 34.5227918,67.8979755 C34.2480163,67.8979755 34.0844245,68.0669551 34.0189551,68.2297306 C33.9928327,68.2821388 33.9797714,68.3693224 33.9797714,68.4504653 L33.9797714,70.0914449 L32.9854857,70.0914449 L32.9854857,68.1539755 Z" id="Fill-60" fill="#D9C72D"></path><path d="M38.853551,68.4039673 C38.853551,68.3461714 38.8468571,68.2877224 38.8337959,68.2410286 C38.7619592,68.0083755 38.5722449,67.8514776 38.2974694,67.8514776 C37.9376327,67.8514776 37.6432653,68.1424163 37.6432653,68.6598041 C37.6432653,69.0849469 37.8788571,69.4165388 38.2974694,69.4165388 C38.5526531,69.4165388 38.7552653,69.2650286 38.820898,69.0555592 C38.8468571,68.9918857 38.853551,68.898498 38.853551,68.8227429 L38.853551,68.4039673 Z M39.8739592,67.2462531 C39.8607347,67.426498 39.8478367,67.6651918 39.8478367,68.0901714 L39.8478367,69.6784163 C39.8478367,70.2251918 39.7234286,70.6730286 39.3637551,70.9584163 C39.010449,71.2258449 38.532898,71.3074776 38.0620408,71.3074776 C37.6432653,71.3074776 37.1985306,71.2315592 36.9105306,71.0862531 L37.107102,70.4171918 C37.309551,70.5218449 37.6630204,70.6325388 38.0359184,70.6325388 C38.5067755,70.6325388 38.8666122,70.4054367 38.8666122,69.8821714 L38.8666122,69.6957224 L38.853551,69.6957224 C38.6636735,69.9344163 38.3564082,70.0681306 37.9898776,70.0681306 C37.1985306,70.0681306 36.6359184,69.4976816 36.6359184,68.6777633 C36.6359184,67.7641306 37.3031837,67.1825796 38.0881633,67.1825796 C38.5263673,67.1825796 38.8013061,67.3513959 38.9645714,67.584049 L38.9779592,67.584049 L39.010449,67.2462531 L39.8739592,67.2462531 Z" id="Fill-61" fill="#D9C72D"></path><path d="M42.4711347,70.0914776 L41.4246041,66.1698449 L42.4908898,66.1698449 L42.8242776,67.7876408 C42.9225633,68.2529469 43.0139918,68.7589061 43.0861551,69.1546612 L43.0992163,69.1546612 C43.1710531,68.7298449 43.2757061,68.2588245 43.3870531,67.7755592 L43.759951,66.1698449 L44.8195429,66.1698449 L45.1726857,67.8222531 C45.2708082,68.2821714 45.3429714,68.7009469 45.4081143,69.1371918 L45.4213388,69.1371918 C45.4868082,68.7009469 45.5849306,68.2410286 45.6766857,67.7755592 L46.0365224,66.1698449 L47.0502367,66.1698449 L45.9121143,70.0914776 L44.8326041,70.0914776 L44.4600327,68.4039673 C44.3746449,68.0083755 44.3029714,67.6418449 44.2502367,67.1940082 L44.2373388,67.1940082 C44.1589714,67.6361306 44.0869714,68.0083755 43.9824816,68.4039673 L43.5637061,70.0914776 L42.4711347,70.0914776 Z" id="Fill-62" fill="#D9C72D"></path><path d="M49.1962612,68.3460898 C49.1962612,68.1307429 49.0914449,67.7702531 48.6338122,67.7702531 C48.2150367,67.7702531 48.0450776,68.1075592 48.0186286,68.3460898 L49.1962612,68.3460898 Z M48.0253224,68.951151 C48.0579755,69.3173551 48.4638531,69.4923755 48.9276898,69.4923755 C49.2679347,69.4923755 49.5428735,69.4512327 49.8111184,69.3759673 L49.9417306,69.975151 C49.6148735,70.0913959 49.2158531,70.1493551 48.7843429,70.1493551 C47.6981388,70.1493551 47.076751,69.5908245 47.076751,68.7010286 C47.076751,67.9795592 47.5805878,67.182498 48.6925878,67.182498 C49.7260571,67.182498 50.1185469,67.8979265 50.1185469,68.6019265 C50.1185469,68.7531102 50.0989551,68.887151 50.0858939,68.951151 L48.0253224,68.951151 Z" id="Fill-63" fill="#D9C72D"></path><path d="M50.7072653,69.3174041 C50.8902857,69.4165061 51.2698776,69.5329143 51.5642449,69.5329143 C51.8651429,69.5329143 51.989551,69.4396898 51.989551,69.2942204 C51.989551,69.148751 51.8914286,69.0788735 51.5186939,68.9685061 C50.8579592,68.7707918 50.6026122,68.4504653 50.6091429,68.1133224 C50.6091429,67.5840163 51.1195102,67.1825469 51.9108571,67.1825469 C52.2837551,67.1825469 52.6176327,67.258302 52.8137143,67.3453224 L52.6370612,67.9564245 C52.4932245,67.8865469 52.2186122,67.7934857 51.9435102,67.7934857 C51.701551,67.7934857 51.5642449,67.8805061 51.5642449,68.026302 C51.5642449,68.1598531 51.6886531,68.2297306 52.0808163,68.3520163 C52.6894694,68.5381388 52.9446531,68.8114449 52.9510204,69.2303837 C52.9510204,69.7595265 52.48,70.1494041 51.5642449,70.1494041 C51.1456327,70.1494041 50.7727347,70.0682612 50.5307755,69.9518531 L50.7072653,69.3174041 Z" id="Fill-64" fill="#D9C72D"></path><path d="M54.6650122,66.4320327 L54.6650122,67.2462367 L55.3779918,67.2462367 L55.3779918,67.8979918 L54.6650122,67.8979918 L54.6650122,68.9278694 C54.6650122,69.2710531 54.7567673,69.4281143 55.0576653,69.4281143 C55.1817469,69.4281143 55.2798694,69.4165224 55.3520327,69.4047673 L55.3582367,70.0741551 C55.2276245,70.1206857 54.9921959,70.1494204 54.7107265,70.1494204 C54.3902367,70.1494204 54.1219918,70.0508082 53.9649306,69.9051755 C53.7820735,69.7363592 53.6901551,69.4630531 53.6901551,69.0614204 L53.6901551,67.8979918 L53.2651755,67.8979918 L53.2651755,67.2462367 L53.6901551,67.2462367 L53.6901551,66.6300735 L54.6650122,66.4320327 Z" id="Fill-65" fill="#D9C72D"></path><path d="M57.3078694,70.0914776 L57.3078694,66.1698449 L58.4724408,66.1698449 L59.3880327,67.6073959 C59.6499102,68.0201306 59.9116245,68.5091102 60.1077061,68.9512327 L60.1274612,68.9512327 C60.0618286,68.4333551 60.0422367,67.9038857 60.0422367,67.3161306 L60.0422367,66.1698449 L60.9579918,66.1698449 L60.9579918,70.0914776 L59.9116245,70.0914776 L58.9695837,68.5786612 C58.7078694,68.1598857 58.4200327,67.6537633 58.2040327,67.1940082 L58.1842776,67.1997224 C58.2107265,67.7177633 58.2236245,68.2704163 58.2236245,68.9105796 L58.2236245,70.0914776 L57.3078694,70.0914776 Z" id="Fill-66" fill="#D9C72D"></path><path d="M61.8086531,70.0915918 L62.8027755,70.0915918 L62.8027755,67.2463673 L61.8086531,67.2463673 L61.8086531,70.0915918 Z M62.8354286,66.4551837 C62.8354286,66.6997551 62.6262857,66.8973061 62.299102,66.8973061 C61.9851429,66.8973061 61.776,66.6997551 61.7825306,66.4551837 C61.776,66.1990204 61.9851429,66.0070204 62.3057959,66.0070204 C62.6262857,66.0070204 62.8292245,66.1990204 62.8354286,66.4551837 Z" id="Fill-67" fill="#D9C72D"></path><polygon id="Fill-68" fill="#D9C72D" points="63.6009796 70.0915918 64.5952653 70.0915918 64.5952653 65.9606531 63.6009796 65.9606531"></polygon><path d="M67.3362612,68.3460898 C67.3362612,68.1307429 67.2314449,67.7702531 66.7734857,67.7702531 C66.3550367,67.7702531 66.1850776,68.1075592 66.1586286,68.3460898 L67.3362612,68.3460898 Z M66.1653224,68.951151 C66.1979755,69.3173551 66.6038531,69.4923755 67.0676898,69.4923755 C67.4079347,69.4923755 67.6828735,69.4512327 67.9511184,69.3759673 L68.0817306,69.975151 C67.7548735,70.0913959 67.3558531,70.1493551 66.9243429,70.1493551 C65.8381388,70.1493551 65.216751,69.5908245 65.216751,68.7010286 C65.216751,67.9795592 65.7205878,67.182498 66.8325878,67.182498 C67.8660571,67.182498 68.2585469,67.8979265 68.2585469,68.6019265 C68.2585469,68.7531102 68.2389551,68.887151 68.2258939,68.951151 L66.1653224,68.951151 Z" id="Fill-69" fill="#D9C72D"></path></g></g></svg> 