<?xml version="1.0" encoding="UTF-8"?> <svg xmlns="http://www.w3.org/2000/svg" xmlns:xlink="http://www.w3.org/1999/xlink" width="72px" height="72px" viewBox="0 0 72 72"><!-- Generator: Sketch 50.2 (55047) - http://www.bohemiancoding.com/sketch --><title>African Leather Logo</title><desc>Created with Sketch.</desc><defs></defs><g id="African-Leather--Logo" stroke="none" stroke-width="1" fill="none" fill-rule="evenodd"><g id="Group"><path d="M27.7790781,38.2784543 C27.7790781,38.2784543 27.302257,37.6030371 27.222747,37.2056066 C27.222747,37.2056066 27.4611576,36.3314742 24.8784556,36.967196 C24.8784556,36.967196 21.1035815,37.881143 19.315502,38.8347854 L16.6929854,38.8347854 C16.6929854,38.8347854 14.7458861,36.3711695 12.798906,35.4970371 C12.798906,35.4970371 11.8850781,32.5962954 10.4943099,31.3248517 L10.4943099,28.8612358 C10.4943099,28.8612358 12.2028795,27.2718715 11.8452636,22.5036596 C11.8452636,22.5036596 15.3022172,19.5235272 17.845343,16.5036993 C17.845343,16.5036993 18.5605748,15.5102424 18.123449,14.5169046 C18.123449,14.5169046 20.1102437,14.0797788 21.8188132,11.5764675 C21.8188132,11.5764675 22.3751444,12.7685205 24.0440185,12.2916993 C24.0440185,12.2916993 26.0705086,12.0929841 28.9314358,10.5831298 C28.9314358,10.5831298 31.0771311,10.0267987 32.7857007,10.7420305 C32.7857007,10.7420305 34.3353695,12.0931033 32.3883894,13.2851563 C32.3883894,13.2851563 31.6731576,13.7619775 33.1036212,14.1989841 C33.1036212,14.1989841 34.0969589,14.5566 35.4877272,14.6361099 C35.4877272,14.6361099 35.6069325,16.5832093 38.1896344,16.1460834 C38.1896344,16.1460834 39.9281245,16.3347854 39.1234887,14.7255139 L39.1532901,14.278494 L40.7625616,14.3082954 C40.7625616,14.3082954 42.9380583,14.9341232 45.3519656,15.9175669 C45.3519656,15.9175669 46.2460053,16.0963748 46.9016344,15.0831298 C46.9016344,15.0831298 47.6466675,14.4871033 48.4811046,15.2321364 C48.4811046,15.2321364 49.6731576,16.3049841 50.0903762,17.4672358 C50.0903762,17.4672358 50.2095815,17.9142556 50.0903762,18.3314742 C50.0903762,18.3314742 49.9115682,18.8976993 49.3155417,19.1957126 C49.3155417,19.1957126 51.7890517,24.7685603 52.2658728,26.2288252 C52.2658728,26.2288252 52.832098,27.3612755 53.4281245,27.957302 L56.5572636,31.1162424 C56.5572636,31.1162424 57.0340848,33.8281629 59.3883894,33.1129311 C59.3883894,33.1129311 62.5175285,32.4275007 63.0539523,31.8016728 C63.0539523,31.8016728 63.6797801,33.5897523 62.2493166,36.6592887 C62.2493166,36.6592887 60.7592503,39.3712093 58.1963364,41.3976993 C58.1963364,41.3976993 54.9181907,44.6162424 54.1731576,47.2983616 C54.1731576,47.2983616 53.7261377,49.2354477 55.5440185,51.470547 L55.5142172,54.3910768 C55.5142172,54.3910768 54.8287868,53.6460437 54.7989854,54.3910768 C54.7989854,54.3910768 52.832098,63.5996861 48.1830914,65.0003483 L48.0936874,66.6692225 C48.0936874,66.6692225 47.229449,66.8182291 46.1566013,68.5765073 C46.1566013,68.5765073 45.2327603,70.8712093 43.8022967,71.1394212 L41.0605748,71.1394212 C41.0605748,71.1394212 40.1069325,72.4208781 38.0804424,71.5566397 C38.0804424,71.5566397 37.7526278,70.9904146 37.4248132,71.0798185 L37.6036212,69.1427325 C37.6036212,69.1427325 37.6632238,68.0698848 35.4579258,66.1029974 C35.4579258,66.1029974 34.6532901,65.7155801 34.6532901,62.0798185 C34.6532901,62.0798185 34.4744821,60.0831298 32.537396,58.2354477 C32.537396,58.2354477 31.6731576,56.6261762 32.716204,54.4506795 C32.716204,54.4506795 34.1168662,51.0831298 33.3420318,48.0135934 C33.3420318,48.0135934 32.6566013,45.4506795 30.2128927,43.3049841 C30.2128927,43.3049841 29.7658728,42.559951 30.8387205,40.4738583 C30.8387205,40.4738583 32.2095815,38.8347854 29.5572636,38.4473682 C29.5572636,38.4473682 28.2061907,38.1095404 27.7790781,38.2784543" id="Fill-1" fill="#673823"></path><path d="M32.5833258,44.0542609 L35.0954583,47.6537841 C35.526743,47.1177179 37.262253,45.1536914 39.5326371,45.1536914 C40.9014715,45.1536914 42.1985444,45.8765523 43.3898821,47.3032013 C43.7427298,46.8485523 45.0741338,45.3425126 47.2236437,45.3425126 C48.5306106,45.3425126 49.9099351,45.8918106 51.3246636,46.9753868 L53.8030609,44.0465126 C53.5050477,43.7352675 52.4578291,42.543453 51.9029285,40.6362874 C50.8478424,37.0092278 52.4423325,33.7028305 53.9862795,31.5497444 L52.6359219,28.5860623 C52.3263457,28.7338768 51.4302795,29.1136649 50.4010609,29.1137841 L50.4005841,29.1137841 C48.9832331,29.1139033 47.1859748,28.3773338 46.6305974,24.8877179 L40.4626768,24.8877179 C40.300796,25.3713338 39.3891139,27.6655589 36.6806503,27.6656781 C36.2006106,27.6656781 35.6838556,27.5929629 35.1433788,27.4495589 L33.1694583,30.5244596 C33.4350477,30.8817179 34.6508225,32.6035192 35.2258689,34.9170556 C35.8182,37.2998503 35.8354848,40.8118768 32.5833258,44.0542609 Z M35.0877099,48.0594397 L32.2726768,44.0256517 L32.3446768,43.9550821 C34.9468093,41.4015854 35.8390609,38.3828305 34.9965179,34.9823801 C34.3659219,32.4375854 32.9449947,30.6222079 32.9306901,30.6040887 L32.8778821,30.537453 L35.0375245,27.1732411 L35.1221603,27.1967245 C35.6727695,27.3496649 36.1970344,27.4272675 36.6806503,27.4272675 C39.511657,27.4270291 40.2527563,24.7648172 40.2599086,24.7378768 L40.2835113,24.6493073 L46.8355113,24.6493073 L46.8507695,24.7508702 C47.2553523,27.4489629 48.4831669,28.8753735 50.4005841,28.8753735 L50.4010609,28.8753735 C51.5895377,28.8752543 52.6262662,28.3247642 52.6365179,28.3191616 L52.7486901,28.2588437 L54.2606901,31.5769232 L54.2200411,31.6330689 C52.6948093,33.741453 51.0944781,37.0033868 52.1319219,40.5697709 C52.751551,42.6997311 54.0338424,43.9416119 54.0468358,43.9538901 L54.1280146,44.0314927 L51.3589947,47.3040358 L51.2686371,47.2334662 C49.8649947,46.1368967 48.504147,45.5809232 47.2236437,45.5809232 C44.8316702,45.5809232 43.507657,47.5430424 43.4944252,47.5628305 L43.4047828,47.6986053 L43.3023854,47.5721285 C42.1319086,46.125453 40.8635642,45.392102 39.5326371,45.392102 C37.078796,45.392102 35.2050079,47.9000623 35.1862927,47.925453 L35.0877099,48.0594397 Z" id="Fill-3" fill="#FFFFFE"></path><polygon id="Fill-5" fill="#1A1919" points="1.44944106 38.867257 0.688196026 38.9920649 0.495202649 40.5770185 2.1163947 40.8106609 2.27398411 39.4604225 2.54922914 39.512396 2.38353377 40.8575086 4.17042119 41.1074821 4.17232848 41.1064093 4.31549404 41.1275086 4.23109669 41.8345152 0.365984106 41.2767536 0.34178543 41.4211113 0.198381457 41.4006079 0.530487417 38.6172834 1.46303046 38.750555"></polygon><polygon id="Fill-7" fill="#1A1919" points="5.50335099 34.2549179 1.74349669 33.1142424 1.65421192 33.4781762 1.51509934 33.4358583 1.77258278 32.3848252 5.53255629 33.5255007 5.53148344 33.5277656 5.67059603 33.5702026"></polygon><path d="M6.77782252,29.4813536 C6.78592848,29.8235921 6.72668344,30.1700026 6.62583576,30.5006781 C6.21994172,31.851751 5.15806093,32.2467974 3.97566358,31.8000159 C2.94155762,31.4091417 2.18186225,30.5099762 2.56963709,29.2403205 C2.68860397,28.8502808 2.86538543,28.4670358 3.0537298,28.1106119 L3.72378278,28.3745325 L3.6926702,28.4762146 L3.08341192,28.4954066 C2.94978278,28.6278437 2.74880265,29.1311285 2.70028609,29.2897907 C2.38343841,30.3280689 3.58538543,30.8633007 4.26282914,31.1193536 C5.04135894,31.4135523 6.14770331,31.5884265 6.47885563,30.5040159 C6.59996821,30.1071815 6.59794172,29.7450358 6.54239205,29.3405722 L6.77782252,29.4813536 Z" id="Fill-9" fill="#1A1919"></path><polygon id="Fill-11" fill="#1A1919" points="9.64044238 22.9564371 5.37444238 22.963351 8.52944901 24.8825563 8.53040265 24.8820795 8.65699868 24.9590861 8.48748874 25.3029934 5.06820397 23.2227417 5.06474702 23.2204768 4.93815099 23.1435894 5.38099868 22.2510993 8.83223046 22.2577748 6.29935629 20.7169272 6.29935629 20.713351 6.17276026 20.6363444 6.34119735 20.2967285 9.88743576 22.4538675"></polygon><polygon id="Fill-13" fill="#1A1919" points="11.4641404 19.8009894 8.33309404 17.218049 8.2625245 17.3311748 8.14665695 17.2358106 8.59844503 16.5500225 11.648551 19.0555987 12.306445 18.068102 12.0002066 17.0845391 12.0973589 16.9386318 12.7255709 17.9078901"></polygon><polygon id="Fill-15" fill="#1A1919" points="13.1741046 17.3065828 10.2906477 14.4523311 10.1667934 14.601457 10.037694 14.457457 11.7556808 12.3252318 12.3346609 12.8280397 12.2595616 12.9214967 11.7546079 12.7057351 10.7494689 13.9205563 11.9496278 15.1320397 12.7655881 14.1171258 12.9551245 14.530649 12.2397735 15.420755 13.4215748 16.614 14.4218265 15.381298 14.2407536 14.6423444 14.3264623 14.5392318 14.7976808 15.2868874"></polygon><path d="M13.8102318,10.7353311 L14.6306026,12.6184172 L15.4215298,11.8106821 L13.8102318,10.7353311 Z M17.0645364,12.9209603 L16.9405629,12.8306026 L16.928404,12.8219007 L15.7330132,12.0233444 L14.7896225,12.9868808 L15.3978079,14.3850397 L15.4044834,14.4085232 L15.4522848,14.5233179 L15.2179272,14.7866424 L13.4279404,10.5095563 L13.8996358,10.0278477 L17.5532781,12.401702 L17.0645364,12.9209603 Z" id="Fill-17" fill="#1A1919"></path><polygon id="Fill-19" fill="#1A1919" points="18.0021576 7.55095232 17.4924358 7.15793245 16.8029523 7.72081987 18.9797603 11.0092172 18.9749921 11.009098 19.0604623 11.138555 18.5186742 11.585098 16.2565152 8.1671245 15.620555 8.68781325 15.9362106 9.41019735 15.845257 9.48458146 15.2057205 8.71189272 17.5938795 6.76109801 18.0717735 7.49409139"></polygon><polygon id="Fill-21" fill="#1A1919" points="22.6559921 8.6682755 21.7589722 6.89795762 20.2224159 7.86185166 21.0486278 9.49246093 21.0449325 9.48244768 21.1158596 9.6222755 20.5617934 9.98203709 18.6632106 6.23362649 18.5537801 6.29525563 18.4672371 6.12550728 19.1343099 5.7141298 20.0313298 7.48456689 21.5678861 6.52079205 20.741555 4.89030199 20.7493033 4.90734834 20.6783762 4.76752053 21.2341113 4.39691126 23.1481907 8.17512318 23.1523629 8.18287152 23.2232901 8.32269934"></polygon><path d="M29.9042344,5.55024636 L28.3850821,3.95754437 L27.8126583,3.73868344 C28.1316517,3.65929272 29.0781417,3.29273642 28.8563007,2.42623311 C28.6119298,1.47282914 28.117943,1.60765033 27.9248305,1.66868344 L27.2910159,1.86978278 L28.3590954,6.04029934 L27.7464993,6.2396106 L27.7069232,6.08512053 L27.703943,6.08094834 L26.6754397,2.06492185 L26.5161815,2.1222596 L26.4766053,1.96765033 L28.1811219,1.42049801 C28.7726185,1.23298808 29.2818636,1.41286887 29.4865391,2.2121404 C29.7065921,3.07149139 29.1098503,3.54402119 28.9561947,3.60731921 L30.4803536,5.20049801 L30.6734662,5.1393457 L30.7130424,5.29383576 L29.9042344,5.55024636 Z" id="Fill-23" fill="#1A1919"></path><path d="M40.8087179,0.637402649 L40.1254331,0.525468874 L39.5784,4.65748212 L40.2612079,4.76929669 C40.9195788,4.87729669 41.6104927,4.54590596 41.8291152,2.89443576 C42.0505987,1.22246225 41.4667311,0.745402649 40.8087179,0.637402649 M40.2399894,4.92831656 L38.9237245,4.71243576 L39.4920954,0.421521854 L39.3579894,0.395892715 L39.3789695,0.236992053 L40.8233801,0.477548344 C42.0839762,0.684369536 42.6853669,1.51010464 42.4877245,3.00231656 C42.2916318,4.48117748 41.2904265,5.09341589 40.2399894,4.92831656" id="Fill-25" fill="#1A1919"></path><path d="M45.973204,6.59673775 L45.5105682,6.47705563 C45.4944755,6.29717483 45.4173497,6.19859205 45.4173497,6.19859205 C45.1863298,6.24210199 44.8159589,6.24758543 44.5254556,6.14578411 C43.9088066,5.93002252 43.0722238,5.32577086 43.4507007,3.98697616 L44.1944225,1.35575762 L44.0666344,1.31403576 L44.109906,1.16085695 L44.8486212,1.41631391 L44.1122901,4.02083046 C43.7577735,5.27308212 43.8919987,5.72999603 44.5925682,5.97520132 C45.3149523,6.23530728 45.6300119,5.93562517 45.9841709,4.68337351 L46.6788993,2.22536026 L46.6785417,2.22285695 L46.7215748,2.06955894 L47.1533364,2.22309536 L46.3798132,4.95849934 C46.2267536,5.43090993 46.1980252,5.5516649 46.1340119,5.71461854 C45.9662901,6.14423444 45.973204,6.59673775 45.973204,6.59673775" id="Fill-27" fill="#1A1919"></path><path d="M47.7533682,7.50584503 C47.4517788,7.34968609 47.1454212,7.12176556 46.9115404,6.85403046 L47.0922556,6.07979205 L47.2460305,6.15930199 L47.2529444,6.84234834 C47.3756066,7.04452053 47.6465603,7.28102384 47.8400305,7.3812755 C48.3633417,7.65234834 48.7026,7.40440132 48.9250371,6.87262649 C49.1661894,6.29662649 48.9113285,6.09505033 48.5787457,5.71502384 C48.1475801,5.20661325 47.748004,4.62238808 48.0553152,3.88808344 C48.4155536,3.02694437 49.0382821,3.01061325 49.7382556,3.37299735 C50.0455669,3.53237483 50.3236728,3.7610106 50.6041629,3.96771258 L50.384706,4.69856026 L50.3019775,4.65564636 L50.2972093,3.98988477 C50.1445073,3.84123576 49.8277788,3.58899735 49.6405073,3.49160662 C49.1338848,3.22935497 48.9101364,3.59889139 48.7169046,4.06093113 C48.4675272,4.65612318 48.8762821,5.03710331 49.2037391,5.44550066 C49.6731695,6.02758013 49.8524543,6.34383179 49.5345338,7.10352715 C49.1875272,7.93295762 48.3766927,7.83640132 47.7533682,7.50584503" id="Fill-29" fill="#1A1919"></path><polygon id="Fill-31" fill="#1A1919" points="69.1099748 29.2298543 65.5491934 31.028543 65.3336702 30.3637351 65.4693258 30.3097351 65.4719483 30.3102119 68.7415113 28.6422914 64.8240675 28.7660265 64.6530079 28.233298 67.7376834 25.4894305 64.2642795 26.5417748 64.266902 26.5424901 64.1308887 26.5962517 64.0208623 26.2603311 67.7882265 25.1063046 67.7527033 25.001404 67.8888358 24.947404 68.2279748 25.9992715 65.4441735 28.3939868 68.9613258 28.2881325 69.2477762 29.177404 69.1120013 29.2312848"></polygon><path d="M70.9329695,43.288045 L70.9391682,42.5197669 L67.1862278,42.4834093 L67.1801483,43.2516874 C67.1743073,43.9915947 67.5641086,44.7080185 69.0641881,44.7224424 C70.5829828,44.7371046 70.9270093,44.0279523 70.9329695,43.288045 M67.0359099,43.2501377 L67.0475921,41.7697272 L70.9448901,41.8076344 L70.9466781,41.7054755 L71.091155,41.7067868 L71.0774464,43.282204 C71.0662411,44.6999126 70.4139497,45.4759391 69.0582278,45.4625881 C67.7151417,45.4498331 67.0326914,44.4305086 67.0359099,43.2501377" id="Fill-33" fill="#1A1919"></path><polygon id="Fill-35" fill="#1A1919" points="24.3493152 7.72236954 22.8176464 3.78108477 22.6487325 3.85809139 22.5862689 3.6670053 24.9523748 2.54039603 25.2866265 3.26814437 25.1830371 3.31785298 24.8070636 2.88501854 23.4353682 3.51454172 24.0636993 5.17626358 25.1884013 4.6391245 25.2034212 5.10295232 24.2172358 5.57417086 24.8363881 7.21097881 26.2104675 6.56309801 26.3265735 5.80805166 26.4435139 5.75476689 26.5871563 6.65393245"></polygon><polygon id="Fill-37" fill="#1A1919" points="66.7616066 37.6951113 70.604547 37.3017338 70.591196 37.0995616 70.7738185 37.0930053 70.9997126 39.9457073 70.2739907 40.0725417 70.2639775 39.9476146 70.7506927 39.6846477 70.639951 38.0381841 69.025196 38.1856411 69.1336728 39.5419589 68.7327854 39.4134556 68.6375404 38.2240252 67.0469841 38.3692172 67.1723881 40.0240252 67.7811695 40.3817603 67.7903483 40.5220649 66.9777258 40.3938"></polygon><polygon id="Fill-39" fill="#1A1919" points="56.8760662 14.2724384 59.7242384 11.374796 59.6037219 11.2223325 59.7456954 11.0940675 61.475245 13.2149682 60.966 13.8043192 60.8901854 13.7112199 61.1351523 13.1746768 60.1523046 11.9373258 58.9458278 13.1407033 59.7691788 14.1482265 59.3800927 14.3154715 58.6583046 13.4320411 57.4695894 14.6175377 58.4687682 15.8513126 59.1478808 15.7271007 59.2315629 15.8324781 58.5146623 16.2768755"></polygon><path d="M4.17113642,26.1367391 L5.61256689,27.4805404 L6.03681854,26.3836132 L4.17113642,26.1367391 Z M7.94434172,26.6477722 L7.79795762,26.6219046 L7.78389139,26.6192821 L6.39944106,26.4355868 L5.89341457,27.7443417 L6.96256689,28.7428053 L6.97734834,28.7614013 L7.06341457,28.8438914 L6.94647417,29.1911364 L3.73937483,26.1046728 L3.99244768,25.450355 L8.19920265,25.9512556 L7.94434172,26.6477722 Z" id="Fill-41" fill="#1A1919"></path><path d="M0.41558543,44.286151 L2.18375762,44.9989987 L2.2441947,43.8068265 L0.41558543,44.286151 Z M4.11762517,43.3278596 L3.9720755,43.3593298 L3.95812848,43.3620715 L2.60097616,43.7171841 L2.52861854,45.1398993 L3.84059205,45.6702437 L3.86014172,45.6821642 L3.96635364,45.7268662 L3.9632543,46.0977139 L3.57615894e-05,44.4207338 L0.0362741722,43.7099126 L4.14265828,42.5762702 L4.11762517,43.3278596 Z" id="Fill-43" fill="#1A1919"></path><path d="M5.1241947,35.8976026 L3.14741325,36.6429934 L2.7054,37.1031258 C2.79218146,36.7523046 2.94488344,35.6502517 2.15312185,35.4620265 C1.28185033,35.2546093 1.15704238,35.8031921 1.11508212,36.0218146 L0.977161589,36.738596 L4.78827417,37.6458675 L4.65917483,38.3414305 L4.51815497,38.3075762 L4.51338675,38.3088874 L0.84329404,37.435351 L0.814088742,37.6189272 L0.672949669,37.5853113 L1.0381947,35.6537086 C1.16681722,34.9843709 1.54839338,34.5682252 2.27864503,34.7421457 C3.06432715,34.9289404 3.15933377,35.7370331 3.1374,35.9175099 L5.11704238,35.167351 L5.15900265,34.9489669 L5.30026093,34.9824636 L5.1241947,35.8976026 Z" id="Fill-45" fill="#1A1919"></path><polygon id="Fill-47" fill="#1A1919" points="32.8864649 4.90684768 32.4071404 0.603536424 32.070743 0.65002649 32.0531007 0.490529801 33.0246238 0.356423841 33.5038291 4.6598543 33.5015642 4.6597351 33.519445 4.81911258"></polygon><polygon id="Fill-49" fill="#1A1919" points="37.2049748 4.61529536 35.1190013 0.474580132 35.1517828 4.47534834 35.1526172 4.47606358 35.1539285 4.63663311 34.8015576 4.63961325 34.7660344 0.30375894 34.7660344 0.299229139 34.7648424 0.138421192 35.6809351 0.13365298 37.3589881 3.48940132 37.3325245 0.277533775 37.3352662 0.275745695 37.333955 0.115295364 37.6826305 0.113388079 37.7194649 4.60981192"></polygon><polygon id="Fill-51" fill="#1A1919" points="53.4791801 6.60621457 53.5851536 5.92626755 52.8357099 5.46756556 51.0724252 9.04968477 51.0706371 9.04491656 51.0010212 9.18557881 50.4089285 8.82700927 52.2413523 5.10422781 51.5493656 4.68188344 51.0932861 5.30485033 50.9944649 5.24441325 51.3548225 4.27336689 53.9509947 5.86118146 53.5551139 6.65234702"></polygon><path d="M54.4136066,11.7471815 L54.6174477,9.43579073 L54.4230238,8.79792318 C54.6746662,9.03037351 55.5143483,9.63951258 55.9946265,8.91426755 C56.523302,8.11642649 56.1256331,7.76369801 55.9639907,7.63102252 L55.4335272,7.19592318 L53.1204675,10.6862543 L52.6040702,10.2687974 L52.6900172,10.1395788 L52.6910901,10.1343338 L54.9182026,6.77322119 L54.7801629,6.66820132 L54.8657523,6.53874437 L56.2970503,7.7049298 C56.7919907,8.11118146 56.9754477,8.66977748 56.5324808,9.33828079 C56.0555404,10.0575656 55.3548517,9.82106225 55.2157391,9.72450596 L55.0146397,12.0405457 L55.1764013,12.1732212 L55.0904543,12.3025589 L54.4136066,11.7471815 Z" id="Fill-53" fill="#1A1919"></path><polygon id="Fill-55" fill="#1A1919" points="55.4572371 12.797094 58.0944159 9.60453775 57.8451576 9.34955762 57.9427868 9.23106755 58.6633828 9.96823311 56.0260848 13.1607894 56.0251311 13.1587629 55.9270252 13.2770146"></polygon><polygon id="Fill-57" fill="#1A1919" points="63.2630861 24.5592477 66.7963311 22.729804 66.6530464 22.3880424 66.784053 22.3199762 67.1972185 23.3074728 63.6638543 25.137155 63.6632583 25.1345325 63.5324901 25.2024795"></polygon><polygon id="Fill-59" fill="#1A1919" points="65.7793192 32.1752861 69.5475179 31.0701338 69.461094 30.705604 69.600445 30.6643589 69.8499417 31.717657 66.081743 32.8230477 66.081743 32.8205444 65.9421536 32.861551"></polygon><path d="M59.7038066,18.122102 C59.5056874,17.8246848 59.3342702,17.4618238 59.2433166,17.1024199 L59.7345616,16.5179563 L59.8354093,16.669347 L59.5483629,17.2728834 C59.5699391,17.5161815 59.7065483,17.8679563 59.8333828,18.0586848 C60.1769325,18.5749629 60.5816344,18.5371748 61.0051709,18.1876649 C61.4642305,17.8094265 61.3263099,17.4969894 61.1972106,16.9864331 C61.0361642,16.3106583 60.9357934,15.585294 61.5206146,15.1029894 C62.2064026,14.5374795 62.7607073,14.8538503 63.2206013,15.5439298 C63.4221775,15.8469497 63.5684424,16.195506 63.7260318,16.5263007 L63.2201245,17.051996 L63.1661245,16.9704596 L63.4470914,16.3826583 C63.3766411,16.1711881 63.2066543,15.7813868 63.0831576,15.5960225 C62.7508132,15.0969099 62.3957007,15.3027775 62.0277139,15.6060358 C61.5535152,15.9969099 61.7491311,16.5485921 61.8618993,17.0813205 C62.0250914,17.8423272 62.0467868,18.2153205 61.4417007,18.7141947 C60.7811841,19.2589629 60.1099391,18.7435192 59.7038066,18.122102" id="Fill-61" fill="#1A1919"></path><polygon id="Fill-63" fill="#1A1919" points="61.9512437 21.7494238 65.3817338 19.6901523 65.3192702 19.5708278 65.446343 19.4945364 65.8126609 20.2407616 62.4800384 22.2513974 63.0040649 23.3333046 63.9347007 23.4417815 64.0124225 23.601755 62.9569788 23.823596"></polygon><polygon id="Fill-65" fill="#1A1919" points="69.8466159 36.1822291 70.3886424 35.8472623 70.2396358 34.9103086 66.6265232 35.6286397 66.6287881 35.6239907 66.4865762 35.652004 66.3660596 34.914004 70.1216225 34.1675404 69.9832252 33.302706 69.2616755 33.2984146 69.241649 33.1747987 70.1471325 32.8779775 70.663649 36.1239377 69.8616358 36.2769974"></polygon><polygon id="Fill-67" fill="#FFFFFE" points="42.3883073 40.554298 42.3324 35.5765232 41.8750093 35.5765232 41.8750093 35.1951854 43.1445457 35.1951854 43.2122543 40.2242185 44.7260424 40.2280331 45.1730623 39.2445894 45.3878702 39.2339801 45.1879629 40.554298"></polygon><polygon id="Fill-69" fill="#FFFFFE" points="47.871751 40.554298 47.8158437 35.5765232 47.358453 35.5765232 47.358453 35.1951854 48.6279894 35.1951854 48.695698 40.2242185 50.2094861 40.2280331 50.656506 39.2445894 50.8713139 39.2339801 50.6714066 40.554298"></polygon><path d="M37.5785404,35.7618636 L36.8190834,38.1260623 L38.2302358,38.156102 L37.5785404,35.7618636 Z M38.8833616,40.609347 L38.839494,40.4184993 L38.8354411,40.4002609 L38.3525404,38.6233868 L36.6688848,38.5871483 L36.1038517,40.3416119 L36.0906199,40.3678371 L36.0426993,40.5099298 L35.6043815,40.5213735 L37.4000901,35.2187642 L38.2415603,35.2371219 L39.7722755,40.6112543 L38.8833616,40.609347 Z" id="Fill-71" fill="#FFFFFE"></path><path d="M41.4719166,40.156045 C41.4719166,40.4600185 41.2256384,40.7062967 40.9216649,40.7062967 C40.6176914,40.7062967 40.3714132,40.4600185 40.3714132,40.156045 C40.3714132,39.8520715 40.6176914,39.6057934 40.9216649,39.6057934 C41.2256384,39.6057934 41.4719166,39.8520715 41.4719166,40.156045" id="Fill-73" fill="#FFFFFE"></path><path d="M46.9290517,40.156045 C46.9290517,40.4600185 46.6827735,40.7062967 46.3788,40.7062967 C46.0748265,40.7062967 45.8285483,40.4600185 45.8285483,40.156045 C45.8285483,39.8520715 46.0748265,39.6057934 46.3788,39.6057934 C46.6827735,39.6057934 46.9290517,39.8520715 46.9290517,40.156045" id="Fill-75" fill="#FFFFFE"></path></g></g></svg> 