<?xml version="1.0" encoding="UTF-8"?> <svg xmlns="http://www.w3.org/2000/svg" xmlns:xlink="http://www.w3.org/1999/xlink" width="351px" height="72px" viewBox="0 0 351 72"><!-- Generator: Sketch 50.2 (55047) - http://www.bohemiancoding.com/sketch --><title>PFIL Logo</title><desc>Created with Sketch.</desc><defs></defs><g id="PFIL-Logo" stroke="none" stroke-width="1" fill="none" fill-rule="evenodd"><g id="Group"><path d="M15.0952235,31.8229941 C15.0952235,31.8229941 23.1486353,11.1362294 28.7720471,6.11528824 C34.3959882,1.09487647 43.5378706,-1.62947647 52.4711647,1.4967 C60.5044588,4.30787647 62.5130471,10.3331118 62.5130471,10.3331118 C62.5130471,10.3331118 49.9644,0.770876471 43.3345765,12.9775235 C43.3345765,12.9775235 39.0664588,21.3125824 34.3959882,31.8229941 L15.0952235,31.8229941 Z" id="Fill-1" fill="#008551"></path><path d="M14.1111,34.0326529 L33.7321588,34.0326529 C33.7321588,34.0326529 27.7678059,52.5091235 18.1277471,59.7393 C8.48768824,66.9694765 0.253217647,65.3632412 0.253217647,65.3632412 L14.1111,34.0326529 Z" id="Fill-3" fill="#008551"></path><path d="M37.7614059,31.8229941 C37.7614059,31.8229941 52.0692882,31.6223471 55.4839941,30.6180529 C58.8976412,29.6137588 62.7136412,26.6008765 63.3166412,18.5675824 C63.3166412,18.5675824 62.7141706,8.92805294 52.0692882,9.93181765 C52.0692882,9.93181765 48.6551118,10.1319353 46.2447,13.9484647 L37.7614059,31.8229941 Z" id="Fill-5" fill="#008551"></path><path d="M37.0807941,34.0326529 L57.2910882,34.0326529 C57.2910882,34.0326529 53.6762647,54.5171824 35.3999118,63.9565941 C17.1235588,73.3965353 6.07738235,67.5724765 6.07738235,67.5724765 C6.07738235,67.5724765 21.2926765,67.5550059 31.0079118,47.6718882 L37.0807941,34.0326529 Z" id="Fill-7" fill="#D72331"></path><path d="M57.8950941,22.2581647 C57.8950941,24.9618706 55.4672118,27.1536353 52.4718,27.1536353 C49.4763882,27.1536353 47.0485059,24.9618706 47.0485059,22.2581647 C47.0485059,19.5544588 49.4763882,17.3626941 52.4718,17.3626941 C55.4672118,17.3626941 57.8950941,19.5544588 57.8950941,22.2581647" id="Fill-9" fill="#1A1919"></path><path d="M109.347035,30.3443471 L103.801976,30.3443471 L104.671271,27.8471118 C104.671271,27.8471118 106.690447,23.3534647 111.771212,25.4811706 C111.771212,25.4811706 114.736976,27.8471118 109.347035,30.3443471 M113.426153,22.4481706 C103.417624,19.1409353 99.8790353,27.2351118 99.8790353,27.2351118 L96.1027412,39.0367588 L100.183447,39.0367588 L102.264565,33.2365235 L110.041624,32.8998176 C114.736976,32.7229941 115.967329,28.1134059 115.967329,28.1134059 C117.663035,23.9967 113.426153,22.4481706 113.426153,22.4481706" id="Fill-11" fill="#008551"></path><path d="M151.301382,28.8905294 L140.560676,28.8905294 C140.560676,28.8905294 141.044029,25.6944706 144.718147,24.6769412 L152.569853,24.6769412 L154.010912,21.5872941 L144.658324,21.5872941 C144.658324,21.5872941 138.711971,22.1627647 136.017265,27.1995882 C136.017265,27.1995882 134.318912,30.3559412 134.912912,34.0141765 C134.912912,34.0141765 135.477794,38.9504118 138.882441,39.1028824 L148.122265,39.1028824 L149.261559,35.8189412 L140.585559,35.8184118 C140.585559,35.8184118 138.151853,34.8109412 139.715735,31.644 L150.4305,31.7075294 L151.301382,28.8905294 Z" id="Fill-13" fill="#008551"></path><path d="M202.212529,28.8905294 L191.472353,28.8905294 C191.472353,28.8905294 191.952,25.6944706 195.630882,24.6769412 L203.481,24.6769412 L204.921529,21.5872941 L195.571059,21.5872941 C195.571059,21.5872941 189.622588,22.1627647 186.93,27.1995882 C186.93,27.1995882 185.231647,30.3559412 185.822471,34.0141765 C185.822471,34.0141765 186.388412,38.9504118 189.791471,39.1028824 L199.031824,39.1028824 L200.173235,35.8189412 L191.498294,35.8184118 C191.498294,35.8184118 189.061941,34.8109412 190.623706,31.644 L201.342706,31.7075294 L202.212529,28.8905294 Z" id="Fill-15" fill="#008551"></path><path d="M230.647235,39.0367588 C230.647235,39.0367588 233.072471,28.2907588 235.150941,25.9041706 C235.150941,25.9041706 237.186,22.2385235 243.190588,21.5825824 L251.229176,21.5825824 L249.273529,24.8125235 C249.273529,24.8125235 244.044,24.5239941 241.617706,25.2646412 C241.617706,25.2646412 239.956941,25.6627588 238.507412,28.3707 L247.161176,28.3908176 L245.661882,31.5757588 L237.002294,31.7753471 C237.002294,31.7753471 235.466471,35.5230529 234.562765,39.0674647 L230.647235,39.0367588 Z" id="Fill-17" fill="#008551"></path><path d="M282.964924,30.7228235 C282.964924,30.7228235 281.883335,34.7474118 278.959394,35.6982353 C278.959394,35.6982353 276.572806,36.7877647 274.495394,36.0418235 C274.495394,36.0418235 271.954747,34.6081765 273.726159,29.4278824 C273.726159,29.4278824 275.342982,24.6605294 278.574512,24.5212941 C278.574512,24.5212941 280.424276,24.2481176 282.348159,24.9982941 C282.348159,24.9982941 284.504982,26.0216471 282.964924,30.7228235 M287.888453,25.4747647 C287.428394,23.2951765 285.505571,22.4788235 285.505571,22.4788235 C280.039394,20.2955294 274.725159,22.8896471 274.725159,22.8896471 C268.105924,25.8183529 268.105924,34.2402353 268.105924,34.2402353 C268.641159,37.827 272.414806,38.6968235 272.414806,38.6968235 C277.495041,39.7852941 281.499512,38.0138824 281.499512,38.0138824 C288.812276,35.0830588 287.888453,25.4747647 287.888453,25.4747647" id="Fill-19" fill="#008551"></path><path d="M262.372129,30.7062529 C262.372129,30.7062529 261.291071,34.7361353 258.3666,35.6927824 C258.3666,35.6927824 255.980012,36.7823118 253.903129,36.0310765 C253.903129,36.0310765 251.363541,34.6006059 253.131247,29.4134294 C253.131247,29.4134294 254.748071,24.6317824 257.982776,24.4967824 C257.982776,24.4967824 259.827776,24.2225471 261.753247,24.9753706 C261.753247,24.9753706 263.909012,25.9966059 262.372129,30.7062529 M267.302012,25.4518412 C266.836129,23.2669588 264.913306,22.4479588 264.913306,22.4479588 C259.447129,20.2614882 254.132894,22.8603706 254.132894,22.8603706 C247.512071,25.7922529 247.512071,34.2331941 247.512071,34.2331941 C248.048365,37.8210176 251.822541,38.6956059 251.822541,38.6956059 C256.904894,39.7851353 260.907247,38.0121353 260.907247,38.0121353 C268.222129,35.0770765 267.302012,25.4518412 267.302012,25.4518412" id="Fill-21" fill="#008551"></path><path d="M128.381824,30.1967471 L122.13,30.1967471 C122.13,30.1967471 121.259647,27.1288059 124.688118,25.4119235 C124.688118,25.4119235 128.407235,24.2572765 130.215706,25.4119235 C130.215706,25.4119235 133.249235,27.8165118 128.381824,30.1967471 M130.978059,22.0374529 C120.830294,19.5629824 118.360588,27.5015118 118.360588,27.5015118 L114.695471,39.0670412 L118.544824,39.0670412 C119.280176,37.5158647 120.629647,33.1709824 120.629647,33.1709824 L124.688118,32.9719235 C128.635412,32.9036294 127.444765,35.4601588 127.444765,35.4601588 C127.008529,37.1447471 126.091588,39.0670412 126.091588,39.0670412 L129.788471,39.0670412 C132.097765,34.6919824 131.137412,32.5092176 131.137412,32.5092176 C138.838765,24.9486882 130.978059,22.0374529 130.978059,22.0374529" id="Fill-23" fill="#008551"></path><path d="M215.730635,30.1967471 L209.476694,30.1967471 C209.476694,30.1967471 208.606341,27.1288059 212.040106,25.4119235 C212.040106,25.4119235 215.753929,24.2572765 217.562929,25.4119235 C217.562929,25.4119235 220.594871,27.8165118 215.730635,30.1967471 M218.325282,22.0374529 C208.177518,19.5629824 205.705165,27.5015118 205.705165,27.5015118 L202.044282,39.0670412 L205.894694,39.0670412 C206.624753,37.5158647 207.976871,33.1709824 207.976871,33.1709824 L212.040106,32.9719235 C215.982635,32.9036294 214.792518,35.4601588 214.792518,35.4601588 C214.353106,37.1447471 213.438282,39.0670412 213.438282,39.0670412 L217.131459,39.0670412 C219.4434,34.6919824 218.485165,32.5092176 218.485165,32.5092176 C226.187576,24.9486882 218.325282,22.0374529 218.325282,22.0374529" id="Fill-25" fill="#008551"></path><polygon id="Fill-27" fill="#008551" points="150.488153 39.0879 154.411624 39.0879 158.800976 26.1866647 161.572447 39.1164882 164.577388 39.1164882 173.583741 26.7827824 170.090682 39.0879 174.392153 39.1164882 179.971624 21.5739 172.3068 21.5739 164.577388 31.8561353 162.748271 21.5739 156.052271 21.5739"></polygon><polygon id="Fill-29" fill="#008551" points="177.056682 39.0879 181.561447 39.0879 187.000094 21.5553706 182.335976 21.5553706"></polygon><path d="M304.102059,29.1746118 C304.102059,29.1746118 303.164471,35.1447882 298.378059,35.4407294 L292.554529,35.4407294 L296.020059,25.0954941 L302.603294,25.0954941 C302.603294,25.0954941 304.680176,25.1971412 304.102059,29.1746118 M305.103706,21.5505529 L292.204588,21.5505529 L286.813059,39.0698471 L300.263824,39.0698471 C306.801,37.7759647 308.491941,30.3414353 308.491941,30.3414353 C310.918235,22.2562588 305.103706,21.5505529 305.103706,21.5505529" id="Fill-31" fill="#008551"></path><path d="M325.691629,58.9785882 L314.959394,58.9785882 C314.959394,58.9785882 315.440629,55.3965882 319.113159,54.2620588 L326.9601,54.2620588 L328.144394,50.8018235 L319.059688,50.8018235 C319.059688,50.8018235 313.115453,51.4397647 310.423924,57.0838235 C310.423924,57.0838235 308.725571,60.6197647 309.315335,64.7179412 C309.315335,64.7179412 309.882865,70.2460588 313.284335,70.4165294 L322.515688,70.4165294 L323.651806,66.7418824 L314.986394,66.7392353 C314.986394,66.7392353 312.554276,65.6078824 314.1171,62.0624118 L324.823924,62.1354706 L325.691629,58.9785882 Z" id="Fill-33" fill="#008551"></path><path d="M210.731241,58.9785882 L200.001124,58.9785882 C200.001124,58.9785882 200.480771,55.3965882 204.1533,54.2620588 L211.999182,54.2620588 L213.184006,50.8018235 L204.0993,50.8018235 C204.0993,50.8018235 198.154006,51.4397647 195.463535,57.0838235 C195.463535,57.0838235 193.766771,60.6197647 194.354947,64.7179412 C194.354947,64.7179412 194.9193,70.2460588 198.324476,70.4165294 L207.5553,70.4165294 L208.691947,66.7418824 L200.028653,66.7392353 C200.028653,66.7392353 197.592829,65.6078824 199.155653,62.0624118 L209.863006,62.1354706 L210.731241,58.9785882 Z" id="Fill-35" fill="#008551"></path><path d="M180.326753,60.4794706 L174.079165,60.4794706 C174.079165,60.4794706 173.207224,57.0472941 176.635165,55.1265882 C176.635165,55.1265882 180.351635,53.8321765 182.155871,55.1265882 C182.155871,55.1265882 185.185694,57.8175882 180.326753,60.4794706 M182.918224,51.3444706 C172.777871,48.5735294 170.309753,57.4639412 170.309753,57.4639412 L166.650459,70.4170588 L170.493988,70.4170588 C171.225106,68.6821765 172.580929,63.8137059 172.580929,63.8137059 L176.635165,63.5902941 C180.577694,63.5124706 179.385988,66.3765882 179.385988,66.3765882 C178.949753,68.2612941 178.038106,70.4170588 178.038106,70.4170588 L181.729165,70.4170588 C184.036341,65.5162941 183.078106,63.0730588 183.078106,63.0730588 C190.773106,54.6040588 182.918224,51.3444706 182.918224,51.3444706" id="Fill-37" fill="#008551"></path><polygon id="Fill-39" fill="#008551" points="258.470312 70.4116059 262.385312 70.4116059 266.775194 55.9623706 269.543488 70.4444294 272.545782 70.4444294 281.544724 56.6299588 278.052724 70.4116059 282.351547 70.4444294 287.925194 50.7963706 280.268841 50.7963706 272.545782 62.3137235 270.718253 50.7963706 264.025429 50.7963706"></polygon><polygon id="Fill-41" fill="#008551" points="66.6389118 70.4410941 71.1394412 70.4410941 76.5727941 50.8015059 71.9134412 50.8015059"></polygon><polygon id="Fill-43" fill="#008551" points="185.258965 70.4410941 189.758965 70.4410941 195.195494 50.8015059 190.529259 50.8015059"></polygon><polygon id="Fill-45" fill="#008551" points="251.939012 70.4410941 256.437953 70.4410941 261.876071 50.8015059 257.2146 50.8015059"></polygon><polygon id="Fill-47" fill="#008551" points="284.586724 70.4410941 289.088841 70.4410941 294.518488 50.8015059 289.859665 50.8015059"></polygon><path d="M109.9602,59.3358353 C109.9602,59.3358353 109.022612,66.0212471 104.238318,66.3563647 L98.4200824,66.3563647 L101.881376,54.7686 L108.461965,54.7686 C108.461965,54.7686 110.534612,54.8781882 109.9602,59.3358353 M110.957082,50.8017176 L98.0743765,50.8017176 L92.6865529,70.4169529 L106.125671,70.4169529 C112.655965,68.9679529 114.344259,60.6424235 114.344259,60.6424235 C116.768965,51.5873647 110.957082,50.8017176 110.957082,50.8017176" id="Fill-49" fill="#008551"></path><path d="M341.934882,59.3358353 C341.934882,59.3358353 340.997294,66.0212471 336.215647,66.3563647 L330.395294,66.3563647 L333.858706,54.7686 L340.435588,54.7686 C340.435588,54.7686 342.510353,54.8781882 341.934882,59.3358353 M342.932824,50.8017176 L330.046941,50.8017176 L324.663353,70.4169529 L338.100882,70.4169529 C344.628529,68.9679529 346.318412,60.6424235 346.318412,60.6424235 C348.739941,51.5873647 342.932824,50.8017176 342.932824,50.8017176" id="Fill-51" fill="#008551"></path><polygon id="Fill-53" fill="#008551" points="73.2017647 70.4410941 77.5132941 70.4410941 81.0471176 58.2720353 86.4328235 70.4410941 90.4351765 70.4410941 95.8182353 50.8443882 91.3584706 50.8443882 87.8167059 63.4719176 82.7422941 50.8443882 78.2793529 50.8443882"></polygon><path d="M118.898947,50.8446 L123.202006,50.8446 L119.981065,62.1570706 C119.981065,62.1570706 118.286947,66.2743059 121.971124,67.1864824 C121.971124,67.1864824 126.581771,68.4512471 128.342594,64.8216 L132.278771,50.8446 L136.435182,50.8446 C136.435182,50.8446 133.050653,63.7723059 132.587418,64.9544824 C132.587418,64.9544824 131.512712,70.7261294 122.434359,70.4413059 C122.434359,70.4413059 114.622359,70.1421882 114.929947,65.6236588 C114.929947,65.6236588 117.840653,54.0777176 118.898947,50.8446" id="Fill-55" fill="#008551"></path><path d="M153.743188,54.5137412 L154.925894,50.8015059 L143.327541,50.8015059 C143.327541,50.8015059 138.282776,51.5072118 137.0106,56.0739176 C137.0106,56.0739176 135.742129,60.7518 139.433718,61.6459765 C139.433718,61.6459765 142.206247,62.3135647 146.587129,62.0896235 C146.587129,62.0896235 149.471365,62.9816824 147.858247,65.6525647 C147.858247,65.6525647 147.397659,66.5933294 144.511306,66.5710941 L134.702894,66.5710941 L133.895541,70.3590353 L147.9726,70.3590353 C147.9726,70.3590353 152.818306,69.5543294 153.283129,62.7598588 C153.283129,62.7598588 153.296894,59.0830941 149.017129,58.7469176 L143.242835,58.6352118 C143.242835,58.6352118 140.586776,58.4128588 142.206247,55.8505059 C142.206247,55.8505059 142.589012,54.4777412 144.896188,54.4777412 L153.743188,54.5137412 Z" id="Fill-57" fill="#008551"></path><path d="M230.209306,54.5137412 L231.393071,50.8015059 L219.796306,50.8015059 C219.796306,50.8015059 214.748894,51.5072118 213.480424,56.0739176 C213.480424,56.0739176 212.210894,60.7518 215.903541,61.6459765 C215.903541,61.6459765 218.672365,62.3135647 223.056953,62.0896235 C223.056953,62.0896235 225.941188,62.9816824 224.327012,65.6525647 C224.327012,65.6525647 223.866953,66.5933294 220.982188,66.5710941 L211.172718,66.5710941 L210.366953,70.3590353 L224.440835,70.3590353 C224.440835,70.3590353 229.287071,69.5543294 229.750835,62.7598588 C229.750835,62.7598588 229.7646,59.0830941 225.488541,58.7469176 L219.713718,58.6352118 C219.713718,58.6352118 217.057659,58.4128588 218.672365,55.8505059 C218.672365,55.8505059 219.057247,54.4777412 221.364953,54.4777412 L230.209306,54.5137412 Z" id="Fill-59" fill="#008551"></path><polygon id="Fill-61" fill="#008551" points="155.5155 54.2997 156.744265 50.8447588 170.983324 50.8018765 170.126735 54.2997 165.249794 54.2997 160.377088 70.4165824 156.003618 70.4165824 160.577206 54.2997"></polygon><polygon id="Fill-63" fill="#008551" points="295.691982 54.2997 296.596747 50.8447588 310.833688 50.8018765 309.982394 54.2997 305.0991 54.2997 300.229571 70.4165824 295.857688 70.4165824 300.4281 54.2997"></polygon><path d="M250.048853,70.4167941 L250.982206,66.9735 L243.123618,66.9735 C243.123618,66.9735 240.288618,66.4303235 241.820735,62.2829118 L245.181971,50.8015588 L240.715853,50.8015588 L237.230206,63.4719706 C237.230206,63.4719706 235.896088,69.9816176 242.355441,70.4167941 L250.048853,70.4167941 Z" id="Fill-65" fill="#008551"></path><polygon id="Fill-67" fill="#008551" points="346.191353 70.4504118 346.907118 66.3591176 350.590235 66.3591176 349.895647 70.4504118"></polygon></g></g></svg> 