<?xml version="1.0" encoding="UTF-8"?> <svg xmlns="http://www.w3.org/2000/svg" xmlns:xlink="http://www.w3.org/1999/xlink" width="61px" height="72px" viewBox="0 0 61 72"><!-- Generator: Sketch 50.2 (55047) - http://www.bohemiancoding.com/sketch --><title>New LIK Logotype only</title><desc>Created with Sketch.</desc><defs></defs><g id="New-LIK-Logotype-only" stroke="none" stroke-width="1" fill="none" fill-rule="evenodd"><g id="Group"><path d="M0.911560305,48.4021374 L0.911560305,35.9159084 C0.911560305,35.9159084 4.17079695,34.1732519 3.85183511,30.6758473 C3.85183511,30.6758473 11.6424916,25.906626 6.23791145,12.3931603 C6.23791145,12.3931603 3.05781985,7.14687023 0.0373007634,5.39816794 L5.28377405,0.151877863 L15.457942,0.151877863 C15.457942,0.151877863 15.6164153,0.78870229 17.0479878,0.947175573 C17.0479878,0.947175573 17.3656672,1.26485496 19.1140031,1.42424427 L25.3144305,1.74192366 L26.427774,2.69569466 L27.8587969,2.69569466 L27.8587969,4.12671756 L30.242858,4.28574046 L31.8323542,4.92146565 C31.8323542,4.92146565 34.058858,9.05514504 35.1707359,9.37282443 C35.1707359,9.37282443 37.0790107,10.6448244 39.4634382,10.6448244 C39.4634382,10.6448244 42.007255,11.9166412 43.9147969,10.4858015 C43.9147969,10.4858015 45.505026,9.69068702 45.1869802,6.35230534 L61.0843237,6.35230534 C61.0843237,6.35230534 56.4741252,13.6655267 55.201942,17.0039084 L54.7250565,39.8958779 C54.7250565,39.8958779 55.9970565,43.2353588 58.2230107,43.552855 L50.7500336,53.2505038 L49.4791328,54.8405496 L48.8426748,54.8405496 L48.524629,56.747542 L46.2994076,58.973313 L46.2994076,60.7212824 C46.2994076,60.7212824 45.505026,62.4701679 44.3918656,62.6299237 C44.3918656,62.6299237 42.8016366,64.0607634 43.5969344,65.0147176 L38.3506443,71.8902595 L25.9510718,64.2599084 C25.9510718,64.2599084 26.427774,61.8743817 23.9229802,61.1585954 L14.1458198,54.6020153 L13.6693008,53.7669618 L6.51583511,49.9509618 L6.27766718,48.6403053 L0.911560305,48.4021374 Z" id="Fill-1" fill="#85674C"></path><path d="M15.4393099,47.4077496 L11.5273099,43.169826 L11.7436763,42.9096733 C12.2648977,42.2816427 14.0427298,39.9756275 15.0117069,36.7037496 C16.0415084,33.2215511 16.3086229,27.9188336 11.7321344,22.4228336 L11.5276763,22.1782534 L14.4575084,18.5978565 L14.6905466,18.6511695 C15.0739969,18.7380092 16.1028824,18.9397191 17.3565618,18.9397191 C19.6197069,18.9397191 23.5234626,18.2164214 24.2346687,13.3697038 L24.2828519,13.0404824 L33.790516,13.0404824 L33.8093863,13.4065282 C33.8518901,14.2490931 34.1111267,16.3719023 35.5927145,17.880055 C36.6166534,18.9215817 38.0286229,19.4497649 39.7914321,19.4497649 C40.892684,19.4497649 42.1445313,19.2410931 43.5143634,18.829429 L43.7695695,18.7522992 L46.3791573,22.176055 L46.2025466,22.409826 C45.6769282,23.1098565 43.8818748,25.6611847 42.9004397,29.0957496 C41.8732031,32.6926351 41.6027908,37.9834443 46.150516,42.756513 L46.3852031,43.002742 L42.8038901,47.3978565 L42.5098443,47.1926656 C41.6476763,46.5882687 38.5624855,44.6186198 35.0856,44.6186198 C32.8222718,44.6186198 30.8471267,45.4666809 29.2129282,47.1382534 L28.9610198,47.3962076 L28.6865771,47.1624366 C27.8883481,46.4831084 25.0198901,44.2655817 21.6307603,44.2655817 C19.4262412,44.2655817 17.4379053,45.2188031 15.7232794,47.0973985 L15.4393099,47.4077496 Z" id="Fill-3" fill="#FFFFFE"></path><polygon id="Fill-5" fill="#85674C" points="19.6664794 27.0958534 21.3477618 27.0958534 21.3477618 36.4527389 26.3857466 36.4527389 26.3857466 37.1029374 19.6664794 37.1029374"></polygon><polygon id="Fill-7" fill="#85674C" points="27.7843053 37.1029008 29.4661374 37.1029008 29.4661374 27.0958168 27.7843053 27.0958168"></polygon><polygon id="Fill-9" fill="#85674C" points="31.9816305 27.0958534 33.6645618 27.0958534 33.6645618 31.5299908 38.931371 27.0958534 40.023829 27.0958534 35.0239511 31.3004336 41.3692947 37.1029374 39.2292641 37.1029374 33.6645618 32.0189679 33.6645618 37.1029374 31.9816305 37.1029374"></polygon></g></g></svg> 