<?xml version="1.0" encoding="UTF-8"?> <svg xmlns="http://www.w3.org/2000/svg" xmlns:xlink="http://www.w3.org/1999/xlink" width="66px" height="49px" viewBox="0 0 66 49"><!-- Generator: Sketch 50.2 (55047) - http://www.bohemiancoding.com/sketch --><title>logo-ips-ea</title><desc>Created with Sketch.</desc><defs></defs><g id="version-4" stroke="none" stroke-width="1" fill="none" fill-rule="evenodd"><g id="logo-ips-ea"><text id="East-Africa" font-family="ArialMT, Arial" font-size="10" font-weight="normal" fill="#242424"><tspan x="0" y="48">EAST AFRICA</tspan></text><g id="Group-15" transform="translate(8.000000, 0.000000)" fill="#0070AC"><path d="M43.2396425,21.0688046 L33.9412094,21.0688046 C32.3177823,21.0688046 31.0012102,19.7653282 31.0012102,18.1563349 L31.0079336,2.91220316 C31.0079336,1.30347639 32.3245057,0 33.9471259,0 L47.0598664,0 C48.6845037,0 50,1.30347639 50,2.91220316 L49.98736,7.16452342 L43.8397713,13.8124795 L43.8483772,7.55651234 C43.8483772,7.32800758 43.6613328,7.14240576 43.4307209,7.14240576 L37.6865348,7.14240576 C37.4548472,7.14240576 37.2676683,7.32800758 37.2676683,7.55651234 L37.279367,13.5132249 C37.279367,13.7422626 37.4653357,13.9273315 37.6970233,13.9273315 L47.0598664,13.9154732 C48.6845037,13.9154732 50,15.2194826 50,16.8275432 L49.9922009,32.0877968 C49.9922009,33.6961239 48.6756288,35 47.0520673,35 L33.940537,35 C32.3167065,35 31,33.6961239 31,32.0877968 L31.0137157,22.7699992 L37.279367,22.7699992 L37.2648445,27.9900337 C37.2648445,28.2190714 37.4509476,28.4036073 37.6826353,28.4036073 L43.4266869,28.4036073 C43.6583745,28.4036073 43.8444776,28.2190714 43.8444776,27.9900337 L43.8688163,21.4849097 C43.8688163,21.2562717 43.6817719,21.0708032 43.4506221,21.0708032" id="Fill-1"></path><path d="M27.9858057,2.79987212 L28,18.1378907 C28,19.7460388 26.7022209,21.0499283 25.1003931,21.0499283 L15.1723767,21.0647149 L15.1676011,35 L9.09896179,35 L9.1123601,13.9166353 L15.1762238,7.26983638 L15.1695909,13.4434625 C15.1695909,13.6720561 15.3542488,13.8577551 15.5818875,13.8577551 L21.249506,13.8577551 C21.4772773,13.8577551 21.6619352,13.6720561 21.6619352,13.4434625 L21.6847522,7.57316252 C21.6847522,7.34470212 21.5010229,7.15860347 21.2733842,7.15860347 L9,7.16313271 L9,0 L25.0937603,0 C26.6955881,0 27.9941631,1.30322338 27.9941631,2.91163787" id="Fill-3"></path><polyline id="Fill-4" points="0 36 0.0127035404 14.7114775 6 8 5.99109443 36 0 36"></polyline><polygon id="Fill-5" points="0 7 6 7 6 0 0 0"></polygon></g></g></g></svg> 