<?xml version="1.0" encoding="UTF-8"?> <svg xmlns="http://www.w3.org/2000/svg" xmlns:xlink="http://www.w3.org/1999/xlink" width="224px" height="72px" viewBox="0 0 224 72"><!-- Generator: Sketch 50.2 (55047) - http://www.bohemiancoding.com/sketch --><title>LIU Going Green Logotype and Name</title><desc>Created with Sketch.</desc><defs></defs><g id="LIU-Going-Green-Logotype-and-Name" stroke="none" stroke-width="1" fill="none" fill-rule="evenodd"><g id="Group"><path d="M27.2411294,54.6754729 L56.7873882,54.2852612 C56.7873882,54.2852612 55.6757647,46.2195671 57.8761412,43.8627671 L57.8899765,42.2440376 C57.8899765,42.2440376 62.9703529,37.9918024 65.2051765,34.5287435 C67.4402824,31.0656847 66.3272471,24.7700612 61.9993412,20.6643671 C61.9993412,20.6643671 63.2032941,19.7958494 62.9367529,18.8025318 L58.1624471,13.0456376 L57.8188235,11.8998494 L56.6730353,11.8998494 L53.9816471,15.2793318 C53.9816471,15.2793318 51.0076235,13.6569318 48.6912,14.9165082 C48.6912,14.9165082 46.3471059,16.1292141 43.9592471,16.0241788 L42.1264941,16.7114259 C42.1264941,16.7114259 40.0122353,15.2313318 37.4295529,15.6229553 C37.4295529,15.6229553 36.0979765,13.9582024 35.0239059,13.9621553 C35.0239059,13.9621553 33.6742588,16.6541082 31.1878588,15.5656376 L30.6759529,15.7469082 L30.0389647,16.5321318 L29.6414118,23.3566024 L29.1893647,23.8134494 L29.2975059,26.7934024 C29.2975059,26.7934024 29.4482824,27.8578729 33.7651765,27.6526024 L34.6816941,28.6831906 C34.6816941,28.6831906 32.0007529,31.0255906 28.7816471,32.4062965 C28.7816471,32.4062965 21.6465882,37.0332141 19.3143529,45.9922729 C19.3143529,45.9922729 17.6998588,53.4009318 18.1736471,58.2094024 C18.1736471,58.2094024 18.3461647,59.3698729 18.8168471,59.8978729 L20.3056941,58.8661553 C20.3056941,58.8661553 20.1424941,57.6110965 21.1075765,57.7214965 C21.1075765,57.7214965 21.7665882,57.6517553 21.9040941,58.6868612 C21.9040941,58.6868612 21.7414588,58.9796612 23.2842353,58.8071435 L26.2046118,56.2896847 C26.2046118,56.2896847 26.2932706,54.6887435 27.2411294,54.6754729" id="Fill-1" fill="#85674C"></path><path d="M37.0883294,44.94864 L34.8964235,42.5751812 L35.0172706,42.42864 C35.3097882,42.0773929 36.3050824,40.7853459 36.8477647,38.9525929 C37.4254588,37.0018165 37.5745412,34.0303341 35.0104941,30.9512753 L34.8964235,30.8143341 L36.5371765,28.8079341 L36.6673412,28.8375812 C36.8830588,28.8864282 37.4596235,28.9990871 38.1612706,28.9990871 C39.4293176,28.9990871 41.6164235,28.5936282 42.0142588,25.87824 L42.0413647,25.6941459 L47.3682353,25.6941459 L47.3786824,25.8994165 C47.4032471,26.3715106 47.5483765,27.5607812 48.3776471,28.4050165 C48.9513882,28.9889224 49.7425412,29.2851106 50.7296471,29.2851106 C51.3465882,29.2851106 52.0479529,29.1684988 52.8151059,28.9375341 L52.9593882,28.8946165 L54.4211294,30.81264 L54.3220235,30.9439341 C54.0266824,31.3361224 53.0212235,32.7651106 52.4717647,34.6896282 C51.8966118,36.7064753 51.7447059,39.6683576 54.2923765,42.3433694 L54.4233882,42.48144 L52.4175529,44.9444047 L52.2532235,44.8280753 C51.7698353,44.4909459 50.0412706,43.3872282 48.0936,43.3872282 C46.8255529,43.3872282 45.7187294,43.8618635 44.8036235,44.7978635 L44.6618824,44.9427106 L44.5096941,44.8119812 C44.0618824,44.4305224 42.4541647,43.1890165 40.5561882,43.1890165 C39.3206118,43.1890165 38.2075765,43.7223812 37.2470118,44.7761224 L37.0883294,44.94864 Z" id="Fill-3" fill="#FFFFFE"></path><polygon id="Fill-5" fill="#85674C" points="39.0062118 33.5684894 39.9475765 33.5684894 39.9475765 38.8115012 42.7705412 38.8115012 42.7705412 39.1754541 39.0062118 39.1754541"></polygon><polygon id="Fill-7" fill="#85674C" points="43.5546353 39.1753412 44.4962824 39.1753412 44.4962824 33.5683765 43.5546353 33.5683765"></polygon><path d="M45.8076424,33.5684894 L46.7490071,33.5684894 L46.7490071,37.2060424 C46.7490071,37.4463247 46.7902306,37.6705129 46.8732424,37.8803012 C46.9565365,38.0900894 47.0734306,38.2741835 47.2247718,38.4331482 C47.3758306,38.5918306 47.5596424,38.7157835 47.7750776,38.8072659 C47.9902306,38.8984659 48.2307953,38.9439247 48.4959247,38.9439247 C48.76416,38.9439247 49.0072659,38.8984659 49.2227012,38.8072659 C49.4378541,38.7157835 49.6211012,38.5918306 49.7710306,38.4331482 C49.9206776,38.2741835 50.0358776,38.0900894 50.1155012,37.8803012 C50.1948424,37.6705129 50.2360659,37.4463247 50.2360659,37.2060424 L50.2360659,33.5684894 L50.6499953,33.5684894 L50.6499953,37.2060424 C50.6499953,37.4909365 50.6045365,37.7617129 50.51136,38.0175247 C50.4190306,38.2727718 50.2730541,38.4958306 50.0748424,38.6878306 C49.8763482,38.8792659 49.6216659,39.0308894 49.3107953,39.1407247 C48.9996424,39.2528188 48.6263718,39.30816 48.1921129,39.30816 C47.8067012,39.30816 47.4661835,39.2528188 47.1691482,39.1407247 C46.8726776,39.0308894 46.6227953,38.8781365 46.42176,38.6858541 C46.2204424,38.4924424 46.0676894,38.2682541 45.9632188,38.0099012 C45.8595953,37.7535247 45.8076424,37.4802071 45.8076424,37.1885365 L45.8076424,33.5684894 Z" id="Fill-9" fill="#85674C"></path><path d="M34.4695341,69.8889035 C16.9289224,66.4168094 5.51904,49.3807624 8.99028706,31.8361976 C12.4618165,14.2916329 29.4978635,2.88288 47.0424282,6.35440941 C64.5858635,9.82565647 75.9954635,26.8619859 72.5242165,44.40768 C69.0524047,61.9511153 52.0149459,73.3601506 34.4695341,69.8889035 M10.5449224,8.36024471 C14.5393694,-0.763990588 2.38407529,-0.0897317647 0.109722353,0.0827858824 C0.109722353,0.0827858824 1.82642824,0.388856471 2.25278118,1.80570353 C2.88835765,4.11789176 3.68064,10.2949271 10.0259576,8.70697412 C10.0793224,8.69342118 10.1837929,8.62565647 10.2851576,8.55393882 C11.8764988,11.5166682 12.3745694,14.4305506 12.4948518,16.4951153 C9.29099294,20.5737035 6.97485176,25.4488094 5.89880471,30.8852329 C2.25193412,49.3158212 14.2372518,67.2130447 32.6655812,70.8601976 C51.0967341,74.5070682 68.9948047,62.5211859 72.6413929,44.0911624 C76.2885459,25.6602918 64.3026635,7.76391529 45.8712282,4.11704471 C33.30624,1.63064471 20.9931106,6.41116235 13.2701929,15.5449976 C13.4187106,12.8123859 14.2875106,10.8912565 14.8259576,9.94650353 C14.9019106,10.0009976 14.9852047,10.0552094 15.0255812,10.0650918 C19.3972518,11.1346447 19.9193224,6.88071529 20.3482165,5.28711529 C20.6367812,4.31102118 21.8167341,4.09389176 21.8167341,4.09389176 C20.2516518,3.98349176 11.8844047,3.56532706 14.6672753,9.82848 C14.6672753,9.82848 14.6740518,9.83384471 14.6836518,9.84146824 C13.7479341,11.4184094 13.0719812,13.3830212 12.9819106,15.8030682 L13.0589929,15.7945976 C12.97344,15.8979388 12.8895812,16.0032565 12.8048753,16.1077271 C12.4748047,12.5639153 11.3936753,9.97784471 10.50624,8.38989176 C10.5282635,8.37295059 10.5449224,8.36024471 10.5449224,8.36024471" id="Fill-10" fill="#0E8B44"></path><path d="M77.6023906,37.81536 C77.8494494,37.8066071 78.0256376,37.7741365 78.13152,37.7182306 C78.3105318,37.6239247 78.40032,37.4446306 78.40032,37.1800659 L78.40032,32.8072659 C78.40032,32.5446776 78.3150494,32.3679247 78.1445082,32.2770071 C78.0445553,32.2216659 77.8638494,32.1866541 77.6023906,32.1722541 L77.6023906,31.9429835 L80.7588141,31.9429835 L80.7588141,32.1722541 C80.3914729,32.1841129 80.1469553,32.2349365 80.0249788,32.3258541 C79.90272,32.4162071 79.8420141,32.6398306 79.8420141,32.9967247 L79.8420141,37.2639247 C79.8420141,37.4638306 79.8942494,37.5962541 79.9984376,37.6609129 C80.1026259,37.7258541 80.3062024,37.7580424 80.6088847,37.7580424 C81.1526965,37.7580424 81.6089788,37.6383247 81.9780141,37.3986071 C82.3467671,37.1591718 82.6649788,36.6924424 82.9323671,35.9989835 L83.1969318,35.9989835 L82.8310024,38.0446306 L77.6023906,38.0446306 L77.6023906,37.81536 Z" id="Fill-11" fill="#85674C"></path><path d="M86.1329506,35.4961412 C86.1270212,34.9641882 86.0857976,34.5923294 86.0089976,34.3808471 C85.9321976,34.1690824 85.77888,34.0634824 85.5487624,34.0634824 C85.3129976,34.0634824 85.1514918,34.1854588 85.0645271,34.4294118 C84.97728,34.6733647 84.9278682,35.0288471 84.9160094,35.4961412 L86.1329506,35.4961412 Z M84.2137976,34.3565647 C84.5831153,33.9728471 85.0281035,33.7814118 85.5490447,33.7814118 C85.84608,33.7814118 86.1256094,33.8593412 86.3876329,34.0149176 C86.6496565,34.1707765 86.8509741,34.3867765 86.9921506,34.6629176 C87.0980329,34.8718588 87.1717271,35.1420706 87.2129506,35.4741176 C87.2335624,35.6299765 87.2440094,35.7491294 87.2440094,35.8312941 L84.9383153,35.8312941 C84.9589271,36.1927059 85.0176565,36.5058353 85.1150682,36.7704 C85.2915388,37.2670588 85.6024094,37.5152471 86.0471153,37.5152471 C86.2591624,37.5152471 86.4593506,37.4491765 86.6479624,37.3170353 C86.7625976,37.2374118 86.9054682,37.1038588 87.0762918,36.9158118 L87.2835388,37.0437176 C87.0040094,37.5019765 86.6804329,37.8210353 86.3125271,38.0003294 C86.0742212,38.1149647 85.8006212,38.1725647 85.4914447,38.1725647 C85.0473035,38.1725647 84.6308329,37.9975059 84.2423153,37.6476706 C83.8537976,37.2981176 83.6598212,36.7393412 83.6598212,35.9724706 C83.6598212,35.2787294 83.84448,34.74 84.2137976,34.3565647 Z" id="Fill-12" fill="#85674C"></path><path d="M89.8581459,37.3959812 C89.9287341,37.3431812 90.0125929,37.2607341 90.10944,37.14864 L90.10944,35.8266635 C89.8685929,35.8856753 89.6568282,35.9782871 89.4747106,36.1053459 C89.1660988,36.3204988 89.0116518,36.5946635 89.0116518,36.9275576 C89.0116518,37.1249224 89.0565459,37.2745694 89.1463341,37.3762165 C89.23584,37.4778635 89.3363576,37.5286871 89.4481694,37.5286871 C89.5949929,37.5286871 89.7319341,37.4843576 89.8581459,37.3959812 M88.2843106,36.2338165 C88.6753694,35.9955106 89.2877929,35.7552282 90.1227106,35.5135341 L90.1227106,34.8567812 C90.1227106,34.5896753 90.0659576,34.3917459 89.9530165,34.2641224 C89.8397929,34.1364988 89.6393224,34.0724047 89.3513224,34.0724047 C89.1895341,34.0724047 89.0565459,34.1023341 88.9523576,34.1624753 C88.8478871,34.2231812 88.7956518,34.2988518 88.7956518,34.3897694 C88.7956518,34.4250635 88.8015812,34.4544282 88.81344,34.4781459 C88.8250165,34.5015812 88.8428047,34.5261459 88.86624,34.5529694 L88.91904,34.61424 C88.9602635,34.6647812 88.9932988,34.7195576 89.0184282,34.7796988 C89.0432753,34.8401224 89.0559812,34.9039341 89.0559812,34.9716988 C89.0559812,35.14224 88.9992282,35.2735341 88.8862871,35.3664282 C88.7730635,35.45904 88.6414871,35.5050635 88.4915576,35.5050635 C88.3181929,35.5050635 88.17024,35.4539576 88.0485459,35.3508988 C87.9265694,35.2486871 87.8655812,35.1007341 87.8655812,34.9073224 C87.8655812,34.5608753 88.0287812,34.2869929 88.3548988,34.0845459 C88.6812988,33.8826635 89.08224,33.7815812 89.5582871,33.7815812 C90.0699106,33.7815812 90.4973929,33.8795576 90.8412988,34.0769224 C91.1820988,34.2768282 91.35264,34.6436047 91.35264,35.1786635 L91.35264,37.3657694 C91.35264,37.4301459 91.3695812,37.4852047 91.4034635,37.5312282 C91.4370635,37.5766871 91.4746165,37.5992753 91.51584,37.5992753 C91.5511341,37.5992753 91.5824753,37.5924988 91.6107106,37.5792282 C91.6383812,37.5665224 91.6818635,37.5303812 91.7405929,37.4716518 L91.8772518,37.6608282 C91.7010635,37.8666635 91.5053929,38.0109459 91.2910871,38.0931106 C91.15584,38.1459106 91.0132518,38.1724518 90.8633224,38.1724518 C90.5959341,38.1724518 90.4005459,38.0945224 90.2768753,37.9383812 C90.2065694,37.8500047 90.1548988,37.7192753 90.1227106,37.5450635 C89.8728282,37.7955106 89.5907576,37.9719812 89.2762165,38.07504 C89.0850635,38.1399812 88.8970165,38.1724518 88.7117929,38.1724518 C88.4650165,38.1724518 88.2343341,38.0936753 88.0197459,37.9361224 C87.8051576,37.7785694 87.6981459,37.5334871 87.6981459,37.2011576 C87.6981459,36.7945694 87.8935341,36.4724047 88.2843106,36.2338165" id="Fill-13" fill="#85674C"></path><path d="M92.1285459,34.2838871 L92.1285459,34.0325929 C92.2078871,33.9591812 92.3064282,33.8724988 92.4238871,33.7725459 C92.5797459,33.6285459 92.7265694,33.4800282 92.86464,33.3272753 C93.13824,33.0274165 93.3864282,32.7055341 93.6097694,32.3616282 L93.83904,32.3616282 L93.83904,33.8871812 L94.6988047,33.8871812 L94.6988047,34.2838871 L93.83904,34.2838871 L93.83904,36.99984 C93.83904,37.1260518 93.85824,37.2319341 93.8963576,37.3172047 C93.9550871,37.4493459 94.0522165,37.5154165 94.1874635,37.5154165 C94.3049224,37.5154165 94.4034635,37.4736282 94.4828047,37.3897694 C94.5621459,37.3061929 94.6414871,37.1907106 94.7208282,37.0438871 L94.9368282,37.1497694 C94.8309459,37.3965459 94.7050165,37.5978635 94.5579106,37.7537224 C94.2995576,38.0267576 93.9838871,38.1636988 93.6111812,38.1636988 C93.3996988,38.1636988 93.2147576,38.1238871 93.0563576,38.0445459 C92.7508518,37.8917929 92.5975341,37.6139576 92.59584,37.2113224 L92.59584,34.2838871 L92.1285459,34.2838871 Z" id="Fill-14" fill="#85674C"></path><path d="M95.1351529,37.8286024 C95.2997647,37.8079906 95.4208941,37.7630965 95.4988235,37.69392 C95.5767529,37.6250259 95.6157176,37.48752 95.6157176,37.2816847 L95.6157176,32.6832847 C95.6157176,32.5028612 95.5832471,32.3758024 95.5185882,32.30352 C95.4539294,32.2306729 95.3263059,32.1823906 95.1351529,32.1586729 L95.1351529,31.9426729 L96.8809412,31.9426729 L96.8809412,34.4821553 C97.0661647,34.2588141 97.2607059,34.0862965 97.4651294,33.9640376 C97.6692706,33.8420612 97.8993882,33.7816376 98.1549176,33.7816376 C98.5016471,33.7816376 98.7882353,33.8818729 99.0146824,34.0831906 C99.2411294,34.2847906 99.3540706,34.6278494 99.3540706,35.1123671 L99.3540706,37.2816847 C99.3540706,37.4844141 99.3885176,37.6176847 99.4576941,37.6809318 C99.5268706,37.7438965 99.6420706,37.7933082 99.8038588,37.8286024 L99.8038588,38.0446024 L97.6833882,38.0446024 L97.6833882,37.8286024 C97.8448941,37.7961318 97.9550118,37.7520847 98.0140235,37.6961788 C98.0727529,37.6405553 98.1021176,37.5140612 98.1021176,37.3169788 L98.1021176,35.1301553 C98.1021176,34.92432 98.0815059,34.7701553 98.0405647,34.6676612 C97.9699765,34.4821553 97.8302118,34.3895435 97.6215529,34.3895435 C97.4656941,34.3895435 97.3050353,34.4618259 97.1390118,34.6055435 C96.9727059,34.7498259 96.8896941,34.8480847 96.8896941,34.9008847 L96.8896941,37.3169788 C96.8896941,37.5140612 96.9190588,37.6405553 96.9780706,37.6961788 C97.0368,37.7520847 97.1469176,37.7961318 97.3087059,37.8286024 L97.3087059,38.0446024 L95.1351529,38.0446024 L95.1351529,37.8286024 Z" id="Fill-15" fill="#85674C"></path><path d="M102.682729,35.4961412 C102.6768,34.9641882 102.635576,34.5923294 102.558776,34.3808471 C102.481976,34.1690824 102.328659,34.0634824 102.098541,34.0634824 C101.862776,34.0634824 101.701271,34.1854588 101.614306,34.4294118 C101.527059,34.6733647 101.477647,35.0288471 101.465788,35.4961412 L102.682729,35.4961412 Z M100.763576,34.3565647 C101.132894,33.9728471 101.577882,33.7814118 102.098824,33.7814118 C102.395859,33.7814118 102.675388,33.8593412 102.937412,34.0149176 C103.199435,34.1707765 103.400753,34.3867765 103.541929,34.6629176 C103.647812,34.8718588 103.721506,35.1420706 103.762729,35.4741176 C103.783341,35.6299765 103.793788,35.7491294 103.793788,35.8312941 L101.488094,35.8312941 C101.508706,36.1927059 101.567435,36.5058353 101.664847,36.7704 C101.841318,37.2670588 102.152188,37.5152471 102.596894,37.5152471 C102.808941,37.5152471 103.009129,37.4491765 103.197741,37.3170353 C103.312376,37.2374118 103.455247,37.1038588 103.626071,36.9158118 L103.833318,37.0437176 C103.553788,37.5019765 103.230212,37.8210353 102.862306,38.0003294 C102.624,38.1149647 102.3504,38.1725647 102.041224,38.1725647 C101.597082,38.1725647 101.180612,37.9975059 100.792094,37.6476706 C100.403576,37.2981176 100.2096,36.7393412 100.2096,35.9724706 C100.2096,35.2787294 100.394259,34.74 100.763576,34.3565647 Z" id="Fill-16" fill="#85674C"></path><path d="M104.181628,37.8286024 C104.354993,37.8079906 104.475558,37.7667671 104.54304,37.7052141 C104.610805,37.6433788 104.647511,37.5242259 104.65344,37.3480376 L104.662193,37.0834729 L104.662193,34.6278494 C104.662193,34.4381082 104.629722,34.3093553 104.565064,34.2407435 C104.500405,34.1729788 104.372781,34.1269553 104.181628,34.1032376 L104.181628,33.8872376 L105.892122,33.8872376 L105.892122,34.5970729 C106.083558,34.3469082 106.273581,34.1486965 106.462193,34.0015906 C106.650805,33.8547671 106.868781,33.7816376 107.116122,33.7816376 C107.301628,33.7816376 107.468781,33.8406494 107.617581,33.9598024 C107.766381,34.0789553 107.84064,34.2528847 107.84064,34.4821553 C107.84064,34.6583435 107.788405,34.80432 107.683934,34.9183906 C107.579181,35.0335906 107.443087,35.0909082 107.275087,35.0909082 C107.083652,35.0909082 106.917911,35.0008376 106.777864,34.8218259 C106.638099,34.6422494 106.540122,34.5524612 106.484216,34.5524612 C106.363369,34.5524612 106.241675,34.6272847 106.119699,34.77552 C105.99744,34.9237553 105.936169,35.1363671 105.936169,35.4130729 L105.936169,37.1232847 C105.936169,37.4211671 105.979652,37.6072376 106.066334,37.6814965 C106.153016,37.75632 106.325534,37.8051671 106.584169,37.8286024 L106.584169,38.0446024 L104.181628,38.0446024 L104.181628,37.8286024 Z" id="Fill-17" fill="#85674C"></path><path d="M110.269722,37.81536 C110.525534,37.8094306 110.709064,37.7783718 110.820875,37.7227482 C111.002993,37.6287247 111.094193,37.4477365 111.094193,37.1806306 L111.094193,32.8072659 C111.094193,32.5412894 111.007511,32.3631247 110.834146,32.2730541 C110.728264,32.2171482 110.540216,32.1841129 110.269722,32.1722541 L110.269722,31.9429835 L113.426428,31.9429835 L113.426428,32.1722541 C113.144075,32.1841129 112.950099,32.2157365 112.844499,32.2682541 C112.668028,32.3588894 112.579934,32.5387482 112.579934,32.8072659 L112.579934,37.1806306 C112.579934,37.4330541 112.650522,37.6021835 112.791416,37.6874541 C112.932593,37.7727247 113.144075,37.81536 113.426428,37.81536 L113.426428,38.0446306 L110.269722,38.0446306 L110.269722,37.81536 Z" id="Fill-18" fill="#85674C"></path><path d="M113.783548,37.8286024 C113.94816,37.8079906 114.069289,37.7630965 114.147219,37.69392 C114.224866,37.6250259 114.264113,37.48752 114.264113,37.2816847 L114.264113,34.6278494 C114.264113,34.4440376 114.232489,34.3166965 114.169242,34.2455435 C114.106278,34.1743906 113.977525,34.1269553 113.783548,34.1032376 L113.783548,33.8872376 L115.494042,33.8872376 L115.494042,34.5349553 C115.63776,34.3175435 115.821007,34.1379671 116.042936,33.9948141 C116.264584,33.8525082 116.510795,33.7816376 116.781007,33.7816376 C117.169242,33.7816376 117.469948,33.8813082 117.683407,34.0812141 C117.896019,34.28112 118.002466,34.6323671 118.002466,35.1343906 L118.002466,37.3169788 C118.002466,37.5197082 118.036913,37.65072 118.106372,37.7094494 C118.175548,37.7681788 118.290466,37.8079906 118.452536,37.8286024 L118.452536,38.0446024 L116.331501,38.0446024 L116.331501,37.8286024 C116.493289,37.7961318 116.603125,37.7520847 116.662136,37.6961788 C116.720866,37.6405553 116.750231,37.5140612 116.750231,37.3169788 L116.750231,35.1301553 C116.750231,34.92432 116.729901,34.7701553 116.688678,34.6676612 C116.618089,34.4821553 116.478325,34.3895435 116.269948,34.3895435 C116.113807,34.3895435 115.970936,34.4462965 115.840207,34.5592376 C115.709478,34.6727435 115.608678,34.7865318 115.538089,34.9008847 L115.538089,37.3169788 C115.538089,37.5140612 115.567172,37.6405553 115.626184,37.6961788 C115.684913,37.7520847 115.795313,37.7961318 115.957101,37.8286024 L115.957101,38.0446024 L113.783548,38.0446024 L113.783548,37.8286024 Z" id="Fill-19" fill="#85674C"></path><path d="M121.456433,37.4009224 C121.611162,37.2275576 121.688527,37.1055812 121.688527,37.0349929 L121.688527,34.8394165 C121.688527,34.7657224 121.622174,34.6572988 121.489751,34.5130165 C121.356762,34.3692988 121.181421,34.2970165 120.963445,34.2970165 C120.642127,34.2970165 120.423868,34.5189459 120.308951,34.9628047 C120.247115,35.2008282 120.215774,35.5371106 120.215774,35.9722165 C120.215774,36.4366871 120.245704,36.7865224 120.304433,37.0217224 C120.413704,37.4477929 120.622927,37.6609694 120.932951,37.6609694 C121.126927,37.6609694 121.301704,37.5742871 121.456433,37.4009224 M119.39808,34.4009224 C119.737468,33.98784 120.145186,33.78144 120.621798,33.78144 C120.859821,33.78144 121.071304,33.8401694 121.256527,33.9579106 C121.371162,34.0282165 121.515162,34.1544282 121.688527,34.3365459 L121.688527,32.6833694 C121.688527,32.4552282 121.64448,32.3134871 121.556386,32.2592753 C121.468292,32.2042165 121.285892,32.1708988 121.009751,32.15904 L121.009751,31.9427576 L122.954033,31.9427576 L122.954033,37.1408753 C122.954033,37.3272282 122.989327,37.4562635 123.059915,37.5276988 C123.130504,37.5988518 123.268856,37.6434635 123.474409,37.6609694 L123.474409,37.8679341 C122.968715,37.9181929 122.642598,37.9557459 122.496056,37.9805929 C122.348668,38.0057224 122.090033,38.0692518 121.719868,38.1723106 L121.719868,37.5771106 C121.549045,37.7535812 121.393186,37.8843106 121.252009,37.9695812 C121.028668,38.1045459 120.787821,38.1723106 120.529186,38.1723106 C120.087868,38.1723106 119.704433,37.9856753 119.378598,37.6124047 C119.051633,37.2391341 118.888998,36.7323106 118.888998,36.0913694 C118.888998,35.3772988 119.058692,34.81344 119.39808,34.4009224" id="Fill-20" fill="#85674C"></path><path d="M125.529318,33.8870965 L125.529318,36.9511906 C125.529318,37.1335906 125.551341,37.2671435 125.595106,37.3524141 C125.671906,37.5020612 125.823247,37.5771671 126.049694,37.5771671 C126.193976,37.5771671 126.334588,37.5317082 126.472659,37.4405082 C126.552282,37.3905318 126.652235,37.3069553 126.772235,37.1894965 L126.772235,34.6277082 C126.772235,34.4379671 126.735247,34.3052612 126.660141,34.2298729 C126.585318,34.1542024 126.434541,34.1121318 126.208094,34.1030965 L126.208094,33.8870965 L128.006965,33.8870965 L128.006965,37.1409318 C128.006965,37.3272847 128.041694,37.45632 128.112282,37.5277553 C128.182871,37.5989082 128.321506,37.64352 128.527059,37.6610259 L128.527059,37.8679906 C127.969129,37.9210729 127.616753,37.9600376 127.471341,37.9848847 C127.325929,38.0100141 127.092988,38.0724141 126.772235,38.1723671 L126.772235,37.5771671 C126.557929,37.7623906 126.380329,37.89312 126.239153,37.9693553 C125.992659,38.1046024 125.735153,38.1723671 125.467765,38.1723671 C125.176659,38.1723671 124.9056,38.0797553 124.654024,37.8945318 C124.402729,37.7095906 124.277082,37.3806494 124.277082,36.9071435 L124.277082,34.6277082 C124.277082,34.4348612 124.246306,34.3089318 124.184471,34.2493553 C124.1232,34.1900612 124.003765,34.1412141 123.827294,34.1030965 L123.827294,33.8870965 L125.529318,33.8870965 Z" id="Fill-21" fill="#85674C"></path><path d="M128.932715,36.6776753 L129.184574,36.6776753 C129.272104,37.1099576 129.436715,37.4146165 129.678127,37.5924988 C129.918692,37.7703812 130.165751,37.8593224 130.418739,37.8593224 C130.650551,37.8593224 130.821092,37.8070871 130.929798,37.7028988 C131.038504,37.5987106 131.092998,37.4609224 131.092998,37.2906635 C131.092998,37.1291576 131.033986,36.9908047 130.916527,36.8761694 C130.852151,36.8143341 130.74768,36.7482635 130.60368,36.6776753 L129.933656,36.35184 C129.580998,36.1776282 129.327727,35.9901459 129.174974,35.7874165 C129.01968,35.5841224 128.941468,35.3446871 128.941468,35.0685459 C128.941468,34.7187106 129.063727,34.4171576 129.307398,34.1624753 C129.551068,33.9083576 129.891868,33.7815812 130.330362,33.7815812 C130.521233,33.7815812 130.724245,33.8129224 130.938551,33.8761694 C131.153139,33.9391341 131.286974,33.97104 131.339774,33.97104 C131.413186,33.97104 131.465704,33.9552282 131.49648,33.9247341 C131.527256,33.8939576 131.552951,33.8501929 131.573562,33.7945694 L131.772056,33.7945694 L131.772056,35.0996047 L131.542786,35.0996047 C131.457233,34.7940988 131.317751,34.5481694 131.124056,34.3629459 C130.929798,34.1777224 130.703351,34.0853929 130.444433,34.0853929 C130.244809,34.0853929 130.096009,34.1415812 129.997468,34.2531106 C129.898927,34.3649224 129.849798,34.4849224 129.849798,34.61424 C129.849798,34.7201224 129.893562,34.8260047 129.982221,34.9316047 C130.067492,35.0408753 130.228998,35.1524047 130.467304,35.2667576 L130.960856,35.5050635 C131.266362,35.6521694 131.489986,35.7947576 131.63088,35.9325459 C131.86608,36.1677459 131.983539,36.45744 131.983539,36.8010635 C131.983539,37.1364988 131.862409,37.4482165 131.619868,37.7381929 C131.377327,38.0276047 131.013656,38.1724518 130.528292,38.1724518 C130.408292,38.1724518 130.28688,38.1597459 130.164904,38.1348988 C130.043209,38.1097694 129.891868,38.0665694 129.713421,38.0047341 L129.558974,37.9519341 C129.503351,37.9313224 129.468339,37.9194635 129.455351,37.91664 L129.404527,37.9121224 C129.354551,37.9121224 129.311351,37.9318871 129.274362,37.9716988 C129.237656,38.0115106 129.196151,38.0781459 129.14928,38.1724518 L128.932715,38.1724518 L128.932715,36.6776753 Z" id="Fill-22" fill="#85674C"></path><path d="M132.362598,34.2838871 L132.362598,34.0325929 C132.441656,33.9591812 132.540198,33.8724988 132.657939,33.7725459 C132.813798,33.6285459 132.960621,33.4800282 133.098692,33.3272753 C133.372009,33.0274165 133.62048,32.7055341 133.843821,32.3616282 L134.073092,32.3616282 L134.073092,33.8871812 L134.933139,33.8871812 L134.933139,34.2838871 L134.073092,34.2838871 L134.073092,36.99984 C134.073092,37.1260518 134.092009,37.2319341 134.130409,37.3172047 C134.189139,37.4493459 134.286268,37.5154165 134.421233,37.5154165 C134.538692,37.5154165 134.637515,37.4736282 134.716574,37.3897694 C134.795915,37.3061929 134.875256,37.1907106 134.95488,37.0438871 L135.170598,37.1497694 C135.064998,37.3965459 134.938786,37.5978635 134.791962,37.7537224 C134.533327,38.0267576 134.217939,38.1636988 133.844951,38.1636988 C133.633751,38.1636988 133.448809,38.1238871 133.290127,38.0445459 C132.984621,37.8917929 132.831304,37.6139576 132.829609,37.2113224 L132.829609,34.2838871 L132.362598,34.2838871 Z" id="Fill-23" fill="#85674C"></path><path d="M135.386852,37.8286024 C135.559934,37.8079906 135.680499,37.7667671 135.748264,37.7052141 C135.816028,37.6433788 135.852452,37.5242259 135.858381,37.3480376 L135.867134,37.0834729 L135.867134,34.6278494 C135.867134,34.4381082 135.834946,34.3093553 135.770287,34.2407435 C135.705628,34.1729788 135.577722,34.1269553 135.386852,34.1032376 L135.386852,33.8872376 L137.097346,33.8872376 L137.097346,34.5970729 C137.288499,34.3469082 137.478522,34.1486965 137.667134,34.0015906 C137.855746,33.8547671 138.073722,33.7816376 138.321346,33.7816376 C138.506852,33.7816376 138.674005,33.8406494 138.822805,33.9598024 C138.971322,34.0789553 139.045864,34.2528847 139.045864,34.4821553 C139.045864,34.6583435 138.993346,34.80432 138.888875,34.9183906 C138.784405,35.0335906 138.648028,35.0909082 138.480311,35.0909082 C138.288593,35.0909082 138.122852,35.0008376 137.983087,34.8218259 C137.84304,34.6422494 137.745346,34.5524612 137.689158,34.5524612 C137.568593,34.5524612 137.446899,34.6272847 137.32464,34.77552 C137.202664,34.9237553 137.141393,35.1363671 137.141393,35.4130729 L137.141393,37.1232847 C137.141393,37.4211671 137.184593,37.6072376 137.271558,37.6814965 C137.357958,37.75632 137.530758,37.8051671 137.789393,37.8286024 L137.789393,38.0446024 L135.386852,38.0446024 L135.386852,37.8286024 Z" id="Fill-24" fill="#85674C"></path><path d="M139.978391,32.0112847 C140.115049,31.8746259 140.280226,31.8062965 140.474485,31.8062965 C140.665355,31.8062965 140.829402,31.8746259 140.965779,32.0112847 C141.102155,32.1479435 141.171049,32.31312 141.171049,32.5070965 C141.171049,32.7010729 141.102155,32.8665318 140.965779,33.0031906 C140.829402,33.1398494 140.665355,33.2081788 140.474485,33.2081788 C140.280226,33.2081788 140.115049,33.1398494 139.978391,33.0031906 C139.841732,32.8665318 139.773402,32.7010729 139.773402,32.5070965 C139.773402,32.31312 139.841732,32.1479435 139.978391,32.0112847 Z M139.376696,37.8288847 C139.535379,37.8020612 139.643802,37.7625318 139.702814,37.7094494 C139.791191,37.6301082 139.834955,37.48752 139.834955,37.2819671 L139.834955,34.6278494 C139.834955,34.4440376 139.804179,34.3186729 139.742626,34.2520376 C139.680791,34.1854024 139.558814,34.1357082 139.376696,34.1032376 L139.376696,33.8872376 L141.109214,33.8872376 L141.109214,37.3172612 C141.109214,37.5140612 141.138296,37.6408376 141.197308,37.6961788 C141.256038,37.7523671 141.366438,37.7961318 141.527944,37.8288847 L141.527944,38.0446024 L139.376696,38.0446024 L139.376696,37.8288847 Z" id="Fill-25" fill="#85674C"></path><path d="M144.411134,35.4961412 C144.405205,34.9641882 144.363981,34.5923294 144.287464,34.3808471 C144.210381,34.1690824 144.057064,34.0634824 143.827228,34.0634824 C143.591181,34.0634824 143.429393,34.1854588 143.342711,34.4294118 C143.255464,34.6733647 143.206052,35.0288471 143.193911,35.4961412 L144.411134,35.4961412 Z M142.491981,34.3565647 C142.861299,33.9728471 143.306287,33.7814118 143.827228,33.7814118 C144.124264,33.7814118 144.404075,33.8593412 144.665816,34.0149176 C144.927558,34.1707765 145.129158,34.3867765 145.270616,34.6629176 C145.376499,34.8718588 145.449911,35.1420706 145.491134,35.4741176 C145.511746,35.6299765 145.522193,35.7491294 145.522193,35.8312941 L143.216499,35.8312941 C143.237111,36.1927059 143.29584,36.5058353 143.393252,36.7704 C143.570005,37.2670588 143.880593,37.5152471 144.325016,37.5152471 C144.537064,37.5152471 144.737534,37.4491765 144.925864,37.3170353 C145.040499,37.2374118 145.183652,37.1038588 145.354475,36.9158118 L145.561722,37.0437176 C145.282193,37.5019765 144.958334,37.8210353 144.590711,38.0003294 C144.352405,38.1149647 144.078522,38.1725647 143.769911,38.1725647 C143.325205,38.1725647 142.909016,37.9975059 142.520499,37.6476706 C142.132264,37.2981176 141.937722,36.7393412 141.937722,35.9724706 C141.937722,35.2787294 142.122664,34.74 142.491981,34.3565647 Z" id="Fill-26" fill="#85674C"></path><path d="M145.976188,36.6776753 L146.227765,36.6776753 C146.315576,37.1099576 146.480188,37.4146165 146.721318,37.5924988 C146.962165,37.7703812 147.209224,37.8593224 147.461929,37.8593224 C147.694024,37.8593224 147.864565,37.8070871 147.973271,37.7028988 C148.081976,37.5987106 148.136471,37.4609224 148.136471,37.2906635 C148.136471,37.1291576 148.077459,36.9908047 147.96,36.8761694 C147.895624,36.8143341 147.791153,36.7482635 147.647153,36.6776753 L146.977129,36.35184 C146.624471,36.1776282 146.371482,35.9901459 146.218729,35.7874165 C146.063153,35.5841224 145.984941,35.3446871 145.984941,35.0685459 C145.984941,34.7187106 146.1072,34.4171576 146.350871,34.1624753 C146.594824,33.9083576 146.935624,33.7815812 147.373835,33.7815812 C147.564706,33.7815812 147.767718,33.8129224 147.982024,33.8761694 C148.196612,33.9391341 148.330447,33.97104 148.383247,33.97104 C148.456659,33.97104 148.509176,33.9552282 148.539953,33.9247341 C148.570729,33.8939576 148.596424,33.8501929 148.617035,33.7945694 L148.815529,33.7945694 L148.815529,35.0996047 L148.586259,35.0996047 C148.500706,34.7940988 148.361224,34.5481694 148.167529,34.3629459 C147.973271,34.1777224 147.746824,34.0853929 147.488188,34.0853929 C147.288,34.0853929 147.139482,34.1415812 147.040941,34.2531106 C146.9424,34.3649224 146.893271,34.4849224 146.893271,34.61424 C146.893271,34.7201224 146.937318,34.8260047 147.025694,34.9316047 C147.110965,35.0408753 147.272471,35.1524047 147.510494,35.2667576 L148.004329,35.5050635 C148.309835,35.6521694 148.533459,35.7947576 148.674353,35.9325459 C148.909553,36.1677459 149.027012,36.45744 149.027012,36.8010635 C149.027012,37.1364988 148.905882,37.4482165 148.663341,37.7381929 C148.4208,38.0276047 148.057129,38.1724518 147.572047,38.1724518 C147.451765,38.1724518 147.330353,38.1597459 147.208376,38.1348988 C147.086682,38.1097694 146.935624,38.0665694 146.756612,38.0047341 L146.602447,37.9519341 C146.546541,37.9313224 146.511529,37.9194635 146.498824,37.91664 L146.448,37.9121224 C146.398024,37.9121224 146.354824,37.9318871 146.317835,37.9716988 C146.281129,38.0115106 146.239341,38.0781459 146.192471,38.1724518 L145.976188,38.1724518 L145.976188,36.6776753 Z" id="Fill-27" fill="#85674C"></path><path d="M153.140075,37.3038776 C153.242852,37.6949365 153.446993,37.8900424 153.752781,37.8900424 C154.043605,37.8900424 154.234758,37.7403953 154.325958,37.4405365 C154.416875,37.14096 154.462616,36.6527718 154.462616,35.9765365 C154.462616,35.3039718 154.414899,34.8163482 154.319464,34.5156424 C154.223746,34.2143718 154.036546,34.0633129 153.757299,34.0633129 C153.451511,34.0633129 153.247369,34.2587012 153.144593,34.6500424 C153.076546,34.9112188 153.042946,35.3536659 153.042946,35.9765365 C153.042946,36.6087247 153.075416,37.0508894 153.140075,37.3038776 M152.29584,34.4029835 C152.682099,33.98256 153.168028,33.7727718 153.752781,33.7727718 C154.349393,33.7727718 154.838146,33.9867953 155.218475,34.4159718 C155.599087,34.8451482 155.789675,35.3652424 155.789675,35.9765365 C155.789675,36.5796424 155.601346,37.0974776 155.225252,37.5308894 C154.849158,37.9645835 154.358146,38.1811482 153.752781,38.1811482 C153.164922,38.1811482 152.678428,37.9702306 152.293581,37.5483953 C151.908452,37.1268424 151.715887,36.6030776 151.715887,35.9765365 C151.715887,35.3480188 151.909299,34.8231247 152.29584,34.4029835" id="Fill-28" fill="#85674C"></path><path d="M156.15552,37.8286024 C156.340461,37.8136376 156.473449,37.7726965 156.554485,37.7052141 C156.635238,37.6374494 156.675614,37.4962729 156.675614,37.2816847 L156.675614,34.3457788 L156.15552,34.3457788 L156.15552,33.9487906 L156.675614,33.9487906 L156.675614,33.61392 C156.675614,33.1932141 156.741685,32.8478965 156.874108,32.5776847 C157.123991,32.0725553 157.585073,31.8192847 158.258202,31.8192847 C158.616791,31.8192847 158.92032,31.9008847 159.168791,32.0640847 C159.416979,32.2275671 159.541214,32.4424376 159.541214,32.7101082 C159.541214,32.8772612 159.488979,33.0125082 159.384791,33.1158494 C159.28032,33.2183435 159.141402,33.2697318 158.968038,33.2697318 C158.824038,33.2697318 158.700649,33.2225788 158.597591,33.1285553 C158.494814,33.0345318 158.443708,32.9218729 158.443708,32.7891671 C158.443708,32.6892141 158.476744,32.5841788 158.542532,32.4743435 C158.608602,32.3639435 158.64192,32.2973082 158.64192,32.2735906 C158.64192,32.1998965 158.615379,32.1530259 158.562296,32.1326965 C158.509496,32.1118024 158.452461,32.1013553 158.390626,32.1013553 C158.243802,32.1013553 158.130296,32.1445553 158.051238,32.2292612 C157.971896,32.3148141 157.932085,32.4986259 157.932085,32.7806965 L157.932085,33.9487906 L158.716744,33.9487906 L158.716744,34.3457788 L157.932085,34.3457788 L157.932085,37.1187671 C157.932085,37.4302024 157.976696,37.6213553 158.066767,37.6919435 C158.156273,37.7625318 158.355332,37.8079906 158.663944,37.8286024 L158.663944,38.0446024 L156.15552,38.0446024 L156.15552,37.8286024 Z" id="Fill-29" fill="#85674C"></path><path d="M164.492358,31.9428988 L164.492358,32.1721694 C164.142522,32.1840282 163.909016,32.2379576 163.791275,32.3345224 C163.673816,32.4310871 163.615087,32.6516047 163.615087,32.99664 L163.615087,36.0220518 C163.615087,36.48144 163.669299,36.8363576 163.778005,37.0865224 C163.974805,37.55184 164.352593,37.7844988 164.910805,37.7844988 C165.604546,37.7844988 166.073534,37.5269929 166.317487,37.0122635 C166.452452,36.7299106 166.520216,36.3340518 166.520216,35.8249694 L166.520216,33.0627106 C166.520216,32.7394165 166.46064,32.5169224 166.341769,32.3949459 C166.222616,32.2726871 165.989675,32.1987106 165.642946,32.1721694 L165.642946,31.9428988 L167.626758,31.9428988 L167.626758,32.1721694 C167.338758,32.2280753 167.148452,32.2964047 167.05584,32.3771576 C166.963228,32.4579106 166.916922,32.6439812 166.916922,32.9348047 L166.916922,35.8224282 C166.916922,36.5898635 166.731981,37.1819576 166.361534,37.5992753 C165.991369,38.0165929 165.409158,38.2252518 164.615746,38.2252518 C163.578099,38.2252518 162.868264,37.9149459 162.486522,37.2943341 C162.283511,36.9651106 162.182146,36.5398871 162.182146,36.0189459 L162.182146,32.99664 C162.182146,32.6575341 162.137252,32.4440753 162.047746,32.3562635 C161.957675,32.2687341 161.756075,32.2074635 161.441534,32.1721694 L161.441534,31.9428988 L164.492358,31.9428988 Z" id="Fill-30" fill="#85674C"></path><path d="M169.429694,36.0077929 C169.518071,36.2723576 169.686635,36.4047812 169.936518,36.4047812 C170.162965,36.4047812 170.318541,36.3053929 170.403812,36.1068988 C170.489082,35.9081224 170.531718,35.6184282 170.531718,35.2364047 C170.531718,34.8306635 170.486824,34.5353224 170.397318,34.3498165 C170.307529,34.1648753 170.153929,34.0725459 169.936518,34.0725459 C169.698494,34.0725459 169.539812,34.1716518 169.460471,34.3698635 C169.381129,34.5680753 169.3416,34.8569224 169.3416,35.2364047 C169.3416,35.5831341 169.370682,35.8403576 169.429694,36.0077929 M169.114588,39.4677459 C169.3128,39.5739106 169.600235,39.6272753 169.976329,39.6272753 C170.3112,39.6272753 170.587906,39.6004518 170.805035,39.5476518 C171.2136,39.4471341 171.417741,39.2627576 171.417741,38.99424 C171.417741,38.8378165 171.359859,38.72064 171.243812,38.6424282 C171.127765,38.5639341 170.917129,38.5255341 170.611624,38.5255341 L169.129835,38.5255341 C169.035529,38.6017694 168.968047,38.6667106 168.927106,38.7197929 C168.853694,38.8172047 168.816706,38.9205459 168.816706,39.0298165 C168.816706,39.2156047 168.916094,39.3615812 169.114588,39.4677459 M168.184235,38.6901459 C168.291529,38.5537694 168.477318,38.4648282 168.741882,38.4236047 L168.741882,38.3617694 C168.565412,38.2942871 168.437506,38.2253929 168.358447,38.1548047 C168.217271,38.0285929 168.146682,37.8591812 168.146682,37.6476988 C168.146682,37.3949929 168.257647,37.1789929 168.479576,36.9996988 C168.701506,36.8204047 168.918071,36.6953224 169.129835,36.6247341 L169.129835,36.5631812 C168.824047,36.4397929 168.576988,36.2638871 168.388941,36.0343341 C168.200894,35.8050635 168.106871,35.5269459 168.106871,35.2011106 C168.106871,34.7897224 168.271482,34.4497694 168.600706,34.1826635 C168.929929,33.9149929 169.3752,33.78144 169.936518,33.78144 C170.148282,33.78144 170.341976,33.8017694 170.518447,33.8429929 C170.694635,33.8842165 170.831576,33.9265694 170.928706,33.9711812 L172.118824,33.9711812 L172.118824,34.4511812 L171.387247,34.4511812 C171.504706,34.5660988 171.595059,34.6999341 171.658306,34.8526871 C171.721271,35.0057224 171.753176,35.1717459 171.753176,35.3504753 C171.753176,35.9148988 171.483812,36.3020047 170.946212,36.5103812 C170.663859,36.6219106 170.312894,36.6778165 169.892753,36.6778165 C169.801271,36.6778165 169.741694,36.6766871 169.714024,36.6732988 C169.686071,36.6704753 169.644282,36.6687812 169.588659,36.6687812 C169.500282,36.6837459 169.407671,36.7306165 169.310541,36.8099576 C169.210871,36.8924047 169.160612,36.9909459 169.160612,37.1055812 C169.160612,37.1964988 169.185741,37.2670871 169.235718,37.3170635 C169.285412,37.3673224 169.354588,37.3978165 169.442965,37.4096753 C169.487012,37.4156047 169.581035,37.4206871 169.725035,37.4252047 C169.869035,37.4297224 169.980565,37.4316988 170.059906,37.4316988 L170.646918,37.4407341 C170.9784,37.4463812 171.257647,37.4949459 171.483812,37.5858635 C171.916094,37.7623341 172.132094,38.0782871 172.132094,38.5340047 C172.132094,39.1215812 171.8088,39.5256282 171.162212,39.7464282 C170.821412,39.8607812 170.391953,39.9180988 169.874965,39.9180988 C169.451718,39.9180988 169.0872,39.8771576 168.781412,39.7947106 C168.276,39.6563576 168.023576,39.42144 168.023576,39.0893929 C168.023576,38.9600753 168.076941,38.8270871 168.184235,38.6901459" id="Fill-31" fill="#85674C"></path><path d="M174.719944,37.3959812 C174.790532,37.3431812 174.874108,37.2607341 174.971238,37.14864 L174.971238,35.8266635 C174.730108,35.8856753 174.518344,35.9782871 174.336508,36.1053459 C174.027896,36.3204988 173.873449,36.5946635 173.873449,36.9275576 C173.873449,37.1249224 173.918061,37.2745694 174.008132,37.3762165 C174.097638,37.4778635 174.198155,37.5286871 174.309967,37.5286871 C174.456791,37.5286871 174.593449,37.4843576 174.719944,37.3959812 M173.146108,36.2338165 C173.536885,35.9955106 174.149591,35.7552282 174.984791,35.5135341 L174.984791,34.8567812 C174.984791,34.5896753 174.927755,34.3917459 174.814532,34.2641224 C174.701591,34.1364988 174.50112,34.0724047 174.212838,34.0724047 C174.051332,34.0724047 173.918061,34.1023341 173.813873,34.1624753 C173.709685,34.2231812 173.657167,34.2988518 173.657167,34.3897694 C173.657167,34.4250635 173.663379,34.4544282 173.674955,34.4781459 C173.686814,34.5015812 173.70432,34.5261459 173.727755,34.5529694 L173.780838,34.61424 C173.821779,34.6647812 173.855096,34.7195576 173.879944,34.7796988 C173.904791,34.8401224 173.917496,34.9039341 173.917496,34.9716988 C173.917496,35.14224 173.860744,35.2735341 173.747802,35.3664282 C173.634579,35.45904 173.503002,35.5050635 173.353073,35.5050635 C173.179708,35.5050635 173.031755,35.4539576 172.910061,35.3508988 C172.788085,35.2486871 172.727096,35.1007341 172.727096,34.9073224 C172.727096,34.5608753 172.890579,34.2869929 173.216696,34.0845459 C173.542814,33.8826635 173.944038,33.7815812 174.419802,33.7815812 C174.931426,33.7815812 175.359191,33.8795576 175.702814,34.0769224 C176.043614,34.2768282 176.214438,34.6436047 176.214438,35.1786635 L176.214438,37.3657694 C176.214438,37.4301459 176.231661,37.4852047 176.265261,37.5312282 C176.298861,37.5766871 176.336414,37.5992753 176.377355,37.5992753 C176.412649,37.5992753 176.444273,37.5924988 176.472226,37.5792282 C176.500179,37.5665224 176.543379,37.5303812 176.602391,37.4716518 L176.738767,37.6608282 C176.562579,37.8666635 176.367191,38.0109459 176.152602,38.0931106 C176.017638,38.1459106 175.875049,38.1724518 175.72512,38.1724518 C175.457449,38.1724518 175.262061,38.0945224 175.138673,37.9383812 C175.068085,37.8500047 175.016696,37.7192753 174.984791,37.5450635 C174.734626,37.7955106 174.452555,37.9719812 174.137449,38.07504 C173.946861,38.1399812 173.758814,38.1724518 173.573591,38.1724518 C173.326532,38.1724518 173.095849,38.0936753 172.881544,37.9361224 C172.666955,37.7785694 172.559661,37.5334871 172.559661,37.2011576 C172.559661,36.7945694 172.755049,36.4724047 173.146108,36.2338165" id="Fill-32" fill="#85674C"></path><path d="M176.990344,37.8286024 C177.154673,37.8079906 177.276085,37.7630965 177.354014,37.69392 C177.431661,37.6250259 177.470626,37.48752 177.470626,37.2816847 L177.470626,34.6278494 C177.470626,34.4440376 177.439285,34.3166965 177.376038,34.2455435 C177.312791,34.1743906 177.184602,34.1269553 176.990344,34.1032376 L176.990344,33.8872376 L178.700838,33.8872376 L178.700838,34.5349553 C178.844555,34.3175435 179.027802,34.1379671 179.249732,33.9948141 C179.471379,33.8525082 179.717591,33.7816376 179.988085,33.7816376 C180.376038,33.7816376 180.676461,33.8813082 180.889638,34.0812141 C181.102532,34.28112 181.208979,34.6323671 181.208979,35.1343906 L181.208979,37.3169788 C181.208979,37.5197082 181.243708,37.65072 181.312885,37.7094494 C181.382061,37.7681788 181.497261,37.8079906 181.658767,37.8286024 L181.658767,38.0446024 L179.538296,38.0446024 L179.538296,37.8286024 C179.700085,37.7961318 179.810202,37.7520847 179.868932,37.6961788 C179.927661,37.6405553 179.957308,37.5140612 179.957308,37.3169788 L179.957308,35.1301553 C179.957308,34.92432 179.936696,34.7701553 179.895473,34.6676612 C179.824885,34.4821553 179.685402,34.3895435 179.476744,34.3895435 C179.320885,34.3895435 179.177449,34.4462965 179.04672,34.5592376 C178.915991,34.6727435 178.815473,34.7865318 178.744885,34.9008847 L178.744885,37.3169788 C178.744885,37.5140612 178.773967,37.6405553 178.832979,37.6961788 C178.891708,37.7520847 179.002108,37.7961318 179.163614,37.8286024 L179.163614,38.0446024 L176.990344,38.0446024 L176.990344,37.8286024 Z" id="Fill-33" fill="#85674C"></path><path d="M184.662692,37.4009224 C184.817421,37.2275576 184.894786,37.1055812 184.894786,37.0349929 L184.894786,34.8394165 C184.894786,34.7657224 184.828433,34.6572988 184.695727,34.5130165 C184.563021,34.3692988 184.38768,34.2970165 184.169704,34.2970165 C183.848386,34.2970165 183.630409,34.5189459 183.515492,34.9628047 C183.453374,35.2008282 183.422315,35.5371106 183.422315,35.9722165 C183.422315,36.4366871 183.451962,36.7865224 183.510974,37.0217224 C183.619962,37.4477929 183.829186,37.6609694 184.139209,37.6609694 C184.333186,37.6609694 184.507962,37.5742871 184.662692,37.4009224 M182.604621,34.4009224 C182.944009,33.98784 183.351727,33.78144 183.828056,33.78144 C184.06608,33.78144 184.277845,33.8401694 184.462786,33.9579106 C184.577421,34.0282165 184.721421,34.1544282 184.894786,34.3365459 L184.894786,32.6833694 C184.894786,32.4552282 184.850739,32.3134871 184.762645,32.2592753 C184.674551,32.2042165 184.492151,32.1708988 184.216009,32.15904 L184.216009,31.9427576 L186.160292,31.9427576 L186.160292,37.1408753 C186.160292,37.3272282 186.195586,37.4562635 186.265892,37.5276988 C186.33648,37.5988518 186.474551,37.6434635 186.680386,37.6609694 L186.680386,37.8679341 C186.174692,37.9181929 185.848574,37.9557459 185.701751,37.9805929 C185.554645,38.0057224 185.296009,38.0692518 184.925845,38.1723106 L184.925845,37.5771106 C184.755304,37.7535812 184.599445,37.8843106 184.458268,37.9695812 C184.234927,38.1045459 183.99408,38.1723106 183.735445,38.1723106 C183.294409,38.1723106 182.910974,37.9856753 182.584856,37.6124047 C182.258456,37.2391341 182.095256,36.7323106 182.095256,36.0913694 C182.095256,35.3772988 182.265233,34.81344 182.604621,34.4009224" id="Fill-34" fill="#85674C"></path><path d="M189.277101,37.3959812 C189.347689,37.3431812 189.431266,37.2607341 189.528395,37.14864 L189.528395,35.8266635 C189.287266,35.8856753 189.075501,35.9782871 188.893666,36.1053459 C188.585054,36.3204988 188.430607,36.5946635 188.430607,36.9275576 C188.430607,37.1249224 188.475219,37.2745694 188.565289,37.3762165 C188.654795,37.4778635 188.755313,37.5286871 188.867125,37.5286871 C189.013948,37.5286871 189.150607,37.4843576 189.277101,37.3959812 M187.703266,36.2338165 C188.094042,35.9955106 188.706466,35.7552282 189.541666,35.5135341 L189.541666,34.8567812 C189.541666,34.5896753 189.484913,34.3917459 189.371689,34.2641224 C189.258748,34.1364988 189.058278,34.0724047 188.769995,34.0724047 C188.608489,34.0724047 188.475219,34.1023341 188.371031,34.1624753 C188.266842,34.2231812 188.214325,34.2988518 188.214325,34.3897694 C188.214325,34.4250635 188.220536,34.4544282 188.232113,34.4781459 C188.243972,34.5015812 188.261478,34.5261459 188.284913,34.5529694 L188.337995,34.61424 C188.378936,34.6647812 188.412254,34.7195576 188.437101,34.7796988 C188.461948,34.8401224 188.474654,34.9039341 188.474654,34.9716988 C188.474654,35.14224 188.417901,35.2735341 188.30496,35.3664282 C188.191736,35.45904 188.059878,35.5050635 187.910231,35.5050635 C187.736866,35.5050635 187.588913,35.4539576 187.467219,35.3508988 C187.345242,35.2486871 187.284254,35.1007341 187.284254,34.9073224 C187.284254,34.5608753 187.447736,34.2869929 187.773854,34.0845459 C188.099972,33.8826635 188.501195,33.7815812 188.97696,33.7815812 C189.488584,33.7815812 189.916348,33.8795576 190.259689,34.0769224 C190.600772,34.2768282 190.771595,34.6436047 190.771595,35.1786635 L190.771595,37.3657694 C190.771595,37.4301459 190.788536,37.4852047 190.822419,37.5312282 C190.856019,37.5766871 190.893572,37.5992753 190.934513,37.5992753 C190.969807,37.5992753 191.001431,37.5924988 191.029384,37.5792282 C191.057336,37.5665224 191.100536,37.5303812 191.159548,37.4716518 L191.295925,37.6608282 C191.119736,37.8666635 190.924348,38.0109459 190.70976,38.0931106 C190.574795,38.1459106 190.432207,38.1724518 190.282278,38.1724518 C190.014607,38.1724518 189.819219,38.0945224 189.695548,37.9383812 C189.62496,37.8500047 189.573854,37.7192753 189.541666,37.5450635 C189.291784,37.7955106 189.009713,37.9719812 188.694607,38.07504 C188.504019,38.1399812 188.315972,38.1724518 188.130466,38.1724518 C187.883407,38.1724518 187.653007,38.0936753 187.438701,37.9361224 C187.224113,37.7785694 187.116819,37.5334871 187.116819,37.2011576 C187.116819,36.7945694 187.312207,36.4724047 187.703266,36.2338165" id="Fill-35" fill="#85674C"></path><path d="M193.822334,37.81536 C194.069111,37.8066071 194.245299,37.7741365 194.351181,37.7182306 C194.530475,37.6239247 194.619981,37.4446306 194.619981,37.1800659 L194.619981,32.8072659 C194.619981,32.5446776 194.534711,32.3679247 194.364452,32.2770071 C194.264499,32.2216659 194.083793,32.1866541 193.822334,32.1722541 L193.822334,31.9429835 L196.978758,31.9429835 L196.978758,32.1722541 C196.611416,32.1841129 196.366616,32.2349365 196.24464,32.3258541 C196.122381,32.4162071 196.061958,32.6398306 196.061958,32.9967247 L196.061958,37.2639247 C196.061958,37.4638306 196.113911,37.5962541 196.218099,37.6609129 C196.322287,37.7258541 196.526146,37.7580424 196.828828,37.7580424 C197.372358,37.7580424 197.82864,37.6383247 198.197675,37.3986071 C198.566711,37.1591718 198.88464,36.6924424 199.152311,35.9989835 L199.416593,35.9989835 L199.050946,38.0446306 L193.822334,38.0446306 L193.822334,37.81536 Z" id="Fill-36" fill="#85674C"></path><path d="M200.428405,32.0112847 C200.565064,31.8746259 200.73024,31.8062965 200.924499,31.8062965 C201.115369,31.8062965 201.279416,31.8746259 201.415793,32.0112847 C201.552452,32.1479435 201.621064,32.31312 201.621064,32.5070965 C201.621064,32.7010729 201.552452,32.8665318 201.415793,33.0031906 C201.279416,33.1398494 201.115369,33.2081788 200.924499,33.2081788 C200.73024,33.2081788 200.565064,33.1398494 200.428405,33.0031906 C200.291746,32.8665318 200.223416,32.7010729 200.223416,32.5070965 C200.223416,32.31312 200.291746,32.1479435 200.428405,32.0112847 Z M199.826711,37.8288847 C199.985393,37.8020612 200.093816,37.7625318 200.152828,37.7094494 C200.241205,37.6301082 200.284969,37.48752 200.284969,37.2819671 L200.284969,34.6278494 C200.284969,34.4440376 200.254193,34.3186729 200.19264,34.2520376 C200.130805,34.1854024 200.008828,34.1357082 199.826711,34.1032376 L199.826711,33.8872376 L201.559228,33.8872376 L201.559228,37.3172612 C201.559228,37.5140612 201.588311,37.6408376 201.647322,37.6961788 C201.706052,37.7523671 201.816452,37.7961318 201.977958,37.8288847 L201.977958,38.0446024 L199.826711,38.0446024 L199.826711,37.8288847 Z" id="Fill-37" fill="#85674C"></path><path d="M202.335388,37.8286024 C202.499718,37.8079906 202.612941,37.7726965 202.674776,37.72272 C202.774729,37.6433788 202.824424,37.4962729 202.824424,37.2816847 L202.824424,34.6278494 C202.824424,34.4381082 202.790824,34.3093553 202.723341,34.2407435 C202.655576,34.1729788 202.526259,34.1269553 202.335388,34.1032376 L202.335388,33.8872376 L204.045882,33.8872376 L204.045882,34.5349553 C204.195812,34.3384376 204.341224,34.1856847 204.4824,34.0764141 C204.743859,33.8798965 205.034965,33.7816376 205.355153,33.7816376 C205.716847,33.7816376 205.997224,33.8663435 206.197129,34.0368847 C206.308659,34.1342965 206.414541,34.2929788 206.514776,34.5129318 L206.576329,34.5129318 C206.746588,34.3045553 206.909788,34.1470024 207.065647,34.04112 C207.312424,33.86832 207.581506,33.7816376 207.872329,33.7816376 C208.189694,33.7816376 208.469788,33.8824376 208.712329,34.0857318 C208.954588,34.2881788 209.076,34.6089318 209.076,35.0462965 L209.076,37.3169788 C209.076,37.52592 209.1096,37.6586259 209.177365,37.7162259 C209.245129,37.7735435 209.364,37.8110965 209.534541,37.8286024 L209.534541,38.0446024 L207.391765,38.0446024 L207.391765,37.8286024 C207.556376,37.8048847 207.670729,37.7645082 207.735671,37.7071906 C207.800329,37.6498729 207.8328,37.5197082 207.8328,37.3169788 L207.8328,35.1301553 C207.8328,34.8949553 207.798353,34.7128376 207.729459,34.58352 C207.66,34.4542024 207.528706,34.3895435 207.334447,34.3895435 C207.178588,34.3895435 207.014824,34.4609788 206.843153,34.6035671 C206.670918,34.7461553 206.585082,34.8455435 206.585082,34.9008847 L206.585082,37.3169788 C206.585082,37.5140612 206.614447,37.6405553 206.673176,37.6961788 C206.731906,37.7520847 206.842306,37.7961318 207.003812,37.8286024 L207.003812,38.0446024 L204.892376,38.0446024 L204.892376,37.8286024 C205.050776,37.8079906 205.164282,37.7690259 205.231765,37.7117082 C205.299247,37.6543906 205.333129,37.5228141 205.333129,37.3169788 L205.333129,35.1301553 C205.333129,34.9008847 205.300659,34.7204612 205.236,34.5877553 C205.171341,34.4558965 205.037506,34.3895435 204.835341,34.3895435 C204.649835,34.3895435 204.477882,34.4652141 204.318918,34.6168376 C204.160518,34.7681788 204.081176,34.8630494 204.081176,34.9008847 L204.081176,37.3169788 C204.081176,37.5140612 204.108847,37.6405553 204.164753,37.6961788 C204.220659,37.7520847 204.330776,37.7961318 204.495388,37.8286024 L204.495388,38.0446024 L202.335388,38.0446024 L202.335388,37.8286024 Z" id="Fill-38" fill="#85674C"></path><path d="M210.458005,32.0112847 C210.594664,31.8746259 210.75984,31.8062965 210.954099,31.8062965 C211.144969,31.8062965 211.309016,31.8746259 211.445393,32.0112847 C211.582052,32.1479435 211.650664,32.31312 211.650664,32.5070965 C211.650664,32.7010729 211.582052,32.8665318 211.445393,33.0031906 C211.309016,33.1398494 211.144969,33.2081788 210.954099,33.2081788 C210.75984,33.2081788 210.594664,33.1398494 210.458005,33.0031906 C210.321346,32.8665318 210.253016,32.7010729 210.253016,32.5070965 C210.253016,32.31312 210.321346,32.1479435 210.458005,32.0112847 Z M209.856311,37.8288847 C210.014993,37.8020612 210.123416,37.7625318 210.182428,37.7094494 C210.270805,37.6301082 210.314569,37.48752 210.314569,37.2819671 L210.314569,34.6278494 C210.314569,34.4440376 210.283793,34.3186729 210.22224,34.2520376 C210.160405,34.1854024 210.038428,34.1357082 209.856311,34.1032376 L209.856311,33.8872376 L211.588828,33.8872376 L211.588828,37.3172612 C211.588828,37.5140612 211.617911,37.6408376 211.676922,37.6961788 C211.735652,37.7523671 211.846052,37.7961318 212.007558,37.8288847 L212.007558,38.0446024 L209.856311,38.0446024 L209.856311,37.8288847 Z" id="Fill-39" fill="#85674C"></path><path d="M212.364706,34.2838871 L212.364706,34.0325929 C212.443765,33.9591812 212.542306,33.8724988 212.660047,33.7725459 C212.815906,33.6285459 212.962729,33.4800282 213.1008,33.3272753 C213.374118,33.0274165 213.622588,32.7055341 213.845929,32.3616282 L214.0752,32.3616282 L214.0752,33.8871812 L214.934965,33.8871812 L214.934965,34.2838871 L214.0752,34.2838871 L214.0752,36.99984 C214.0752,37.1260518 214.094118,37.2319341 214.132518,37.3172047 C214.191247,37.4493459 214.288094,37.5154165 214.423341,37.5154165 C214.5408,37.5154165 214.639624,37.4736282 214.718682,37.3897694 C214.798024,37.3061929 214.877365,37.1907106 214.956988,37.0438871 L215.172706,37.1497694 C215.067106,37.3965459 214.940894,37.5978635 214.794071,37.7537224 C214.535435,38.0267576 214.220047,38.1636988 213.847059,38.1636988 C213.635859,38.1636988 213.450918,38.1238871 213.292235,38.0445459 C212.986729,37.8917929 212.833412,37.6139576 212.831718,37.2113224 L212.831718,34.2838871 L212.364706,34.2838871 Z" id="Fill-40" fill="#85674C"></path><path d="M217.897327,35.4961412 C217.891398,34.9641882 217.850174,34.5923294 217.773656,34.3808471 C217.696574,34.1690824 217.543256,34.0634824 217.313421,34.0634824 C217.077374,34.0634824 216.915586,34.1854588 216.828904,34.4294118 C216.741656,34.6733647 216.692245,35.0288471 216.680386,35.4961412 L217.897327,35.4961412 Z M215.978174,34.3565647 C216.347492,33.9728471 216.79248,33.7814118 217.313421,33.7814118 C217.610456,33.7814118 217.890268,33.8593412 218.152009,34.0149176 C218.413751,34.1707765 218.615351,34.3867765 218.756809,34.6629176 C218.862692,34.8718588 218.936104,35.1420706 218.977327,35.4741176 C218.997939,35.6299765 219.008386,35.7491294 219.008386,35.8312941 L216.702692,35.8312941 C216.723304,36.1927059 216.782033,36.5058353 216.879445,36.7704 C217.056198,37.2670588 217.366786,37.5152471 217.811209,37.5152471 C218.023256,37.5152471 218.223727,37.4491765 218.412056,37.3170353 C218.526974,37.2374118 218.669845,37.1038588 218.840668,36.9158118 L219.047915,37.0437176 C218.768386,37.5019765 218.444527,37.8210353 218.076904,38.0003294 C217.838598,38.1149647 217.564715,38.1725647 217.256104,38.1725647 C216.811398,38.1725647 216.395209,37.9975059 216.006692,37.6476706 C215.618456,37.2981176 215.423915,36.7393412 215.423915,35.9724706 C215.423915,35.2787294 215.608856,34.74 215.978174,34.3565647 Z" id="Fill-41" fill="#85674C"></path><path d="M222.029506,37.4009224 C222.184235,37.2275576 222.2616,37.1055812 222.2616,37.0349929 L222.2616,34.8394165 C222.2616,34.7657224 222.195247,34.6572988 222.062541,34.5130165 C221.929553,34.3692988 221.754494,34.2970165 221.536518,34.2970165 C221.2152,34.2970165 220.997224,34.5189459 220.882306,34.9628047 C220.820188,35.2008282 220.789129,35.5371106 220.789129,35.9722165 C220.789129,36.4366871 220.818776,36.7865224 220.877788,37.0217224 C220.986776,37.4477929 221.196,37.6609694 221.505741,37.6609694 C221.7,37.6609694 221.874776,37.5742871 222.029506,37.4009224 M219.971435,34.4009224 C220.310824,33.98784 220.718541,33.78144 221.194871,33.78144 C221.432894,33.78144 221.644659,33.8401694 221.8296,33.9579106 C221.944235,34.0282165 222.088235,34.1544282 222.2616,34.3365459 L222.2616,32.6833694 C222.2616,32.4552282 222.217553,32.3134871 222.129459,32.2592753 C222.041365,32.2042165 221.858965,32.1708988 221.582824,32.15904 L221.582824,31.9427576 L223.527106,31.9427576 L223.527106,37.1408753 C223.527106,37.3272282 223.5624,37.4562635 223.632706,37.5276988 C223.703294,37.5988518 223.841365,37.6434635 224.0472,37.6609694 L224.0472,37.8679341 C223.541506,37.9181929 223.215388,37.9557459 223.068565,37.9805929 C222.921459,38.0057224 222.662824,38.0692518 222.292659,38.1723106 L222.292659,37.5771106 C222.122118,37.7535812 221.966259,37.8843106 221.825082,37.9695812 C221.601741,38.1045459 221.360894,38.1723106 221.102259,38.1723106 C220.661224,38.1723106 220.277788,37.9856753 219.951671,37.6124047 C219.625271,37.2391341 219.462071,36.7323106 219.462071,36.0913694 C219.462071,35.3772988 219.632047,34.81344 219.971435,34.4009224" id="Fill-42" fill="#85674C"></path></g></g></svg> 