<?xml version="1.0" encoding="UTF-8"?> <svg xmlns="http://www.w3.org/2000/svg" xmlns:xlink="http://www.w3.org/1999/xlink" width="241px" height="72px" viewBox="0 0 241 72"><!-- Generator: Sketch 50.2 (55047) - http://www.bohemiancoding.com/sketch --><title>FKL Logo</title><desc>Created with Sketch.</desc><defs></defs><g id="FKL-Logo" stroke="none" stroke-width="1" fill="none" fill-rule="evenodd"><g id="Group"><path d="M41.1701169,36.66768 C41.1701169,36.66768 41.8587323,19.6225108 24.6477785,20.0323569 C24.6477785,20.0323569 22.3530092,34.6538954 41.1701169,36.66768" id="Fill-1" fill="#348741"></path><path d="M23.4001846,30.2449108 C23.4001846,30.2449108 12.6086769,43.1506338 0.0481846154,32.3336492 C0.0481846154,32.3336492 8.48473846,18.9431262 23.4001846,30.2449108" id="Fill-3" fill="#348741"></path><path d="M20.9908062,25.07424 C20.9908062,25.07424 23.1711138,8.06451692 5.73123692,6.72162462 C5.73123692,6.72162462 2.33025231,21.3472246 20.9908062,25.07424" id="Fill-5" fill="#348741"></path><path d="M46.1181415,53.1849969 L60.9578954,53.1849969 L60.9578954,31.5262892 C60.9578954,31.5262892 62.9465723,18.5456123 80.0807262,14.6668431 L80.0807262,0.0453046154 C80.0807262,0.0453046154 53.9203569,-2.11838769 46.1181415,31.2272123 L46.1181415,53.1849969 Z" id="Fill-7" fill="#FDD91C"></path><path d="M43.0588431,32.4211569 C43.0588431,32.4211569 43.5181662,22.1262646 50.0963815,13.3241723 C50.0963815,13.3241723 40.9173046,-0.403827692 23.9363815,0.0440492308 L23.9363815,14.5182646 C23.9363815,14.5182646 39.9993969,17.0534031 43.0588431,32.4211569" id="Fill-9" fill="#FDD91C"></path><path d="M78.5545846,20.2861292 C70.5134769,20.8632369 64.1704615,27.4189292 64.1704615,35.4245908 L64.1704615,36.83136 C67.8705231,36.11136 78.9437538,32.4005908 78.5545846,20.2861292" id="Fill-11" fill="#348741"></path><path d="M241.115262,36.8313969 L241.115262,35.4246277 C241.115262,27.2428431 234.462092,20.5619815 226.170277,20.2403815 C225.436246,33.4355815 238.108615,36.3340431 241.115262,36.8313969" id="Fill-13" fill="#348741"></path><path d="M241.115262,51.7978708 L241.115262,40.6053785 C221.207446,37.6105477 221.246954,23.7669785 221.600677,20.2404554 L83.1192,20.2404554 C83.4142154,24.3234092 82.7972308,37.5577477 64.1706462,40.6053785 L64.1706462,51.8085785 C82.2171692,54.7613169 83.3352,66.9559015 83.1192,71.4276554 L221.600677,71.4276554 C221.486215,66.5951631 223.117846,54.50544 241.115262,51.7978708" id="Fill-15" fill="#348741"></path><path d="M226.170425,71.4128862 C234.477009,71.1064246 241.115409,64.4336862 241.115409,56.2423015 L241.115409,56.12304 C238.207717,56.6045169 226.297809,59.3131938 226.170425,71.4128862" id="Fill-17" fill="#348741"></path><path d="M64.1706092,55.78224 L64.1706092,56.2423015 C64.1706092,64.2516554 70.5169477,70.8073477 78.5632246,71.38224 C78.6935631,59.6052554 67.8289477,56.4948554 64.1706092,55.78224" id="Fill-19" fill="#348741"></path><path d="M80.8840615,57.3118154 L87.0797538,57.3118154 C87.0797538,57.3118154 86.2002462,56.3824615 85.9705846,54.6788308 L85.9705846,46.2378462 L89.8718769,46.2378462 C89.8718769,46.2378462 91.0190769,46.4693538 91.4012308,47.0896615 L91.4012308,43.5273231 L85.8173538,43.5273231 L85.8173538,37.5653538 C85.8173538,37.5653538 86.8120615,36.8682462 90.6369231,37.0997538 C90.6369231,37.0997538 92.3195077,37.4878154 93.2370462,38.3392615 L93.2370462,34.4667692 L80.8840615,34.4667692 L81.9928615,36.3258462 L81.9928615,55.1429538 L80.8840615,57.3118154 Z" id="Fill-21" fill="#FFFFFE"></path><path d="M95.0729723,57.3128862 L101.421895,57.3128862 C101.421895,57.3128862 99.9689723,55.6860554 99.9689723,55.1458708 L99.9689723,37.2547938 C99.9689723,37.2547938 104.480972,35.8613169 106.011065,38.9584246 C107.541157,42.05664 104.634572,43.9149785 104.634572,43.9149785 C104.634572,43.9149785 102.861157,45.2323938 100.764665,45.2323938 L100.764665,45.8907323 C100.764665,45.8907323 107.311495,56.6161477 110.753465,57.3128862 C110.753465,57.3128862 112.611065,57.3117785 113.583988,57.3128862 L113.583988,56.6161477 C113.583988,56.6161477 108.459434,50.7306092 105.399249,46.2389169 C105.399249,46.2389169 110.600972,44.6120862 110.294511,40.0428554 C109.988788,35.4739938 104.940295,34.4667323 104.940295,34.4667323 L95.0729723,34.4667323 L95.0729723,34.8352246 C95.0729723,34.8352246 96.2017108,36.2087631 96.2017108,36.6544246 L96.2017108,55.2234092 C96.2017108,55.2234092 95.2642338,57.0226708 95.0729723,57.3128862" id="Fill-23" fill="#FFFFFE"></path><polygon id="Fill-25" fill="#FFFFFE" points="113.262794 34.4669169 119.779717 34.4669169 118.556086 36.65424 118.556086 55.4532554 119.779717 57.3108554 113.584025 57.3108554 114.501563 55.4532554 114.501563 36.65424"></polygon><path d="M137.525834,45.8229046 L141.732849,45.8229046 L141.732849,56.18832 C141.732849,56.18832 136.531126,58.7153354 127.964234,56.18832 C127.964234,56.18832 120.315249,53.1417969 121.233526,44.8935508 C122.150326,36.6467815 130.167065,34.8076431 131.443865,34.5665354 C133.859742,34.1097969 139.438818,35.0860431 139.590572,35.3840123 L139.590572,38.7270277 L139.208049,38.7270277 C139.208049,38.7270277 133.165218,34.7153354 127.58208,39.4702892 C127.58208,39.4702892 124.139372,42.9624738 125.898757,48.8325046 C127.658511,54.7010585 133.624542,54.7010585 134.695311,54.5533662 C134.695311,54.5533662 137.678326,54.4045662 138.596603,54.03312 L138.596603,47.5686277 L137.525834,45.8229046 Z" id="Fill-27" fill="#FFFFFE"></path><path d="M169.117071,57.3118154 L175.542055,57.3118154 L174.394486,55.7425846 L174.394486,36.4447385 C174.394486,36.4447385 175.312394,34.5616615 175.542055,34.404 L168.658117,34.404 C168.658117,34.404 169.882486,35.4256615 170.263902,36.4447385 L170.263902,55.2725538 L169.117071,57.3118154 Z" id="Fill-29" fill="#FFFFFE"></path><path d="M179.901932,35.0319138 L179.901932,34.4042215 L185.409378,34.4042215 L185.409378,35.0319138 L178.295409,44.5636062 C178.295409,44.5636062 185.409378,55.3890831 187.245194,56.6839754 L187.245194,57.3116677 L184.032886,57.3116677 C184.032886,57.3116677 182.655286,56.9195446 178.295409,50.9176985 L174.394486,45.0340062 C174.394486,45.0340062 179.901932,37.9746831 180.360886,36.44496 C180.360886,36.44496 180.590548,35.1485908 179.901932,35.0319138" id="Fill-31" fill="#FFFFFE"></path><path d="M186.709625,34.9370954 L186.709625,34.4670646 L199.024948,34.4670646 L199.024948,38.2236185 C199.024948,38.2236185 197.036271,36.2678031 191.529194,37.2842954 L191.529194,43.46448 L197.112702,43.46448 L197.112702,46.8289108 L196.653748,46.8289108 C196.653748,46.8289108 196.88304,46.5158031 195.735471,46.2034338 L191.605625,46.2034338 L191.605625,54.2607877 C191.605625,54.2607877 195.429378,54.5731569 197.648086,54.2607877 C197.648086,54.2607877 200.019286,53.7918646 201.85584,52.6188185 C201.85584,52.6188185 200.937194,56.7645415 200.095717,57.3117415 L187.245009,57.3117415 L187.245009,56.6870031 C187.245009,56.6870031 187.781132,56.1375877 187.933625,54.9645415 L187.933625,36.5015262 C187.933625,36.5015262 187.627902,35.4060185 186.709625,34.9370954" id="Fill-33" fill="#FFFFFE"></path><path d="M202.390745,57.3107077 L207.592098,57.3107077 C207.592098,57.3107077 206.215606,55.5505846 206.291668,54.54 L206.291668,39.5370462 C206.291668,39.5370462 217.867422,55.0240615 219.830252,56.3839385 C221.600714,57.6108923 222.201083,57.3107077 222.430745,57.3096 L222.430745,36.2911385 C222.430745,36.2911385 223.155545,35.0516308 223.638498,34.6096615 C223.699422,34.5542769 223.757022,34.5110769 223.808345,34.4841231 C224.267298,34.2515077 218.454129,34.4841231 218.454129,34.4841231 C218.454129,34.4841231 219.524898,35.6113846 219.678129,36.2911385 L219.678129,51.1190769 L206.82816,34.4841231 L202.390745,34.3807385 L202.390745,35.0283692 L203.690806,36.7390154 L203.690806,55.1617846 L202.390745,57.3107077 Z" id="Fill-35" fill="#FFFFFE"></path><path d="M155.290745,54.66048 C150.759914,54.66048 147.086806,50.7591877 147.086806,45.9458954 C147.086806,41.1318646 150.759914,37.2302031 155.290745,37.2302031 C159.821575,37.2302031 163.494683,41.1318646 163.494683,45.9458954 C163.494683,50.7591877 159.821575,54.66048 155.290745,54.66048 M167.051483,41.9936492 C164.412591,34.1286646 154.774929,34.4447262 154.774929,34.4447262 C144.907237,35.2064492 143.186252,43.7663262 143.186252,43.7663262 C141.350068,53.0727877 149.382314,56.1750646 149.382314,56.1750646 C159.364098,59.71968 164.298129,53.8481723 164.298129,53.8481723 C164.298129,53.8481723 169.690375,49.86048 167.051483,41.9936492" id="Fill-37" fill="#FFFFFE"></path></g></g></svg> 