<?xml version="1.0" encoding="UTF-8"?> <svg xmlns="http://www.w3.org/2000/svg" xmlns:xlink="http://www.w3.org/1999/xlink" width="210px" height="72px" viewBox="0 0 210 72"><!-- Generator: Sketch 50.2 (55047) - http://www.bohemiancoding.com/sketch --><title>Allfruit logo</title><desc>Created with Sketch.</desc><defs></defs><g id="Allfruit-logo" stroke="none" stroke-width="1" fill="none" fill-rule="evenodd"><g id="Group"><path d="M209.57523,60.3078815 C174.681896,53.951437 138.849896,52.359437 103.015526,60.3078815 C69.0679704,68.2569185 33.2356741,68.2569185 0.231525926,60.3078815 L0.187377778,60.3078815 L0.187377778,50.0592889 L105.03123,50.0592889 L209.870044,50.0592889 L209.870044,60.3941037 L209.57523,60.3078815 Z" id="Fill-1" fill="#5A9738"></path><path d="M209.57523,57.3061333 C174.681896,50.9467259 138.849896,49.3576889 103.015526,57.3061333 C69.0679704,65.2563556 33.2356741,65.2563556 0.231525926,57.3061333 L0.187377778,57.3061333 L0.187377778,0.0196148148 L105.03123,0.0196148148 L209.870044,0.0196148148 L209.870044,57.3923556 L209.57523,57.3061333 Z" id="Fill-3" fill="#008143"></path><path d="M37.1711407,13.6234074 L34.6638815,19.8364444 L39.7826963,19.8364444 L37.1711407,13.6234074 Z M33.0043259,24.2488889 L31.5584,27.7777778 C31.2401778,28.6231111 31.0277333,29.5081481 31.0277333,30.1431111 C31.0277333,30.7042963 31.1349926,31.0595556 31.4878815,31.9063704 L23.0858074,31.9063704 C24.2161778,30.7419259 24.8864,29.6838519 25.8760296,27.3540741 L35.4407704,4.9757037 L39.4665481,4.9757037 L49.8072889,27.8823704 C50.8668444,30.1798519 51.1844741,30.7748148 52.1732148,31.9063704 L43.0301037,31.9063704 C43.4538074,31.1647407 43.5960296,30.7042963 43.5960296,30.0026667 C43.5960296,29.261037 43.3832889,28.4471111 42.923437,27.3878519 L41.6191407,24.2488889 L33.0043259,24.2488889 Z" id="Fill-5" fill="#D28A30"></path><path d="M52.6309333,31.9064 C53.4439704,30.5315852 53.5844148,29.7529185 53.5844148,27.1407704 L53.5844148,9.74047407 C53.5844148,7.12862222 53.4439704,6.35173333 52.6309333,4.97484444 L60.9971556,4.97484444 C60.1864889,6.35173333 60.0439704,7.16328889 60.0439704,9.74047407 L60.0439704,27.6012148 L62.5847111,27.6012148 C66.2934519,27.6012148 68.0922667,27.1407704 70.4581926,25.5905481 L67.846637,31.9064 L52.6309333,31.9064 Z" id="Fill-7" fill="#FACE63"></path><path d="M70.881363,31.9064 C71.6944,30.5315852 71.8357333,29.7529185 71.8357333,27.1407704 L71.8357333,9.74047407 C71.8357333,7.12862222 71.6944,6.35173333 70.881363,4.97484444 L79.2484741,4.97484444 C78.4369185,6.35173333 78.2964741,7.16328889 78.2964741,9.74047407 L78.2964741,27.6012148 L80.8369185,27.6012148 C84.5438815,27.6012148 86.3435852,27.1407704 88.7071407,25.5905481 L86.0946963,31.9064 L70.881363,31.9064 Z" id="Fill-9" fill="#EDEB7F"></path><path d="M96.544563,27.1420741 C96.544563,29.7183704 96.6873778,30.5299259 97.4980444,31.9074074 L89.1315259,31.9074074 C89.9448593,30.5299259 90.0853037,29.7536296 90.0853037,27.1420741 L90.0853037,9.74088889 C90.0853037,7.12903704 89.9448593,6.35214815 89.1315259,4.97525926 L106.74723,4.97525926 L104.169156,10.8354074 C102.5096,9.53022222 100.921156,9.06977778 98.1344889,9.06977778 L96.544563,9.06977778 L96.544563,16.2022222 L105.829007,16.2022222 L103.357896,21.8122963 C101.909896,20.7548148 100.28797,20.2946667 97.9916741,20.2946667 L96.544563,20.2946667 L96.544563,27.1420741 Z" id="Fill-11" fill="#FFF47C"></path><path d="M119.101837,12.9179556 C119.101837,10.4109926 117.549541,9.07054815 114.6168,9.07054815 L114.6168,17.3306963 C117.476652,17.0471407 119.101837,15.4592889 119.101837,12.9179556 Z M114.6168,27.1404741 C114.6168,29.719437 114.759022,30.4939556 115.572652,31.9064 L107.205541,31.9064 C108.016207,30.5315852 108.158133,29.7523259 108.158133,27.1404741 L108.158133,9.73988148 C108.158133,7.12773333 108.016207,6.35143704 107.205541,4.97395556 L115.042281,4.97395556 C118.74717,4.97395556 121.044059,5.46965926 122.771467,6.66965926 C124.679022,8.01188148 125.843763,10.2346963 125.843763,12.5292148 C125.843763,15.6018074 124.253837,17.7887704 120.79517,19.447437 L122.136207,21.3191407 L126.5368,27.693363 C127.914874,29.669363 135.746281,34.5555852 136.771763,35.4376593 C135.391911,36.3191407 136.202281,38.0847704 135.104504,38.0847704 C133.587467,38.0847704 122.808207,31.2352889 120.441985,28.2705481 L114.6168,20.9659556 L114.6168,27.1404741 Z" id="Fill-13" fill="#EAD7E1"></path><path d="M146.778637,30.2835556 C144.269896,31.9416296 142.399081,32.5422222 139.785452,32.5422222 C136.785452,32.5422222 134.421896,31.624 132.905748,29.8951111 C131.456267,28.3075556 131.067822,26.7543704 131.067822,22.9413333 L131.067822,9.74014815 C131.067822,7.1277037 130.927378,6.35140741 130.115822,4.97422222 L138.480563,4.97422222 C137.670785,6.35140741 137.52797,7.16296296 137.52797,9.74014815 L137.52797,21.7428148 C137.52797,24.1792593 137.740415,25.341037 138.374785,26.2945185 C139.114933,27.4592593 140.420711,28.1647407 141.903674,28.1647407 C143.386933,28.1647407 144.799378,27.4592593 145.6456,26.2577778 C146.529156,25.0957037 146.778637,23.8951111 146.778637,21.0717037 L146.778637,9.74014815 C146.778637,7.1277037 146.63523,6.38637037 145.825156,4.97422222 L154.190193,4.97422222 C153.413304,6.35140741 153.234933,7.16296296 153.234933,9.74014815 L153.234933,27.1419259 C153.234933,29.7194074 153.413304,30.5315556 154.190193,31.9063704 L146.778637,31.9063704 L146.778637,30.2835556 Z" id="Fill-15" fill="#76BA43"></path><path d="M155.105037,31.9064 C155.917185,30.5315852 156.057926,29.7529185 156.057926,27.1407704 L156.057926,9.74047407 C156.057926,7.12862222 155.917185,6.35173333 155.105037,4.97484444 L163.471259,4.97484444 C162.660593,6.35173333 162.518667,7.16328889 162.518667,9.74047407 L162.518667,27.1407704 C162.518667,29.7185481 162.660593,30.4945481 163.471259,31.9064 L155.105037,31.9064 Z" id="Fill-17" fill="#CADA5C"></path><path d="M178.264178,27.1420741 C178.264178,29.7536296 178.406696,30.4952593 179.218548,31.9074074 L170.849956,31.9074074 C171.663585,30.5299259 171.806104,29.7183704 171.806104,27.1420741 L171.806104,9.06977778 C168.169659,9.10503704 166.259437,9.49377778 163.895881,10.7281481 L165.732919,4.97525926 L186.912178,4.97525926 L185.1104,10.0585185 C183.098252,9.24696296 181.405511,8.96459259 178.264178,8.96459259 L178.264178,27.1420741 Z" id="Fill-19" fill="#F2B131"></path><path d="M120.757511,20.7184593 C120.757511,20.7184593 130.4704,32.6743111 145.804326,41.0574222 C158.709511,46.5709037 180.367585,48.8479407 170.732919,39.3646815 C162.569956,32.9658667 158.453807,39.7338667 103.006104,45.7617185 C69.2484741,51.0574222 41.4502519,45.3211259 29.3163259,36.4971259 C29.3163259,36.4971259 45.6425481,46.4251259 75.6478815,45.7617185 C128.378548,42.2319407 158.158696,25.9069037 172.718993,37.3771259 C184.191585,45.6112 161.53677,56.1990519 139.033363,41.1969778 C129.765807,34.5780148 120.07277,29.3806815 115.66003,21.8796444 C111.246696,14.3794963 120.757511,20.7184593 120.757511,20.7184593" id="Fill-21" fill="#EAD7E1"></path><polygon id="Fill-23" fill="#1A1919" points="117.8504 71.2309037 117.8504 61.2412741 123.770696 61.2412741 123.770696 62.4234963 118.931881 62.4234963 118.931881 65.4700148 123.462844 65.4700148 123.462844 66.6492741 118.931881 66.6492741 118.931881 70.0486815 123.959733 70.0486815 123.959733 71.2309037"></polygon><path d="M126.536741,65.9907556 L128.656444,65.9907556 C129.320741,65.9907556 129.811111,65.8384593 130.118074,65.5394963 C130.425926,65.2384593 130.580889,64.7836444 130.580889,64.174163 C130.580889,63.7794963 130.505926,63.4405333 130.353037,63.1608296 C130.199556,62.8784593 130.015259,62.6834963 129.799556,62.5803852 C129.585333,62.4775704 129.197185,62.4236444 128.634815,62.4236444 L126.536741,62.4236444 L126.536741,65.9907556 Z M125.452889,71.2310519 L125.452889,61.2414222 L128.539111,61.2414222 C129.267704,61.2414222 129.801333,61.3072 130.149481,61.4316444 C130.620889,61.6052741 130.997185,61.9276444 131.279852,62.3963852 C131.560741,62.8645333 131.700593,63.4387556 131.700593,64.1205333 C131.700593,65.0186074 131.472444,65.7510519 131.015556,66.3205333 C130.554222,66.8888296 129.763704,67.1729778 128.637185,67.1729778 L126.536741,67.1729778 L126.536741,71.2310519 L125.452889,71.2310519 Z" id="Fill-25" fill="#1A1919"></path><path d="M132.450519,71.2309037 L132.450519,70.0039407 L136.651407,63.6092741 C136.941481,63.1636444 137.225333,62.7707556 137.504148,62.4234963 L132.920148,62.4234963 L132.920148,61.2412741 L138.790667,61.2412741 L138.790667,62.4234963 L134.197481,69.3500148 L133.699407,70.0486815 L138.925778,70.0486815 L138.925778,71.2309037 L132.450519,71.2309037 Z" id="Fill-27" fill="#1A1919"></path><polygon id="Fill-29" fill="#1A1919" points="143.204296 71.2309037 143.204296 61.2412741 144.285185 61.2412741 144.285185 70.0486815 148.324 70.0486815 148.324 71.2309037"></polygon><polygon id="Fill-31" fill="#1A1919" points="149.842667 71.2308148 150.922963 71.2308148 150.922963 61.2411852 149.842667 61.2411852"></polygon><path d="M152.784444,71.2309037 L152.784444,61.2412741 L154.416444,61.2412741 L156.359259,68.3147556 L156.749481,69.7950519 C156.843111,69.4252741 156.989778,68.8940148 157.185037,68.1938667 L159.148,61.2412741 L160.607852,61.2412741 L160.607852,71.2309037 L159.562222,71.2309037 L159.562222,62.8703111 L157.179407,71.2309037 L156.203704,71.2309037 L153.829778,62.7292741 L153.829778,71.2309037 L152.784444,71.2309037 Z" id="Fill-33" fill="#1A1919"></path><polygon id="Fill-34" fill="#1A1919" points="162.561185 71.2308148 163.645037 71.2308148 163.645037 61.2411852 162.561185 61.2411852"></polygon><polygon id="Fill-35" fill="#1A1919" points="167.636296 71.2309037 167.636296 62.4234963 164.941481 62.4234963 164.941481 61.2412741 171.433037 61.2412741 171.433037 62.4234963 168.720148 62.4234963 168.720148 71.2309037"></polygon><polygon id="Fill-36" fill="#1A1919" points="172.556415 71.2309037 172.556415 61.2412741 178.479674 61.2412741 178.479674 62.4234963 173.638489 62.4234963 173.638489 65.4700148 178.16797 65.4700148 178.16797 66.6492741 173.638489 66.6492741 173.638489 70.0486815 178.666341 70.0486815 178.666341 71.2309037"></polygon><path d="M181.220474,70.0486222 L182.963289,70.0486222 C183.670252,70.0486222 184.203585,69.9363259 184.565956,69.7078815 C184.932178,69.477363 185.211881,69.1087704 185.403585,68.6006222 C185.662252,67.9218074 185.792919,67.1146963 185.792919,66.1683259 C185.792919,65.1585481 185.653956,64.3629926 185.382252,63.7825481 C185.107289,63.2035852 184.752622,62.8184 184.322104,62.6231407 C184.031733,62.4895111 183.569807,62.4237333 182.936326,62.4237333 L181.220474,62.4237333 L181.220474,70.0486222 Z M180.138104,71.2308444 L180.138104,61.2412148 L182.967733,61.2412148 C183.667289,61.2412148 184.197659,61.3061037 184.562104,61.4287704 C185.039141,61.5866963 185.454252,61.877363 185.804474,62.2981037 C186.152919,62.7215111 186.427585,63.2557333 186.621956,63.8963259 C186.816919,64.5410667 186.9144,65.3025481 186.9144,66.1822519 C186.9144,67.3152889 186.748474,68.2738074 186.415437,69.0631407 C186.084474,69.8506963 185.658696,70.4092148 185.136622,70.7360296 C184.616919,71.0649185 183.937511,71.2308444 183.09603,71.2308444 L180.138104,71.2308444 Z" id="Fill-37" fill="#1A1919"></path><polygon id="Fill-38" fill="#D7AC44" points="209.688948 58.2581037 207.7328 59.6892148 207.580207 57.3709926"></polygon><polygon id="Fill-39" fill="#352719" points="204.850993 58.4565926 206.776326 57.0162963 206.943437 59.3407407"></polygon><polygon id="Fill-40" fill="#D7AC44" points="205.047467 57.4936296 203.144948 58.9386667 202.920948 56.6047407"></polygon><polygon id="Fill-41" fill="#352719" points="200.239289 57.7008 202.113363 56.2501333 202.348919 58.5885037"></polygon><polygon id="Fill-42" fill="#D7AC44" points="200.405956 56.7338074 198.558252 58.187437 198.265511 55.841363"></polygon><polygon id="Fill-43" fill="#352719" points="195.6224 56.9733926 197.447881 55.4856889 197.754252 57.8362074"></polygon><polygon id="Fill-44" fill="#D7AC44" points="195.760711 56.0011556 193.948267 57.5244148 193.601896 55.1937481"></polygon><polygon id="Fill-45" fill="#352719" points="190.977156 56.3941037 192.778933 54.8708444 193.131526 57.2003259"></polygon><polygon id="Fill-46" fill="#D7AC44" points="191.103881 55.4195556 189.31277 56.944 188.9344 54.6100741"></polygon><polygon id="Fill-47" fill="#352719" points="186.333333 55.8142222 188.10963 54.2877037 188.492741 56.6216296"></polygon><polygon id="Fill-48" fill="#D7AC44" points="186.443852 54.8373926 184.677333 56.3650963 184.269037 54.0285037"></polygon><polygon id="Fill-49" fill="#352719" points="181.680267 55.2980444 183.439674 53.7060444 183.855378 56.0429333"></polygon><polygon id="Fill-50" fill="#D7AC44" points="181.776326 54.3200296 180.032919 55.9185481 179.583141 53.6047704"></polygon><polygon id="Fill-51" fill="#352719" points="177.016504 54.9143407 178.747763 53.3158222 179.203763 55.6296"></polygon><polygon id="Fill-52" fill="#D7AC44" points="177.096356 53.9363556 175.37843 55.5348741 174.896059 53.2193185"></polygon><polygon id="Fill-53" fill="#352719" points="172.351259 54.5318222 174.057037 52.930637 174.546815 55.2476741"></polygon><polygon id="Fill-54" fill="#D7AC44" points="172.417244 53.5509333 170.724504 55.1538963 170.208059 52.8350815"></polygon><polygon id="Fill-55" fill="#352719" points="167.67997 54.2540444 169.362637 52.5776 169.890044 54.8667852"></polygon><polygon id="Fill-56" fill="#D7AC44" points="167.730607 53.2731556 166.063941 54.9496 165.506607 52.658637"></polygon><polygon id="Fill-57" fill="#352719" points="163.003763 54.0868148 164.655022 52.4115556 165.220948 54.698963"></polygon><polygon id="Fill-58" fill="#D7AC44" points="163.036741 53.1041778 161.398815 54.7806222 160.803556 52.4896593"></polygon><polygon id="Fill-59" fill="#352719" points="158.327822 53.9207111 159.950933 52.2424889 160.55597 54.5319704"></polygon><polygon id="Fill-60" fill="#D7AC44" points="158.34403 52.9369185 156.735437 54.6145481 156.100178 52.3517333"></polygon><polygon id="Fill-61" fill="#352719" points="153.648741 53.9039407 155.244 52.1457185 155.885778 54.4043852"></polygon><polygon id="Fill-62" fill="#D7AC44" points="153.648741 52.9195556 152.071259 54.6792593 151.394222 52.4205926"></polygon><polygon id="Fill-63" fill="#352719" points="148.971052 53.9728 150.533422 52.2136889 151.21757 54.4732444"></polygon><polygon id="Fill-64" fill="#D7AC44" points="148.95197 52.990163 147.404119 54.7472 146.686489 52.4897185"></polygon><polygon id="Fill-65" fill="#352719" points="144.29197 54.0422519 145.822933 52.2840296 146.549156 54.5412148"></polygon><polygon id="Fill-66" fill="#D7AC44" points="144.256089 53.0596148 142.742904 54.8483556 141.985274 52.6267259"></polygon><polygon id="Fill-67" fill="#352719" points="139.622104 54.309037 141.116919 52.466963 141.88403 54.6885926"></polygon><polygon id="Fill-68" fill="#D7AC44" points="139.566252 53.3281185 138.089215 55.1678222 137.286844 52.9491556"></polygon><polygon id="Fill-69" fill="#352719" points="134.954578 54.6302222 136.415615 52.7905185 137.225393 55.0091852"></polygon><polygon id="Fill-70" fill="#D7AC44" points="134.880207 53.6493037 133.437837 55.4884148 132.590726 53.2730074"></polygon><polygon id="Fill-71" fill="#352719" points="130.287911 54.9508148 131.714874 53.1146667 132.567911 55.3285926"></polygon><polygon id="Fill-72" fill="#D7AC44" points="130.194163 53.9716444 128.790904 55.8786074 127.904089 53.7043852"></polygon><polygon id="Fill-73" fill="#352719" points="125.645541 55.5191111 127.027467 53.5955556 127.924059 55.768"></polygon><polygon id="Fill-74" fill="#D7AC44" points="125.531259 54.5428148 124.167704 56.4663704 123.231111 54.2968889"></polygon><polygon id="Fill-75" fill="#352719" points="121.004059 56.1088 122.351319 54.1890963 123.294726 56.3576889"></polygon><polygon id="Fill-76" fill="#D7AC44" points="120.87123 55.1354074 119.540267 57.0533333 118.559822 54.8912593"></polygon><polygon id="Fill-77" fill="#352719" points="116.364859 56.707763 117.675378 54.7836148 118.665007 56.9439111"></polygon><polygon id="Fill-78" fill="#D7AC44" points="116.211526 55.7372741 114.930044 57.7440889 113.910489 55.6297185"></polygon><polygon id="Fill-79" fill="#352719" points="111.767941 57.5781333 113.030163 55.5728 114.059496 57.6856889"></polygon><polygon id="Fill-80" fill="#D7AC44" points="111.5952 56.6111111 110.351644 58.6117037 109.282015 56.5047407"></polygon><polygon id="Fill-81" fill="#352719" points="107.172444 58.4473481 108.396148 56.4497185 109.475556 58.5543111"></polygon><polygon id="Fill-82" fill="#D7AC44" points="106.977422 57.482637 105.770904 59.4790815 104.654459 57.3801185"></polygon><polygon id="Fill-83" fill="#352719" points="102.581007 59.3240889 103.7656 57.328237 104.890933 59.4218667"></polygon><polygon id="Fill-84" fill="#D7AC44" points="102.359081 58.3657481 101.187526 60.3755259 100.048267 58.2922667"></polygon><polygon id="Fill-85" fill="#352719" points="97.9771556 60.262163 99.168563 58.2488296 100.298044 60.3338667"></polygon><polygon id="Fill-86" fill="#D7AC44" points="97.7751704 59.2992 96.5668741 61.3154963 95.4750222 59.2239407"></polygon><polygon id="Fill-87" fill="#352719" points="93.3732741 61.1984889 94.5984593 59.1783407 95.6823111 61.2737481"></polygon><polygon id="Fill-88" fill="#D7AC44" points="93.1921185 60.2326519 91.9482667 62.2563556 90.9035259 60.1544296"></polygon><polygon id="Fill-89" fill="#352719" points="88.7547852 62.0491852 90.030637 60.1099259 91.0694519 62.2136296"></polygon><polygon id="Fill-90" fill="#D7AC44" points="88.5936 61.0786963 87.2976 63.0179556 86.2928593 60.8715852"></polygon><polygon id="Fill-91" fill="#352719" points="84.1048889 62.7187556 85.4174815 60.7765333 86.4139259 62.9258667"></polygon><polygon id="Fill-92" fill="#D7AC44" points="83.9628148 61.745363 82.6333333 63.6902519 81.6742222 61.5364741"></polygon><polygon id="Fill-93" fill="#352719" points="79.4548741 63.3882963 80.8039111 61.441037 81.7541333 63.5983704"></polygon><polygon id="Fill-94" fill="#D7AC44" points="79.3328889 62.4131852 77.9678519 64.3628148 77.0543704 62.1977778"></polygon><polygon id="Fill-95" fill="#352719" points="74.7866074 63.9131852 76.1806815 62.0539259 77.0903111 64.2512593"></polygon><polygon id="Fill-96" fill="#D7AC44" points="74.6867852 62.9352 73.2758222 64.7974222 72.4035259 62.5956444"></polygon><polygon id="Fill-97" fill="#352719" points="70.1067852 64.3154074 71.5361185 62.4514074 72.3998222 64.6561481"></polygon><polygon id="Fill-98" fill="#D7AC44" points="70.0245926 63.3356444 68.578963 65.2014222 67.7537778 62.9963852"></polygon><polygon id="Fill-99" fill="#352719" points="65.4253333 64.7193185 66.8899259 62.8505778 67.7068148 65.0585778"></polygon><polygon id="Fill-100" fill="#D7AC44" points="65.3638519 63.737837 63.8808889 65.5805037 63.1007407 63.3328"></polygon><polygon id="Fill-101" fill="#352719" points="60.7323556 64.9172444 62.2384296 63.1376889 63.0099852 65.3853926"></polygon><polygon id="Fill-102" fill="#D7AC44" points="60.6917037 63.9363556 59.1693333 65.7141333 58.4348148 63.4664296"></polygon><polygon id="Fill-103" fill="#352719" points="56.0371852 65.0526519 57.5779259 63.2713185 58.3026667 65.5208"></polygon><polygon id="Fill-104" fill="#D7AC44" points="56.0165037 64.0700148 54.4579852 65.8495704 53.7702815 63.6012741"></polygon><polygon id="Fill-105" fill="#352719" points="51.3404148 65.1857778 52.9173037 63.4062222 53.5967111 65.6557037"></polygon><polygon id="Fill-106" fill="#D7AC44" points="51.3397037 64.2031111 49.7459259 65.8952593 49.1056296 63.6093333"></polygon><polygon id="Fill-107" fill="#352719" points="46.6436741 65.0555556 48.2567111 63.3663704 48.8878222 65.6543704"></polygon><polygon id="Fill-108" fill="#D7AC44" points="46.6643556 64.0729185 45.033837 65.7615111 44.4403556 63.4741037"></polygon><polygon id="Fill-109" fill="#352719" points="41.9476148 64.9201481 43.5973926 63.2333333 44.1802074 65.5174815"></polygon><polygon id="Fill-110" fill="#D7AC44" points="41.9884148 63.9375111 40.3202667 65.6249185 39.776563 63.3419556"></polygon><polygon id="Fill-111" fill="#352719" points="37.2547852 64.7268444 38.9359704 63.0978074 39.4743407 65.3843259"></polygon><polygon id="Fill-112" fill="#D7AC44" points="37.3154074 63.7442074 35.6173333 65.339763 35.1222222 63.019763"></polygon><polygon id="Fill-113" fill="#352719" points="32.573363 64.3182815 34.2906963 62.7262815 34.7775111 65.0462815"></polygon><polygon id="Fill-114" fill="#D7AC44" points="32.656237 63.3402667 30.9208296 64.9310815 30.4725333 62.6140444"></polygon><polygon id="Fill-115" fill="#352719" points="27.8928 63.9131852 29.6465778 62.3223704 30.0845037 64.6376296"></polygon><polygon id="Fill-116" fill="#D7AC44" points="27.9959407 62.9352 26.2237926 64.5215704 25.8258667 62.2107556"></polygon><polygon id="Fill-117" fill="#352719" points="23.2271407 63.3773037 25.0069926 61.8848593 25.3936593 64.2309333"></polygon><polygon id="Fill-118" fill="#D7AC44" points="23.3511407 62.4021926 21.5535111 63.8928593 21.2062519 61.5503407"></polygon><polygon id="Fill-119" fill="#352719" points="18.5775407 62.6973333 20.3947259 61.2096296 20.7328 63.550963"></polygon><polygon id="Fill-120" fill="#D7AC44" points="18.7230815 61.7239704 16.8875259 63.2101926 16.5894519 60.8733037"></polygon><polygon id="Fill-121" fill="#352719" points="13.9283852 62.0156148 15.7826074 60.5353185 16.0720889 62.8674667"></polygon><polygon id="Fill-122" fill="#D7AC44" points="14.0937481 61.0463111 12.2288593 62.508237 11.9743407 60.1387556"></polygon><polygon id="Fill-123" fill="#352719" points="9.33028148 61.1342519 11.1708741 59.7475852 11.4336889 62.1179556"></polygon><polygon id="Fill-124" fill="#D7AC44" points="9.4877037 60.163763 7.66548148 61.5548741 7.36414815 59.1765037"></polygon><polygon id="Fill-125" fill="#352719" points="4.75128889 60.1788148 6.55514074 58.7847407 6.86625185 61.1631111"></polygon><polygon id="Fill-126" fill="#D7AC44" points="4.88802963 59.2054519 3.10284444 60.5995259 2.7541037 58.2152296"></polygon><polygon id="Fill-127" fill="#352719" points="0.1736 59.218163 1.94041481 57.8234963 2.29804444 60.2083852"></polygon></g></g></svg> 