<?xml version="1.0" encoding="UTF-8"?> <svg xmlns="http://www.w3.org/2000/svg" xmlns:xlink="http://www.w3.org/1999/xlink" width="189px" height="72px" viewBox="0 0 189 72"><!-- Generator: Sketch 50.2 (55047) - http://www.bohemiancoding.com/sketch --><title>UFM Logo and Name</title><desc>Created with Sketch.</desc><defs></defs><g id="UFM-Logo-and-Name" stroke="none" stroke-width="1" fill="none" fill-rule="evenodd"><g id="Group" fill="#9A2D2D"><polygon id="Fill-1" points="61.954552 35.3207464 59.1248313 32.9628469 102.039245 0.737818994 104.868965 2.78157318"></polygon><polygon id="Fill-2" points="83.8046615 53.5552492 86.6339799 55.4413274 129.548393 23.0594279 126.561399 21.016076"></polygon><polygon id="Fill-3" points="102.668018 55.4414883 104.869046 52.4544939 62.7405989 21.0158346 59.7536045 22.9023151"></polygon><polygon id="Fill-4" points="127.504438 35.3207464 130.334159 32.8055732 87.577019 0.737818994 84.7477006 2.78157318"></polygon><polygon id="Fill-5" points="65.4130056 36.7352849 68.242324 36.7352849 68.242324 18.9726034 65.4130056 18.9726034"></polygon><polygon id="Fill-6" points="69.185162 36.7352849 72.0148827 36.7352849 72.0148827 18.9726034 69.185162 18.9726034"></polygon><polygon id="Fill-7" points="91.3498994 18.0293631 94.1796201 18.0293631 94.1796201 0.26627933 91.3498994 0.26627933"></polygon><polygon id="Fill-8" points="95.1224581 18.0293631 97.9521788 18.0293631 97.9521788 0.26627933 95.1224581 0.26627933"></polygon><polygon id="Fill-9" points="116.97305 36.7352849 119.801966 36.7352849 119.801966 18.9726034 116.97305 18.9726034"></polygon><polygon id="Fill-10" points="120.746011 36.7352849 123.574927 36.7352849 123.574927 18.9726034 120.746011 18.9726034"></polygon><polygon id="Fill-11" points="90.8784804 57.3280894 93.7082011 57.3280894 93.7082011 39.5650056 90.8784804 39.5650056"></polygon><polygon id="Fill-12" points="94.6514413 57.3280894 97.4807598 57.3280894 97.4807598 39.5650056 94.6514413 39.5650056"></polygon><polygon id="Fill-13" points="89.8122369 20.154248 99.0813318 20.154248 99.0813318 23.2019799 93.2541587 23.2019799 93.2541587 26.9568402 98.6984045 26.9568402 98.6984045 29.9800358 93.2541587 29.9800358 93.2541587 36.5875441 89.8122369 36.5875441"></polygon><g id="Group-78" transform="translate(0.000000, 23.442235)"><path d="M81.6449832,0.165760894 L81.6449832,5.67516872 C81.6449832,7.32231955 82.2700559,8.1601743 83.3778101,8.1601743 C84.5133184,8.1601743 85.1383911,7.36495642 85.1383911,5.67516872 L85.1383911,0.165760894 L87.2963799,0.165760894 L87.2963799,5.53317989 C87.2963799,8.48678883 85.8056983,9.89259888 83.3066145,9.89259888 C80.8924022,9.89259888 79.472514,8.55758212 79.472514,5.50502346 L79.472514,0.165760894 L81.6449832,0.165760894 Z" id="Fill-14"></path><path d="M107.965046,6.07297877 C107.923213,4.92258771 107.880174,3.5312581 107.880174,2.13952626 L107.838342,2.13952626 C107.539482,3.36071061 107.141672,4.7238838 106.773225,5.84531397 L105.608353,9.58006257 L103.918565,9.58006257 L102.896487,5.87387263 C102.583951,4.75204022 102.257739,3.38926927 102.030476,2.13952626 L102.001515,2.13952626 C101.9448,3.43190615 101.902565,4.9085095 101.830968,6.1011352 L101.660822,9.73612961 L99.6589006,9.73612961 L100.269091,0.165760894 L103.151906,0.165760894 L104.089113,3.36071061 C104.387169,4.4684648 104.685627,5.6610905 104.898409,6.78292291 L104.940644,6.78292291 C105.211347,5.67516872 105.53756,4.41134749 105.849694,3.3466324 L106.872174,0.165760894 L109.698275,0.165760894 L110.223191,9.73612961 L108.107437,9.73612961 L107.965046,6.07297877 Z" id="Fill-16"></path><path d="M5.62303911,45.0573587 C5.62303911,45.3566212 5.61459218,45.6229006 5.59729609,45.8557944 C5.57959777,46.0886883 5.54822346,46.2978503 5.50317318,46.4820737 C5.45772067,46.6662972 5.39698324,46.8300067 5.32055866,46.9728 C5.24373184,47.1151911 5.14639106,47.2455151 5.02813408,47.3637721 C4.82661453,47.5656939 4.58286034,47.7149229 4.29767598,47.8126659 C4.01249162,47.9100067 3.69271508,47.9586771 3.3375419,47.9586771 C2.85043575,47.9586771 2.44377654,47.9047777 2.11675978,47.7969788 C1.78974302,47.6891799 1.5270838,47.5294927 1.32878212,47.3167106 C1.13048045,47.104733 0.989698324,46.8420737 0.90603352,46.528733 C0.82277095,46.2157944 0.780938547,45.8574034 0.780938547,45.453962 L0.780938547,42.1355263 C0.780938547,41.9476827 0.772089385,41.7980514 0.754793296,41.6866324 C0.737497207,41.5756156 0.706122905,41.488733 0.661072626,41.4259844 C0.615620112,41.3632358 0.553273743,41.3181855 0.47322905,41.2904313 C0.393184358,41.2622749 0.290614525,41.2417609 0.165117318,41.2276827 C0.144201117,41.1512581 0.13052514,41.0748335 0.123687151,40.9980067 C0.116446927,40.9215821 0.11322905,40.8483754 0.11322905,40.7787888 C0.252,40.792867 0.43501676,40.8017162 0.661072626,40.8049341 C0.887128492,40.8085542 1.10795531,40.8101631 1.32355307,40.8101631 C1.53915084,40.8101631 1.7547486,40.8085542 1.9707486,40.8049341 C2.18634637,40.8017162 2.37378771,40.792867 2.53427933,40.7787888 C2.53427933,40.8483754 2.53065922,40.9215821 2.52382123,40.9980067 C2.51658101,41.0748335 2.50290503,41.1512581 2.48198883,41.2276827 C2.32913966,41.2417609 2.2052514,41.2610682 2.11153073,41.2848 C2.01781006,41.3097385 1.94460335,41.3527777 1.89231285,41.4155263 C1.84002235,41.4782749 1.80543017,41.5667665 1.78813408,41.6814034 C1.77043575,41.7964425 1.76198883,41.9476827 1.76198883,42.1355263 L1.76198883,45.3079508 C1.76198883,45.6003754 1.78974302,45.8751017 1.8452514,46.1325318 C1.90116201,46.389962 1.99649162,46.6123978 2.13244693,46.8002413 C2.268,46.9880849 2.44900559,47.1361073 2.67506145,47.2439061 C2.90111732,47.351705 3.18791061,47.4056045 3.53624581,47.4056045 C3.71001117,47.4056045 3.90107263,47.3762413 4.1098324,47.3167106 C4.31859218,47.2579844 4.49597765,47.1550123 4.64239106,47.0094034 C4.72565363,46.9257385 4.79524022,46.8352358 4.85115084,46.737895 C4.90665922,46.6405542 4.9517095,46.5186771 4.98630168,46.3726659 C5.02129609,46.2262525 5.04744134,46.0544983 5.06473743,45.8557944 C5.08203352,45.6574927 5.09088268,45.4193698 5.09088268,45.1410235 L5.09088268,42.5526436 C5.09088268,42.3024536 5.08203352,42.095705 5.06473743,41.9319955 C5.04744134,41.7686883 5.01244693,41.6363531 4.96055866,41.5353922 C4.90826816,41.4348335 4.83546369,41.3616268 4.74134078,41.3161743 C4.64721788,41.271124 4.52373184,41.2417609 4.37088268,41.2276827 C4.34996648,41.1235039 4.33588827,41.0418503 4.32905028,40.9823196 C4.32221229,40.9235933 4.31859218,40.8556156 4.31859218,40.7787888 C4.43684916,40.792867 4.59010056,40.8017162 4.77794413,40.8049341 C4.96578771,40.8085542 5.13955307,40.8101631 5.29964246,40.8101631 C5.45973184,40.8101631 5.62987709,40.8085542 5.81088268,40.8049341 C5.99188827,40.8017162 6.15157542,40.792867 6.29115084,40.7787888 C6.29115084,40.8274592 6.28753073,40.8849788 6.28069274,40.9509453 C6.27345251,41.017314 6.25977654,41.1094257 6.23886034,41.2276827 C6.12060335,41.2417609 6.0212514,41.271124 5.94160894,41.3161743 C5.86116201,41.3616268 5.79680447,41.4328223 5.74853631,41.5301631 C5.69946369,41.6279061 5.66648045,41.7598391 5.64918436,41.9267665 C5.63148603,42.0936939 5.62303911,42.3024536 5.62303911,42.5526436 L5.62303911,45.0573587 Z" id="Fill-18"></path><path d="M11.769667,45.9757408 C11.769667,45.7392268 11.7592089,45.5529922 11.7382927,45.4174391 C11.7173765,45.281886 11.6755441,45.1797184 11.6131978,45.1097296 C11.5504492,45.040143 11.4599464,44.9950927 11.3416894,44.9741765 C11.2234324,44.9532603 11.0665609,44.9395844 10.8722816,44.9323441 C10.8513654,44.8768358 10.8356782,44.8036291 10.8252201,44.7131263 C10.814762,44.6230257 10.809533,44.5357408 10.809533,44.4524782 C10.9414659,44.4661542 11.1329296,44.4750034 11.3835218,44.4782212 C11.634114,44.4818413 11.8670078,44.4834503 12.0826056,44.4834503 C12.2982034,44.4834503 12.5278793,44.4818413 12.7712313,44.4782212 C13.0149855,44.4750034 13.1923709,44.4697743 13.3033877,44.4625341 C13.3033877,44.5256849 13.3001698,44.6021095 13.2933318,44.6926123 C13.2864939,44.7827128 13.2687955,44.8627575 13.2410413,44.9323441 C13.1364603,44.9395844 13.0531978,44.9532603 12.9904492,44.9741765 C12.9281028,44.9950927 12.8774212,45.040143 12.8392089,45.1097296 C12.8009966,45.1797184 12.7764603,45.281886 12.7664045,45.4174391 C12.7559464,45.5529922 12.7503151,45.7392268 12.7503151,45.9757408 L12.7503151,46.4455508 C12.7503151,46.591562 12.7591642,46.723495 12.7764603,46.841752 C12.7937564,46.9604112 12.8303598,47.0718302 12.8862704,47.1760089 C12.5870078,47.3988469 12.2044827,47.5846793 11.7382927,47.7343106 C11.2721028,47.8839419 10.7431642,47.9587575 10.1522816,47.9587575 C9.63701899,47.9587575 9.16922011,47.8698637 8.74848268,47.6928804 C8.32734302,47.5150927 7.96573408,47.2645006 7.66325363,46.9411039 C7.36037095,46.6177073 7.12707486,46.2283441 6.9637676,45.7722101 C6.80046034,45.3164782 6.7188067,44.8072492 6.7188067,44.2433162 C6.7188067,43.6588693 6.82137654,43.1464223 7.0265162,42.7043665 C7.23165587,42.2627128 7.50477318,41.8954726 7.84586816,41.6034503 C8.18656089,41.3110257 8.57270615,41.0901989 9.00430391,40.9405676 C9.43549944,40.7909363 9.88077318,40.7165229 10.3397229,40.7165229 C10.8409073,40.7165229 11.305086,40.7615732 11.7330637,40.852076 C12.1610413,40.9421765 12.5314994,41.0604335 12.844438,41.2068469 C12.7957676,41.4501989 12.7643933,41.7024 12.7503151,41.963048 C12.7366391,42.2240983 12.7298011,42.5112939 12.7298011,42.8242324 C12.5628737,42.886981 12.378248,42.9179531 12.1767285,42.9179531 C12.1626503,42.5563441 12.1087508,42.2590927 12.0146279,42.0261989 C11.9209073,41.793305 11.7954101,41.6118972 11.6389408,41.4831821 C11.4824715,41.3548693 11.3002592,41.2659754 11.0910972,41.217305 C10.8823374,41.1686346 10.6599017,41.1440983 10.4233877,41.1440983 C9.97811397,41.1440983 9.59196872,41.224143 9.26495196,41.3842324 C8.9379352,41.5439196 8.66843799,41.7567017 8.45646034,42.0205676 C8.24408045,42.285238 8.0856,42.5893274 7.98142123,42.9340425 C7.87724246,43.2783553 7.82495196,43.6379531 7.82495196,44.0140425 C7.82495196,44.4870704 7.87724246,44.9323441 7.98142123,45.3494615 C8.0856,45.766981 8.24408045,46.1310034 8.45646034,46.4403218 C8.66843799,46.7500425 8.93270615,46.9950034 9.2492648,47.1760089 C9.56582346,47.3570145 9.93628156,47.4471151 10.3610413,47.4471151 C10.5693989,47.4471151 10.7556335,47.4370592 10.9189408,47.416143 C11.0826503,47.3948246 11.2479687,47.3497743 11.4148961,47.2801877 C11.5331531,47.2319196 11.6216447,47.1550927 11.6807732,47.050914 C11.7399017,46.946333 11.769667,46.7621095 11.769667,46.4978413 L11.769667,45.9757408 Z" id="Fill-20"></path><path d="M15.3907844,45.0993922 L17.7599464,45.0993922 L16.9667397,43.2418726 C16.9180693,43.1372916 16.8742257,43.0399508 16.8364156,42.949448 C16.7978011,42.8593475 16.7595888,42.7668335 16.7213765,42.6731128 C16.6831642,42.5789899 16.643343,42.4836603 16.6015106,42.3859173 C16.5733542,42.3026547 16.538762,42.212152 16.4969296,42.1148112 C16.427343,42.3440849 16.3613765,42.5427888 16.2986279,42.7097162 C16.2362816,42.8907218 16.173533,43.0640849 16.1111866,43.2310123 L15.3907844,45.0993922 Z M16.5805944,40.789448 C16.6988514,40.7616939 16.8344045,40.7476156 16.9876559,40.7476156 L19.4714547,46.4456715 C19.5547173,46.6403531 19.629533,46.8004425 19.6954994,46.9255374 C19.7618682,47.0510346 19.8242145,47.1499844 19.883343,47.2227888 C19.9424715,47.2959955 20.0016,47.348286 20.0607285,47.3796603 C20.119857,47.4106324 20.1914547,47.4335598 20.2747173,47.4472358 C20.3024715,47.5377385 20.3197676,47.6141631 20.3270078,47.6769117 C20.3338458,47.7392581 20.3374659,47.8124648 20.3374659,47.8961296 C20.2815553,47.8961296 20.2051307,47.8941184 20.1077899,47.8904983 C20.0104492,47.8872804 19.9026503,47.8820514 19.7843933,47.8752134 L19.4400804,47.8647553 L19.1476559,47.8647553 C19.0643933,47.8647553 18.9650413,47.8663642 18.8504045,47.8699844 C18.7353654,47.8732022 18.6223374,47.8768223 18.5113207,47.8804425 C18.3999017,47.8840626 18.2937117,47.8872804 18.1927508,47.8904983 C18.0917899,47.8941184 18.0169743,47.8961296 17.9687061,47.8961296 C17.9687061,47.8124648 17.971924,47.7328223 17.9791642,47.6559955 C17.9860022,47.5795709 18.0065162,47.5099844 18.0415106,47.4472358 C18.1875218,47.4335598 18.3005497,47.4126436 18.3805944,47.3848894 C18.4606391,47.356733 18.5145385,47.3136939 18.5422927,47.2541631 C18.5700469,47.1954369 18.573667,47.1170011 18.5527508,47.0192581 C18.5322369,46.9219173 18.4867844,46.7936045 18.4171978,46.6331128 L17.9578458,45.5688 C17.5057341,45.5688 17.0294883,45.5724201 16.5283039,45.5792581 C16.048438,45.5864983 15.6031642,45.5965542 15.1924827,45.6106324 L14.9213765,46.3310346 C14.7612872,46.741314 14.7126168,47.0244872 14.7753654,47.1813587 C14.8377117,47.3374257 15.0114771,47.4263196 15.2970637,47.4472358 C15.3457341,47.565895 15.3698682,47.715124 15.3698682,47.8961296 C15.2516112,47.8820514 15.1003709,47.8732022 14.9161475,47.8699844 C14.7315218,47.8663642 14.5525274,47.8647553 14.3783598,47.8647553 C14.2045944,47.8647553 14.0412872,47.8683754 13.8880358,47.8752134 C13.7351866,47.8820514 13.6096894,47.8892916 13.5123486,47.8961296 C13.5123486,47.826543 13.5175777,47.7517274 13.5280358,47.6720849 C13.5384939,47.591638 13.5573989,47.5204425 13.5855553,47.4576939 C13.6756559,47.4371799 13.7561028,47.4054034 13.8252872,47.3639732 C13.8948737,47.3221408 13.9612425,47.2593922 14.0239911,47.1761296 C14.0863374,47.0924648 14.1470749,46.983057 14.2066056,46.8475039 C14.2653318,46.7115486 14.3369296,46.5393922 14.4201922,46.3310346 L16.5805944,40.789448 Z" id="Fill-22"></path><path d="M25.4299575,40.7789095 C25.5828067,40.7929877 25.7481251,40.8018369 25.9255106,40.8046525 C26.1028961,40.8086749 26.2649966,40.8102838 26.4106056,40.8102838 C26.557019,40.8102838 26.7239464,40.8086749 26.9117899,40.8046525 C27.0996335,40.8018369 27.2629408,40.7929877 27.402114,40.7789095 C27.402114,40.8484961 27.3988961,40.9213006 27.3916559,40.9981274 C27.3848179,41.074552 27.3711419,41.1513788 27.3498235,41.2274011 C27.2315665,41.2274011 27.1342257,41.2523397 27.0578011,41.3006078 C26.9813765,41.3492782 26.9186279,41.4309318 26.8699575,41.5459709 C26.8212872,41.6606078 26.786695,41.811848 26.7657788,41.9996916 C26.7448626,42.1879374 26.7344045,42.4244514 26.7344045,42.7096358 L26.7344045,47.9065073 C26.6784939,47.9270212 26.6125274,47.9415017 26.5361028,47.9483397 C26.4596782,47.9551777 26.3828514,47.9587978 26.3064268,47.9587978 L21.9755665,42.3025743 L21.9755665,45.9134346 C21.9755665,46.205457 21.9860246,46.4508201 22.0069408,46.6491218 C22.027857,46.8474235 22.0660693,47.0055017 22.1215777,47.1237587 C22.1774883,47.2420156 22.2523039,47.3256804 22.3460246,47.3739486 C22.4401475,47.4230212 22.5563933,47.4471553 22.6959687,47.4471553 C22.7164827,47.5099039 22.7305609,47.5758704 22.7373989,47.645457 C22.7442369,47.7150436 22.747857,47.7987084 22.747857,47.8960492 C22.5877676,47.8819709 22.4140022,47.873524 22.2261587,47.8699039 C22.0383151,47.8662838 21.8677676,47.8646749 21.7149184,47.8646749 C21.561667,47.8646749 21.3822704,47.8662838 21.177533,47.8699039 C20.9719911,47.873524 20.8034547,47.8819709 20.6711196,47.8960492 C20.6711196,47.8059486 20.6747397,47.7238927 20.6815777,47.650686 C20.6884156,47.5774793 20.7024939,47.5099039 20.7234101,47.4471553 C20.8625832,47.4471553 20.9792313,47.4230212 21.072952,47.3739486 C21.1670749,47.3256804 21.2414883,47.2420156 21.2973989,47.1237587 C21.3529073,47.0055017 21.3911196,46.8474235 21.4120358,46.6491218 C21.432952,46.4508201 21.4434101,46.205457 21.4434101,45.9134346 L21.4434101,41.6034905 L21.4015777,41.5512 C21.3042369,41.4257028 21.210114,41.3440492 21.1200134,41.3062391 C21.0295106,41.2676246 20.8971754,41.2414793 20.7234101,41.2274011 C20.7024939,41.1513788 20.6884156,41.0713341 20.6815777,40.9876693 C20.6747397,40.9044067 20.6711196,40.8348201 20.6711196,40.7789095 C20.7757006,40.7929877 20.8971754,40.8018369 21.0363486,40.8046525 C21.1755218,40.8086749 21.3110749,40.8102838 21.4434101,40.8102838 C21.7217564,40.8102838 21.9546503,40.7998257 22.1428961,40.7789095 L26.202248,46.1640268 L26.202248,42.7096358 C26.202248,42.4244514 26.1917899,42.1879374 26.1708737,41.9996916 C26.1499575,41.811848 26.1117453,41.6606078 26.0562369,41.5459709 C26.0003263,41.4309318 25.9255106,41.3492782 25.8317899,41.3006078 C25.737667,41.2523397 25.6214212,41.2274011 25.4818458,41.2274011 C25.4613318,41.1091441 25.4472536,41.0210547 25.4404156,40.961524 C25.4331754,40.9027978 25.4299575,40.8412559 25.4299575,40.7789095" id="Fill-24"></path><path d="M29.8232849,46.4247151 C29.8232849,46.6193966 29.835352,46.779486 29.8598883,46.904581 C29.8840223,47.0300782 29.9310838,47.1290279 30.0006704,47.2022346 C30.070257,47.2750391 30.1659888,47.3257207 30.2878659,47.3534749 C30.4093408,47.3812291 30.5678212,47.394905 30.7625028,47.394905 C31.1800223,47.394905 31.5645587,47.3446257 31.9157095,47.2436648 C32.2668603,47.1431061 32.571352,46.9741676 32.8287821,46.7376536 C33.0862123,46.5011397 33.2881341,46.1861899 33.4341453,45.7932067 C33.5801564,45.4002235 33.6533631,44.9078883 33.6533631,44.3166034 C33.6533631,43.7530726 33.5680894,43.2728045 33.3975419,42.8766034 C33.2269944,42.4795978 32.9993296,42.1566034 32.7141453,41.9060112 C32.4289609,41.6558212 32.1019441,41.4728045 31.733095,41.3577654 C31.3642458,41.2431285 30.9853408,41.1860112 30.5955754,41.1860112 C30.4704804,41.1860112 30.3329162,41.1944581 30.1832849,41.2117542 C30.0336536,41.2294525 29.9137877,41.2523799 29.8232849,41.2797318 L29.8232849,46.4247151 Z M28.0703464,40.7789497 C28.1395307,40.7857877 28.2284246,40.7910168 28.3362235,40.7946369 C28.4440223,40.798257 28.5570503,40.8018771 28.6753073,40.8046927 C28.7935642,40.8087151 28.9154413,40.810324 29.0405363,40.810324 L29.3957095,40.810324 C29.6249832,40.810324 29.8546592,40.8067039 30.0843352,40.7998659 C30.3140112,40.7930279 30.5396648,40.7894078 30.7625028,40.7894078 C31.2218547,40.7894078 31.6876425,40.8312402 32.1610726,40.9145028 C32.6341006,40.9981676 33.060067,41.1598659 33.4393743,41.4 C33.8186816,41.6397318 34.128,41.9808268 34.3681341,42.4224804 C34.6082682,42.8641341 34.7281341,43.4437542 34.7281341,44.1601341 C34.7281341,44.7236648 34.6569385,45.2075531 34.5141453,45.6109944 C34.3717542,46.0140335 34.1871285,46.3515084 33.9610726,46.6230168 C33.7350168,46.8941229 33.4775866,47.1133408 33.1887821,47.2802682 C32.8999777,47.4471955 32.6095642,47.5726927 32.3175419,47.6563575 C32.0255196,47.7396201 31.7419441,47.7951285 31.4668156,47.8232849 C31.1920894,47.8510391 30.9571844,47.8647151 30.7625028,47.8647151 L30.0843352,47.8647151 C29.826905,47.8647151 29.5710838,47.866324 29.3172737,47.8699441 C29.0630615,47.8735642 28.8233296,47.8767821 28.5972737,47.8804022 C28.3712179,47.8840223 28.1918212,47.8892514 28.0598883,47.8960894 C28.0598883,47.6941676 28.0771844,47.5449385 28.1117765,47.4471955 C28.2509497,47.4403575 28.3675978,47.4214525 28.4613184,47.389676 C28.5554413,47.3583017 28.630257,47.3048045 28.6857654,47.2279777 C28.741676,47.1519553 28.7814972,47.0493855 28.8060335,46.9202682 C28.8301676,46.7915531 28.8426369,46.6266369 28.8426369,46.4247151 L28.8426369,42.1356872 C28.8426369,41.7877542 28.7919553,41.5528492 28.6909944,41.4309721 C28.5900335,41.3094972 28.400581,41.2415196 28.1222346,41.2274413 C28.1013184,41.171933 28.0876425,41.1039553 28.0804022,41.0239106 C28.0735642,40.9442682 28.0703464,40.8622123 28.0703464,40.7789497 Z" id="Fill-26"></path><path d="M36.5021899,45.0993922 L38.871352,45.0993922 L38.0781453,43.2418726 C38.0294749,43.1372916 37.9856313,43.0399508 37.9478212,42.949448 C37.9092067,42.8593475 37.8709944,42.7668335 37.8327821,42.6731128 C37.7945698,42.5789899 37.7547486,42.4836603 37.7129162,42.3859173 C37.6847598,42.3026547 37.6501676,42.212152 37.6083352,42.1148112 C37.5387486,42.3440849 37.4727821,42.5427888 37.4100335,42.7097162 C37.3476872,42.8907218 37.2849385,43.0640849 37.2225922,43.2310123 L36.5021899,45.0993922 Z M37.692,40.789448 C37.810257,40.7616939 37.9458101,40.7476156 38.0990615,40.7476156 L40.5828603,46.4456715 C40.6661229,46.6403531 40.7409385,46.8004425 40.806905,46.9255374 C40.8732737,47.0510346 40.9356201,47.1499844 40.9947486,47.2227888 C41.0538771,47.2959955 41.1130056,47.348286 41.1721341,47.3796603 C41.2312626,47.4106324 41.3028603,47.4335598 41.3861229,47.4472358 C41.4138771,47.5377385 41.4311732,47.6141631 41.4384134,47.6769117 C41.4452514,47.7392581 41.4488715,47.8124648 41.4488715,47.8961296 C41.3929609,47.8961296 41.3165363,47.8941184 41.2191955,47.8904983 C41.1218547,47.8872804 41.0140559,47.8820514 40.8957989,47.8752134 L40.551486,47.8647553 L40.2590615,47.8647553 C40.1757989,47.8647553 40.0764469,47.8663642 39.9618101,47.8699844 C39.8467709,47.8732022 39.733743,47.8768223 39.6227263,47.8804425 C39.5113073,47.8840626 39.4051173,47.8872804 39.3041564,47.8904983 C39.2031955,47.8941184 39.1283799,47.8961296 39.0801117,47.8961296 C39.0801117,47.8124648 39.0833296,47.7328223 39.0905698,47.6559955 C39.0974078,47.5795709 39.1179218,47.5099844 39.1529162,47.4472358 C39.2989274,47.4335598 39.4119553,47.4126436 39.492,47.3848894 C39.5720447,47.356733 39.6259441,47.3136939 39.6536983,47.2541631 C39.6814525,47.1954369 39.6850726,47.1170011 39.6641564,47.0192581 C39.6436425,46.9219173 39.5981899,46.7936045 39.5286034,46.6331128 L39.0692514,45.5688 C38.6171397,45.5688 38.1408939,45.5724201 37.6397095,45.5792581 C37.1598436,45.5864983 36.7145698,45.5965542 36.3038883,45.6106324 L36.0327821,46.3310346 C35.8726927,46.741314 35.8240223,47.0244872 35.8867709,47.1813587 C35.9491173,47.3374257 36.1228827,47.4263196 36.4084693,47.4472358 C36.4571397,47.565895 36.4812737,47.715124 36.4812737,47.8961296 C36.3630168,47.8820514 36.2117765,47.8732022 36.0275531,47.8699844 C35.8429274,47.8663642 35.663933,47.8647553 35.4897654,47.8647553 C35.316,47.8647553 35.1526927,47.8683754 34.9994413,47.8752134 C34.8465922,47.8820514 34.721095,47.8892916 34.6237542,47.8961296 C34.6237542,47.826543 34.6289832,47.7517274 34.6394413,47.6720849 C34.6498994,47.591638 34.6688045,47.5204425 34.6969609,47.4576939 C34.7870615,47.4371799 34.8675084,47.4054034 34.9366927,47.3639732 C35.0062793,47.3221408 35.072648,47.2593922 35.1353966,47.1761296 C35.197743,47.0924648 35.2584804,46.983057 35.3180112,46.8475039 C35.3767374,46.7115486 35.4483352,46.5393922 35.5315978,46.3310346 L37.692,40.789448 Z" id="Fill-28"></path><path d="M47.7832223,40.7789095 C47.7900603,40.8971665 47.8021274,41.0274905 47.8198257,41.1702838 C47.8371218,41.3126749 47.8544179,41.458686 47.871714,41.6087196 C47.8890101,41.7583508 47.9083173,41.904362 47.9292335,42.0467531 C47.9501497,42.1895464 47.974686,42.3162503 48.002038,42.4280715 C47.9465296,42.4767419 47.878552,42.5097251 47.7989095,42.5270212 C47.7188648,42.5443173 47.6299709,42.5527642 47.5326302,42.5527642 C47.518552,42.3930771 47.4855687,42.2329877 47.4336804,42.0728983 C47.3813899,41.9128089 47.2908872,41.7704179 47.1621721,41.6449207 C47.033457,41.5198257 46.8613006,41.419267 46.6457028,41.3424402 C46.430105,41.2660156 46.1553788,41.2274011 45.8211218,41.2274011 L45.1011218,41.2274011 L45.1011218,44.2956469 L45.6127642,44.2956469 C45.8279598,44.2956469 46.0089654,44.2835799 46.1553788,44.2590436 C46.3013899,44.2349095 46.4196469,44.1910659 46.5097475,44.1287196 C46.6002503,44.0663732 46.666619,43.9790883 46.7084514,43.8680715 C46.7498816,43.7566525 46.7707978,43.6174793 46.7707978,43.450552 C46.8613006,43.4227978 46.9429542,43.4034905 47.0161609,43.3930324 C47.0889654,43.3825743 47.1742391,43.3773453 47.2719821,43.3773453 C47.2579039,43.5583508 47.2510659,43.7498145 47.2510659,43.9513341 L47.2510659,45.1202279 C47.2510659,45.3430659 47.2579039,45.5445855 47.2719821,45.7255911 C47.1742391,45.7255911 47.0889654,45.7219709 47.0161609,45.7147307 C46.9429542,45.708295 46.8681385,45.6942168 46.791714,45.6733006 C46.7776358,45.4926972 46.7482726,45.3430659 46.7028201,45.2248089 C46.6577698,45.106552 46.5897922,45.0108201 46.4996916,44.9376134 C46.4087866,44.8644067 46.2925408,44.8141274 46.1497475,44.7863732 C46.0073564,44.758619 45.8279598,44.7441385 45.6127642,44.7441385 L45.1011218,44.7441385 L45.1011218,46.3309542 C45.1011218,46.5602279 45.1184179,46.7448536 45.1534123,46.8840268 C45.1880045,47.0227978 45.2439151,47.1342168 45.3203397,47.2178816 C45.3967642,47.3011441 45.4924961,47.3582615 45.607133,47.390038 C45.7221721,47.4214123 45.8629542,47.4407196 46.0298816,47.4471553 C46.064876,47.5448983 46.0821721,47.6941274 46.0821721,47.8960492 C45.9220827,47.8819709 45.723781,47.873524 45.487267,47.8699039 C45.2507531,47.8662838 45.010619,47.8646749 44.767267,47.8646749 L44.3706637,47.8646749 C44.2383285,47.8646749 44.1059933,47.8662838 43.9740603,47.8699039 C43.8417251,47.873524 43.7218592,47.8767419 43.6140603,47.880362 C43.5062615,47.8839821 43.4173676,47.8892112 43.3481832,47.8960492 C43.3481832,47.6941274 43.3654793,47.5448983 43.4000715,47.4471553 C43.6784179,47.4334793 43.8678704,47.3655017 43.9688313,47.2436246 C44.0697922,47.122552 44.1204737,46.8876469 44.1204737,46.5393117 L44.1204737,42.1356469 C44.1204737,41.787714 44.0697922,41.5528089 43.9688313,41.4309318 C43.8678704,41.309457 43.6784179,41.2414793 43.4000715,41.2274011 C43.3654793,41.1304626 43.3481832,40.9808313 43.3481832,40.7789095 C43.4592,40.7861497 43.5915352,40.7909765 43.7443844,40.7945966 C43.8972335,40.7982168 44.0524961,40.8018369 44.2089654,40.8046525 C44.3654346,40.8086749 44.520295,40.8102838 44.6735464,40.8102838 L45.1011218,40.8102838 C45.8106637,40.8102838 46.3918927,40.8066637 46.8440045,40.7998257 C47.2961162,40.7929877 47.6090547,40.7861497 47.7832223,40.7789095" id="Fill-30"></path><path d="M49.2546771,42.1356469 C49.2546771,41.787714 49.2039955,41.5528089 49.1034369,41.4309318 C49.002476,41.309457 48.8126212,41.2414793 48.5342749,41.2274011 C48.4996827,41.1304626 48.4823866,40.9808313 48.4823866,40.7789095 C48.8649117,40.7998257 49.2860514,40.8102838 49.7450011,40.8102838 C49.9674369,40.8102838 50.1814257,40.8086749 50.3869676,40.8046525 C50.5921073,40.8018369 50.7988559,40.7929877 51.0076156,40.7789095 C51.0076156,40.9808313 50.9903196,41.1304626 50.9557274,41.2274011 C50.677381,41.2414793 50.4875263,41.309457 50.3869676,41.4309318 C50.2860067,41.5528089 50.2353251,41.787714 50.2353251,42.1356469 L50.2353251,46.5393117 C50.2353251,46.8872447 50.2860067,47.1221497 50.3869676,47.2436246 C50.4875263,47.3655017 50.677381,47.4334793 50.9557274,47.4471553 C50.9903196,47.5448983 51.0076156,47.6941274 51.0076156,47.8960492 C50.5904983,47.8755352 50.1693587,47.8646749 49.7450011,47.8646749 C49.5430793,47.8646749 49.3278838,47.8662838 49.0982078,47.8699039 C48.8685318,47.873524 48.6629899,47.8819709 48.4823866,47.8960492 C48.4823866,47.6941274 48.4996827,47.5448983 48.5342749,47.4471553 C48.8126212,47.4334793 49.002476,47.3655017 49.1034369,47.2436246 C49.2039955,47.1221497 49.2546771,46.8872447 49.2546771,46.5393117 L49.2546771,42.1356469 Z" id="Fill-32"></path><path d="M53.8251888,40.7164425 C54.2149542,40.7164425 54.5488089,40.7631017 54.8271553,40.8572246 C55.1055017,40.9509453 55.3174793,41.0575374 55.4634905,41.1757944 C55.4634905,41.377314 55.4671106,41.6106101 55.4743508,41.8748782 C55.4807866,42.1391464 55.4984849,42.3652022 55.5262391,42.5526436 C55.4498145,42.587638 55.3577028,42.6121743 55.2499039,42.6258503 C55.1417028,42.6399285 55.039133,42.6467665 54.9417922,42.6467665 C54.8862838,42.3479061 54.8235352,42.102543 54.7539486,41.9110793 C54.684362,41.7200179 54.6027084,41.5703866 54.5089877,41.4621855 C54.4148648,41.3547888 54.310686,41.2795709 54.1956469,41.2381408 C54.0810101,41.1963084 53.957524,41.1757944 53.8251888,41.1757944 C53.5122503,41.1757944 53.2652782,41.265895 53.0842726,41.4464983 C52.903267,41.6279061 52.8127642,41.8849341 52.8127642,42.2187888 C52.8127642,42.5252916 52.8928089,42.7754816 53.0528983,42.9705654 C53.2129877,43.1652469 53.4133006,43.3394145 53.6530324,43.4918615 C53.8931665,43.6451128 54.1522056,43.7899173 54.430552,43.9254704 C54.7088983,44.0606212 54.9679374,44.2174927 55.2080715,44.3948782 C55.4482056,44.5722637 55.6481162,44.7862525 55.8082056,45.0364425 C55.9678927,45.2870346 56.0479374,45.6035933 56.0479374,45.9865207 C56.0479374,46.2507888 55.994038,46.5029899 55.8862391,46.7427218 C55.7784402,46.9828559 55.6308201,47.1936268 55.4425743,47.3742302 C55.255133,47.5552358 55.032295,47.6976268 54.7748648,47.8022078 C54.5174346,47.9063866 54.2358704,47.9586771 53.9297698,47.9586771 C53.6860156,47.9586771 53.4720268,47.9466101 53.2878034,47.9220737 C53.1035799,47.8979397 52.9330324,47.8597274 52.7765631,47.8074369 C52.6196916,47.7551464 52.4632223,47.6871687 52.3067531,47.6039061 C52.1502838,47.5202413 51.9745073,47.4160626 51.7798257,47.2909676 C51.8216581,47.0266994 51.8474011,46.7620291 51.8582615,46.4977609 C51.8687196,46.2334927 51.8735464,46.0038168 51.8735464,45.808733 C51.9503732,45.7878168 52.0404737,45.7721296 52.1450547,45.7620737 C52.2496358,45.7516156 52.3469765,45.7463866 52.4374793,45.7463866 C52.4511553,46.0106547 52.4857475,46.2471687 52.5416581,46.4559285 C52.5971665,46.6646883 52.6824402,46.8436827 52.7974793,46.993314 C52.9121162,47.1433475 53.0649654,47.2579844 53.2564291,47.3376268 C53.4478927,47.4176715 53.6896358,47.457895 53.9816581,47.457895 C54.1767419,47.457895 54.3468872,47.4285318 54.4933006,47.3690011 C54.6393117,47.3102749 54.7607866,47.2318391 54.8585296,47.1340961 C54.9558704,47.0367553 55.030686,46.9241296 55.0825743,46.7950123 C55.1348648,46.6662972 55.1610101,46.528733 55.1610101,46.3827218 C55.1610101,46.0697832 55.0809654,45.8159732 54.920876,45.6208894 C54.7607866,45.4262078 54.560876,45.2576715 54.3207419,45.1152804 C54.0810101,44.9724872 53.8199598,44.8365318 53.5383955,44.7078168 C53.2564291,44.5795039 52.9953788,44.4262525 52.7556469,44.248867 C52.5155128,44.0714816 52.3156022,43.8506547 52.1555128,43.5863866 C51.9954235,43.3221184 51.9153788,42.9774034 51.9153788,42.5526436 C51.9153788,42.2819397 51.9624402,42.0329564 52.0565631,41.8069006 C52.1502838,41.5804425 52.2810101,41.3857609 52.4479374,41.2224536 C52.6148648,41.0591464 52.8147754,40.9336492 53.0476693,40.8467665 C53.2805631,40.7594816 53.5400045,40.7164425 53.8251888,40.7164425" id="Fill-34"></path><path d="M61.6624894,44.4732335 L61.0466682,44.4732335 C60.7337296,44.4732335 60.4119419,44.4748425 60.081305,44.4784626 C59.7510704,44.4816804 59.4292827,44.4905296 59.1159419,44.5042056 C58.8725899,44.5114458 58.6606123,44.5219039 58.4796067,44.5355799 L58.4796067,46.5395128 C58.4796067,46.8874458 58.529886,47.1223508 58.6308469,47.2438257 C58.7318078,47.3653006 58.9212603,47.4332782 59.1996067,47.4473564 C59.2341989,47.5450994 59.2518972,47.6943285 59.2518972,47.8962503 C58.8343777,47.8753341 58.413238,47.864876 57.9892827,47.864876 C57.7873609,47.864876 57.5717631,47.8664849 57.3420872,47.8697028 C57.1124112,47.8733229 56.9072715,47.8821721 56.7266682,47.8962503 C56.7266682,47.6943285 56.743562,47.5450994 56.7785564,47.4473564 C57.0569028,47.4332782 57.2463553,47.3653006 57.3473162,47.2438257 C57.4478749,47.1223508 57.4985564,46.8874458 57.4985564,46.5395128 L57.4985564,42.1354458 C57.4985564,41.7875128 57.4478749,41.5526078 57.3473162,41.431133 C57.2463553,41.3096581 57.0569028,41.2416804 56.7785564,41.2276022 C56.743562,41.1302615 56.7266682,40.9806302 56.7266682,40.7787084 C57.1087911,40.7996246 57.5299307,40.8104849 57.9892827,40.8104849 C58.2117184,40.8104849 58.4257073,40.808876 58.6308469,40.8048536 C58.8359866,40.8016358 59.0431374,40.7931888 59.2518972,40.7787084 C59.2518972,40.9806302 59.2341989,41.1302615 59.1996067,41.2276022 C58.9212603,41.2416804 58.7318078,41.3096581 58.6308469,41.431133 C58.529886,41.5526078 58.4796067,41.7875128 58.4796067,42.1354458 L58.4796067,44.0243397 L61.6624894,44.0243397 L61.6624894,42.1354458 C61.6624894,41.7875128 61.6122101,41.5526078 61.5112492,41.431133 C61.4102883,41.3096581 61.2204335,41.2416804 60.9424894,41.2276022 C60.907495,41.1302615 60.8901989,40.9806302 60.8901989,40.7787084 C61.272724,40.7996246 61.6938637,40.8104849 62.1528134,40.8104849 C62.3756514,40.8104849 62.5896402,40.808876 62.7947799,40.8048536 C62.9999196,40.8016358 63.2070704,40.7931888 63.4158302,40.7787084 C63.4158302,40.9806302 63.3981318,41.1302615 63.3635397,41.2276022 C63.0851933,41.2416804 62.8953385,41.3096581 62.7947799,41.431133 C62.693819,41.5526078 62.6435397,41.7875128 62.6435397,42.1354458 L62.6435397,46.5395128 C62.6435397,46.8874458 62.693819,47.1223508 62.7947799,47.2438257 C62.8953385,47.3653006 63.0851933,47.4332782 63.3635397,47.4473564 C63.3981318,47.5450994 63.4158302,47.6943285 63.4158302,47.8962503 C62.9983106,47.8753341 62.5771709,47.864876 62.1528134,47.864876 C61.9512939,47.864876 61.7356961,47.8664849 61.5060201,47.8697028 C61.2763441,47.8733229 61.0712045,47.8821721 60.8901989,47.8962503 C60.8901989,47.6943285 60.907495,47.5450994 60.9424894,47.4473564 C61.2204335,47.4332782 61.4102883,47.3653006 61.5112492,47.2438257 C61.6122101,47.1223508 61.6624894,46.8874458 61.6624894,46.5395128 L61.6624894,44.4732335 Z" id="Fill-36"></path><path d="M68.8317989,40.7789095 C68.984648,40.7929877 69.1499665,40.8018369 69.327352,40.8046525 C69.5047374,40.8086749 69.666838,40.8102838 69.8124469,40.8102838 C69.9588603,40.8102838 70.1257877,40.8086749 70.3136313,40.8046525 C70.5014749,40.8018369 70.6647821,40.7929877 70.8039553,40.7789095 C70.8039553,40.8484961 70.8007374,40.9213006 70.7934972,40.9981274 C70.7866592,41.074552 70.7729832,41.1513788 70.7516648,41.2274011 C70.6334078,41.2274011 70.536067,41.2523397 70.4596425,41.3006078 C70.3832179,41.3492782 70.3204693,41.4309318 70.2717989,41.5459709 C70.2231285,41.6606078 70.1885363,41.811848 70.1676201,41.9996916 C70.1467039,42.1879374 70.1362458,42.4244514 70.1362458,42.7096358 L70.1362458,47.9065073 C70.0803352,47.9270212 70.0143687,47.9415017 69.9379441,47.9483397 C69.8615196,47.9551777 69.7846927,47.9587978 69.7082682,47.9587978 L65.3774078,42.3025743 L65.3774078,45.9134346 C65.3774078,46.205457 65.3878659,46.4508201 65.4087821,46.6491218 C65.4296983,46.8474235 65.4679106,47.0055017 65.523419,47.1237587 C65.5793296,47.2420156 65.6541453,47.3256804 65.7478659,47.3739486 C65.8419888,47.4230212 65.9582346,47.4471553 66.0978101,47.4471553 C66.118324,47.5099039 66.1324022,47.5758704 66.1392402,47.645457 C66.1460782,47.7150436 66.1496983,47.7987084 66.1496983,47.8960492 C65.9896089,47.8819709 65.8158436,47.873524 65.628,47.8699039 C65.4401564,47.8662838 65.2696089,47.8646749 65.1167598,47.8646749 C64.9635084,47.8646749 64.7841117,47.8662838 64.5793743,47.8699039 C64.3738324,47.873524 64.2052961,47.8819709 64.0729609,47.8960492 C64.0729609,47.8059486 64.076581,47.7238927 64.083419,47.650686 C64.090257,47.5774793 64.1043352,47.5099039 64.1252514,47.4471553 C64.2644246,47.4471553 64.3810726,47.4230212 64.4747933,47.3739486 C64.5689162,47.3256804 64.6433296,47.2420156 64.6992402,47.1237587 C64.7547486,47.0055017 64.7929609,46.8474235 64.8138771,46.6491218 C64.8347933,46.4508201 64.8452514,46.205457 64.8452514,45.9134346 L64.8452514,41.6034905 L64.803419,41.5512 C64.7060782,41.4257028 64.6119553,41.3440492 64.5218547,41.3062391 C64.431352,41.2676246 64.2990168,41.2414793 64.1252514,41.2274011 C64.1043352,41.1513788 64.090257,41.0713341 64.083419,40.9876693 C64.076581,40.9044067 64.0729609,40.8348201 64.0729609,40.7789095 C64.1775419,40.7929877 64.2990168,40.8018369 64.4381899,40.8046525 C64.5773631,40.8086749 64.7129162,40.8102838 64.8452514,40.8102838 C65.1235978,40.8102838 65.3564916,40.7998257 65.5447374,40.7789095 L69.6040894,46.1640268 L69.6040894,42.7096358 C69.6040894,42.4244514 69.5936313,42.1879374 69.5727151,41.9996916 C69.5517989,41.811848 69.5135866,41.6606078 69.4580782,41.5459709 C69.4021676,41.4309318 69.327352,41.3492782 69.2336313,41.3006078 C69.1395084,41.2523397 69.0232626,41.2274011 68.8836872,41.2274011 C68.8631732,41.1091441 68.849095,41.0210547 68.842257,40.961524 C68.8350168,40.9027978 68.8317989,40.8412559 68.8317989,40.7789095" id="Fill-38"></path><path d="M75.9384804,40.7789095 C75.9453184,40.8971665 75.9573855,41.0274905 75.9750838,41.1702838 C75.9923799,41.3126749 76.009676,41.458686 76.0273743,41.6087196 C76.0446704,41.7583508 76.0639777,41.904362 76.0844916,42.0467531 C76.1054078,42.1895464 76.1299441,42.3162503 76.1576983,42.4280715 C76.1017877,42.4767419 76.0342123,42.5097251 75.9541676,42.5270212 C75.8741229,42.5443173 75.7856313,42.5527642 75.6878883,42.5527642 C75.6742123,42.3930771 75.6412291,42.2329877 75.5889385,42.0728983 C75.536648,41.9128089 75.4461453,41.7704179 75.3178324,41.6449207 C75.1887151,41.5198257 75.0165587,41.419267 74.8009609,41.3424402 C74.5853631,41.2660156 74.3106369,41.2274011 73.9767821,41.2274011 L73.2250056,41.2274011 L73.2250056,44.0872894 L73.6634413,44.0872894 C73.8790391,44.0872894 74.0600447,44.0748201 74.2060559,44.050686 C74.3524693,44.0261497 74.4707263,43.9827084 74.5608268,43.920362 C74.6513296,43.8572112 74.7172961,43.7703285 74.7591285,43.6589095 C74.8009609,43.5478927 74.8218771,43.4087196 74.8218771,43.2417922 C74.9123799,43.214038 74.9940335,43.1947307 75.066838,43.1842726 C75.1400447,43.1738145 75.2253184,43.1685855 75.3226592,43.1685855 C75.3089832,43.3499933 75.301743,43.5410547 75.301743,43.7425743 L75.301743,44.9114682 C75.301743,45.1343061 75.3089832,45.3358257 75.3226592,45.5164291 C75.2253184,45.5164291 75.1400447,45.5136134 75.066838,45.5063732 C74.9940335,45.499133 74.9192179,45.485457 74.8427933,45.4645408 C74.8287151,45.2835352 74.7989497,45.1343061 74.7538994,45.0156469 C74.7088492,44.8973899 74.6408715,44.8020603 74.5503687,44.7288536 C74.4602682,44.6560492 74.3436201,44.6053676 74.2008268,44.5772112 C74.0584358,44.5498592 73.8790391,44.535781 73.6634413,44.535781 L73.2250056,44.535781 L73.2250056,46.4246749 C73.2250056,46.6197587 73.2374749,46.7794458 73.2616089,46.9045408 C73.2861453,47.030038 73.3328045,47.1289877 73.4027933,47.2021944 C73.4719777,47.2749989 73.5677095,47.3256804 73.6895866,47.3534346 C73.8110615,47.3811888 73.9695419,47.3948648 74.1642235,47.3948648 L74.2269721,47.3948648 C74.5471508,47.3948648 74.8077989,47.3675128 75.0097207,47.3116022 C75.2112402,47.2560939 75.3765587,47.1728313 75.5052737,47.0610101 C75.6339888,46.9499933 75.7385698,46.8124291 75.8186145,46.6491218 C75.898257,46.4858145 75.9766927,46.2959598 76.0535196,46.080362 C76.1576983,46.1153564 76.244581,46.1499486 76.3141676,46.1845408 C76.3837542,46.2195352 76.4497207,46.2678034 76.5124693,46.3309542 C76.4356425,46.5743061 76.3716872,46.8333453 76.3193966,47.1080715 C76.2671061,47.3832 76.2236648,47.6418369 76.1890726,47.8855911 C76.0844916,47.8855911 75.9573855,47.8839821 75.8081564,47.880362 C75.6585251,47.8767419 75.4932067,47.873524 75.3122011,47.8699039 C75.1315978,47.8662838 74.943352,47.8646749 74.7486704,47.8646749 L73.4860559,47.8646749 C73.2286257,47.8646749 72.9728045,47.8662838 72.7189944,47.8699039 C72.4651844,47.873524 72.2250503,47.8767419 71.9989944,47.880362 C71.7729385,47.8839821 71.5935419,47.8892112 71.4616089,47.8960492 C71.4616089,47.6941274 71.478905,47.5448983 71.5138994,47.4471553 C71.6526704,47.4407196 71.7693184,47.4214123 71.8634413,47.390038 C71.9575642,47.3582615 72.0319777,47.3051665 72.0878883,47.2279374 C72.1433966,47.1519151 72.1832179,47.0493453 72.2077542,46.9206302 C72.2318883,46.7915128 72.2443575,46.6265966 72.2443575,46.4246749 L72.2443575,42.1356469 C72.2443575,41.787714 72.193676,41.5528089 72.0927151,41.4309318 C71.9917542,41.309457 71.8023017,41.2414793 71.5239553,41.2274011 C71.5034413,41.172295 71.4893631,41.1043173 71.4825251,41.0238704 C71.4752849,40.9442279 71.472067,40.8621721 71.472067,40.7789095 C71.5762458,40.7861497 71.708581,40.7909765 71.8686704,40.7945966 C72.0283575,40.7982168 72.193676,40.8018369 72.3642235,40.8046525 C72.5347709,40.8086749 72.6964693,40.8102838 72.8493184,40.8102838 L73.2250056,40.8102838 C73.9417877,40.8102838 74.5298547,40.8066637 74.9888045,40.7998257 C75.4481564,40.7929877 75.7643128,40.7861497 75.9384804,40.7789095" id="Fill-40"></path><path d="M79.0377385,41.2172648 L78.5055821,41.2172648 C78.2340737,41.2172648 78.0204872,41.2482369 77.8640179,41.3109855 C77.7071464,41.3737341 77.5836603,41.4606168 77.4935598,41.5720358 C77.403057,41.6834547 77.3366883,41.8121698 77.2948559,41.958181 C77.2530235,42.1041922 77.2148112,42.2646838 77.180219,42.4380469 C77.1033922,42.4380469 77.0201296,42.4316112 76.9296268,42.4171307 C76.8395263,42.4034547 76.7626994,42.3793207 76.6999508,42.3443263 C76.7558615,42.1005721 76.7976939,41.839924 76.825448,41.5611754 C76.8532022,41.2832313 76.8672804,41.0225832 76.8672804,40.7788291 C77.1593028,40.7929073 77.5438391,40.8017564 78.0204872,40.8049743 C78.496733,40.8085944 78.9995263,40.8102034 79.5284648,40.8102034 L80.3112134,40.8102034 C80.5682413,40.8102034 80.8136045,40.8085944 81.0469006,40.8049743 C81.2797944,40.8017564 81.4953922,40.7981363 81.6936939,40.7945162 C81.8919955,40.7908961 82.064152,40.7860693 82.2101631,40.7788291 C82.2101631,41.2522592 82.2310793,41.7739575 82.2729117,42.3443263 C82.1964872,42.3793207 82.1144313,42.4034547 82.0275486,42.4171307 C81.9406659,42.4316112 81.8553922,42.4380469 81.7721296,42.4380469 C81.7580514,42.062762 81.6554816,41.7651084 81.4640179,41.5458905 C81.2725542,41.3266726 80.9580067,41.2172648 80.5195709,41.2172648 L80.0187888,41.2172648 L80.0187888,46.5392313 C80.0187888,46.7133989 80.0292469,46.8573989 80.0501631,46.9728402 C80.0710793,47.0874771 80.1109006,47.1775777 80.1700291,47.2435441 C80.2291575,47.3099128 80.3124201,47.3585832 80.4206212,47.3899575 C80.5284201,47.4213318 80.6655821,47.4406391 80.8325095,47.4470749 C80.8675039,47.5448179 80.8848,47.6944492 80.8848,47.8959687 C80.6623642,47.8818905 80.4342972,47.8734436 80.2014034,47.8698235 C79.9681073,47.8662034 79.7404425,47.8645944 79.5180067,47.8645944 C79.2951687,47.8645944 79.0602637,47.8662034 78.8132916,47.8698235 C78.5663196,47.8734436 78.3454927,47.8818905 78.1508112,47.8959687 C78.1508112,47.6944492 78.1681073,47.5448179 78.2031017,47.4470749 C78.3700291,47.4406391 78.5071911,47.4213318 78.6149899,47.3899575 C78.7227888,47.3585832 78.8080626,47.3099128 78.8708112,47.2435441 C78.9335598,47.1775777 78.9770011,47.0874771 79.0011352,46.9728402 C79.0256715,46.8573989 79.0377385,46.7133989 79.0377385,46.5392313 L79.0377385,41.2172648 Z" id="Fill-42"></path><path d="M84.9653899,40.810324 C85.2228201,40.810324 85.4870883,40.7998659 85.7585966,40.7789497 L88.3674905,46.5502123 L90.6421274,40.7789497 C90.7603844,40.7930279 90.8907084,40.8018771 91.0339039,40.8046927 C91.1758927,40.8087151 91.3170771,40.810324 91.4566525,40.810324 C91.5954235,40.810324 91.7277587,40.8087151 91.8528536,40.8046927 C91.9783508,40.8018771 92.1102838,40.7930279 92.249457,40.7789497 C92.249457,40.8553743 92.2462391,40.9301899 92.2389989,41.0029944 C92.2317587,41.0762011 92.2180827,41.151419 92.1971665,41.2274413 C92.0720715,41.2274413 91.9610547,41.2431285 91.8633117,41.2745028 C91.7655687,41.3058771 91.6859263,41.3617877 91.6235799,41.4414302 C91.5604291,41.5218771 91.5169877,41.6292737 91.4932559,41.7652291 C91.4683173,41.9007821 91.4667084,42.0729385 91.4876246,42.2816983 L91.8633117,46.1117765 C91.8910659,46.3688045 91.9224402,46.5811844 91.9574346,46.7481117 C91.9920268,46.9150391 92.0390883,47.0473743 92.0978145,47.1447151 C92.1573453,47.2420559 92.228943,47.3136536 92.3122056,47.3583017 C92.3958704,47.4041564 92.4996469,47.4298994 92.6251441,47.4371397 C92.6460603,47.5135642 92.6601385,47.5915978 92.6665743,47.6720447 C92.6738145,47.7516872 92.6774346,47.8265028 92.6774346,47.8960894 C92.5937698,47.8892514 92.4996469,47.8840223 92.3958704,47.8804022 C92.2912894,47.8767821 92.1830883,47.8735642 92.0720715,47.8699441 C91.9610547,47.866324 91.8456134,47.8647151 91.7277587,47.8647151 L91.4252782,47.8647151 C91.2374346,47.8647151 91.0234458,47.866324 90.7833117,47.8699441 C90.5431777,47.8735642 90.3328089,47.8820112 90.1522056,47.8960894 C90.1522056,47.8333408 90.1570324,47.7601341 90.1678927,47.6768715 C90.1779486,47.5932067 90.1936358,47.5171844 90.214552,47.4471955 C90.3814793,47.4335196 90.5134123,47.4053631 90.6111553,47.363933 C90.7080939,47.3221006 90.7780827,47.257743 90.8199151,47.1708603 C90.8613453,47.0839777 90.8822615,46.9657207 90.8822615,46.8160894 C90.8822615,46.6664581 90.8722056,46.4770056 90.8512894,46.2473296 L90.4752,42.6678436 L88.3152,47.8856313 C88.196943,47.9343017 88.054552,47.9584358 87.8876246,47.9584358 L85.455714,42.6783017 L85.1218592,46.0281117 C85.094105,46.3064581 85.0852559,46.5341229 85.095714,46.7115084 C85.1061721,46.8888939 85.1375464,47.0300782 85.1898369,47.134257 C85.2417251,47.2384358 85.3181497,47.3136536 85.4191106,47.3583017 C85.5200715,47.4041564 85.6471777,47.4335196 85.8000268,47.4471955 C85.820943,47.5236201 85.8350212,47.605676 85.8418592,47.6925587 C85.8486972,47.7794413 85.8523173,47.847419 85.8523173,47.8960894 C85.6853899,47.8820112 85.4955352,47.8735642 85.2835575,47.8699441 C85.0711777,47.866324 84.8889654,47.8647151 84.735714,47.8647151 C84.5824626,47.8647151 84.4050771,47.866324 84.2035575,47.8699441 C84.0016358,47.8735642 83.8314905,47.8820112 83.6919151,47.8960894 C83.6919151,47.847419 83.6955352,47.7794413 83.7023732,47.6925587 C83.7092112,47.605676 83.7236916,47.5236201 83.7442056,47.4471955 C83.8833788,47.4335196 84.0000268,47.4053631 84.0937475,47.363933 C84.1878704,47.3221006 84.2663061,47.2492961 84.3286525,47.1447151 C84.3914011,47.0401341 84.4436916,46.890905 84.485524,46.6958212 C84.5269542,46.5011397 84.5619486,46.2473296 84.5897028,45.9339888 L84.9235575,42.2189497 C84.9581497,41.8432626 84.9235575,41.5842235 84.8193788,41.4414302 C84.7147978,41.2990391 84.5164961,41.2274413 84.2244737,41.2274413 C84.2035575,41.158257 84.1894793,41.0814302 84.1826413,40.9981676 C84.1758034,40.9145028 84.1721832,40.8412961 84.1721832,40.7789497 C84.2767642,40.7930279 84.4018592,40.8018771 84.5478704,40.8046927 C84.6938816,40.8087151 84.8330547,40.810324 84.9653899,40.810324" id="Fill-44"></path><path d="M94.6496715,45.0993922 L97.0188335,45.0993922 L96.2256268,43.2418726 C96.1769564,43.1372916 96.1331128,43.0399508 96.0953028,42.949448 C96.0566883,42.8593475 96.018476,42.7668335 95.9806659,42.6731128 C95.9420514,42.5789899 95.9018279,42.4836603 95.8603978,42.3859173 C95.8322413,42.3026547 95.7976492,42.212152 95.7558168,42.1148112 C95.6862302,42.3440849 95.6202637,42.5427888 95.5579173,42.7097162 C95.4951687,42.8907218 95.4324201,43.0640849 95.3696715,43.2310123 L94.6496715,45.0993922 Z M95.8394816,40.789448 C95.9577385,40.7616939 96.0932916,40.7476156 96.246543,40.7476156 L98.7303419,46.4456715 C98.8140067,46.6403531 98.8884201,46.8004425 98.9543866,46.9255374 C99.0203531,47.0510346 99.0831017,47.1499844 99.1422302,47.2227888 C99.2013587,47.2959955 99.2604872,47.348286 99.3196156,47.3796603 C99.3787441,47.4106324 99.4503419,47.4335598 99.5340067,47.4472358 C99.5613587,47.5377385 99.579057,47.6141631 99.5854927,47.6769117 C99.592733,47.7392581 99.5963531,47.8124648 99.5963531,47.8961296 C99.5404425,47.8961296 99.4640179,47.8941184 99.3670793,47.8904983 C99.2689341,47.8872804 99.1615374,47.8820514 99.0432804,47.8752134 L98.6985654,47.8647553 L98.406543,47.8647553 C98.3232804,47.8647553 98.2239285,47.8663642 98.1092916,47.8699844 C97.9942525,47.8732022 97.8812246,47.8768223 97.7702078,47.8804425 C97.6583866,47.8840626 97.5525989,47.8872804 97.4520402,47.8904983 C97.3510793,47.8941184 97.2758615,47.8961296 97.2271911,47.8961296 C97.2271911,47.8124648 97.2308112,47.7328223 97.2380514,47.6559955 C97.2444872,47.5795709 97.2654034,47.5099844 97.3003978,47.4472358 C97.4464089,47.4335598 97.5594369,47.4126436 97.6398838,47.3848894 C97.7195263,47.356733 97.7738279,47.3136939 97.8015821,47.2541631 C97.8289341,47.1954369 97.8325542,47.1170011 97.811638,47.0192581 C97.791124,46.9219173 97.7456715,46.7936045 97.6760849,46.6331128 L97.2171352,45.5688 C96.7646212,45.5688 96.2879732,45.5724201 95.7871911,45.5792581 C95.3073251,45.5864983 94.8616492,45.5965542 94.4513698,45.6106324 L94.1802637,46.3310346 C94.0201743,46.741314 93.9711017,47.0244872 94.0342525,47.1813587 C94.0965989,47.3374257 94.2707665,47.4263196 94.5559508,47.4472358 C94.6046212,47.565895 94.6287553,47.715124 94.6287553,47.8961296 C94.5104983,47.8820514 94.3592581,47.8732022 94.1746324,47.8699844 C93.9904089,47.8663642 93.8114145,47.8647553 93.6372469,47.8647553 C93.4634816,47.8647553 93.3001743,47.8683754 93.1473251,47.8752134 C92.9940737,47.8820514 92.8685765,47.8892916 92.7712358,47.8961296 C92.7712358,47.826543 92.7764648,47.7517274 92.7869229,47.6720849 C92.7977832,47.591638 92.816286,47.5204425 92.8444425,47.4576939 C92.934543,47.4371799 93.0149899,47.4054034 93.0841743,47.3639732 C93.1537609,47.3221408 93.2201296,47.2593922 93.2828782,47.1761296 C93.3452246,47.0924648 93.405962,46.983057 93.4654927,46.8475039 C93.524219,46.7115486 93.5958168,46.5393922 93.6794816,46.3310346 L95.8394816,40.789448 Z" id="Fill-46"></path><path d="M104.688644,40.7789095 C104.841493,40.7929877 105.006811,40.8018369 105.184197,40.8046525 C105.361582,40.8086749 105.52328,40.8102838 105.669292,40.8102838 C105.815705,40.8102838 105.982632,40.8086749 106.170476,40.8046525 C106.35832,40.8018369 106.522029,40.7929877 106.6608,40.7789095 C106.6608,40.8484961 106.657582,40.9213006 106.650744,40.9981274 C106.643504,41.074552 106.629426,41.1513788 106.608509,41.2274011 C106.490253,41.2274011 106.392912,41.2523397 106.316487,41.3006078 C106.23966,41.3492782 106.177314,41.4309318 106.128644,41.5459709 C106.079973,41.6606078 106.045381,41.811848 106.024063,41.9996916 C106.003549,42.1879374 105.993091,42.4244514 105.993091,42.7096358 L105.993091,47.9065073 C105.93718,47.9270212 105.871213,47.9415017 105.794789,47.9483397 C105.718364,47.9551777 105.641537,47.9587978 105.565515,47.9587978 L101.234253,42.3025743 L101.234253,45.9134346 C101.234253,46.205457 101.244711,46.4508201 101.265627,46.6491218 C101.286543,46.8474235 101.324755,47.0055017 101.380264,47.1237587 C101.436174,47.2420156 101.51099,47.3256804 101.604711,47.3739486 C101.698431,47.4230212 101.815079,47.4471553 101.954253,47.4471553 C101.975169,47.5099039 101.989247,47.5758704 101.996487,47.645457 C102.002923,47.7150436 102.006543,47.7987084 102.006543,47.8960492 C101.846856,47.8819709 101.672688,47.873524 101.484845,47.8699039 C101.297001,47.8662838 101.126454,47.8646749 100.973604,47.8646749 C100.820353,47.8646749 100.640956,47.8662838 100.436219,47.8699039 C100.230677,47.873524 100.062141,47.8819709 99.9298056,47.8960492 C99.9298056,47.8059486 99.9334257,47.7238927 99.9402637,47.650686 C99.9471017,47.5774793 99.9611799,47.5099039 99.9820961,47.4471553 C100.121269,47.4471553 100.237917,47.4230212 100.331638,47.3739486 C100.425359,47.3256804 100.500174,47.2420156 100.556085,47.1237587 C100.611593,47.0055017 100.649806,46.8474235 100.671124,46.6491218 C100.691638,46.4508201 100.702096,46.205457 100.702096,45.9134346 L100.702096,41.6034905 L100.660264,41.5512 C100.562923,41.4257028 100.469202,41.3440492 100.378699,41.3062391 C100.288197,41.2676246 100.155861,41.2414793 99.9820961,41.2274011 C99.9611799,41.1513788 99.9471017,41.0713341 99.9402637,40.9876693 C99.9334257,40.9044067 99.9298056,40.8348201 99.9298056,40.7789095 C100.034387,40.7929877 100.155861,40.8018369 100.295035,40.8046525 C100.434208,40.8086749 100.570163,40.8102838 100.702096,40.8102838 C100.98004,40.8102838 101.213336,40.7998257 101.40118,40.7789095 L105.460934,46.1640268 L105.460934,42.7096358 C105.460934,42.4244514 105.450476,42.1879374 105.42956,41.9996916 C105.408644,41.811848 105.370029,41.6606078 105.314923,41.5459709 C105.259012,41.4309318 105.184197,41.3492782 105.090476,41.3006078 C104.996755,41.2523397 104.880107,41.2274011 104.740934,41.2274011 C104.720018,41.1091441 104.70594,41.0210547 104.698699,40.961524 C104.692264,40.9027978 104.688644,40.8412559 104.688644,40.7789095" id="Fill-48"></path><path d="M112.828787,45.0573587 C112.828787,45.3566212 112.819937,45.6229006 112.802641,45.8557944 C112.785345,46.0886883 112.753569,46.2978503 112.708518,46.4820737 C112.663468,46.6662972 112.602731,46.8300067 112.525904,46.9728 C112.449479,47.1151911 112.351736,47.2455151 112.233882,47.3637721 C112.032362,47.5656939 111.788608,47.7149229 111.503423,47.8126659 C111.217837,47.9100067 110.89806,47.9586771 110.543289,47.9586771 C110.056183,47.9586771 109.649122,47.9047777 109.322105,47.7969788 C108.995088,47.6891799 108.732429,47.5294927 108.534127,47.3167106 C108.336228,47.104733 108.195044,46.8420737 108.111379,46.528733 C108.028116,46.2157944 107.986686,45.8574034 107.986686,45.453962 L107.986686,42.1355263 C107.986686,41.9476827 107.977435,41.7980514 107.960139,41.6866324 C107.943245,41.5756156 107.911468,41.488733 107.866418,41.4259844 C107.821368,41.3632358 107.758619,41.3181855 107.678574,41.2904313 C107.59853,41.2622749 107.49596,41.2417609 107.370865,41.2276827 C107.349949,41.1512581 107.33587,41.0748335 107.329032,40.9980067 C107.322194,40.9215821 107.318574,40.8483754 107.318574,40.7787888 C107.457345,40.792867 107.640362,40.8017162 107.866418,40.8049341 C108.092474,40.8085542 108.313301,40.8101631 108.529301,40.8101631 C108.744898,40.8101631 108.960496,40.8085542 109.176094,40.8049341 C109.391692,40.8017162 109.579535,40.792867 109.739625,40.7787888 C109.739625,40.8483754 109.736407,40.9215821 109.729166,40.9980067 C109.721926,41.0748335 109.70825,41.1512581 109.687334,41.2276827 C109.534485,41.2417609 109.410999,41.2610682 109.317278,41.2848 C109.223155,41.3097385 109.149949,41.3527777 109.09806,41.4155263 C109.04577,41.4782749 109.010775,41.5667665 108.993479,41.6814034 C108.976183,41.7964425 108.967334,41.9476827 108.967334,42.1355263 L108.967334,45.3079508 C108.967334,45.6003754 108.995088,45.8751017 109.050597,46.1325318 C109.106507,46.389962 109.202239,46.6123978 109.337792,46.8002413 C109.473345,46.9880849 109.654351,47.1361073 109.880809,47.2439061 C110.106463,47.351705 110.393256,47.4056045 110.741591,47.4056045 C110.915356,47.4056045 111.10682,47.3762413 111.31558,47.3167106 C111.52434,47.2579844 111.701323,47.1550123 111.847736,47.0094034 C111.931401,46.9257385 112.000585,46.8352358 112.056496,46.737895 C112.112004,46.6405542 112.157055,46.5186771 112.192049,46.3726659 C112.227044,46.2262525 112.252787,46.0544983 112.270083,45.8557944 C112.287379,45.6574927 112.29663,45.4193698 112.29663,45.1410235 L112.29663,42.5526436 C112.29663,42.3024536 112.287379,42.095705 112.270083,41.9319955 C112.252787,41.7686883 112.218194,41.6363531 112.166306,41.5353922 C112.114016,41.4348335 112.040809,41.3616268 111.947088,41.3161743 C111.852965,41.271124 111.729479,41.2417609 111.57663,41.2276827 C111.555714,41.1235039 111.541636,41.0418503 111.534396,40.9823196 C111.52796,40.9235933 111.52434,40.8556156 111.52434,40.7787888 C111.642597,40.792867 111.795848,40.8017162 111.983289,40.8049341 C112.171133,40.8085542 112.345301,40.8101631 112.504988,40.8101631 C112.665077,40.8101631 112.835625,40.8085542 113.01663,40.8049341 C113.197234,40.8017162 113.357323,40.792867 113.496496,40.7787888 C113.496496,40.8274592 113.492876,40.8849788 113.486038,40.9509453 C113.4792,41.017314 113.465122,41.1094257 113.444206,41.2276827 C113.325949,41.2417609 113.226597,41.271124 113.146954,41.3161743 C113.066909,41.3616268 113.002552,41.4328223 112.954284,41.5301631 C112.904809,41.6279061 112.871826,41.7598391 112.85453,41.9267665 C112.837234,42.0936939 112.828787,42.3024536 112.828787,42.5526436 L112.828787,45.0573587 Z" id="Fill-50"></path><path d="M118.588907,40.7789095 C118.596147,40.8971665 118.608215,41.0274905 118.625511,41.1702838 C118.642807,41.3126749 118.660505,41.458686 118.677801,41.6087196 C118.695097,41.7583508 118.714404,41.904362 118.734918,42.0467531 C118.755835,42.1895464 118.780371,42.3162503 118.808125,42.4280715 C118.752215,42.4767419 118.684639,42.5097251 118.604594,42.5270212 C118.52455,42.5443173 118.436058,42.5527642 118.338717,42.5527642 C118.324639,42.3930771 118.291656,42.2329877 118.239365,42.0728983 C118.187075,41.9128089 118.096572,41.7704179 117.968259,41.6449207 C117.839544,41.5198257 117.666985,41.419267 117.45179,41.3424402 C117.23579,41.2660156 116.961064,41.2274011 116.627209,41.2274011 L115.907209,41.2274011 L115.907209,44.2956469 L116.418449,44.2956469 C116.634047,44.2956469 116.815053,44.2835799 116.961064,44.2590436 C117.107075,44.2349095 117.225332,44.1910659 117.315835,44.1287196 C117.406337,44.0663732 117.472706,43.9790883 117.514136,43.8680715 C117.555969,43.7566525 117.576483,43.6174793 117.576483,43.450552 C117.666985,43.4227978 117.749041,43.4034905 117.822248,43.3930324 C117.895053,43.3825743 117.979924,43.3773453 118.077667,43.3773453 C118.063589,43.5583508 118.056751,43.7498145 118.056751,43.9513341 L118.056751,45.1202279 C118.056751,45.3430659 118.063589,45.5445855 118.077667,45.7255911 C117.979924,45.7255911 117.895053,45.7219709 117.822248,45.7147307 C117.749041,45.708295 117.674226,45.6942168 117.597399,45.6733006 C117.583723,45.4926972 117.55436,45.3430659 117.508907,45.2248089 C117.463455,45.106552 117.395879,45.0108201 117.305779,44.9376134 C117.214874,44.8644067 117.098226,44.8141274 116.955835,44.7863732 C116.813041,44.758619 116.634047,44.7441385 116.418449,44.7441385 L115.907209,44.7441385 L115.907209,46.3309542 C115.907209,46.5602279 115.924505,46.7448536 115.959097,46.8840268 C115.994092,47.0227978 116.0496,47.1342168 116.126025,47.2178816 C116.202449,47.3011441 116.298583,47.3582615 116.41322,47.390038 C116.527857,47.4214123 116.669041,47.4407196 116.835969,47.4471553 C116.870561,47.5448983 116.887857,47.6941274 116.887857,47.8960492 C116.727768,47.8819709 116.529466,47.873524 116.293354,47.8699039 C116.056438,47.8662838 115.816304,47.8646749 115.572952,47.8646749 L115.176751,47.8646749 C115.044013,47.8646749 114.91208,47.8662838 114.779745,47.8699039 C114.647812,47.873524 114.527544,47.8767419 114.420147,47.880362 C114.311946,47.8839821 114.223053,47.8892112 114.153868,47.8960492 C114.153868,47.6941274 114.171164,47.5448983 114.206159,47.4471553 C114.484103,47.4334793 114.673958,47.3655017 114.774918,47.2436246 C114.875879,47.122552 114.926159,46.8876469 114.926159,46.5393117 L114.926159,42.1356469 C114.926159,41.787714 114.875879,41.5528089 114.774918,41.4309318 C114.673958,41.309457 114.484103,41.2414793 114.206159,41.2274011 C114.171164,41.1304626 114.153868,40.9808313 114.153868,40.7789095 C114.264885,40.7861497 114.39722,40.7909765 114.550472,40.7945966 C114.703321,40.7982168 114.858583,40.8018369 115.01465,40.8046525 C115.171522,40.8086749 115.326382,40.8102838 115.479231,40.8102838 L115.907209,40.8102838 C116.616751,40.8102838 117.197578,40.8066637 117.649689,40.7998257 C118.101801,40.7929877 118.41474,40.7861497 118.588907,40.7789095" id="Fill-52"></path><path d="M120.310592,45.0993922 L122.679754,45.0993922 L121.886547,43.2418726 C121.837877,43.1372916 121.794034,43.0399508 121.756223,42.949448 C121.717609,42.8593475 121.679397,42.7668335 121.641587,42.6731128 C121.602972,42.5789899 121.562749,42.4836603 121.521318,42.3859173 C121.493162,42.3026547 121.45857,42.212152 121.416737,42.1148112 C121.347151,42.3440849 121.281184,42.5427888 121.218838,42.7097162 C121.156089,42.8907218 121.093341,43.0640849 121.030592,43.2310123 L120.310592,45.0993922 Z M121.500402,40.789448 C121.618659,40.7616939 121.754212,40.7476156 121.907464,40.7476156 L124.391263,46.4456715 C124.474927,46.6403531 124.549341,46.8004425 124.615307,46.9255374 C124.681274,47.0510346 124.744022,47.1499844 124.803151,47.2227888 C124.862279,47.2959955 124.921408,47.348286 124.980536,47.3796603 C125.039665,47.4106324 125.111263,47.4335598 125.194927,47.4472358 C125.222279,47.5377385 125.239978,47.6141631 125.246413,47.6769117 C125.253654,47.7392581 125.257274,47.8124648 125.257274,47.8961296 C125.201363,47.8961296 125.124939,47.8941184 125.028,47.8904983 C124.929855,47.8872804 124.822458,47.8820514 124.704201,47.8752134 L124.359486,47.8647553 L124.067464,47.8647553 C123.984201,47.8647553 123.884849,47.8663642 123.770212,47.8699844 C123.655173,47.8732022 123.542145,47.8768223 123.431128,47.8804425 C123.319307,47.8840626 123.21352,47.8872804 123.112961,47.8904983 C123.012,47.8941184 122.936782,47.8961296 122.888112,47.8961296 C122.888112,47.8124648 122.891732,47.7328223 122.898972,47.6559955 C122.905408,47.5795709 122.926324,47.5099844 122.961318,47.4472358 C123.10733,47.4335598 123.220358,47.4126436 123.300804,47.3848894 C123.380447,47.356733 123.434749,47.3136939 123.462503,47.2541631 C123.489855,47.1954369 123.493475,47.1170011 123.472559,47.0192581 C123.452045,46.9219173 123.406592,46.7936045 123.337006,46.6331128 L122.878056,45.5688 C122.425542,45.5688 121.948894,45.5724201 121.448112,45.5792581 C120.968246,45.5864983 120.52257,45.5965542 120.112291,45.6106324 L119.841184,46.3310346 C119.681095,46.741314 119.632022,47.0244872 119.695173,47.1813587 C119.75752,47.3374257 119.931687,47.4263196 120.216872,47.4472358 C120.265542,47.565895 120.289676,47.715124 120.289676,47.8961296 C120.171419,47.8820514 120.020179,47.8732022 119.835553,47.8699844 C119.65133,47.8663642 119.472335,47.8647553 119.298168,47.8647553 C119.124402,47.8647553 118.961095,47.8683754 118.808246,47.8752134 C118.654994,47.8820514 118.529497,47.8892916 118.432156,47.8961296 C118.432156,47.826543 118.437385,47.7517274 118.447844,47.6720849 C118.458704,47.591638 118.477207,47.5204425 118.505363,47.4576939 C118.595464,47.4371799 118.675911,47.4054034 118.745095,47.3639732 C118.814682,47.3221408 118.88105,47.2593922 118.943799,47.1761296 C119.006145,47.0924648 119.066883,46.983057 119.126413,46.8475039 C119.18514,46.7115486 119.256737,46.5393922 119.340402,46.3310346 L121.500402,40.789448 Z" id="Fill-54"></path><path d="M128.847057,40.7164425 C129.285493,40.7164425 129.683705,40.7614927 130.042096,40.8519955 C130.400085,40.9424983 130.774163,41.0780514 131.163928,41.259057 C131.108018,41.5024089 131.075035,41.7598391 131.064979,42.0313475 C131.054118,42.3024536 131.049292,42.5844201 131.049292,42.8764425 C130.958789,42.9114369 130.871504,42.9359732 130.788241,42.9496492 C130.704577,42.9637274 130.607236,42.9705654 130.496219,42.9705654 C130.481739,42.6017162 130.436688,42.2992358 130.360264,42.0627218 C130.283437,41.8262078 130.178051,41.6399732 130.042096,41.5040179 C129.906543,41.3684648 129.744442,41.2747441 129.557001,41.2224536 C129.369158,41.1701631 129.159996,41.1440179 128.930722,41.1440179 C128.492286,41.1440179 128.117001,41.2244648 127.80366,41.384152 C127.490722,41.5442413 127.234901,41.7582302 127.036599,42.0261184 C126.838297,42.2940067 126.692286,42.6001073 126.598163,42.9444201 C126.504442,43.288733 126.457381,43.6414927 126.457381,44.0035039 C126.457381,44.4696939 126.518118,44.9045095 126.639996,45.3079508 C126.76147,45.7113922 126.935638,46.0629453 127.162096,46.3618056 C127.38775,46.6610682 127.666096,46.8959732 127.996733,47.0665207 C128.326968,47.2370682 128.701046,47.3223419 129.118565,47.3223419 C129.45242,47.3223419 129.793515,47.2664313 130.141448,47.1550123 C130.488979,47.0435933 130.809158,46.893962 131.10118,46.7065207 C131.143012,46.7415151 131.183236,46.7917944 131.221046,46.8577609 C131.259258,46.9241296 131.282185,46.9812469 131.289023,47.0299173 C131.080666,47.1900067 130.877135,47.3275709 130.678834,47.4422078 C130.480532,47.5568447 130.277001,47.6525765 130.068241,47.7294034 C129.859482,47.8058279 129.641873,47.8633475 129.415817,47.9011575 C129.189761,47.9393698 128.944398,47.9586771 128.68013,47.9586771 C128.193023,47.9586771 127.746141,47.8697832 127.339079,47.6928 C126.932018,47.5150123 126.582476,47.2644201 126.290454,46.9414257 C125.998029,46.6176268 125.770364,46.2298726 125.606655,45.7777609 C125.443347,45.3252469 125.361694,44.8280849 125.361694,44.2850682 C125.361694,43.6869453 125.460644,43.1652469 125.658945,42.7195709 C125.857247,42.2746994 126.118297,41.9022302 126.442096,41.6033698 C126.765091,41.3041073 127.135549,41.0812693 127.553068,40.9352581 C127.970588,40.7896492 128.402185,40.7164425 128.847057,40.7164425" id="Fill-56"></path><path d="M133.88758,41.2172648 L133.355423,41.2172648 C133.084317,41.2172648 132.870328,41.2482369 132.713457,41.3109855 C132.556988,41.3737341 132.433502,41.4606168 132.342999,41.5720358 C132.252898,41.6834547 132.18653,41.8121698 132.144697,41.958181 C132.102865,42.1041922 132.065055,42.2646838 132.03006,42.4380469 C131.953234,42.4380469 131.869971,42.4316112 131.77987,42.4171307 C131.688965,42.4034547 131.612943,42.3793207 131.549792,42.3443263 C131.605703,42.1005721 131.647535,41.839924 131.675289,41.5611754 C131.703044,41.2832313 131.717122,41.0225832 131.717122,40.7788291 C132.009144,40.7929073 132.39368,40.8017564 132.870328,40.8049743 C133.346574,40.8085944 133.849368,40.8102034 134.378306,40.8102034 L135.160653,40.8102034 C135.418083,40.8102034 135.663446,40.8085944 135.89634,40.8049743 C136.129636,40.8017564 136.345234,40.7981363 136.543937,40.7945162 C136.741837,40.7908961 136.913993,40.7860693 137.060407,40.7788291 C137.060407,41.2522592 137.080921,41.7739575 137.122753,42.3443263 C137.046328,42.3793207 136.964273,42.4034547 136.877792,42.4171307 C136.790507,42.4316112 136.705234,42.4380469 136.621971,42.4380469 C136.607893,42.062762 136.505323,41.7651084 136.313859,41.5458905 C136.122798,41.3266726 135.807848,41.2172648 135.369815,41.2172648 L134.86863,41.2172648 L134.86863,46.5392313 C134.86863,46.7133989 134.879088,46.8573989 134.900004,46.9728402 C134.920518,47.0874771 134.960742,47.1775777 135.01987,47.2435441 C135.078999,47.3099128 135.162664,47.3585832 135.270463,47.3899575 C135.378261,47.4213318 135.515826,47.4406391 135.682753,47.4470749 C135.717345,47.5448179 135.735044,47.6944492 135.735044,47.8959687 C135.512206,47.8818905 135.284541,47.8734436 135.051245,47.8698235 C134.817949,47.8662034 134.590284,47.8645944 134.367446,47.8645944 C134.14501,47.8645944 133.910105,47.8662034 133.663133,47.8698235 C133.416161,47.8734436 133.195334,47.8818905 133.000653,47.8959687 C133.000653,47.6944492 133.017949,47.5448179 133.052943,47.4470749 C133.21987,47.4406391 133.357032,47.4213318 133.464831,47.3899575 C133.573032,47.3585832 133.658306,47.3099128 133.720653,47.2435441 C133.783401,47.1775777 133.826842,47.0874771 133.850977,46.9728402 C133.875513,46.8573989 133.88758,46.7133989 133.88758,46.5392313 L133.88758,41.2172648 Z" id="Fill-58"></path><path d="M142.977117,45.0573587 C142.977117,45.3566212 142.968268,45.6229006 142.950972,45.8557944 C142.933676,46.0886883 142.901899,46.2978503 142.856849,46.4820737 C142.811799,46.6662972 142.751061,46.8300067 142.674235,46.9728 C142.59781,47.1151911 142.500067,47.2455151 142.382212,47.3637721 C142.180693,47.5656939 141.936939,47.7149229 141.651754,47.8126659 C141.366168,47.9100067 141.046391,47.9586771 140.69162,47.9586771 C140.204514,47.9586771 139.797453,47.9047777 139.470436,47.7969788 C139.143419,47.6891799 138.88076,47.5294927 138.682458,47.3167106 C138.484559,47.104733 138.343374,46.8420737 138.259709,46.528733 C138.176447,46.2157944 138.135017,45.8574034 138.135017,45.453962 L138.135017,42.1355263 C138.135017,41.9476827 138.125765,41.7980514 138.108469,41.6866324 C138.091575,41.5756156 138.059799,41.488733 138.014749,41.4259844 C137.969698,41.3632358 137.90695,41.3181855 137.826905,41.2904313 C137.74686,41.2622749 137.644291,41.2417609 137.519196,41.2276827 C137.498279,41.1512581 137.484201,41.0748335 137.477363,40.9980067 C137.470525,40.9215821 137.466905,40.8483754 137.466905,40.7787888 C137.605676,40.792867 137.788693,40.8017162 138.014749,40.8049341 C138.240804,40.8085542 138.461631,40.8101631 138.677631,40.8101631 C138.893229,40.8101631 139.108827,40.8085542 139.324425,40.8049341 C139.540022,40.8017162 139.727866,40.792867 139.887955,40.7787888 C139.887955,40.8483754 139.884737,40.9215821 139.877497,40.9980067 C139.870257,41.0748335 139.856581,41.1512581 139.835665,41.2276827 C139.682816,41.2417609 139.55933,41.2610682 139.465609,41.2848 C139.371486,41.3097385 139.298279,41.3527777 139.246391,41.4155263 C139.194101,41.4782749 139.159106,41.5667665 139.14181,41.6814034 C139.124514,41.7964425 139.115665,41.9476827 139.115665,42.1355263 L139.115665,45.3079508 C139.115665,45.6003754 139.143419,45.8751017 139.198927,46.1325318 C139.254838,46.389962 139.35057,46.6123978 139.486123,46.8002413 C139.621676,46.9880849 139.802682,47.1361073 140.02914,47.2439061 C140.254793,47.351705 140.541587,47.4056045 140.889922,47.4056045 C141.063687,47.4056045 141.255151,47.3762413 141.463911,47.3167106 C141.67267,47.2579844 141.849654,47.1550123 141.996067,47.0094034 C142.079732,46.9257385 142.148916,46.8352358 142.204827,46.737895 C142.260335,46.6405542 142.305385,46.5186771 142.34038,46.3726659 C142.375374,46.2262525 142.401117,46.0544983 142.418413,45.8557944 C142.435709,45.6574927 142.444961,45.4193698 142.444961,45.1410235 L142.444961,42.5526436 C142.444961,42.3024536 142.435709,42.095705 142.418413,41.9319955 C142.401117,41.7686883 142.366525,41.6363531 142.314637,41.5353922 C142.262346,41.4348335 142.18914,41.3616268 142.095419,41.3161743 C142.001296,41.271124 141.87781,41.2417609 141.724961,41.2276827 C141.704045,41.1235039 141.689966,41.0418503 141.682726,40.9823196 C141.676291,40.9235933 141.67267,40.8556156 141.67267,40.7787888 C141.790927,40.792867 141.944179,40.8017162 142.13162,40.8049341 C142.319464,40.8085542 142.493631,40.8101631 142.653318,40.8101631 C142.813408,40.8101631 142.983955,40.8085542 143.164961,40.8049341 C143.345564,40.8017162 143.505654,40.792867 143.644827,40.7787888 C143.644827,40.8274592 143.641207,40.8849788 143.634369,40.9509453 C143.627531,41.017314 143.613453,41.1094257 143.592536,41.2276827 C143.474279,41.2417609 143.374927,41.271124 143.295285,41.3161743 C143.21524,41.3616268 143.150883,41.4328223 143.102615,41.5301631 C143.05314,41.6279061 143.020156,41.7598391 143.00286,41.9267665 C142.985564,42.0936939 142.977117,42.3024536 142.977117,42.5526436 L142.977117,45.0573587 Z" id="Fill-60"></path><path d="M146.399651,41.1858503 C146.288635,41.1999285 146.173596,41.2208447 146.055741,41.2481966 L146.055741,44.1704313 C146.124523,44.1845095 146.190892,44.1913475 146.25364,44.1913475 C146.337305,44.1981855 146.424188,44.2018056 146.514691,44.2018056 C146.799875,44.2018056 147.065752,44.1724425 147.313126,44.1129117 C147.559696,44.0541855 147.775696,43.9600626 147.95992,43.8313475 C148.144143,43.7026324 148.288545,43.5409341 148.393126,43.3458503 C148.497305,43.1515709 148.549596,42.9182749 148.549596,42.6467665 C148.549596,42.208733 148.419272,41.8519508 148.158221,41.5772246 C147.897573,41.3024983 147.453908,41.1649341 146.827629,41.1649341 C146.66754,41.1649341 146.525149,41.1721743 146.399651,41.1858503 M145.554154,40.8101631 C145.846579,40.8101631 146.137394,40.8069453 146.425797,40.799705 C146.714199,40.792867 147.005015,40.7896492 147.297037,40.7896492 C147.694042,40.7896492 148.034333,40.8346994 148.31992,40.9252022 C148.605104,41.0153028 148.839607,41.1391911 149.024232,41.2952581 C149.208456,41.4521296 149.34602,41.6363531 149.436523,41.8483307 C149.526623,42.0611128 149.572478,42.2919955 149.572478,42.5425877 C149.572478,43.0296939 149.405551,43.4399732 149.071294,43.7742302 C148.765193,44.0799285 148.351294,44.3027665 147.829596,44.4419397 C147.919696,44.5256045 148.002959,44.608867 148.080188,44.6925318 C148.177126,44.7967106 148.271249,44.9133587 148.361752,45.0420737 C148.452255,45.1707888 148.545975,45.3184089 148.643316,45.4853363 C148.740657,45.6522637 148.855294,45.8574034 148.988031,46.1011575 C149.231383,46.5395933 149.471517,46.8698279 149.708031,47.0926659 C149.944545,47.3151017 150.236568,47.4333587 150.584501,47.4470346 C150.584501,47.5306994 150.582489,47.6075263 150.579272,47.6771128 C150.575651,47.7466994 150.563987,47.8195039 150.542668,47.8963307 C150.2784,47.8963307 150.003674,47.8991464 149.718489,47.9063866 C149.432903,47.9136268 149.161394,47.9309229 148.904366,47.9586771 C148.792947,47.7849117 148.657394,47.5552358 148.497305,47.2700514 C148.337216,46.984867 148.173908,46.6747441 148.006981,46.3408894 C147.846892,46.0211128 147.651808,45.7081743 147.422534,45.4016715 C147.241528,45.1514816 147.040009,44.9117497 146.817171,44.6816715 C146.531987,44.696152 146.277774,44.696152 146.055741,44.6816715 L146.055741,46.5395933 C146.055741,46.8875263 146.104009,47.1224313 146.201752,47.2439061 C146.298691,47.365381 146.479696,47.4333587 146.743964,47.4470346 C146.76488,47.5101855 146.778556,47.581381 146.785797,47.6614257 C146.793037,47.7414704 146.796255,47.8195039 146.796255,47.8963307 C146.573819,47.8818503 146.343741,47.8734034 146.107227,47.8697832 C145.871115,47.8661631 145.686892,47.8645542 145.554154,47.8645542 L145.251674,47.8645542 C145.140255,47.8645542 145.027629,47.8661631 144.91259,47.8697832 C144.797953,47.8734034 144.686534,47.8770235 144.578735,47.8806436 C144.470936,47.8838615 144.378825,47.8890905 144.301998,47.8963307 C144.301998,47.8195039 144.305618,47.7430793 144.312858,47.6662525 C144.319294,47.5902302 144.333372,47.5170235 144.354288,47.4470346 C144.632232,47.4333587 144.822087,47.365381 144.923048,47.2439061 C145.024009,47.1224313 145.074288,46.8875263 145.074288,46.5395933 L145.074288,42.1355263 C145.074288,41.7875933 145.024009,41.5494704 144.923048,41.4207553 C144.822087,41.2920402 144.632232,41.2276827 144.354288,41.2276827 C144.333372,41.1584983 144.319294,41.0885095 144.312858,41.0189229 C144.305618,40.9493363 144.301998,40.8729117 144.301998,40.7896492 C144.406579,40.7960849 144.580746,40.8017162 144.824098,40.8049341 C145.067048,40.8089564 145.310802,40.8101631 145.554154,40.8101631" id="Fill-62"></path><path d="M155.405926,40.7789095 C155.412764,40.8971665 155.424831,41.0274905 155.44253,41.1702838 C155.459826,41.3126749 155.477122,41.458686 155.494418,41.6087196 C155.511714,41.7583508 155.531021,41.904362 155.551937,42.0467531 C155.572854,42.1895464 155.59739,42.3162503 155.625144,42.4280715 C155.569234,42.4767419 155.501256,42.5097251 155.421211,42.5270212 C155.341569,42.5443173 155.252675,42.5527642 155.155334,42.5527642 C155.141256,42.3930771 155.108273,42.2329877 155.056384,42.0728983 C155.004094,41.9128089 154.913189,41.7704179 154.784876,41.6449207 C154.656161,41.5198257 154.484004,41.419267 154.268407,41.3424402 C154.052809,41.2660156 153.77768,41.2274011 153.443826,41.2274011 L152.692451,41.2274011 L152.692451,44.0872894 L153.130887,44.0872894 C153.346485,44.0872894 153.527491,44.0748201 153.673099,44.050686 C153.819513,44.0261497 153.93777,43.9827084 154.028273,43.920362 C154.118775,43.8572112 154.184742,43.7703285 154.226574,43.6589095 C154.268407,43.5478927 154.289323,43.4087196 154.289323,43.2417922 C154.379423,43.214038 154.461077,43.1947307 154.534284,43.1842726 C154.607491,43.1738145 154.692764,43.1685855 154.790105,43.1685855 C154.776027,43.3499933 154.769189,43.5410547 154.769189,43.7425743 L154.769189,44.9114682 C154.769189,45.1343061 154.776027,45.3358257 154.790105,45.5164291 C154.692764,45.5164291 154.607491,45.5136134 154.534284,45.5063732 C154.461077,45.499133 154.386664,45.485457 154.309837,45.4645408 C154.295759,45.2835352 154.266396,45.1343061 154.221345,45.0156469 C154.175893,44.8973899 154.107915,44.8020603 154.017815,44.7288536 C153.927312,44.6560492 153.810664,44.6053676 153.668273,44.5772112 C153.525479,44.5498592 153.346485,44.535781 153.130887,44.535781 L152.692451,44.535781 L152.692451,46.4246749 C152.692451,46.6197587 152.704518,46.7794458 152.729055,46.9045408 C152.753189,47.030038 152.80025,47.1289877 152.869837,47.2021944 C152.939423,47.2749989 153.034753,47.3256804 153.15663,47.3534346 C153.278507,47.3811888 153.436585,47.3948648 153.631669,47.3948648 L153.694418,47.3948648 C154.014194,47.3948648 154.274842,47.3675128 154.476764,47.3116022 C154.678686,47.2560939 154.844004,47.1728313 154.97272,47.0610101 C155.101435,46.9499933 155.205613,46.8124291 155.285658,46.6491218 C155.365301,46.4858145 155.444139,46.2959598 155.520563,46.080362 C155.625144,46.1153564 155.712027,46.1499486 155.781613,46.1845408 C155.850798,46.2195352 155.917166,46.2678034 155.979915,46.3309542 C155.903088,46.5743061 155.838731,46.8333453 155.78644,47.1080715 C155.73415,47.3832 155.691111,47.6418369 155.656116,47.8855911 C155.551937,47.8855911 155.424831,47.8839821 155.275602,47.880362 C155.125569,47.8767419 154.960653,47.873524 154.779647,47.8699039 C154.598641,47.8662838 154.410798,47.8646749 154.216116,47.8646749 L152.953099,47.8646749 C152.696072,47.8646749 152.44025,47.8662838 152.18644,47.8699039 C151.932228,47.873524 151.692496,47.8767419 151.46644,47.880362 C151.240384,47.8839821 151.060988,47.8892112 150.928653,47.8960492 C150.928653,47.6941274 150.945949,47.5448983 150.980943,47.4471553 C151.120116,47.4407196 151.236764,47.4214123 151.330485,47.390038 C151.424608,47.3582615 151.499021,47.3051665 151.554932,47.2279374 C151.61044,47.1519151 151.650664,47.0493453 151.6752,46.9206302 C151.699334,46.7915128 151.711401,46.6265966 151.711401,46.4246749 L151.711401,42.1356469 C151.711401,41.787714 151.66072,41.5528089 151.560161,41.4309318 C151.4592,41.309457 151.269747,41.2414793 150.991401,41.2274011 C150.970887,41.172295 150.956407,41.1043173 150.949569,41.0238704 C150.942731,40.9442279 150.939513,40.8621721 150.939513,40.7789095 C151.043692,40.7861497 151.175625,40.7909765 151.335714,40.7945966 C151.495803,40.7982168 151.66072,40.8018369 151.831267,40.8046525 C152.001815,40.8086749 152.163513,40.8102838 152.316764,40.8102838 L152.692451,40.8102838 C153.408831,40.8102838 153.996898,40.8066637 154.45625,40.7998257 C154.9152,40.7929877 155.231759,40.7861497 155.405926,40.7789095" id="Fill-64"></path><path d="M158.599066,41.1858503 C158.488049,41.1999285 158.37301,41.2208447 158.255155,41.2481966 L158.255155,44.1704313 C158.323937,44.1845095 158.390306,44.1913475 158.453055,44.1913475 C158.53672,44.1981855 158.623602,44.2018056 158.714105,44.2018056 C158.999289,44.2018056 159.265166,44.1724425 159.512541,44.1129117 C159.759111,44.0541855 159.975111,43.9600626 160.159334,43.8313475 C160.343558,43.7026324 160.48796,43.5409341 160.592541,43.3458503 C160.69672,43.1515709 160.74901,42.9182749 160.74901,42.6467665 C160.74901,42.208733 160.618686,41.8519508 160.357636,41.5772246 C160.096988,41.3024983 159.653323,41.1649341 159.027044,41.1649341 C158.866954,41.1649341 158.724563,41.1721743 158.599066,41.1858503 M157.753569,40.8101631 C158.045993,40.8101631 158.336809,40.8069453 158.625211,40.799705 C158.913613,40.792867 159.204429,40.7896492 159.496451,40.7896492 C159.893457,40.7896492 160.233747,40.8346994 160.519334,40.9252022 C160.804518,41.0153028 161.039021,41.1391911 161.223647,41.2952581 C161.40787,41.4521296 161.545435,41.6363531 161.635937,41.8483307 C161.726038,42.0611128 161.771893,42.2919955 161.771893,42.5425877 C161.771893,43.0296939 161.604965,43.4399732 161.270708,43.7742302 C160.964608,44.0799285 160.550708,44.3027665 160.02901,44.4419397 C160.119111,44.5256045 160.202373,44.608867 160.279602,44.6925318 C160.376541,44.7967106 160.470664,44.9133587 160.561166,45.0420737 C160.651669,45.1707888 160.74539,45.3184089 160.842731,45.4853363 C160.940072,45.6522637 161.054708,45.8574034 161.187446,46.1011575 C161.430798,46.5395933 161.670932,46.8698279 161.907446,47.0926659 C162.14396,47.3151017 162.435982,47.4333587 162.783915,47.4470346 C162.783915,47.5306994 162.781904,47.6075263 162.778686,47.6771128 C162.775066,47.7466994 162.763401,47.8195039 162.742083,47.8963307 C162.477815,47.8963307 162.203088,47.8991464 161.917904,47.9063866 C161.632317,47.9136268 161.360809,47.9309229 161.103781,47.9586771 C160.992362,47.7849117 160.856809,47.5552358 160.69672,47.2700514 C160.53663,46.984867 160.373323,46.6747441 160.206396,46.3408894 C160.046306,46.0211128 159.851222,45.7081743 159.621949,45.4016715 C159.440943,45.1514816 159.239423,44.9117497 159.016585,44.6816715 C158.731401,44.696152 158.477189,44.696152 158.255155,44.6816715 L158.255155,46.5395933 C158.255155,46.8875263 158.303423,47.1224313 158.401166,47.2439061 C158.498105,47.365381 158.679111,47.4333587 158.943379,47.4470346 C158.964295,47.5101855 158.977971,47.581381 158.985211,47.6614257 C158.992451,47.7414704 158.995669,47.8195039 158.995669,47.8963307 C158.773234,47.8818503 158.543155,47.8734034 158.306641,47.8697832 C158.07053,47.8661631 157.886306,47.8645542 157.753569,47.8645542 L157.451088,47.8645542 C157.339669,47.8645542 157.227044,47.8661631 157.112004,47.8697832 C156.997368,47.8734034 156.885949,47.8770235 156.77815,47.8806436 C156.670351,47.8838615 156.578239,47.8890905 156.501412,47.8963307 C156.501412,47.8195039 156.505032,47.7430793 156.512273,47.6662525 C156.518708,47.5902302 156.532787,47.5170235 156.553703,47.4470346 C156.831647,47.4333587 157.021502,47.365381 157.122463,47.2439061 C157.223423,47.1224313 157.273703,46.8875263 157.273703,46.5395933 L157.273703,42.1355263 C157.273703,41.7875933 157.223423,41.5494704 157.122463,41.4207553 C157.021502,41.2920402 156.831647,41.2276827 156.553703,41.2276827 C156.532787,41.1584983 156.518708,41.0885095 156.512273,41.0189229 C156.505032,40.9493363 156.501412,40.8729117 156.501412,40.7896492 C156.605993,40.7960849 156.780161,40.8017162 157.023513,40.8049341 C157.266463,40.8089564 157.510217,40.8101631 157.753569,40.8101631" id="Fill-66"></path><path d="M165.28859,40.7164425 C165.677953,40.7164425 166.01221,40.7631017 166.290154,40.8572246 C166.568501,40.9509453 166.78088,41.0575374 166.926892,41.1757944 C166.926892,41.377314 166.930109,41.6106101 166.93735,41.8748782 C166.944188,42.1391464 166.961484,42.3652022 166.98964,42.5526436 C166.912813,42.587638 166.820702,42.6121743 166.712903,42.6258503 C166.604702,42.6399285 166.502534,42.6467665 166.404791,42.6467665 C166.349283,42.3479061 166.286534,42.102543 166.21735,41.9110793 C166.147763,41.7200179 166.066109,41.5703866 165.971987,41.4621855 C165.878266,41.3547888 165.773685,41.2795709 165.659048,41.2381408 C165.544411,41.1963084 165.420523,41.1757944 165.28859,41.1757944 C164.975651,41.1757944 164.728277,41.265895 164.547272,41.4464983 C164.366668,41.6279061 164.276165,41.8849341 164.276165,42.2187888 C164.276165,42.5252916 164.35621,42.7754816 164.516299,42.9705654 C164.676389,43.1652469 164.876299,43.3394145 165.116031,43.4918615 C165.356165,43.6451128 165.615204,43.7899173 165.893953,43.9254704 C166.171897,44.0606212 166.431339,44.2174927 166.671473,44.3948782 C166.911204,44.5722637 167.111115,44.7862525 167.271204,45.0364425 C167.431294,45.2870346 167.510936,45.6035933 167.510936,45.9865207 C167.510936,46.2507888 167.457439,46.5029899 167.34964,46.7427218 C167.241439,46.9828559 167.093819,47.1936268 166.905975,47.3742302 C166.718132,47.5552358 166.495294,47.6976268 166.237864,47.8022078 C165.980836,47.9063866 165.699272,47.9586771 165.392769,47.9586771 C165.149015,47.9586771 164.935428,47.9466101 164.751204,47.9220737 C164.566579,47.8979397 164.396031,47.8597274 164.239964,47.8074369 C164.083093,47.7551464 163.926623,47.6871687 163.770154,47.6039061 C163.613685,47.5202413 163.437506,47.4160626 163.243227,47.2909676 C163.285059,47.0266994 163.310802,46.7620291 163.32126,46.4977609 C163.331718,46.2334927 163.336947,46.0038168 163.336947,45.808733 C163.413372,45.7878168 163.503875,45.7721296 163.608054,45.7620737 C163.712635,45.7516156 163.809975,45.7463866 163.900478,45.7463866 C163.914556,46.0106547 163.949149,46.2471687 164.005059,46.4559285 C164.060568,46.6646883 164.145841,46.8436827 164.260478,46.993314 C164.375115,47.1433475 164.527964,47.2579844 164.71983,47.3376268 C164.911294,47.4176715 165.152635,47.457895 165.445059,47.457895 C165.639741,47.457895 165.810288,47.4285318 165.956299,47.3690011 C166.102311,47.3102749 166.224188,47.2318391 166.321528,47.1340961 C166.419272,47.0367553 166.493685,46.9241296 166.545975,46.7950123 C166.598266,46.6662972 166.624009,46.528733 166.624009,46.3827218 C166.624009,46.0697832 166.543964,45.8159732 166.384277,45.6208894 C166.224188,45.4262078 166.024277,45.2576715 165.784143,45.1152804 C165.544411,44.9724872 165.282959,44.8365318 165.001394,44.7078168 C164.71983,44.5795039 164.45878,44.4262525 164.219048,44.248867 C163.978914,44.0714816 163.778601,43.8506547 163.618914,43.5863866 C163.458422,43.3221184 163.37878,42.9774034 163.37878,42.5526436 C163.37878,42.2819397 163.425439,42.0329564 163.519964,41.8069006 C163.613685,41.5804425 163.744009,41.3857609 163.910936,41.2224536 C164.077864,41.0591464 164.277774,40.9336492 164.510668,40.8467665 C164.743964,40.7594816 165.003003,40.7164425 165.28859,40.7164425" id="Fill-68"></path><path d="M172.520568,47.3949453 C172.81259,47.3949453 173.054333,47.3724201 173.245797,47.3273698 C173.436858,47.2823196 173.600568,47.2071017 173.736121,47.1029229 C173.871674,46.9987441 173.986713,46.8631911 174.080434,46.6958615 C174.174154,46.5289341 174.263048,46.3237944 174.346713,46.0800402 C174.451294,46.1150346 174.538177,46.1496268 174.607361,46.1846212 C174.676947,46.2196156 174.742914,46.2678838 174.806065,46.3306324 C174.729238,46.5743866 174.66488,46.8334257 174.61259,47.108152 C174.560299,47.3832804 174.51726,47.6419173 174.482266,47.8856715 C174.378087,47.8856715 174.250981,47.8840626 174.101752,47.8804425 C173.951718,47.8768223 173.7864,47.8732022 173.605797,47.8699844 C173.424791,47.8663642 173.236947,47.8647553 173.042266,47.8647553 L171.779249,47.8647553 C171.522221,47.8647553 171.2664,47.8663642 171.01259,47.8699844 C170.758378,47.8732022 170.518244,47.8768223 170.29259,47.8804425 C170.066132,47.8840626 169.887137,47.8892916 169.754802,47.8961296 C169.754802,47.6942078 169.772098,47.5449788 169.807093,47.4472358 C169.946266,47.4403978 170.062914,47.4210905 170.156635,47.3897162 C170.250355,47.3583419 170.325171,47.3048447 170.381082,47.2280179 C170.43659,47.1519955 170.476813,47.0494257 170.500947,46.9203084 C170.525484,46.7915933 170.537551,46.6266771 170.537551,46.4247553 L170.537551,42.1357274 C170.537551,41.7877944 170.486869,41.5528894 170.386311,41.4310123 C170.28535,41.3095374 170.095897,41.2415598 169.817551,41.2274816 C169.797037,41.1719732 169.782556,41.1039955 169.775718,41.0239508 C169.76888,40.9443084 169.76526,40.8622525 169.76526,40.7789899 C169.869841,40.7858279 169.97764,40.7930682 170.088657,40.7999061 L170.433372,40.8103642 L171.028277,40.8103642 C171.250713,40.8103642 171.464702,40.8087553 171.669841,40.804733 C171.875383,40.8015151 172.082132,40.7930682 172.290892,40.7789899 C172.290892,40.9809117 172.273596,41.130543 172.238601,41.2274816 C172.099428,41.2347218 171.984791,41.2536268 171.894288,41.2850011 C171.803785,41.3163754 171.730579,41.367057 171.67507,41.4366436 C171.619562,41.5058279 171.579339,41.5999508 171.555204,41.7182078 C171.530668,41.8364648 171.518601,41.9860961 171.518601,42.1666994 L171.518601,46.4247553 C171.518601,46.6194369 171.530668,46.7795263 171.555204,46.9046212 C171.579339,47.0301184 171.6264,47.1290682 171.695987,47.2022749 C171.765573,47.2750793 171.860903,47.3257609 171.98278,47.3531128 C172.104657,47.3812693 172.262735,47.3949453 172.457819,47.3949453 L172.520568,47.3949453 Z" id="Fill-70"></path><path d="M176.673721,41.2172648 L176.141564,41.2172648 C175.870458,41.2172648 175.656469,41.2482369 175.499598,41.3109855 C175.343128,41.3737341 175.219642,41.4606168 175.12914,41.5720358 C175.039039,41.6834547 174.97267,41.8121698 174.930838,41.958181 C174.889006,42.1041922 174.851196,42.2646838 174.816201,42.4380469 C174.739374,42.4380469 174.656112,42.4316112 174.566011,42.4171307 C174.475106,42.4034547 174.399084,42.3793207 174.335933,42.3443263 C174.391844,42.1005721 174.433676,41.839924 174.46143,41.5611754 C174.489184,41.2832313 174.503263,41.0225832 174.503263,40.7788291 C174.795285,40.7929073 175.179821,40.8017564 175.656469,40.8049743 C176.132715,40.8085944 176.635508,40.8102034 177.164447,40.8102034 L177.946793,40.8102034 C178.204223,40.8102034 178.449587,40.8085944 178.68248,40.8049743 C178.915777,40.8017564 179.131374,40.7981363 179.330078,40.7945162 C179.527978,40.7908961 179.700134,40.7860693 179.846547,40.7788291 C179.846547,41.2522592 179.867061,41.7739575 179.908894,42.3443263 C179.832469,42.3793207 179.750413,42.4034547 179.663933,42.4171307 C179.576648,42.4316112 179.491374,42.4380469 179.408112,42.4380469 C179.394034,42.062762 179.291464,41.7651084 179.1,41.5458905 C178.908939,41.3266726 178.593989,41.2172648 178.155955,41.2172648 L177.654771,41.2172648 L177.654771,46.5392313 C177.654771,46.7133989 177.665229,46.8573989 177.686145,46.9728402 C177.706659,47.0874771 177.746883,47.1775777 177.806011,47.2435441 C177.86514,47.3099128 177.948804,47.3585832 178.056603,47.3899575 C178.164402,47.4213318 178.301966,47.4406391 178.468894,47.4470749 C178.503486,47.5448179 178.521184,47.6944492 178.521184,47.8959687 C178.298346,47.8818905 178.070682,47.8734436 177.837385,47.8698235 C177.604089,47.8662034 177.376425,47.8645944 177.153587,47.8645944 C176.931151,47.8645944 176.696246,47.8662034 176.449274,47.8698235 C176.202302,47.8734436 175.981475,47.8818905 175.786793,47.8959687 C175.786793,47.6944492 175.804089,47.5448179 175.839084,47.4470749 C176.006011,47.4406391 176.143173,47.4213318 176.250972,47.3899575 C176.359173,47.3585832 176.444447,47.3099128 176.506793,47.2435441 C176.569542,47.1775777 176.612983,47.0874771 176.637117,46.9728402 C176.661654,46.8573989 176.673721,46.7133989 176.673721,46.5392313 L176.673721,41.2172648 Z" id="Fill-72"></path><path d="M182.016684,46.4247151 C182.016684,46.6193966 182.028751,46.779486 182.053287,46.904581 C182.077421,47.0300782 182.124885,47.1290279 182.194069,47.2022346 C182.263656,47.2750391 182.359388,47.3257207 182.480863,47.3534749 C182.60274,47.3812291 182.76122,47.394905 182.955902,47.394905 C183.373421,47.394905 183.757555,47.3446257 184.109108,47.2436648 C184.460259,47.1431061 184.764751,46.9741676 185.022181,46.7376536 C185.279611,46.5011397 185.481131,46.1861899 185.627544,45.7932067 C185.773555,45.4002235 185.84636,44.9078883 185.84636,44.3166034 C185.84636,43.7530726 185.761488,43.2728045 185.590941,42.8766034 C185.420393,42.4795978 185.192728,42.1566034 184.907544,41.9060112 C184.62236,41.6558212 184.294941,41.4728045 183.926494,41.3577654 C183.557645,41.2431285 183.17874,41.1860112 182.788974,41.1860112 C182.663477,41.1860112 182.526315,41.1944581 182.377086,41.2117542 C182.227053,41.2294525 182.107187,41.2523799 182.016684,41.2797318 L182.016684,46.4247151 Z M180.263745,40.7789497 C180.33293,40.7857877 180.421823,40.7910168 180.529622,40.7946369 C180.637421,40.798257 180.750449,40.8018771 180.868706,40.8046927 C180.986963,40.8087151 181.10884,40.810324 181.234337,40.810324 L181.589108,40.810324 C181.818382,40.810324 182.048058,40.8067039 182.277332,40.7998659 C182.50741,40.7930279 182.733064,40.7894078 182.955902,40.7894078 C183.415254,40.7894078 183.881444,40.8312402 184.354472,40.9145028 C184.827097,40.9981676 185.253466,41.1598659 185.632773,41.4 C186.01208,41.6397318 186.321399,41.9808268 186.561533,42.4224804 C186.801667,42.8641341 186.921533,43.4437542 186.921533,44.1601341 C186.921533,44.7236648 186.850337,45.2075531 186.707544,45.6109944 C186.565153,46.0140335 186.380527,46.3515084 186.154472,46.6230168 C185.928416,46.8941229 185.670985,47.1133408 185.382181,47.2802682 C185.093377,47.4471955 184.803365,47.5726927 184.510941,47.6563575 C184.218918,47.7396201 183.935343,47.7951285 183.660215,47.8232849 C183.385488,47.8510391 183.150583,47.8647151 182.955902,47.8647151 L182.277332,47.8647151 C182.020304,47.8647151 181.764483,47.866324 181.510673,47.8699441 C181.25646,47.8735642 181.016728,47.8767821 180.790673,47.8804022 C180.564617,47.8840223 180.38522,47.8892514 180.252885,47.8960894 C180.252885,47.6941676 180.270181,47.5449385 180.305175,47.4471955 C180.444349,47.4403575 180.560997,47.4214525 180.654717,47.389676 C180.74884,47.3583017 180.823254,47.3048045 180.879164,47.2279777 C180.935075,47.1519553 180.974896,47.0493855 180.999432,46.9202682 C181.023566,46.7915531 181.036036,46.6266369 181.036036,46.4247151 L181.036036,42.1356872 C181.036036,41.7877542 180.985354,41.5528492 180.884796,41.4309721 C180.783835,41.3094972 180.59398,41.2415196 180.315634,41.2274413 C180.29512,41.171933 180.281041,41.1039553 180.273801,41.0239106 C180.266963,40.9442682 180.263745,40.8622123 180.263745,40.7789497 Z" id="Fill-74"></path><path d="M188.027799,46.8002413 C188.208402,46.8002413 188.349587,46.8609788 188.450547,46.9828559 C188.551106,47.104733 188.601788,47.2250011 188.601788,47.3432581 C188.601788,47.5516156 188.539039,47.704867 188.413944,47.8022078 C188.288447,47.8991464 188.146056,47.948219 187.985966,47.948219 C187.798123,47.948219 187.651709,47.8963307 187.547933,47.7917497 C187.443352,47.6871687 187.391061,47.5552358 187.391061,47.3951464 C187.391061,47.235057 187.449788,47.0958838 187.568447,46.9776268 C187.686704,46.8593698 187.839553,46.8002413 188.027799,46.8002413" id="Fill-76"></path></g></g></g></svg> 