<?xml version="1.0" encoding="UTF-8"?> <svg xmlns="http://www.w3.org/2000/svg" xmlns:xlink="http://www.w3.org/1999/xlink" width="330px" height="72px" viewBox="0 0 330 72"><!-- Generator: Sketch 50.2 (55047) - http://www.bohemiancoding.com/sketch --><title>New LIK Logo and Name</title><desc>Created with Sketch.</desc><defs></defs><g id="New-LIK-Logo-and-Name" stroke="none" stroke-width="1" fill="none" fill-rule="evenodd"><g id="Group"><path d="M63.00992,37.04256 C63.4765867,37.0260267 63.8093867,36.9646933 64.0093867,36.8590933 C64.34752,36.68096 64.51712,36.3422933 64.51712,35.84256 L64.51712,27.5828267 C64.51712,27.0868267 64.3560533,26.75296 64.03392,26.58176 C63.84512,26.4772267 63.5037867,26.4110933 63.00992,26.38336 L63.00992,25.9502933 L68.9720533,25.9502933 L68.9720533,26.38336 C68.2781867,26.40576 67.81632,26.5022933 67.58592,26.6734933 C67.3549867,26.8446933 67.24032,27.2670933 67.24032,27.9406933 L67.24032,36.0004267 C67.24032,36.37856 67.3389867,36.6286933 67.5357867,36.7508267 C67.7325867,36.8734933 68.11712,36.9342933 68.6888533,36.9342933 C69.7160533,36.9342933 70.57792,36.70816 71.2749867,36.25536 C71.97152,35.8030933 72.5725867,34.9214933 73.0776533,33.6116267 L73.5773867,33.6116267 L72.8861867,37.47616 L63.00992,37.47616 L63.00992,37.04256 Z" id="Fill-1" fill="#85674C"></path><path d="M79.1232,32.66208 C79.112,31.65728 79.0341333,30.95488 78.8890667,30.5554133 C78.744,30.1554133 78.4544,29.9559467 78.0197333,29.9559467 C77.5744,29.9559467 77.2693333,30.1863467 77.1050667,30.6471467 C76.9402667,31.1079467 76.8469333,31.7794133 76.8245333,32.66208 L79.1232,32.66208 Z M75.4981333,30.5095467 C76.1957333,29.7847467 77.0362667,29.4231467 78.0202667,29.4231467 C78.5813333,29.4231467 79.1093333,29.5703467 79.6042667,29.8642133 C80.0992,30.1586133 80.4794667,30.5666133 80.7461333,31.0882133 C80.9461333,31.48288 81.0853333,31.99328 81.1632,32.62048 C81.2021333,32.91488 81.2218667,33.1399467 81.2218667,33.2951467 L76.8666667,33.2951467 C76.9056,33.9778133 77.0165333,34.56928 77.2005333,35.0690133 C77.5338667,36.0071467 78.1210667,36.4759467 78.9610667,36.4759467 C79.3616,36.4759467 79.7397333,36.3511467 80.096,36.1015467 C80.3125333,35.9511467 80.5824,35.69888 80.9050667,35.34368 L81.2965333,35.5847467 C80.7685333,36.45088 80.1573333,37.0535467 79.4624,37.3922133 C79.0122667,37.6087467 78.4954667,37.7170133 77.9114667,37.7170133 C77.0725333,37.7170133 76.2858667,37.38688 75.552,36.72608 C74.8181333,36.06528 74.4517333,35.0103467 74.4517333,33.5618133 C74.4517333,32.2514133 74.8005333,31.2338133 75.4981333,30.5095467 Z" id="Fill-3" fill="#85674C"></path><path d="M86.1596267,36.2504 C86.29296,36.1506667 86.45136,35.9949333 86.6342933,35.7832 L86.6342933,33.2866667 C86.17936,33.3981333 85.77936,33.5730667 85.43536,33.8125333 C84.8524267,34.2189333 84.5606933,34.7368 84.5606933,35.3656 C84.5606933,35.7389333 84.6454933,36.0210667 84.8150933,36.2130667 C84.98416,36.4050667 85.1740267,36.5010667 85.3852267,36.5010667 C85.66256,36.5010667 85.9212267,36.4173333 86.1596267,36.2504 M83.1868267,34.0552 C83.9254933,33.6050667 85.0822933,33.1517333 86.65936,32.6952 L86.65936,31.4546667 C86.65936,30.9496 86.55216,30.5762667 86.3388267,30.3346667 C86.12496,30.0936 85.7462933,29.9725333 85.2022933,29.9725333 C84.8966933,29.9725333 84.6454933,30.0296 84.4486933,30.1432 C84.25136,30.2573333 84.1526933,30.4002667 84.1526933,30.572 C84.1526933,30.6386667 84.1638933,30.6941333 84.1862933,30.7389333 C84.20816,30.7832 84.24176,30.8301333 84.2860267,30.8802667 L84.38576,30.9965333 C84.4636267,31.0914667 84.5260267,31.1954667 84.5734933,31.3090667 C84.6204267,31.4226667 84.6444267,31.5437333 84.6444267,31.6712 C84.6444267,31.9933333 84.5372267,32.2418667 84.3238933,32.4168 C84.1100267,32.5917333 83.8614933,32.6786667 83.5782933,32.6786667 C83.2508267,32.6786667 82.97136,32.5821333 82.7414933,32.388 C82.5110933,32.1944 82.3958933,31.9149333 82.3958933,31.5496 C82.3958933,30.8957333 82.70416,30.3778667 83.32016,29.996 C83.9366933,29.6141333 84.6940267,29.4232 85.5932267,29.4232 C86.5596267,29.4232 87.3670933,29.6088 88.0166933,29.9810667 C88.6604267,30.3586667 88.98256,31.052 88.98256,32.0626667 L88.98256,36.1933333 C88.98256,36.3149333 89.01456,36.4189333 89.07856,36.5053333 C89.1420267,36.5917333 89.21296,36.6344 89.2908267,36.6344 C89.3574933,36.6344 89.4166933,36.6216 89.4700267,36.5965333 C89.5222933,36.572 89.6044267,36.5042667 89.71536,36.3933333 L89.9734933,36.7506667 C89.6406933,37.1394667 89.2710933,37.412 88.8662933,37.5672 C88.6108267,37.6669333 88.3414933,37.7170667 88.0582933,37.7170667 C87.5532267,37.7170667 87.18416,37.5698667 86.95056,37.2749333 C86.81776,37.108 86.72016,36.8610667 86.65936,36.532 C86.18736,37.0050667 85.65456,37.3384 85.0604267,37.5330667 C84.69936,37.6557333 84.34416,37.7170667 83.9942933,37.7170667 C83.52816,37.7170667 83.0924267,37.5682667 82.6870933,37.2706667 C82.28176,36.9730667 82.0796267,36.5101333 82.0796267,35.8818667 C82.0796267,35.1144 82.4486933,34.5058667 83.1868267,34.0552" id="Fill-5" fill="#85674C"></path><path d="M90.44816,30.3722667 L90.44816,29.8976 C90.5980267,29.7589333 90.78416,29.5952 91.0060267,29.4064 C91.3004267,29.1344 91.57776,28.8538667 91.83856,28.5653333 C92.35536,27.9989333 92.82416,27.3909333 93.2460267,26.7413333 L93.6790933,26.7413333 L93.6790933,29.6229333 L95.3030933,29.6229333 L95.3030933,30.3722667 L93.6790933,30.3722667 L93.6790933,35.5018667 C93.6790933,35.7402667 93.71536,35.9402667 93.78736,36.1013333 C93.8982933,36.3514667 94.08176,36.4757333 94.3372267,36.4757333 C94.5590933,36.4757333 94.7452267,36.3973333 94.8950933,36.2389333 C95.04496,36.0805333 95.1948267,35.8629333 95.3446933,35.5850667 L95.7526933,35.7850667 C95.5526933,36.2512 95.3148267,36.6314667 95.03696,36.9258667 C94.54896,37.4421333 93.9526933,37.7002667 93.2486933,37.7002667 C92.8492267,37.7002667 92.4998933,37.6256 92.2006933,37.4752 C91.6236267,37.1866667 91.3340267,36.6624 91.3308267,35.9013333 L91.3308267,30.3722667 L90.44816,30.3722667 Z" id="Fill-7" fill="#85674C"></path><path d="M96.12736,37.0675733 C96.4382933,37.02864 96.6670933,36.94384 96.8142933,36.8131733 C96.9614933,36.68304 97.0350933,36.4233067 97.0350933,36.0345067 L97.0350933,27.3491733 C97.0350933,27.00784 96.97376,26.7683733 96.8516267,26.6313067 C96.7294933,26.49424 96.4884267,26.40304 96.12736,26.35824 L96.12736,25.95024 L99.42496,25.95024 L99.42496,30.74704 C99.7748267,30.3251733 100.142293,29.9987733 100.528427,29.7683733 C100.914027,29.5379733 101.348693,29.4233067 101.83136,29.4233067 C102.486293,29.4233067 103.027627,29.6131733 103.45536,29.99344 C103.883093,30.3737067 104.096427,31.0217067 104.096427,31.93744 L104.096427,36.0345067 C104.096427,36.41744 104.161493,36.6691733 104.29216,36.78864 C104.422827,36.9075733 104.640427,37.0009067 104.946027,37.0675733 L104.946027,37.4755733 L100.940693,37.4755733 L100.940693,37.0675733 C101.24576,37.00624 101.45376,36.92304 101.565227,36.81744 C101.67616,36.7123733 101.731627,36.47344 101.731627,36.1011733 L101.731627,31.97104 C101.731627,31.58224 101.692693,31.29104 101.61536,31.0969067 C101.482027,30.74704 101.218027,30.5721067 100.823893,30.5721067 C100.529493,30.5721067 100.226027,30.7081067 99.9124267,30.9801067 C99.5982933,31.2521067 99.4414933,31.43824 99.4414933,31.5379733 L99.4414933,36.1011733 C99.4414933,36.47344 99.49696,36.7123733 99.6084267,36.81744 C99.71936,36.92304 99.92736,37.00624 100.23296,37.0675733 L100.23296,37.4755733 L96.12736,37.4755733 L96.12736,37.0675733 Z" id="Fill-9" fill="#85674C"></path><path d="M110.38384,32.66208 C110.37264,31.65728 110.294773,30.95488 110.149707,30.5554133 C110.00464,30.1554133 109.71504,29.9559467 109.280373,29.9559467 C108.83504,29.9559467 108.529973,30.1863467 108.365707,30.6471467 C108.200907,31.1079467 108.107573,31.7794133 108.085173,32.66208 L110.38384,32.66208 Z M106.758773,30.5095467 C107.456373,29.7847467 108.296907,29.4231467 109.280907,29.4231467 C109.841973,29.4231467 110.369973,29.5703467 110.864907,29.8642133 C111.35984,30.1586133 111.740107,30.5666133 112.006773,31.0882133 C112.206773,31.48288 112.345973,31.99328 112.42384,32.62048 C112.462773,32.91488 112.482507,33.1399467 112.482507,33.2951467 L108.127307,33.2951467 C108.16624,33.9778133 108.277173,34.56928 108.461173,35.0690133 C108.794507,36.0071467 109.381707,36.4759467 110.221707,36.4759467 C110.62224,36.4759467 111.000373,36.3511467 111.35664,36.1015467 C111.573173,35.9511467 111.84304,35.69888 112.165707,35.34368 L112.557173,35.5847467 C112.029173,36.45088 111.417973,37.0535467 110.72304,37.3922133 C110.272907,37.6087467 109.756107,37.7170133 109.172107,37.7170133 C108.333173,37.7170133 107.546507,37.38688 106.81264,36.72608 C106.078773,36.06528 105.712373,35.0103467 105.712373,33.5618133 C105.712373,32.2514133 106.061173,31.2338133 106.758773,30.5095467 Z" id="Fill-11" fill="#85674C"></path><path d="M113.215093,37.0675733 C113.54256,37.02864 113.770293,36.9507733 113.89776,36.8345067 C114.02576,36.7177067 114.095093,36.49264 114.106293,36.15984 L114.122827,35.6601067 L114.122827,31.0217067 C114.122827,30.6633067 114.061493,30.4201067 113.93936,30.29104 C113.817227,30.1625067 113.57616,30.0755733 113.215093,30.0307733 L113.215093,29.6227733 L116.446027,29.6227733 L116.446027,30.9635733 C116.807627,30.4915733 117.16656,30.1171733 117.522827,29.8393067 C117.879093,29.5619733 118.290827,29.4233067 118.758027,29.4233067 C119.108427,29.4233067 119.42416,29.5353067 119.705227,29.7603733 C119.986293,29.9849067 120.12656,30.3139733 120.12656,30.74704 C120.12656,31.07984 120.027893,31.35504 119.83056,31.57104 C119.632693,31.7881067 119.375627,31.8963733 119.058293,31.8963733 C118.696693,31.8963733 118.383627,31.7267733 118.119093,31.3881067 C117.855093,31.04944 117.670027,30.87984 117.564427,30.87984 C117.33616,30.87984 117.106293,31.02064 116.875893,31.30064 C116.64496,31.5811733 116.529227,31.9827733 116.529227,32.50544 L116.529227,35.7347733 C116.529227,36.2979733 116.61136,36.64944 116.775093,36.7897067 C116.938827,36.93104 117.264693,37.0233067 117.753227,37.0675733 L117.753227,37.4755733 L113.215093,37.4755733 L113.215093,37.0675733 Z" id="Fill-13" fill="#85674C"></path><path d="M124.714827,37.04256 C125.198027,37.03136 125.544693,36.9726933 125.755893,36.8676267 C126.099893,36.6900267 126.27216,36.34816 126.27216,35.8430933 L126.27216,27.5828267 C126.27216,27.08096 126.108427,26.7444267 125.78096,26.57376 C125.58096,26.4686933 125.22576,26.40576 124.714827,26.38336 L124.714827,25.9502933 L130.677493,25.9502933 L130.677493,26.38336 C130.14416,26.40576 129.77776,26.4660267 129.578293,26.5652267 C129.24496,26.7364267 129.07856,27.0756267 129.07856,27.5828267 L129.07856,35.8430933 C129.07856,36.3204267 129.211893,36.6398933 129.478027,36.80096 C129.744693,36.9620267 130.14416,37.04256 130.677493,37.04256 L130.677493,37.47616 L124.714827,37.47616 L124.714827,37.04256 Z" id="Fill-15" fill="#85674C"></path><path d="M131.35184,37.0675733 C131.662773,37.02864 131.891573,36.94384 132.038773,36.8131733 C132.185973,36.68304 132.259573,36.4233067 132.259573,36.0345067 L132.259573,31.0217067 C132.259573,30.6745067 132.19984,30.4339733 132.080373,30.2995733 C131.96144,30.1651733 131.71824,30.0755733 131.35184,30.0307733 L131.35184,29.6227733 L134.582773,29.6227733 L134.582773,30.8467733 C134.854773,30.4361067 135.200373,30.0963733 135.619573,29.8265067 C136.038773,29.5577067 136.50384,29.4233067 137.01424,29.4233067 C137.74704,29.4233067 138.31504,29.6115733 138.717707,29.9891733 C139.11984,30.3667733 139.320907,31.03024 139.320907,31.97904 L139.320907,36.1011733 C139.320907,36.4841067 139.385973,36.7315733 139.51664,36.8425067 C139.647307,36.95344 139.864907,37.02864 140.170507,37.0675733 L140.170507,37.4755733 L136.165173,37.4755733 L136.165173,37.0675733 C136.47024,37.00624 136.67824,36.92304 136.789707,36.81744 C136.90064,36.7123733 136.956107,36.47344 136.956107,36.1011733 L136.956107,31.97104 C136.956107,31.58224 136.917173,31.29104 136.83984,31.0969067 C136.706507,30.74704 136.442507,30.5721067 136.048373,30.5721067 C135.753973,30.5721067 135.483573,30.6787733 135.23664,30.89264 C134.989707,31.1065067 134.799307,31.32144 134.665973,31.5379733 L134.665973,36.1011733 C134.665973,36.47344 134.72144,36.7123733 134.832907,36.81744 C134.94384,36.92304 135.15184,37.00624 135.45744,37.0675733 L135.45744,37.4755733 L131.35184,37.4755733 L131.35184,37.0675733 Z" id="Fill-17" fill="#85674C"></path><path d="M145.844,36.2597333 C146.136267,35.9322667 146.2824,35.7018667 146.2824,35.5685333 L146.2824,31.4213333 C146.2824,31.2826667 146.157067,31.0773333 145.906933,30.8053333 C145.655733,30.5333333 145.324533,30.3973333 144.9128,30.3973333 C144.305867,30.3973333 143.8936,30.8165333 143.676533,31.6544 C143.559733,32.104 143.501067,32.7397333 143.501067,33.5616 C143.501067,34.4384 143.557067,35.0992 143.668,35.5434667 C143.8744,36.3482667 144.2696,36.7509333 144.854667,36.7509333 C145.2216,36.7509333 145.551733,36.5872 145.844,36.2597333 M141.956533,30.5930667 C142.5976,29.8128 143.367733,29.4229333 144.267467,29.4229333 C144.717067,29.4229333 145.116533,29.5338667 145.4664,29.7562667 C145.682933,29.8890667 145.954933,30.128 146.2824,30.472 L146.2824,27.3493333 C146.2824,26.9184 146.1992,26.6506667 146.0328,26.5477333 C145.8664,26.4437333 145.521867,26.3808 145.000267,26.3584 L145.000267,25.9504 L148.672267,25.9504 L148.672267,35.7685333 C148.672267,36.1205333 148.738933,36.3642667 148.872267,36.4992 C149.0056,36.6336 149.2664,36.7178667 149.6552,36.7509333 L149.6552,37.1418667 C148.7,37.2368 148.084,37.3077333 147.806667,37.3546667 C147.5288,37.4021333 147.040267,37.5221333 146.341067,37.7168 L146.341067,36.5925333 C146.018933,36.9258667 145.724533,37.1728 145.457867,37.3338667 C145.036,37.5888 144.581067,37.7168 144.092533,37.7168 C143.259467,37.7168 142.5352,37.3642667 141.9192,36.6592 C141.302667,35.9541333 140.994933,34.9968 140.994933,33.7861333 C140.994933,32.4373333 141.315467,31.3728 141.956533,30.5930667" id="Fill-19" fill="#85674C"></path><path d="M153.53568,29.6227733 L153.53568,35.4105067 C153.53568,35.7545067 153.57728,36.0073067 153.66048,36.16784 C153.805013,36.45104 154.09088,36.5923733 154.518613,36.5923733 C154.790613,36.5923733 155.056747,36.5065067 155.317547,36.3347733 C155.467947,36.23984 155.656213,36.0819733 155.883947,35.8601067 L155.883947,31.0217067 C155.883947,30.6633067 155.813547,30.41264 155.67168,30.27024 C155.530347,30.1273067 155.245547,30.04784 154.818347,30.0307733 L154.818347,29.6227733 L158.21568,29.6227733 L158.21568,35.7683733 C158.21568,36.1209067 158.281813,36.36464 158.415147,36.4995733 C158.54848,36.6339733 158.809813,36.71824 159.19808,36.7507733 L159.19808,37.14224 C158.14368,37.2419733 157.478613,37.3161067 157.203947,37.36304 C156.92928,37.4105067 156.48928,37.52784 155.883947,37.7171733 L155.883947,36.5923733 C155.478613,36.9427733 155.143147,37.1897067 154.87648,37.3337067 C154.410347,37.5897067 153.92448,37.7171733 153.419413,37.7171733 C152.869547,37.7171733 152.357547,37.54224 151.88288,37.19184 C151.408213,36.8425067 151.17088,36.2211733 151.17088,35.3267733 L151.17088,31.0217067 C151.17088,30.65744 151.112747,30.4195733 150.995947,30.30704 C150.87968,30.19504 150.654613,30.1027733 150.32128,30.0307733 L150.32128,29.6227733 L153.53568,29.6227733 Z" id="Fill-21" fill="#85674C"></path><path d="M159.964587,34.8938667 L160.439787,34.8938667 C160.60512,35.7098667 160.916587,36.2858667 161.372053,36.6218667 C161.826987,36.9578667 162.293653,37.1253333 162.770987,37.1253333 C163.209387,37.1253333 163.53152,37.0272 163.73632,36.8298667 C163.941653,36.6330667 164.044587,36.3733333 164.044587,36.0512 C164.044587,35.7461333 163.93312,35.4853333 163.711253,35.2688 C163.589653,35.152 163.392853,35.0272 163.120853,34.8938667 L161.855253,34.2778667 C161.188587,33.9498667 160.711253,33.5946667 160.42272,33.2117333 C160.12832,32.8288 159.98112,32.3765333 159.98112,31.8544 C159.98112,31.1941333 160.21152,30.6234667 160.671787,30.1429333 C161.13312,29.6629333 161.776853,29.4229333 162.604053,29.4229333 C162.964587,29.4229333 163.348053,29.4826667 163.753387,29.6021333 C164.158187,29.7216 164.41152,29.7813333 164.511253,29.7813333 C164.64992,29.7813333 164.74912,29.752 164.807253,29.6938667 C164.865387,29.6352 164.913387,29.5536 164.95232,29.448 L165.327253,29.448 L165.327253,31.9130667 L164.89472,31.9130667 C164.73312,31.3354667 164.469653,30.8714667 164.103253,30.5221333 C163.73632,30.1722667 163.30912,29.9973333 162.820587,29.9973333 C162.442453,29.9973333 162.161387,30.1029333 161.975787,30.3141333 C161.789653,30.5248 161.696853,30.7525333 161.696853,30.9968 C161.696853,31.1968 161.780053,31.3962667 161.946987,31.5962667 C162.10752,31.8016 162.412587,32.0128 162.86272,32.2293333 L163.794987,32.6789333 C164.372053,32.9568 164.794987,33.2256 165.060587,33.4864 C165.505387,33.9306667 165.727253,34.4773333 165.727253,35.1269333 C165.727253,35.76 165.49792,36.3498667 165.039787,36.8965333 C164.582187,37.4437333 163.89472,37.7168 162.978987,37.7168 C162.751253,37.7168 162.52192,37.6933333 162.29152,37.6464 C162.061653,37.5989333 161.776853,37.5168 161.43872,37.4005333 L161.146987,37.3002667 C161.04192,37.2618667 160.975787,37.2394667 160.951253,37.2336 C160.926187,37.2282667 160.89472,37.2256 160.855253,37.2256 C160.761387,37.2256 160.679253,37.2629333 160.609387,37.3381333 C160.540587,37.4128 160.461653,37.5386667 160.37312,37.7168 L159.964587,37.7168 L159.964587,34.8938667 Z" id="Fill-23" fill="#85674C"></path><path d="M166.44272,30.3722667 L166.44272,29.8976 C166.592587,29.7589333 166.778187,29.5952 167.00112,29.4064 C167.294987,29.1344 167.572853,28.8538667 167.83312,28.5653333 C168.34992,27.9989333 168.81872,27.3909333 169.240587,26.7413333 L169.674187,26.7413333 L169.674187,29.6229333 L171.298187,29.6229333 L171.298187,30.3722667 L169.674187,30.3722667 L169.674187,35.5018667 C169.674187,35.7402667 169.709387,35.9402667 169.782453,36.1013333 C169.892853,36.3514667 170.07632,36.4757333 170.331253,36.4757333 C170.55312,36.4757333 170.739787,36.3973333 170.889653,36.2389333 C171.03952,36.0805333 171.189387,35.8629333 171.339787,35.5850667 L171.74672,35.7850667 C171.547787,36.2512 171.309387,36.6314667 171.03152,36.9258667 C170.54352,37.4421333 169.947787,37.7002667 169.24272,37.7002667 C168.843787,37.7002667 168.494987,37.6256 168.19472,37.4752 C167.617653,37.1866667 167.328053,36.6624 167.324853,35.9013333 L167.324853,30.3722667 L166.44272,30.3722667 Z" id="Fill-25" fill="#85674C"></path><path d="M172.1552,37.0675733 C172.482133,37.02864 172.7104,36.9507733 172.8384,36.8345067 C172.965867,36.7177067 173.0352,36.49264 173.045867,36.15984 L173.0624,35.6601067 L173.0624,31.0217067 C173.0624,30.6633067 173.002133,30.4201067 172.88,30.29104 C172.757333,30.1625067 172.515733,30.0755733 172.1552,30.0307733 L172.1552,29.6227733 L175.386667,29.6227733 L175.386667,30.9635733 C175.747733,30.4915733 176.106133,30.1171733 176.4624,29.8393067 C176.818667,29.5619733 177.2304,29.4233067 177.698133,29.4233067 C178.049067,29.4233067 178.3648,29.5353067 178.645867,29.7603733 C178.925867,29.9849067 179.066667,30.3139733 179.066667,30.74704 C179.066667,31.07984 178.967467,31.35504 178.770667,31.57104 C178.5728,31.7881067 178.315733,31.8963733 177.998933,31.8963733 C177.636267,31.8963733 177.323733,31.7267733 177.0592,31.3881067 C176.794667,31.04944 176.610667,30.87984 176.504,30.87984 C176.276267,30.87984 176.046933,31.02064 175.815467,31.30064 C175.5856,31.5811733 175.469867,31.9827733 175.469867,32.50544 L175.469867,35.7347733 C175.469867,36.2979733 175.550933,36.64944 175.715733,36.7897067 C175.878933,36.93104 176.205333,37.0233067 176.693867,37.0675733 L176.693867,37.4755733 L172.1552,37.4755733 L172.1552,37.0675733 Z" id="Fill-27" fill="#85674C"></path><path d="M180.828107,26.07952 C181.08624,25.8213867 181.398773,25.69232 181.765707,25.69232 C182.12624,25.69232 182.435573,25.8213867 182.693707,26.07952 C182.95184,26.3376533 183.08144,26.6496533 183.08144,27.0160533 C183.08144,27.3824533 182.95184,27.6949867 182.693707,27.95312 C182.435573,28.2112533 182.12624,28.34032 181.765707,28.34032 C181.398773,28.34032 181.08624,28.2112533 180.828107,27.95312 C180.569973,27.6949867 180.44144,27.3824533 180.44144,27.0160533 C180.44144,26.6496533 180.569973,26.3376533 180.828107,26.07952 Z M179.691573,37.0677867 C179.99184,37.0176533 180.19664,36.9424533 180.308107,36.84272 C180.47504,36.69232 180.557173,36.42352 180.557173,36.03472 L180.557173,31.02192 C180.557173,30.67472 180.49904,30.43792 180.383307,30.3120533 C180.266507,30.1861867 180.035573,30.09232 179.691573,30.0309867 L179.691573,29.6229867 L182.96464,29.6229867 L182.96464,36.1013867 C182.96464,36.47312 183.019573,36.7125867 183.13104,36.8176533 C183.24144,36.9232533 183.449973,37.00592 183.75504,37.0677867 L183.75504,37.4752533 L179.691573,37.4752533 L179.691573,37.0677867 Z" id="Fill-29" fill="#85674C"></path><path d="M189.201067,32.66208 C189.189867,31.65728 189.112533,30.95488 188.968,30.5554133 C188.821867,30.1554133 188.532267,29.9559467 188.098133,29.9559467 C187.652267,29.9559467 187.346667,30.1863467 187.183467,30.6471467 C187.018667,31.1079467 186.9248,31.7794133 186.902933,32.66208 L189.201067,32.66208 Z M185.576,30.5095467 C186.274133,29.7847467 187.114667,29.4231467 188.098133,29.4231467 C188.6592,29.4231467 189.187733,29.5703467 189.682133,29.8642133 C190.177067,30.1586133 190.557333,30.5666133 190.825067,31.0882133 C191.025067,31.48288 191.163733,31.99328 191.2416,32.62048 C191.28,32.91488 191.3008,33.1399467 191.3008,33.2951467 L186.9456,33.2951467 C186.983467,33.9778133 187.094933,34.56928 187.278933,35.0690133 C187.612267,36.0071467 188.198933,36.4759467 189.0384,36.4759467 C189.439467,36.4759467 189.8176,36.3511467 190.173867,36.1015467 C190.3904,35.9511467 190.660267,35.69888 190.983467,35.34368 L191.374933,35.5847467 C190.846933,36.45088 190.2352,37.0535467 189.5408,37.3922133 C189.090667,37.6087467 188.5728,37.7170133 187.989867,37.7170133 C187.149867,37.7170133 186.363733,37.38688 185.6304,36.72608 C184.897067,36.06528 184.529067,35.0103467 184.529067,33.5618133 C184.529067,32.2514133 184.878933,31.2338133 185.576,30.5095467 Z" id="Fill-31" fill="#85674C"></path><path d="M192.15728,34.8938667 L192.63248,34.8938667 C192.79888,35.7098667 193.10928,36.2858667 193.564747,36.6218667 C194.01968,36.9578667 194.486347,37.1253333 194.96368,37.1253333 C195.40208,37.1253333 195.724747,37.0272 195.93008,36.8298667 C196.135413,36.6330667 196.238347,36.3733333 196.238347,36.0512 C196.238347,35.7461333 196.12688,35.4853333 195.905013,35.2688 C195.783413,35.152 195.585547,35.0272 195.313547,34.8938667 L194.047947,34.2778667 C193.382347,33.9498667 192.903947,33.5946667 192.615413,33.2117333 C192.32208,32.8288 192.173813,32.3765333 192.173813,31.8544 C192.173813,31.1941333 192.40528,30.6234667 192.865547,30.1429333 C193.325813,29.6629333 193.969547,29.4229333 194.797813,29.4229333 C195.158347,29.4229333 195.541813,29.4826667 195.946613,29.6021333 C196.351947,29.7216 196.604213,29.7813333 196.703947,29.7813333 C196.842613,29.7813333 196.941813,29.752 196.999947,29.6938667 C197.05808,29.6352 197.107147,29.5536 197.14608,29.448 L197.521013,29.448 L197.521013,31.9130667 L197.087413,31.9130667 C196.925813,31.3354667 196.662347,30.8714667 196.297013,30.5221333 C195.93008,30.1722667 195.501813,29.9973333 195.01328,29.9973333 C194.636213,29.9973333 194.355147,30.1029333 194.16848,30.3141333 C193.982347,30.5248 193.889547,30.7525333 193.889547,30.9968 C193.889547,31.1968 193.972747,31.3962667 194.13968,31.5962667 C194.30128,31.8016 194.606347,32.0128 195.055413,32.2293333 L195.988747,32.6789333 C196.565813,32.9568 196.98768,33.2256 197.254347,33.4864 C197.69808,33.9306667 197.919947,34.4773333 197.919947,35.1269333 C197.919947,35.76 197.69168,36.3498667 197.233547,36.8965333 C196.77488,37.4437333 196.08848,37.7168 195.17168,37.7168 C194.945013,37.7168 194.71568,37.6933333 194.48528,37.6464 C194.255413,37.5989333 193.969547,37.5168 193.631413,37.4005333 L193.340747,37.3002667 C193.234613,37.2618667 193.169547,37.2394667 193.145013,37.2336 C193.119947,37.2282667 193.087413,37.2256 193.049013,37.2256 C192.95408,37.2256 192.873013,37.2629333 192.803147,37.3381333 C192.73328,37.4128 192.654347,37.5386667 192.565813,37.7168 L192.15728,37.7168 L192.15728,34.8938667 Z" id="Fill-33" fill="#85674C"></path><path d="M205.6896,36.0764267 C205.8832,36.8150933 206.2688,37.1836267 206.846933,37.1836267 C207.395733,37.1836267 207.757333,36.90096 207.929067,36.33456 C208.1008,35.76816 208.187733,34.84656 208.187733,33.56976 C208.187733,32.2988267 208.097067,31.3782933 207.9168,30.80976 C207.736533,30.2406933 207.3824,29.9558933 206.855467,29.9558933 C206.277333,29.9558933 205.891733,30.32496 205.698133,31.0636267 C205.5696,31.5574933 205.506133,32.3932267 205.506133,33.56976 C205.506133,34.7638933 205.566933,35.5990933 205.6896,36.0764267 M204.094933,30.59696 C204.824,29.80336 205.741867,29.40656 206.846933,29.40656 C207.973867,29.40656 208.897067,29.81136 209.615467,30.6220267 C210.3344,31.4326933 210.693867,32.4150933 210.693867,33.56976 C210.693867,34.7078933 210.338667,35.68656 209.628267,36.5052267 C208.917867,37.3244267 207.9904,37.7334933 206.846933,37.7334933 C205.736533,37.7334933 204.8176,37.3350933 204.090667,36.5382933 C203.362667,35.7420267 202.998933,34.7526933 202.998933,33.56976 C202.998933,32.3820267 203.3648,31.3910933 204.094933,30.59696" id="Fill-35" fill="#85674C"></path><path d="M211.38544,37.0675733 C211.73424,37.0393067 211.98544,36.9619733 212.138507,36.8345067 C212.291573,36.7065067 212.36784,36.43984 212.36784,36.0345067 L212.36784,30.4889067 L211.38544,30.4889067 L211.38544,29.7395733 L212.36784,29.7395733 L212.36784,29.1065067 C212.36784,28.3123733 212.49264,27.6601067 212.742773,27.1497067 C213.214773,26.19504 214.085707,25.7171733 215.357173,25.7171733 C216.034507,25.7171733 216.607307,25.8713067 217.077173,26.1795733 C217.545973,26.48784 217.780107,26.89424 217.780107,27.3993067 C217.780107,27.7155733 217.68144,27.97104 217.48464,28.1657067 C217.287307,28.35984 217.024907,28.4569067 216.697973,28.4569067 C216.425973,28.4569067 216.192907,28.36784 215.997707,28.19024 C215.804107,28.01264 215.707573,27.7993067 215.707573,27.5491733 C215.707573,27.3603733 215.769973,27.1619733 215.893707,26.9539733 C216.01904,26.74544 216.08144,26.6195733 216.08144,26.5747733 C216.08144,26.4361067 216.031307,26.3475733 215.93104,26.30864 C215.831307,26.2697067 215.724107,26.2499733 215.607307,26.2499733 C215.329973,26.2499733 215.115573,26.33104 214.965707,26.4915733 C214.81584,26.65264 214.74064,26.99984 214.74064,27.53264 L214.74064,29.7395733 L216.222773,29.7395733 L216.222773,30.4889067 L214.74064,30.4889067 L214.74064,35.7267733 C214.74064,36.31504 214.824907,36.6761067 214.99504,36.80944 C215.16464,36.9427733 215.54064,37.02864 216.12304,37.0675733 L216.12304,37.4755733 L211.38544,37.4755733 L211.38544,37.0675733 Z" id="Fill-37" fill="#85674C"></path><path d="M221.519787,37.04256 C221.983253,37.0260267 222.31232,36.9646933 222.508587,36.8590933 C222.837653,36.6814933 223.00192,36.3428267 223.00192,35.8430933 L223.00192,27.5828267 C223.00192,27.09216 222.850987,26.76096 222.550187,26.5902933 C222.365653,26.48576 222.021653,26.4164267 221.519787,26.38336 L221.519787,25.9502933 L227.290453,25.9502933 L227.290453,26.38336 C226.702187,26.43296 226.305387,26.54336 226.100053,26.7150933 C225.89472,26.8862933 225.791787,27.2948267 225.791787,27.9406933 L225.791787,31.59616 L229.460587,27.8788267 C229.71552,27.6244267 229.881387,27.44256 229.956053,27.3348267 C230.031253,27.2270933 230.068587,27.09536 230.068587,26.94016 C230.068587,26.72416 229.96992,26.5854933 229.77312,26.5246933 C229.575787,26.4638933 229.194987,26.41696 228.631253,26.38336 L228.631253,25.9502933 L233.56992,25.9502933 L233.56992,26.38336 C232.68672,26.45536 231.954987,26.7054933 231.375253,27.1326933 C230.794987,27.5604267 229.696853,28.60096 228.08032,30.2542933 L233.285653,36.69376 C233.396053,36.83136 233.506453,36.91936 233.61472,36.9550933 C233.722987,36.9908267 233.890453,37.02016 234.11872,37.04256 L234.11872,37.47616 L228.397653,37.47616 L228.397653,37.04256 C228.914453,37.0366933 229.266453,37.0142933 229.455253,36.9758933 C229.644587,36.93696 229.738453,36.8398933 229.738453,36.68416 C229.738453,36.61216 229.708587,36.51936 229.64672,36.40576 C229.586453,36.2916267 229.478187,36.1374933 229.322987,35.9428267 L226.223787,32.0702933 L225.791787,32.5038933 L225.791787,35.8430933 C225.791787,36.3374933 225.956053,36.6734933 226.285653,36.8510933 C226.474987,36.95616 226.80512,37.02016 227.27392,37.04256 L227.27392,37.47616 L221.519787,37.47616 L221.519787,37.04256 Z" id="Fill-39" fill="#85674C"></path><path d="M239.40624,32.66208 C239.39504,31.65728 239.317707,30.95488 239.17264,30.5554133 C239.02704,30.1554133 238.73744,29.9559467 238.303307,29.9559467 C237.85744,29.9559467 237.55184,30.1863467 237.38864,30.6471467 C237.22384,31.1079467 237.129973,31.7794133 237.108107,32.66208 L239.40624,32.66208 Z M235.781173,30.5095467 C236.479307,29.7847467 237.31984,29.4231467 238.303307,29.4231467 C238.864373,29.4231467 239.392907,29.5703467 239.887307,29.8642133 C240.38224,30.1586133 240.762507,30.5666133 241.03024,31.0882133 C241.23024,31.48288 241.368907,31.99328 241.446773,32.62048 C241.485173,32.91488 241.50544,33.1399467 241.50544,33.2951467 L237.15024,33.2951467 C237.18864,33.9778133 237.300107,34.56928 237.483573,35.0690133 C237.81744,36.0071467 238.404107,36.4759467 239.243573,36.4759467 C239.64464,36.4759467 240.022773,36.3511467 240.37904,36.1015467 C240.595573,35.9511467 240.86544,35.69888 241.18864,35.34368 L241.580107,35.5847467 C241.052107,36.45088 240.440373,37.0535467 239.745973,37.3922133 C239.29584,37.6087467 238.777973,37.7170133 238.19504,37.7170133 C237.35504,37.7170133 236.568907,37.38688 235.835573,36.72608 C235.10224,36.06528 234.73424,35.0103467 234.73424,33.5618133 C234.73424,32.2514133 235.083573,31.2338133 235.781173,30.5095467 Z" id="Fill-41" fill="#85674C"></path><path d="M242.20416,37.0675733 C242.51456,37.02864 242.743893,36.94384 242.891627,36.8131733 C243.038293,36.68304 243.11136,36.4233067 243.11136,36.0345067 L243.11136,31.0217067 C243.11136,30.6745067 243.05216,30.4339733 242.933227,30.2995733 C242.81376,30.1651733 242.571093,30.0755733 242.20416,30.0307733 L242.20416,29.6227733 L245.435627,29.6227733 L245.435627,30.8467733 C245.707093,30.4361067 246.053227,30.0963733 246.471893,29.8265067 C246.89056,29.5577067 247.35616,29.4233067 247.86656,29.4233067 C248.599893,29.4233067 249.166827,29.6115733 249.570027,29.9891733 C249.971627,30.3667733 250.172693,31.03024 250.172693,31.97904 L250.172693,36.1011733 C250.172693,36.4841067 250.238293,36.7315733 250.36896,36.8425067 C250.50016,36.95344 250.71776,37.02864 251.022827,37.0675733 L251.022827,37.4755733 L247.017493,37.4755733 L247.017493,37.0675733 C247.323093,37.00624 247.531093,36.92304 247.641493,36.81744 C247.75296,36.7123733 247.808427,36.47344 247.808427,36.1011733 L247.808427,31.97104 C247.808427,31.58224 247.770027,31.29104 247.691627,31.0969067 C247.558293,30.74704 247.294827,30.5721067 246.901227,30.5721067 C246.606293,30.5721067 246.33536,30.6787733 246.088427,30.89264 C245.841493,31.1065067 245.65216,31.32144 245.518827,31.5379733 L245.518827,36.1011733 C245.518827,36.47344 245.57376,36.7123733 245.685227,36.81744 C245.795627,36.92304 246.00416,37.00624 246.309227,37.0675733 L246.309227,37.4755733 L242.20416,37.4755733 L242.20416,37.0675733 Z" id="Fill-43" fill="#85674C"></path><path d="M251.772907,38.816 C252.012373,38.6325333 252.297707,38.5413333 252.628373,38.5413333 C252.91744,38.5413333 253.156373,38.6218667 253.34144,38.7829333 C253.528107,38.9434667 253.620907,39.1354667 253.620907,39.3573333 L253.579307,39.7322667 C253.579307,39.8042667 253.608107,39.8709333 253.666773,39.9322667 C253.724907,39.9930667 253.79904,40.0234667 253.88864,40.0234667 C254.184107,40.0234667 254.460373,39.792 254.71584,39.3296 C254.87584,39.0442667 255.107307,38.4848 255.409173,37.6506667 L253.387307,32.6581333 C253.24384,32.3024 253.10304,31.9685333 252.967573,31.6570667 C252.83104,31.3461333 252.68864,31.0426667 252.538773,30.7482667 C252.383573,30.448 252.260373,30.2586667 252.17184,30.1808 C252.083307,30.1034667 251.921707,30.0528 251.689707,30.0309333 L251.689707,29.6229333 L255.952107,29.6229333 L255.952107,30.0309333 C255.68544,30.0362667 255.46784,30.0672 255.297707,30.1226667 C255.128107,30.1781333 255.04384,30.2976 255.04384,30.4810667 C255.04384,30.52 255.052907,30.5728 255.073173,30.6394667 C255.092907,30.7056 255.135573,30.8256 255.20224,30.9978667 L256.56064,34.3525333 L256.644907,34.3525333 L257.767573,31.3562667 C257.82304,31.1893333 257.868907,31.0437333 257.905173,30.9184 C257.940373,30.7936 257.959573,30.6837333 257.959573,30.5893333 C257.959573,30.3504 257.880107,30.1989333 257.721707,30.1349333 C257.563307,30.0714667 257.329173,30.0362667 257.017707,30.0309333 L257.017707,29.6229333 L259.600107,29.6229333 L259.600107,30.0309333 C259.37824,30.0474667 259.19584,30.1072 259.053973,30.2096 C258.913707,30.3125333 258.767573,30.5610667 258.617707,30.9552 L256.068907,37.7589333 C255.573973,39.0128 255.14784,39.8656 254.790507,40.3152 C254.433173,40.7642667 253.874773,40.9893333 253.113707,40.9893333 C252.558507,40.9893333 252.13664,40.8517333 251.848107,40.5776 C251.558507,40.3024 251.414507,40.0016 251.414507,39.6736 C251.414507,39.2853333 251.534507,38.9994667 251.772907,38.816" id="Fill-45" fill="#85674C"></path><path d="M264.4552,36.2504 C264.588533,36.1506667 264.745867,35.9949333 264.929333,35.7832 L264.929333,33.2866667 C264.473867,33.3981333 264.073867,33.5730667 263.7304,33.8125333 C263.148,34.2189333 262.856267,34.7368 262.856267,35.3656 C262.856267,35.7389333 262.940533,36.0210667 263.110667,36.2130667 C263.2792,36.4050667 263.4696,36.5010667 263.680267,36.5010667 C263.958133,36.5010667 264.215733,36.4173333 264.4552,36.2504 M261.4824,34.0552 C262.22,33.6050667 263.377867,33.1517333 264.9544,32.6952 L264.9544,31.4546667 C264.9544,30.9496 264.847733,30.5762667 264.633333,30.3346667 C264.42,30.0936 264.041867,29.9725333 263.4968,29.9725333 C263.191733,29.9725333 262.940533,30.0296 262.743733,30.1432 C262.546933,30.2573333 262.447733,30.4002667 262.447733,30.572 C262.447733,30.6386667 262.459467,30.6941333 262.481333,30.7389333 C262.5032,30.7832 262.536267,30.8301333 262.581067,30.8802667 L262.681333,30.9965333 C262.758133,31.0914667 262.821067,31.1954667 262.868533,31.3090667 C262.915467,31.4226667 262.939467,31.5437333 262.939467,31.6712 C262.939467,31.9933333 262.832267,32.2418667 262.618933,32.4168 C262.405067,32.5917333 262.156,32.6786667 261.8728,32.6786667 C261.545867,32.6786667 261.2664,32.5821333 261.036533,32.388 C260.806133,32.1944 260.6904,31.9149333 260.6904,31.5496 C260.6904,30.8957333 260.9992,30.3778667 261.615733,29.996 C262.2312,29.6141333 262.9896,29.4232 263.888267,29.4232 C264.854133,29.4232 265.662667,29.6088 266.3112,29.9810667 C266.955467,30.3586667 267.278133,31.052 267.278133,32.0626667 L267.278133,36.1933333 C267.278133,36.3149333 267.3096,36.4189333 267.374133,36.5053333 C267.4376,36.5917333 267.508533,36.6344 267.585333,36.6344 C267.652,36.6344 267.712267,36.6216 267.764533,36.5965333 C267.817867,36.572 267.898933,36.5042667 268.0104,36.3933333 L268.268533,36.7506667 C267.9352,37.1394667 267.566667,37.412 267.161333,37.5672 C266.9064,37.6669333 266.636533,37.7170667 266.353333,37.7170667 C265.847733,37.7170667 265.4792,37.5698667 265.2456,37.2749333 C265.112267,37.108 265.015733,36.8610667 264.9544,36.532 C264.4824,37.0050667 263.950133,37.3384 263.354933,37.5330667 C262.994933,37.6557333 262.639733,37.7170667 262.289333,37.7170667 C261.822667,37.7170667 261.387467,37.5682667 260.982133,37.2706667 C260.577333,36.9730667 260.374133,36.5101333 260.374133,35.8818667 C260.374133,35.1144 260.743733,34.5058667 261.4824,34.0552" id="Fill-47" fill="#85674C"></path><path d="M273.04064,37.04256 C273.50624,37.0260267 273.839573,36.9646933 274.039573,36.8590933 C274.37824,36.68096 274.546773,36.3422933 274.546773,35.84256 L274.546773,27.5828267 C274.546773,27.0868267 274.38624,26.75296 274.06464,26.58176 C273.87584,26.4772267 273.534507,26.4110933 273.04064,26.38336 L273.04064,25.9502933 L279.00224,25.9502933 L279.00224,26.38336 C278.308373,26.40576 277.845973,26.5022933 277.615573,26.6734933 C277.385173,26.8446933 277.27104,27.2670933 277.27104,27.9406933 L277.27104,36.0004267 C277.27104,36.37856 277.36864,36.6286933 277.56544,36.7508267 C277.762773,36.8734933 278.14784,36.9342933 278.719573,36.9342933 C279.745707,36.9342933 280.608107,36.70816 281.305173,36.25536 C282.00224,35.8030933 282.60224,34.9214933 283.108373,33.6116267 L283.607573,33.6116267 L282.916907,37.47616 L273.04064,37.47616 L273.04064,37.04256 Z" id="Fill-49" fill="#85674C"></path><path d="M285.518773,26.07952 C285.776907,25.8213867 286.088373,25.69232 286.455307,25.69232 C286.81584,25.69232 287.12624,25.8213867 287.383307,26.07952 C287.64144,26.3376533 287.77104,26.6496533 287.77104,27.0160533 C287.77104,27.3824533 287.64144,27.6949867 287.383307,27.95312 C287.12624,28.2112533 286.81584,28.34032 286.455307,28.34032 C286.088373,28.34032 285.776907,28.2112533 285.518773,27.95312 C285.26064,27.6949867 285.13104,27.3824533 285.13104,27.0160533 C285.13104,26.6496533 285.26064,26.3376533 285.518773,26.07952 Z M284.38224,37.0677867 C284.68144,37.0176533 284.88624,36.9424533 284.997707,36.84272 C285.16464,36.69232 285.24784,36.42352 285.24784,36.03472 L285.24784,31.02192 C285.24784,30.67472 285.189707,30.43792 285.072907,30.3120533 C284.956107,30.1861867 284.72624,30.09232 284.38224,30.0309867 L284.38224,29.6229867 L287.65424,29.6229867 L287.65424,36.1013867 C287.65424,36.47312 287.709173,36.7125867 287.82064,36.8176533 C287.932107,36.9232533 288.14064,37.00592 288.445707,37.0677867 L288.445707,37.4752533 L284.38224,37.4752533 L284.38224,37.0677867 Z" id="Fill-51" fill="#85674C"></path><path d="M289.120853,37.0675733 C289.431253,37.02864 289.644587,36.9619733 289.761387,36.8675733 C289.950187,36.7177067 290.044587,36.43984 290.044587,36.0345067 L290.044587,31.0217067 C290.044587,30.6633067 289.98112,30.4201067 289.85312,30.29104 C289.72512,30.1625067 289.481387,30.0755733 289.120853,30.0307733 L289.120853,29.6227733 L292.351253,29.6227733 L292.351253,30.8467733 C292.634453,30.47504 292.909653,30.1865067 293.17632,29.98064 C293.669653,29.6089067 294.220053,29.4233067 294.824853,29.4233067 C295.50752,29.4233067 296.037653,29.58384 296.41472,29.9059733 C296.62592,30.08944 296.82592,30.3891733 297.01472,30.8051733 L297.132053,30.8051733 C297.45312,30.41104 297.761387,30.1139733 298.055253,29.9139733 C298.52192,29.58704 299.030187,29.4233067 299.578987,29.4233067 C300.178987,29.4233067 300.70752,29.61424 301.165653,29.9977067 C301.623787,30.38064 301.85312,30.9859733 301.85312,31.81264 L301.85312,36.1011733 C301.85312,36.49584 301.916587,36.7465067 302.044587,36.8553067 C302.172053,36.9635733 302.39712,37.0345067 302.71872,37.0675733 L302.71872,37.4755733 L298.671787,37.4755733 L298.671787,37.0675733 C298.982187,37.0227733 299.19872,36.9465067 299.320853,36.83824 C299.44352,36.7299733 299.50432,36.4841067 299.50432,36.1011733 L299.50432,31.97104 C299.50432,31.5267733 299.439787,31.1827733 299.308587,30.9385067 C299.17792,30.69424 298.930453,30.5721067 298.56352,30.5721067 C298.268587,30.5721067 297.959253,30.7065067 297.63552,30.97584 C297.310187,31.2451733 297.148053,31.4329067 297.148053,31.5379733 L297.148053,36.1011733 C297.148053,36.47344 297.202987,36.7123733 297.314453,36.81744 C297.424853,36.92304 297.633387,37.00624 297.938453,37.0675733 L297.938453,37.4755733 L293.950187,37.4755733 L293.950187,37.0675733 C294.24992,37.02864 294.463787,36.95504 294.591787,36.8467733 C294.71872,36.7385067 294.783253,36.4899733 294.783253,36.1011733 L294.783253,31.97104 C294.783253,31.5379733 294.72192,31.19664 294.599787,30.9465067 C294.47712,30.6969067 294.224853,30.5721067 293.84192,30.5721067 C293.492587,30.5721067 293.167787,30.71504 292.86752,31.0009067 C292.567787,31.2867733 292.41792,31.4659733 292.41792,31.5379733 L292.41792,36.1011733 C292.41792,36.47344 292.47072,36.7123733 292.57632,36.81744 C292.681387,36.92304 292.889387,37.00624 293.200853,37.0675733 L293.200853,37.4755733 L289.120853,37.4755733 L289.120853,37.0675733 Z" id="Fill-53" fill="#85674C"></path><path d="M304.46352,26.07952 C304.721653,25.8213867 305.03312,25.69232 305.400053,25.69232 C305.760587,25.69232 306.070987,25.8213867 306.328053,26.07952 C306.585653,26.3376533 306.715787,26.6496533 306.715787,27.0160533 C306.715787,27.3824533 306.585653,27.6949867 306.328053,27.95312 C306.070987,28.2112533 305.760587,28.34032 305.400053,28.34032 C305.03312,28.34032 304.721653,28.2112533 304.46352,27.95312 C304.205387,27.6949867 304.075787,27.3824533 304.075787,27.0160533 C304.075787,26.6496533 304.205387,26.3376533 304.46352,26.07952 Z M303.326987,37.0677867 C303.626187,37.0176533 303.830987,36.9424533 303.942453,36.84272 C304.109387,36.69232 304.192587,36.42352 304.192587,36.03472 L304.192587,31.02192 C304.192587,30.67472 304.134453,30.43792 304.017653,30.3120533 C303.900853,30.1861867 303.670987,30.09232 303.326987,30.0309867 L303.326987,29.6229867 L306.598987,29.6229867 L306.598987,36.1013867 C306.598987,36.47312 306.65392,36.7125867 306.765387,36.8176533 C306.876853,36.9232533 307.085387,37.00592 307.390453,37.0677867 L307.390453,37.4752533 L303.326987,37.4752533 L303.326987,37.0677867 Z" id="Fill-55" fill="#85674C"></path><path d="M308.064587,30.3722667 L308.064587,29.8976 C308.214453,29.7589333 308.400053,29.5952 308.622987,29.4064 C308.916853,29.1344 309.19472,28.8538667 309.454987,28.5653333 C309.971787,27.9989333 310.440587,27.3909333 310.862453,26.7413333 L311.296053,26.7413333 L311.296053,29.6229333 L312.920053,29.6229333 L312.920053,30.3722667 L311.296053,30.3722667 L311.296053,35.5018667 C311.296053,35.7402667 311.331253,35.9402667 311.40432,36.1013333 C311.51472,36.3514667 311.698187,36.4757333 311.95312,36.4757333 C312.174987,36.4757333 312.361653,36.3973333 312.51152,36.2389333 C312.661387,36.0805333 312.811253,35.8629333 312.961653,35.5850667 L313.368587,35.7850667 C313.169653,36.2512 312.931253,36.6314667 312.653387,36.9258667 C312.165387,37.4421333 311.569653,37.7002667 310.864587,37.7002667 C310.465653,37.7002667 310.116853,37.6256 309.816587,37.4752 C309.23952,37.1866667 308.94992,36.6624 308.94672,35.9013333 L308.94672,30.3722667 L308.064587,30.3722667 Z" id="Fill-57" fill="#85674C"></path><path d="M318.515627,32.66208 C318.504427,31.65728 318.426027,30.95488 318.281493,30.5554133 C318.136427,30.1554133 317.846827,29.9559467 317.412693,29.9559467 C316.966827,29.9559467 316.661227,30.1863467 316.49696,30.6471467 C316.33216,31.1079467 316.23936,31.7794133 316.216427,32.66208 L318.515627,32.66208 Z M314.89056,30.5095467 C315.587627,29.7847467 316.42816,29.4231467 317.412693,29.4231467 C317.97376,29.4231467 318.502293,29.5703467 318.996693,29.8642133 C319.49056,30.1586133 319.871893,30.5666133 320.13856,31.0882133 C320.33856,31.48288 320.477227,31.99328 320.555093,32.62048 C320.59456,32.91488 320.61376,33.1399467 320.61376,33.2951467 L316.25856,33.2951467 C316.298027,33.9778133 316.408427,34.56928 316.59296,35.0690133 C316.926293,36.0071467 317.513493,36.4759467 318.35296,36.4759467 C318.75296,36.4759467 319.13216,36.3511467 319.48736,36.1015467 C319.70496,35.9511467 319.974827,35.69888 320.29696,35.34368 L320.688427,35.5847467 C320.160427,36.45088 319.549227,37.0535467 318.854293,37.3922133 C318.40416,37.6087467 317.88736,37.7170133 317.304427,37.7170133 C316.464427,37.7170133 315.678293,37.38688 314.943893,36.72608 C314.21056,36.06528 313.843627,35.0103467 313.843627,33.5618133 C313.843627,32.2514133 314.19296,31.2338133 314.89056,30.5095467 Z" id="Fill-59" fill="#85674C"></path><path d="M326.320853,36.2597333 C326.613653,35.9322667 326.759253,35.7018667 326.759253,35.5685333 L326.759253,31.4213333 C326.759253,31.2826667 326.634453,31.0773333 326.383253,30.8053333 C326.13312,30.5333333 325.80192,30.3973333 325.389653,30.3973333 C324.783253,30.3973333 324.370987,30.8165333 324.154453,31.6544 C324.036587,32.104 323.97792,32.7397333 323.97792,33.5616 C323.97792,34.4384 324.034453,35.0992 324.14592,35.5434667 C324.351253,36.3482667 324.746987,36.7509333 325.332053,36.7509333 C325.698987,36.7509333 326.02912,36.5872 326.320853,36.2597333 M322.433387,30.5930667 C323.074987,29.8128 323.844587,29.4229333 324.744853,29.4229333 C325.19392,29.4229333 325.59392,29.5338667 325.943787,29.7562667 C326.16032,29.8890667 326.43232,30.128 326.759253,30.472 L326.759253,27.3493333 C326.759253,26.9184 326.676053,26.6506667 326.509653,26.5477333 C326.343787,26.4437333 325.99872,26.3808 325.47712,26.3584 L325.47712,25.9504 L329.150187,25.9504 L329.150187,35.7685333 C329.150187,36.1205333 329.216853,36.3642667 329.34912,36.4992 C329.482453,36.6336 329.743787,36.7178667 330.132053,36.7509333 L330.132053,37.1418667 C329.176853,37.2368 328.561387,37.3077333 328.28352,37.3546667 C328.006187,37.4021333 327.517653,37.5221333 326.81792,37.7168 L326.81792,36.5925333 C326.495787,36.9258667 326.20192,37.1728 325.935253,37.3338667 C325.513387,37.5888 325.058453,37.7168 324.56992,37.7168 C323.73632,37.7168 323.012587,37.3642667 322.396053,36.6592 C321.780053,35.9541333 321.471787,34.9968 321.471787,33.7861333 C321.471787,32.4373333 321.792853,31.3728 322.433387,30.5930667" id="Fill-61" fill="#85674C"></path><path d="M1.39034667,47.87328 L1.39034667,35.54528 C1.39034667,35.54528 4.60794667,33.8247467 4.29381333,30.3719467 C4.29381333,30.3719467 11.9855467,25.6626133 6.64848,12.3207467 C6.64848,12.3207467 3.50928,7.14101333 0.52688,5.41461333 L5.70661333,0.23488 L15.75248,0.23488 C15.75248,0.23488 15.90928,0.862613333 17.32208,1.01941333 C17.32208,1.01941333 17.63568,1.33354667 19.3626133,1.49034667 L25.4842133,1.80448 L26.58288,2.74634667 L27.99568,2.74634667 L27.99568,4.15914667 L30.3498133,4.31594667 L31.9194133,4.94368 C31.9194133,4.94368 34.11728,9.02474667 35.2159467,9.33888 C35.2159467,9.33888 37.09968,10.5943467 39.4538133,10.5943467 C39.4538133,10.5943467 41.9658133,11.8503467 43.8490133,10.4375467 C43.8490133,10.4375467 45.4186133,9.65248 45.10448,6.35648 L60.8010133,6.35648 C60.8010133,6.35648 56.2490133,13.5767467 54.9930133,16.87328 L54.5226133,39.4754133 C54.5226133,39.4754133 55.77808,42.77248 57.9759467,43.0855467 L50.5983467,52.66048 L49.3423467,54.23008 L48.7146133,54.23008 L48.40048,56.1138133 L46.2031467,58.3106133 L46.2031467,60.0375467 C46.2031467,60.0375467 45.4186133,61.7639467 44.3199467,61.92128 C44.3199467,61.92128 42.7503467,63.3335467 43.53488,64.2754133 L38.3551467,71.0642133 L26.11248,63.5303467 C26.11248,63.5303467 26.58288,61.1751467 24.11088,60.4690133 L14.4575467,53.99488 L13.9866133,53.17088 L6.92368,49.4034133 L6.68794667,48.10848 L1.39034667,47.87328 Z" id="Fill-63" fill="#85674C"></path><path d="M15.7346133,46.8920533 L11.8722133,42.70752 L12.0850133,42.4509867 C12.6002133,41.83072 14.35488,39.55392 15.3111467,36.3229867 C16.3287467,32.8856533 16.5927467,27.6493867 12.0738133,22.2237867 L11.8722133,21.9816533 L14.76448,18.4472533 L14.9943467,18.49952 C15.3735467,18.5848533 16.3890133,18.78432 17.6263467,18.78432 C19.8615467,18.78432 23.7154133,18.0701867 24.41728,13.28512 L24.46528,12.9597867 L33.8530133,12.9597867 L33.8711467,13.3213867 C33.9138133,14.1533867 34.1698133,16.2488533 35.6327467,17.7373867 C36.6434133,18.7661867 38.0375467,19.2877867 39.7778133,19.2877867 C40.8642133,19.2877867 42.1015467,19.0813867 43.4535467,18.67552 L43.7063467,18.5992533 L46.2818133,21.9800533 L46.10848,22.2104533 C45.5890133,22.9021867 43.8162133,25.42112 42.84768,28.8120533 C41.83328,32.3629867 41.56608,37.5864533 46.0567467,42.3000533 L46.2887467,42.5432533 L42.7522133,46.8824533 L42.46208,46.6797867 C41.6103467,46.0829867 38.56448,44.1384533 35.1314133,44.1384533 C32.89728,44.1384533 30.9463467,44.9752533 29.3335467,46.62592 L29.08448,46.8808533 L28.81408,46.64992 C28.02528,45.9789867 25.1927467,43.7896533 21.8471467,43.7896533 C19.6706133,43.7896533 17.7079467,44.7304533 16.01408,46.58592 L15.7346133,46.8920533 Z" id="Fill-65" fill="#FFFFFE"></path><polygon id="Fill-67" fill="#85674C" points="19.90704 26.8373333 21.56784 26.8373333 21.56784 36.0757333 26.5417067 36.0757333 26.5417067 36.7173333 19.90704 36.7173333"></polygon><polygon id="Fill-69" fill="#85674C" points="27.9232 36.7173333 29.584 36.7173333 29.584 26.8373333 27.9232 26.8373333"></polygon><polygon id="Fill-71" fill="#85674C" points="32.0672 26.8373333 33.728 26.8373333 33.728 31.2149333 38.928 26.8373333 40.0074667 26.8373333 35.0709333 30.9888 41.336 36.7173333 39.2229333 36.7173333 33.728 31.6981333 33.728 36.7173333 32.0672 36.7173333"></polygon></g></g></svg> 