<?xml version="1.0" encoding="UTF-8"?> <svg xmlns="http://www.w3.org/2000/svg" xmlns:xlink="http://www.w3.org/1999/xlink" width="90px" height="72px" viewBox="0 0 90 72"><!-- Generator: Sketch 50.2 (55047) - http://www.bohemiancoding.com/sketch --><title>UFM Logo</title><desc>Created with Sketch.</desc><defs></defs><g id="UFM-Logo" stroke="none" stroke-width="1" fill="none" fill-rule="evenodd"><g id="Group" fill="#952529"><polygon id="Fill-1" points="3.68464433 44.2795034 0.119225616 41.3081734 54.1960138 0.701060099 57.7616099 3.27621281"></polygon><polygon id="Fill-2" points="31.218402 67.2573281 34.7838207 69.6342148 88.8607862 28.8290128 85.0969241 26.2538601"></polygon><polygon id="Fill-3" points="54.9883507 69.634268 57.7615921 65.8705833 4.67524729 26.2539133 0.911562562 28.6309773"></polygon><polygon id="Fill-4" points="86.2855626 44.2795034 89.8509813 41.1102621 35.9724591 0.701060099 32.4068631 3.27621281"></polygon><polygon id="Fill-5" points="8.04271921 46.062266 11.6081379 46.062266 11.6081379 23.6789557 8.04271921 23.6789557"></polygon><polygon id="Fill-6" points="12.7964926 46.062266 16.3620887 46.062266 16.3620887 23.6789557 12.7964926 23.6789557"></polygon><polygon id="Fill-7" points="40.7264631 22.4902463 44.2920591 22.4902463 44.2920591 0.106935961 40.7264631 0.106935961"></polygon><polygon id="Fill-8" points="45.4804138 22.4902463 49.0460099 22.4902463 49.0460099 0.106935961 45.4804138 0.106935961"></polygon><polygon id="Fill-9" points="73.0142069 46.062266 76.5796256 46.062266 76.5796256 23.6789557 73.0142069 23.6789557"></polygon><polygon id="Fill-10" points="77.768335 46.062266 81.3335764 46.062266 81.3335764 23.6789557 77.768335 23.6789557"></polygon><polygon id="Fill-11" points="40.1320197 72.0113498 43.6976158 72.0113498 43.6976158 49.6278621 40.1320197 49.6278621"></polygon><polygon id="Fill-12" points="44.8863251 72.0113498 48.4515665 72.0113498 48.4515665 49.6278621 44.8863251 49.6278621"></polygon><polygon id="Fill-13" points="38.7886877 25.1680966 50.4686483 25.1680966 50.4686483 29.0085695 43.126067 29.0085695 43.126067 33.7401754 49.9866384 33.7401754 49.9866384 37.5499685 43.126067 37.5499685 43.126067 45.8760768 38.7886877 45.8760768"></polygon><g id="Group-18" transform="translate(25.714286, 29.488079)"><path d="M2.78288867,0.0320453202 L2.78288867,6.97454778 C2.78288867,9.05048867 3.57027783,10.1060158 4.96594286,10.1060158 C6.39743054,10.1060158 7.18464236,9.10404532 7.18464236,6.97454778 L7.18464236,0.0320453202 L9.90450443,0.0320453202 L9.90450443,6.79578916 C9.90450443,10.5176217 8.02576552,12.28907 4.87656355,12.28907 C1.83447488,12.28907 0.0451152709,10.607001 0.0451152709,6.7599665 L0.0451152709,0.0320453202 L2.78288867,0.0320453202 Z" id="Fill-14"></path><path d="M35.9497773,7.47581675 C35.8960433,6.02641773 35.842664,4.27288079 35.842664,2.51934384 L35.78893,2.51934384 C35.4131468,4.05812217 34.9118069,5.77601379 34.4468217,7.18941281 L32.9795113,11.8954818 L30.8501911,11.8954818 L29.5619941,7.22505813 C29.1682995,5.81165911 28.7565163,4.09376749 28.470467,2.51934384 L28.4346443,2.51934384 C28.362999,4.14750148 28.309265,6.0085064 28.2198857,7.51146207 L28.0051271,12.0921517 L25.4822897,12.0921517 L26.2515901,0.0319743842 L29.883866,0.0319743842 L31.0649498,4.05812217 C31.440733,5.45378719 31.8163389,6.9569202 32.0848315,8.37031921 L32.1385655,8.37031921 C32.4787034,6.97465419 32.8899547,5.38214187 33.2838266,4.04021084 L34.5720236,0.0319743842 L38.1330089,0.0319743842 L38.7948414,12.0921517 L36.1287133,12.0921517 L35.9497773,7.47581675 Z" id="Fill-16"></path></g></g></g></svg> 